<svg xmlns="http://www.w3.org/2000/svg" xmlns:xlink="http://www.w3.org/1999/xlink" width="500" zoomAndPan="magnify" viewBox="0 0 375 374.999991" height="500" preserveAspectRatio="xMidYMid meet" version="1.0"><defs><g/><clipPath id="729c4e9c93"><path d="M 131.164062 106.101562 L 243.664062 106.101562 L 243.664062 205.851562 L 131.164062 205.851562 Z M 131.164062 106.101562 " clip-rule="nonzero"/></clipPath></defs><g fill="#d9d9d9" fill-opacity="1"><g transform="translate(96.682945, 242.431846)"><g><path d="M 2.78125 0 C 2.832031 -0.34375 2.859375 -0.722656 2.859375 -1.140625 L 2.859375 -20.390625 L 5.9375 -20.390625 L 14.0625 -7.609375 L 14.0625 -19.34375 C 14.0625 -19.90625 14.007812 -20.253906 13.90625 -20.390625 L 18.046875 -20.390625 C 17.992188 -19.972656 17.96875 -19.519531 17.96875 -19.03125 L 17.96875 0 L 14.78125 0 L 6.78125 -12.28125 L 6.78125 0 Z M 2.78125 0 "/></g></g></g><g fill="#d9d9d9" fill-opacity="1"><g transform="translate(121.911821, 242.431846)"><g><path d="M 12.890625 -3.671875 C 13.523438 -3.671875 13.960938 -3.734375 14.203125 -3.859375 L 14.265625 -3.84375 L 14.109375 0 L 2.640625 0 L 2.640625 -20.5 C 2.910156 -20.476562 3.21875 -20.460938 3.5625 -20.453125 L 4.625 -20.421875 C 5.34375 -20.398438 6.117188 -20.390625 6.953125 -20.390625 C 9.296875 -20.390625 11.613281 -20.429688 13.90625 -20.515625 C 13.789062 -19.609375 13.734375 -18.40625 13.734375 -16.90625 C 13.734375 -16.738281 13.742188 -16.613281 13.765625 -16.53125 L 13.734375 -16.5 C 13.203125 -16.644531 12.445312 -16.71875 11.46875 -16.71875 L 6.640625 -16.71875 L 6.640625 -12.8125 L 10.265625 -12.8125 C 11.390625 -12.8125 12.066406 -12.84375 12.296875 -12.90625 L 12.34375 -9.125 C 11.851562 -9.175781 11.21875 -9.203125 10.4375 -9.203125 L 6.640625 -9.203125 L 6.640625 -3.671875 Z M 12.890625 -3.671875 "/></g></g></g><g fill="#d9d9d9" fill-opacity="1"><g transform="translate(142.035853, 242.431846)"><g><path d="M 11.9375 -18.90625 C 12.15625 -19.351562 12.265625 -19.6875 12.265625 -19.90625 C 12.265625 -20.125 12.242188 -20.285156 12.203125 -20.390625 L 17.71875 -20.390625 C 17.601562 -20.265625 17.457031 -20.117188 17.28125 -19.953125 C 17.113281 -19.785156 16.921875 -19.582031 16.703125 -19.34375 C 16.191406 -18.769531 15.722656 -18.101562 15.296875 -17.34375 L 11.609375 -10.609375 L 15.046875 -4.125 L 15.46875 -3.28125 C 16.238281 -1.664062 16.894531 -0.570312 17.4375 0 L 12.453125 0 C 12.410156 -0.351562 12.234375 -0.832031 11.921875 -1.4375 L 8.921875 -7.203125 C 6.804688 -2.921875 5.722656 -0.710938 5.671875 -0.578125 C 5.617188 -0.410156 5.578125 -0.21875 5.546875 0 L 0.546875 0 C 0.929688 -0.382812 1.320312 -0.929688 1.71875 -1.640625 L 3.5625 -4.90625 L 6.828125 -10.4375 L 2.53125 -18.515625 C 2.070312 -19.378906 1.664062 -20.003906 1.3125 -20.390625 L 6.46875 -20.390625 C 6.425781 -20.285156 6.40625 -20.171875 6.40625 -20.046875 C 6.40625 -19.773438 6.535156 -19.394531 6.796875 -18.90625 L 9.34375 -13.78125 Z M 11.9375 -18.90625 "/></g></g></g><g fill="#d9d9d9" fill-opacity="1"><g transform="translate(164.719975, 242.431846)"><g><path d="M 10 0.09375 C 9.5 0.03125 8.234375 0 6.203125 0 L 5.71875 0 L 5.71875 -16.953125 L 2.6875 -16.953125 C 1.78125 -16.953125 1.242188 -16.90625 1.078125 -16.8125 C 0.921875 -16.71875 0.796875 -16.632812 0.703125 -16.5625 L 0.65625 -16.578125 L 0.65625 -20.515625 L 0.703125 -20.546875 C 1.035156 -20.441406 1.945312 -20.390625 3.4375 -20.390625 L 13.046875 -20.390625 C 13.941406 -20.390625 14.472656 -20.429688 14.640625 -20.515625 C 14.804688 -20.609375 14.929688 -20.691406 15.015625 -20.765625 L 15.0625 -20.75 L 15.0625 -16.828125 L 15.015625 -16.78125 C 14.679688 -16.894531 13.773438 -16.953125 12.296875 -16.953125 L 10 -16.953125 Z M 10 0.09375 "/></g></g></g><g fill="#d9d9d9" fill-opacity="1"><g transform="translate(184.844005, 242.431846)"><g/></g></g><g fill="#d9d9d9" fill-opacity="1"><g transform="translate(199.648575, 242.431846)"><g><path d="M 14.9375 -19.25 L 14.65625 -14.75 L 14.546875 -14.71875 C 13.785156 -15.851562 12.5 -16.585938 10.6875 -16.921875 C 10.113281 -17.035156 9.5625 -17.09375 9.03125 -17.09375 C 8.507812 -17.09375 8.0625 -17.046875 7.6875 -16.953125 C 7.3125 -16.859375 6.992188 -16.722656 6.734375 -16.546875 C 6.171875 -16.179688 5.890625 -15.703125 5.890625 -15.109375 C 5.890625 -14.335938 6.132812 -13.753906 6.625 -13.359375 C 7.238281 -12.890625 8.253906 -12.5625 9.671875 -12.375 C 11.085938 -12.1875 12.222656 -11.925781 13.078125 -11.59375 C 13.941406 -11.269531 14.648438 -10.859375 15.203125 -10.359375 C 16.242188 -9.421875 16.765625 -8.09375 16.765625 -6.375 C 16.765625 -4.125 15.914062 -2.394531 14.21875 -1.1875 C 12.769531 -0.132812 10.941406 0.390625 8.734375 0.390625 C 6.953125 0.390625 5.195312 0.0507812 3.46875 -0.625 C 2.894531 -0.851562 2.394531 -1.113281 1.96875 -1.40625 L 2.125 -6.53125 L 2.1875 -6.578125 C 3.457031 -4.390625 5.539062 -3.296875 8.4375 -3.296875 C 10.488281 -3.296875 11.84375 -3.789062 12.5 -4.78125 C 12.726562 -5.113281 12.84375 -5.488281 12.84375 -5.90625 C 12.84375 -6.320312 12.773438 -6.664062 12.640625 -6.9375 C 12.515625 -7.207031 12.296875 -7.441406 11.984375 -7.640625 C 11.390625 -8.023438 10.390625 -8.28125 8.984375 -8.40625 C 7.585938 -8.539062 6.445312 -8.789062 5.5625 -9.15625 C 4.675781 -9.53125 3.96875 -9.988281 3.4375 -10.53125 C 2.476562 -11.507812 2 -12.878906 2 -14.640625 C 2 -16.453125 2.632812 -17.921875 3.90625 -19.046875 C 5.207031 -20.191406 6.957031 -20.765625 9.15625 -20.765625 C 11.363281 -20.765625 13.289062 -20.257812 14.9375 -19.25 Z M 14.9375 -19.25 "/></g></g></g><g fill="#d9d9d9" fill-opacity="1"><g transform="translate(222.332692, 242.431846)"><g><path d="M 10 0.09375 C 9.5 0.03125 8.234375 0 6.203125 0 L 5.71875 0 L 5.71875 -16.953125 L 2.6875 -16.953125 C 1.78125 -16.953125 1.242188 -16.90625 1.078125 -16.8125 C 0.921875 -16.71875 0.796875 -16.632812 0.703125 -16.5625 L 0.65625 -16.578125 L 0.65625 -20.515625 L 0.703125 -20.546875 C 1.035156 -20.441406 1.945312 -20.390625 3.4375 -20.390625 L 13.046875 -20.390625 C 13.941406 -20.390625 14.472656 -20.429688 14.640625 -20.515625 C 14.804688 -20.609375 14.929688 -20.691406 15.015625 -20.765625 L 15.0625 -20.75 L 15.0625 -16.828125 L 15.015625 -16.78125 C 14.679688 -16.894531 13.773438 -16.953125 12.296875 -16.953125 L 10 -16.953125 Z M 10 0.09375 "/></g></g></g><g fill="#d9d9d9" fill-opacity="1"><g transform="translate(242.456722, 242.431846)"><g><path d="M 12.890625 -3.671875 C 13.523438 -3.671875 13.960938 -3.734375 14.203125 -3.859375 L 14.265625 -3.84375 L 14.109375 0 L 2.640625 0 L 2.640625 -20.5 C 2.910156 -20.476562 3.21875 -20.460938 3.5625 -20.453125 L 4.625 -20.421875 C 5.34375 -20.398438 6.117188 -20.390625 6.953125 -20.390625 C 9.296875 -20.390625 11.613281 -20.429688 13.90625 -20.515625 C 13.789062 -19.609375 13.734375 -18.40625 13.734375 -16.90625 C 13.734375 -16.738281 13.742188 -16.613281 13.765625 -16.53125 L 13.734375 -16.5 C 13.203125 -16.644531 12.445312 -16.71875 11.46875 -16.71875 L 6.640625 -16.71875 L 6.640625 -12.8125 L 10.265625 -12.8125 C 11.390625 -12.8125 12.066406 -12.84375 12.296875 -12.90625 L 12.34375 -9.125 C 11.851562 -9.175781 11.21875 -9.203125 10.4375 -9.203125 L 6.640625 -9.203125 L 6.640625 -3.671875 Z M 12.890625 -3.671875 "/></g></g></g><g fill="#d9d9d9" fill-opacity="1"><g transform="translate(262.580762, 242.431846)"><g><path d="M 2.34375 -20.5 C 3.757812 -20.675781 5.21875 -20.765625 6.71875 -20.765625 C 9.488281 -20.765625 11.597656 -20.113281 13.046875 -18.8125 C 14.492188 -17.507812 15.21875 -15.5625 15.21875 -12.96875 C 15.21875 -10.644531 14.425781 -8.8125 12.84375 -7.46875 C 11.363281 -6.195312 9.457031 -5.5625 7.125 -5.5625 C 6.863281 -5.5625 6.570312 -5.578125 6.25 -5.609375 L 6.25 0 L 2.34375 0 Z M 7.171875 -17.078125 C 6.867188 -17.078125 6.5625 -17.066406 6.25 -17.046875 L 6.25 -8.984375 C 6.582031 -8.941406 6.984375 -8.921875 7.453125 -8.921875 C 7.921875 -8.921875 8.410156 -9.019531 8.921875 -9.21875 C 9.429688 -9.414062 9.859375 -9.695312 10.203125 -10.0625 C 10.929688 -10.800781 11.296875 -11.78125 11.296875 -13 C 11.296875 -15.71875 9.921875 -17.078125 7.171875 -17.078125 Z M 7.171875 -17.078125 "/></g></g></g><g fill="#d9d9d9" fill-opacity="1"><g transform="translate(153.682962, 266.169843)"><g><path d="M 7.078125 -1.109375 C 7.097656 -0.816406 7.171875 -0.601562 7.296875 -0.46875 C 7.421875 -0.34375 7.5625 -0.273438 7.71875 -0.265625 L 7.671875 0 C 7.210938 -0.03125 6.570312 -0.046875 5.75 -0.046875 C 4.84375 -0.046875 4.175781 -0.03125 3.75 0 L 3.8125 -0.265625 C 4.113281 -0.285156 4.347656 -0.320312 4.515625 -0.375 C 4.679688 -0.4375 4.796875 -0.539062 4.859375 -0.6875 C 4.929688 -0.84375 4.960938 -1.070312 4.953125 -1.375 L 4.828125 -3.5625 L 1.96875 -3.5625 L 0.796875 -1.890625 C 0.515625 -1.492188 0.375 -1.171875 0.375 -0.921875 C 0.375 -0.703125 0.46875 -0.539062 0.65625 -0.4375 C 0.84375 -0.34375 1.117188 -0.285156 1.484375 -0.265625 L 1.421875 0 C 0.679688 -0.03125 0.101562 -0.046875 -0.3125 -0.046875 C -0.632812 -0.046875 -0.9375 -0.03125 -1.21875 0 L -1.171875 -0.265625 C -0.941406 -0.328125 -0.71875 -0.457031 -0.5 -0.65625 C -0.28125 -0.863281 -0.00390625 -1.203125 0.328125 -1.671875 L 5.859375 -9.453125 C 5.941406 -9.441406 6.054688 -9.4375 6.203125 -9.4375 C 6.367188 -9.4375 6.484375 -9.441406 6.546875 -9.453125 Z M 4.8125 -3.828125 L 4.640625 -7.328125 L 2.15625 -3.828125 Z M 4.8125 -3.828125 "/></g></g></g><g fill="#d9d9d9" fill-opacity="1"><g transform="translate(163.99568, 266.169843)"><g><path d="M 0.984375 -0.1875 C 1.117188 -0.125 1.289062 -0.09375 1.5 -0.09375 C 1.832031 -0.09375 2.097656 -0.191406 2.296875 -0.390625 C 2.503906 -0.597656 2.609375 -0.878906 2.609375 -1.234375 C 2.609375 -1.515625 2.546875 -1.804688 2.421875 -2.109375 C 2.296875 -2.410156 2.113281 -2.75 1.875 -3.125 C 1.832031 -3.175781 1.722656 -3.332031 1.546875 -3.59375 C 1.378906 -3.863281 1.253906 -4.117188 1.171875 -4.359375 C 1.085938 -4.609375 1.046875 -4.851562 1.046875 -5.09375 C 1.046875 -5.664062 1.257812 -6.132812 1.6875 -6.5 C 2.113281 -6.863281 2.707031 -7.046875 3.46875 -7.046875 C 4.039062 -7.046875 4.519531 -6.941406 4.90625 -6.734375 C 5.289062 -6.523438 5.484375 -6.171875 5.484375 -5.671875 C 5.484375 -5.421875 5.410156 -5.191406 5.265625 -4.984375 C 5.117188 -4.785156 4.921875 -4.6875 4.671875 -4.6875 C 4.453125 -4.6875 4.273438 -4.769531 4.140625 -4.9375 C 4.003906 -5.101562 3.9375 -5.316406 3.9375 -5.578125 C 3.9375 -5.796875 3.972656 -6 4.046875 -6.1875 C 4.128906 -6.375 4.226562 -6.535156 4.34375 -6.671875 C 4.226562 -6.742188 4.078125 -6.78125 3.890625 -6.78125 C 3.566406 -6.78125 3.3125 -6.679688 3.125 -6.484375 C 2.945312 -6.285156 2.859375 -6.007812 2.859375 -5.65625 C 2.859375 -5.414062 2.898438 -5.195312 2.984375 -5 C 3.078125 -4.800781 3.238281 -4.523438 3.46875 -4.171875 L 3.640625 -3.90625 C 3.929688 -3.4375 4.132812 -3.050781 4.25 -2.75 C 4.375 -2.445312 4.4375 -2.144531 4.4375 -1.84375 C 4.4375 -1.457031 4.332031 -1.109375 4.125 -0.796875 C 3.925781 -0.492188 3.632812 -0.253906 3.25 -0.078125 C 2.875 0.0976562 2.4375 0.1875 1.9375 0.1875 C 1.3125 0.1875 0.789062 0.0664062 0.375 -0.171875 C -0.0390625 -0.421875 -0.25 -0.816406 -0.25 -1.359375 C -0.25 -1.617188 -0.179688 -1.84375 -0.046875 -2.03125 C 0.078125 -2.21875 0.253906 -2.3125 0.484375 -2.3125 C 0.710938 -2.3125 0.894531 -2.210938 1.03125 -2.015625 C 1.175781 -1.816406 1.25 -1.570312 1.25 -1.28125 C 1.25 -1.082031 1.222656 -0.90625 1.171875 -0.75 C 1.128906 -0.59375 1.066406 -0.40625 0.984375 -0.1875 Z M 0.984375 -0.1875 "/></g></g></g><g fill="#d9d9d9" fill-opacity="1"><g transform="translate(171.220324, 266.169843)"><g><path d="M 0.984375 -0.1875 C 1.117188 -0.125 1.289062 -0.09375 1.5 -0.09375 C 1.832031 -0.09375 2.097656 -0.191406 2.296875 -0.390625 C 2.503906 -0.597656 2.609375 -0.878906 2.609375 -1.234375 C 2.609375 -1.515625 2.546875 -1.804688 2.421875 -2.109375 C 2.296875 -2.410156 2.113281 -2.75 1.875 -3.125 C 1.832031 -3.175781 1.722656 -3.332031 1.546875 -3.59375 C 1.378906 -3.863281 1.253906 -4.117188 1.171875 -4.359375 C 1.085938 -4.609375 1.046875 -4.851562 1.046875 -5.09375 C 1.046875 -5.664062 1.257812 -6.132812 1.6875 -6.5 C 2.113281 -6.863281 2.707031 -7.046875 3.46875 -7.046875 C 4.039062 -7.046875 4.519531 -6.941406 4.90625 -6.734375 C 5.289062 -6.523438 5.484375 -6.171875 5.484375 -5.671875 C 5.484375 -5.421875 5.410156 -5.191406 5.265625 -4.984375 C 5.117188 -4.785156 4.921875 -4.6875 4.671875 -4.6875 C 4.453125 -4.6875 4.273438 -4.769531 4.140625 -4.9375 C 4.003906 -5.101562 3.9375 -5.316406 3.9375 -5.578125 C 3.9375 -5.796875 3.972656 -6 4.046875 -6.1875 C 4.128906 -6.375 4.226562 -6.535156 4.34375 -6.671875 C 4.226562 -6.742188 4.078125 -6.78125 3.890625 -6.78125 C 3.566406 -6.78125 3.3125 -6.679688 3.125 -6.484375 C 2.945312 -6.285156 2.859375 -6.007812 2.859375 -5.65625 C 2.859375 -5.414062 2.898438 -5.195312 2.984375 -5 C 3.078125 -4.800781 3.238281 -4.523438 3.46875 -4.171875 L 3.640625 -3.90625 C 3.929688 -3.4375 4.132812 -3.050781 4.25 -2.75 C 4.375 -2.445312 4.4375 -2.144531 4.4375 -1.84375 C 4.4375 -1.457031 4.332031 -1.109375 4.125 -0.796875 C 3.925781 -0.492188 3.632812 -0.253906 3.25 -0.078125 C 2.875 0.0976562 2.4375 0.1875 1.9375 0.1875 C 1.3125 0.1875 0.789062 0.0664062 0.375 -0.171875 C -0.0390625 -0.421875 -0.25 -0.816406 -0.25 -1.359375 C -0.25 -1.617188 -0.179688 -1.84375 -0.046875 -2.03125 C 0.078125 -2.21875 0.253906 -2.3125 0.484375 -2.3125 C 0.710938 -2.3125 0.894531 -2.210938 1.03125 -2.015625 C 1.175781 -1.816406 1.25 -1.570312 1.25 -1.28125 C 1.25 -1.082031 1.222656 -0.90625 1.171875 -0.75 C 1.128906 -0.59375 1.066406 -0.40625 0.984375 -0.1875 Z M 0.984375 -0.1875 "/></g></g></g><g fill="#d9d9d9" fill-opacity="1"><g transform="translate(178.444969, 266.169843)"><g><path d="M 2.34375 -9.078125 C 2.351562 -9.441406 2.484375 -9.726562 2.734375 -9.9375 C 2.992188 -10.144531 3.316406 -10.25 3.703125 -10.25 C 4.015625 -10.25 4.253906 -10.175781 4.421875 -10.03125 C 4.597656 -9.882812 4.6875 -9.6875 4.6875 -9.4375 C 4.6875 -9.082031 4.550781 -8.789062 4.28125 -8.5625 C 4.019531 -8.332031 3.691406 -8.21875 3.296875 -8.21875 C 2.984375 -8.21875 2.742188 -8.289062 2.578125 -8.4375 C 2.410156 -8.59375 2.332031 -8.804688 2.34375 -9.078125 Z M 1.84375 -5.734375 C 1.90625 -5.929688 1.9375 -6.0625 1.9375 -6.125 C 1.9375 -6.300781 1.859375 -6.390625 1.703125 -6.390625 C 1.535156 -6.390625 1.382812 -6.304688 1.25 -6.140625 C 1.125 -5.984375 0.988281 -5.71875 0.84375 -5.34375 L 0.578125 -4.671875 L 0.328125 -4.671875 L 0.703125 -5.671875 C 1.023438 -6.585938 1.640625 -7.046875 2.546875 -7.046875 C 2.953125 -7.046875 3.25 -6.945312 3.4375 -6.75 C 3.625 -6.550781 3.71875 -6.289062 3.71875 -5.96875 C 3.71875 -5.707031 3.664062 -5.445312 3.5625 -5.1875 L 2.171875 -1.125 C 2.117188 -0.96875 2.09375 -0.84375 2.09375 -0.75 C 2.09375 -0.5625 2.179688 -0.46875 2.359375 -0.46875 C 2.492188 -0.46875 2.628906 -0.539062 2.765625 -0.6875 C 2.898438 -0.84375 3.046875 -1.117188 3.203125 -1.515625 L 3.4375 -2.15625 L 3.6875 -2.15625 L 3.34375 -1.1875 C 3.03125 -0.269531 2.429688 0.1875 1.546875 0.1875 C 0.742188 0.1875 0.34375 -0.179688 0.34375 -0.921875 C 0.34375 -1.210938 0.410156 -1.546875 0.546875 -1.921875 Z M 1.84375 -5.734375 "/></g></g></g><g fill="#d9d9d9" fill-opacity="1"><g transform="translate(184.370765, 266.169843)"><g><path d="M 0.984375 -0.1875 C 1.117188 -0.125 1.289062 -0.09375 1.5 -0.09375 C 1.832031 -0.09375 2.097656 -0.191406 2.296875 -0.390625 C 2.503906 -0.597656 2.609375 -0.878906 2.609375 -1.234375 C 2.609375 -1.515625 2.546875 -1.804688 2.421875 -2.109375 C 2.296875 -2.410156 2.113281 -2.75 1.875 -3.125 C 1.832031 -3.175781 1.722656 -3.332031 1.546875 -3.59375 C 1.378906 -3.863281 1.253906 -4.117188 1.171875 -4.359375 C 1.085938 -4.609375 1.046875 -4.851562 1.046875 -5.09375 C 1.046875 -5.664062 1.257812 -6.132812 1.6875 -6.5 C 2.113281 -6.863281 2.707031 -7.046875 3.46875 -7.046875 C 4.039062 -7.046875 4.519531 -6.941406 4.90625 -6.734375 C 5.289062 -6.523438 5.484375 -6.171875 5.484375 -5.671875 C 5.484375 -5.421875 5.410156 -5.191406 5.265625 -4.984375 C 5.117188 -4.785156 4.921875 -4.6875 4.671875 -4.6875 C 4.453125 -4.6875 4.273438 -4.769531 4.140625 -4.9375 C 4.003906 -5.101562 3.9375 -5.316406 3.9375 -5.578125 C 3.9375 -5.796875 3.972656 -6 4.046875 -6.1875 C 4.128906 -6.375 4.226562 -6.535156 4.34375 -6.671875 C 4.226562 -6.742188 4.078125 -6.78125 3.890625 -6.78125 C 3.566406 -6.78125 3.3125 -6.679688 3.125 -6.484375 C 2.945312 -6.285156 2.859375 -6.007812 2.859375 -5.65625 C 2.859375 -5.414062 2.898438 -5.195312 2.984375 -5 C 3.078125 -4.800781 3.238281 -4.523438 3.46875 -4.171875 L 3.640625 -3.90625 C 3.929688 -3.4375 4.132812 -3.050781 4.25 -2.75 C 4.375 -2.445312 4.4375 -2.144531 4.4375 -1.84375 C 4.4375 -1.457031 4.332031 -1.109375 4.125 -0.796875 C 3.925781 -0.492188 3.632812 -0.253906 3.25 -0.078125 C 2.875 0.0976562 2.4375 0.1875 1.9375 0.1875 C 1.3125 0.1875 0.789062 0.0664062 0.375 -0.171875 C -0.0390625 -0.421875 -0.25 -0.816406 -0.25 -1.359375 C -0.25 -1.617188 -0.179688 -1.84375 -0.046875 -2.03125 C 0.078125 -2.21875 0.253906 -2.3125 0.484375 -2.3125 C 0.710938 -2.3125 0.894531 -2.210938 1.03125 -2.015625 C 1.175781 -1.816406 1.25 -1.570312 1.25 -1.28125 C 1.25 -1.082031 1.222656 -0.90625 1.171875 -0.75 C 1.128906 -0.59375 1.066406 -0.40625 0.984375 -0.1875 Z M 0.984375 -0.1875 "/></g></g></g><g fill="#d9d9d9" fill-opacity="1"><g transform="translate(191.595407, 266.169843)"><g><path d="M 2.171875 -1.125 C 2.148438 -1.039062 2.140625 -0.953125 2.140625 -0.859375 C 2.140625 -0.722656 2.171875 -0.625 2.234375 -0.5625 C 2.304688 -0.5 2.40625 -0.46875 2.53125 -0.46875 C 2.726562 -0.46875 2.914062 -0.5625 3.09375 -0.75 C 3.28125 -0.9375 3.441406 -1.222656 3.578125 -1.609375 L 3.78125 -2.15625 L 4.03125 -2.15625 L 3.765625 -1.375 C 3.421875 -0.332031 2.757812 0.1875 1.78125 0.1875 C 1.320312 0.1875 0.976562 0.0703125 0.75 -0.15625 C 0.53125 -0.394531 0.421875 -0.71875 0.421875 -1.125 C 0.421875 -1.382812 0.460938 -1.648438 0.546875 -1.921875 L 1.890625 -6.59375 L 0.6875 -6.59375 L 0.75 -6.859375 L 1.96875 -6.859375 L 2.53125 -8.828125 C 3.28125 -8.835938 3.921875 -8.898438 4.453125 -9.015625 L 3.828125 -6.859375 L 5.328125 -6.859375 L 5.296875 -6.59375 L 3.75 -6.59375 Z M 2.171875 -1.125 "/></g></g></g><g fill="#d9d9d9" fill-opacity="1"><g transform="translate(197.932068, 266.169843)"><g><path d="M 6.5625 -2.15625 L 6.8125 -2.15625 L 6.484375 -1.1875 C 6.304688 -0.6875 6.0625 -0.332031 5.75 -0.125 C 5.4375 0.0820312 5.097656 0.1875 4.734375 0.1875 C 4.273438 0.1875 3.945312 0.0507812 3.75 -0.21875 C 3.625 -0.382812 3.5625 -0.609375 3.5625 -0.890625 C 3.5625 -1.117188 3.601562 -1.378906 3.6875 -1.671875 C 3.382812 -1.015625 3.050781 -0.539062 2.6875 -0.25 C 2.320312 0.0390625 1.914062 0.1875 1.46875 0.1875 C 0.988281 0.1875 0.617188 0.046875 0.359375 -0.234375 C 0.109375 -0.523438 -0.015625 -0.929688 -0.015625 -1.453125 C -0.015625 -2.234375 0.191406 -3.0625 0.609375 -3.9375 C 1.035156 -4.820312 1.570312 -5.5625 2.21875 -6.15625 C 2.863281 -6.75 3.492188 -7.046875 4.109375 -7.046875 C 4.347656 -7.046875 4.539062 -6.972656 4.6875 -6.828125 C 4.832031 -6.691406 4.921875 -6.476562 4.953125 -6.1875 L 5.140625 -6.84375 C 5.835938 -6.851562 6.476562 -6.921875 7.0625 -7.046875 L 5.3125 -1.125 C 5.269531 -0.976562 5.25 -0.851562 5.25 -0.75 C 5.25 -0.5625 5.332031 -0.46875 5.5 -0.46875 C 5.8125 -0.46875 6.085938 -0.816406 6.328125 -1.515625 Z M 4.796875 -5.671875 C 4.804688 -5.722656 4.8125 -5.789062 4.8125 -5.875 C 4.8125 -6.09375 4.773438 -6.257812 4.703125 -6.375 C 4.628906 -6.488281 4.515625 -6.546875 4.359375 -6.546875 C 4.054688 -6.546875 3.710938 -6.273438 3.328125 -5.734375 C 2.953125 -5.203125 2.628906 -4.53125 2.359375 -3.71875 C 2.085938 -2.90625 1.953125 -2.117188 1.953125 -1.359375 C 1.953125 -1.066406 1.976562 -0.851562 2.03125 -0.71875 C 2.09375 -0.59375 2.191406 -0.53125 2.328125 -0.53125 C 2.515625 -0.53125 2.722656 -0.664062 2.953125 -0.9375 C 3.191406 -1.207031 3.425781 -1.59375 3.65625 -2.09375 C 3.894531 -2.601562 4.101562 -3.207031 4.28125 -3.90625 L 4.21875 -3.59375 Z M 4.796875 -5.671875 "/></g></g></g><g fill="#d9d9d9" fill-opacity="1"><g transform="translate(206.985694, 266.169843)"><g><path d="M 7.421875 -2.15625 L 7.078125 -1.1875 C 6.765625 -0.269531 6.175781 0.1875 5.3125 0.1875 C 4.8125 0.1875 4.457031 0.0390625 4.25 -0.25 C 4.132812 -0.414062 4.078125 -0.625 4.078125 -0.875 C 4.078125 -1.15625 4.144531 -1.503906 4.28125 -1.921875 L 5.484375 -5.5 C 5.554688 -5.738281 5.59375 -5.929688 5.59375 -6.078125 C 5.59375 -6.273438 5.507812 -6.375 5.34375 -6.375 C 5.082031 -6.375 4.765625 -6.101562 4.390625 -5.5625 C 4.015625 -5.03125 3.632812 -4.320312 3.25 -3.4375 C 2.863281 -2.5625 2.53125 -1.632812 2.25 -0.65625 L 2.078125 0 L 0.21875 0 L 1.8125 -5.734375 C 1.863281 -5.890625 1.890625 -6.03125 1.890625 -6.15625 C 1.890625 -6.3125 1.816406 -6.390625 1.671875 -6.390625 C 1.503906 -6.390625 1.351562 -6.3125 1.21875 -6.15625 C 1.09375 -6.007812 0.960938 -5.738281 0.828125 -5.34375 L 0.578125 -4.671875 L 0.3125 -4.671875 L 0.671875 -5.671875 C 0.835938 -6.160156 1.0625 -6.507812 1.34375 -6.71875 C 1.632812 -6.9375 1.984375 -7.046875 2.390625 -7.046875 C 3.148438 -7.046875 3.53125 -6.679688 3.53125 -5.953125 C 3.53125 -5.703125 3.492188 -5.445312 3.421875 -5.1875 L 3.015625 -3.578125 C 3.378906 -4.484375 3.722656 -5.1875 4.046875 -5.6875 C 4.378906 -6.1875 4.71875 -6.535156 5.0625 -6.734375 C 5.40625 -6.941406 5.78125 -7.046875 6.1875 -7.046875 C 6.988281 -7.046875 7.390625 -6.691406 7.390625 -5.984375 C 7.390625 -5.710938 7.332031 -5.398438 7.21875 -5.046875 L 5.921875 -1.125 C 5.867188 -0.96875 5.84375 -0.84375 5.84375 -0.75 C 5.84375 -0.5625 5.925781 -0.46875 6.09375 -0.46875 C 6.226562 -0.46875 6.363281 -0.539062 6.5 -0.6875 C 6.644531 -0.84375 6.785156 -1.117188 6.921875 -1.515625 L 7.15625 -2.15625 Z M 7.421875 -2.15625 "/></g></g></g><g fill="#d9d9d9" fill-opacity="1"><g transform="translate(216.635735, 266.169843)"><g><path d="M 2.171875 -1.125 C 2.148438 -1.039062 2.140625 -0.953125 2.140625 -0.859375 C 2.140625 -0.722656 2.171875 -0.625 2.234375 -0.5625 C 2.304688 -0.5 2.40625 -0.46875 2.53125 -0.46875 C 2.726562 -0.46875 2.914062 -0.5625 3.09375 -0.75 C 3.28125 -0.9375 3.441406 -1.222656 3.578125 -1.609375 L 3.78125 -2.15625 L 4.03125 -2.15625 L 3.765625 -1.375 C 3.421875 -0.332031 2.757812 0.1875 1.78125 0.1875 C 1.320312 0.1875 0.976562 0.0703125 0.75 -0.15625 C 0.53125 -0.394531 0.421875 -0.71875 0.421875 -1.125 C 0.421875 -1.382812 0.460938 -1.648438 0.546875 -1.921875 L 1.890625 -6.59375 L 0.6875 -6.59375 L 0.75 -6.859375 L 1.96875 -6.859375 L 2.53125 -8.828125 C 3.28125 -8.835938 3.921875 -8.898438 4.453125 -9.015625 L 3.828125 -6.859375 L 5.328125 -6.859375 L 5.296875 -6.59375 L 3.75 -6.59375 Z M 2.171875 -1.125 "/></g></g></g><g clip-path="url(#729c4e9c93)"><path fill="#248fef" d="M 177.273438 148.351562 L 182.339844 151.820312 C 182.601562 151.34375 183.105469 151.023438 183.6875 151.023438 L 191.414062 151.023438 C 192.257812 151.023438 192.945312 151.710938 192.945312 152.554688 L 192.945312 160.296875 C 192.945312 161.136719 192.257812 161.824219 191.414062 161.824219 L 187.667969 161.824219 L 184.414062 168.25 L 185.066406 168.25 C 186.148438 168.25 187.03125 169.136719 187.03125 170.222656 L 187.03125 174.523438 L 197.949219 174.703125 L 197.949219 174.433594 C 197.949219 173.792969 198.472656 173.265625 199.117188 173.265625 L 205.003906 173.265625 C 205.648438 173.265625 206.171875 173.792969 206.171875 174.433594 L 206.171875 180.332031 C 206.171875 180.976562 205.648438 181.5 205.003906 181.5 L 199.117188 181.5 C 198.472656 181.5 197.949219 180.976562 197.949219 180.332031 L 197.949219 177.609375 L 187.03125 177.433594 L 187.03125 180.175781 C 187.03125 181.261719 186.148438 182.148438 185.066406 182.148438 L 175.125 182.148438 C 174.042969 182.148438 173.160156 181.261719 173.160156 180.175781 L 173.160156 170.222656 C 173.160156 169.140625 174.042969 168.253906 175.125 168.253906 L 181.15625 168.253906 L 184.410156 161.828125 L 183.6875 161.828125 C 182.84375 161.828125 182.15625 161.140625 182.15625 160.296875 L 182.15625 155.21875 L 176.976562 151.675781 C 176.5625 152.4375 175.757812 152.957031 174.835938 152.957031 L 162.507812 152.957031 C 161.164062 152.957031 160.066406 151.855469 160.066406 150.511719 L 160.066406 138.164062 C 160.066406 136.820312 161.164062 135.722656 162.507812 135.722656 L 174.835938 135.722656 C 176.179688 135.722656 177.273438 136.820312 177.273438 138.164062 Z M 150.238281 133.144531 L 143.492188 141.65625 L 143.492188 150.042969 C 143.492188 150.453125 143.351562 150.828125 143.113281 151.128906 L 147.96875 156.9375 L 156.464844 156.9375 C 157.808594 156.9375 158.90625 158.035156 158.90625 159.382812 L 158.90625 171.726562 C 158.90625 173.074219 157.804688 174.171875 156.464844 174.171875 L 144.136719 174.171875 C 142.792969 174.171875 141.695312 173.074219 141.695312 171.726562 L 141.695312 159.382812 C 141.695312 158.035156 142.792969 156.9375 144.136719 156.9375 L 144.175781 156.9375 L 139.875 151.792969 L 132.910156 151.792969 C 131.949219 151.792969 131.164062 151.007812 131.164062 150.046875 L 131.164062 141.199219 C 131.164062 140.234375 131.949219 139.449219 132.910156 139.449219 L 141.53125 139.449219 L 146.589844 133.0625 C 145.546875 132.785156 144.777344 131.832031 144.777344 130.703125 L 144.777344 118.355469 C 144.777344 117.011719 145.875 115.910156 147.214844 115.910156 L 159.542969 115.910156 C 160.890625 115.910156 161.984375 117.011719 161.984375 118.355469 L 161.984375 130.699219 C 161.984375 132.046875 160.886719 133.144531 159.542969 133.144531 Z M 210.820312 193.980469 L 218.382812 185.609375 L 218.378906 185.511719 L 218.378906 171.324219 C 218.378906 170.566406 218.683594 169.878906 219.171875 169.371094 L 215.191406 164.75 C 215.058594 164.773438 214.917969 164.78125 214.777344 164.78125 L 202.445312 164.78125 C 201.101562 164.78125 200.007812 163.683594 200.007812 162.335938 L 200.007812 149.992188 C 200.007812 148.644531 201.105469 147.550781 202.445312 147.550781 L 214.777344 147.550781 C 216.121094 147.550781 217.21875 148.648438 217.21875 149.992188 L 217.21875 162.335938 C 217.21875 162.4375 217.210938 162.535156 217.199219 162.632812 L 222.265625 168.515625 L 235.347656 168.515625 C 236.890625 168.515625 238.148438 169.78125 238.148438 171.324219 L 238.148438 185.507812 C 238.148438 187.050781 236.886719 188.316406 235.347656 188.316406 L 221.179688 188.316406 C 220.78125 188.316406 220.402344 188.230469 220.058594 188.078125 L 213.105469 195.777344 L 213.105469 204.136719 C 213.105469 205.058594 212.351562 205.8125 211.429688 205.8125 L 202.964844 205.8125 C 202.042969 205.8125 201.289062 205.058594 201.289062 204.136719 L 201.289062 195.65625 C 201.289062 194.734375 202.042969 193.980469 202.964844 193.980469 Z M 234.195312 145.878906 L 229.597656 136.996094 L 223.496094 136.996094 C 222.515625 136.996094 221.714844 136.195312 221.714844 135.210938 L 221.714844 126.1875 C 221.714844 125.203125 222.515625 124.402344 223.496094 124.402344 L 232.511719 124.402344 C 233.492188 124.402344 234.292969 125.203125 234.292969 126.1875 L 234.292969 135.210938 C 234.292969 136.078125 233.671875 136.804688 232.851562 136.964844 L 237.46875 145.878906 L 241.886719 145.878906 C 242.871094 145.878906 243.671875 146.679688 243.671875 147.664062 L 243.671875 156.6875 C 243.671875 157.671875 242.871094 158.472656 241.886719 158.472656 L 232.875 158.472656 C 231.894531 158.472656 231.089844 157.671875 231.089844 156.6875 L 231.089844 147.664062 C 231.089844 146.679688 231.894531 145.878906 232.875 145.878906 Z M 177.015625 106.136719 L 189.34375 106.136719 C 190.691406 106.136719 191.785156 107.234375 191.785156 108.578125 L 191.785156 120.925781 C 191.785156 122.273438 190.6875 123.371094 189.34375 123.371094 L 187.046875 123.371094 L 189.609375 129.675781 L 196.035156 129.675781 C 196.152344 129.675781 196.261719 129.6875 196.371094 129.707031 L 200.253906 126.425781 C 199.785156 125.980469 199.492188 125.351562 199.492188 124.65625 L 199.492188 112.308594 C 199.492188 110.964844 200.589844 109.863281 201.929688 109.863281 L 214.261719 109.863281 C 215.605469 109.863281 216.703125 110.964844 216.703125 112.308594 L 216.703125 124.65625 C 216.703125 126 215.605469 127.097656 214.261719 127.097656 L 203.960938 127.097656 L 197.816406 132.292969 L 197.816406 140.488281 C 197.816406 141.46875 197.015625 142.273438 196.035156 142.273438 L 187.019531 142.273438 C 186.039062 142.273438 185.238281 141.46875 185.238281 140.488281 L 185.238281 131.460938 C 185.238281 130.660156 185.769531 129.976562 186.5 129.753906 L 183.902344 123.371094 L 177.015625 123.371094 C 175.671875 123.371094 174.574219 122.269531 174.574219 120.925781 L 174.574219 108.578125 C 174.578125 107.234375 175.675781 106.136719 177.015625 106.136719 Z M 177.015625 106.136719 " fill-opacity="1" fill-rule="evenodd"/></g></svg>