<svg width="600" height="400" viewBox="0 0 600 400" fill="none" xmlns="http://www.w3.org/2000/svg">
  <!-- Background shape -->
  <rect x="50" y="30" width="500" height="340" rx="30" fill="#f6f9ff" />
  
  <!-- Decorative elements -->
  <circle cx="150" cy="150" r="120" fill="#4361ee" opacity="0.07" />
  <circle cx="450" cy="250" r="130" fill="#7209b7" opacity="0.07" />
  <circle cx="300" cy="200" r="200" fill="#3a0ca3" opacity="0.03" />
  
  <!-- Document with roadmap -->
  <rect x="180" y="80" width="240" height="200" rx="15" fill="white" stroke="#4361ee" stroke-width="2" />
  
  <!-- Document content -->
  <rect x="210" y="120" width="180" height="6" rx="3" fill="#4361ee" opacity="0.7" />
  <rect x="210" y="140" width="150" height="6" rx="3" fill="#4361ee" opacity="0.5" />
  <rect x="210" y="160" width="160" height="6" rx="3" fill="#4361ee" opacity="0.6" />
  <rect x="210" y="180" width="140" height="6" rx="3" fill="#4361ee" opacity="0.5" />
  <rect x="210" y="200" width="120" height="6" rx="3" fill="#4361ee" opacity="0.7" />
  <rect x="210" y="220" width="100" height="6" rx="3" fill="#4361ee" opacity="0.5" />
  
  <!-- Roadmap dots and lines -->
  <circle cx="210" cy="120" r="6" fill="#4361ee" />
  <circle cx="210" cy="160" r="6" fill="#7209b7" />
  <circle cx="210" cy="200" r="6" fill="#4361ee" />
  <line x1="210" y1="126" x2="210" y2="154" stroke="#4361ee" stroke-width="2" stroke-dasharray="4 4" />
  <line x1="210" y1="166" x2="210" y2="194" stroke="#7209b7" stroke-width="2" stroke-dasharray="4 4" />
  <line x1="210" y1="206" x2="210" y2="220" stroke="#4361ee" stroke-width="2" stroke-dasharray="4 4" />
  <circle cx="210" cy="220" r="6" fill="#7209b7" />
  
  <!-- Sparkles and decorative elements -->
  <path d="M450 80 L458 100 L478 100 L462 113 L468 133 L450 120 L432 133 L438 113 L422 100 L442 100 Z" fill="#7209b7" opacity="0.8" />
  <path d="M120 260 L128 280 L148 280 L132 293 L138 313 L120 300 L102 313 L108 293 L92 280 L112 280 Z" fill="#4361ee" opacity="0.8" />
  
  <!-- Career icons -->
  <circle cx="100" cy="120" r="30" fill="white" stroke="#3a0ca3" stroke-width="2" />
  <rect x="85" y="110" width="30" height="20" rx="2" fill="#3a0ca3" opacity="0.8" />
  <circle cx="90" cy="105" r="3" fill="#3a0ca3" />
  <circle cx="110" cy="105" r="3" fill="#3a0ca3" />
  
  <circle cx="500" cy="320" r="30" fill="white" stroke="#7209b7" stroke-width="2" />
  <rect x="485" y="310" width="30" height="20" rx="2" fill="#7209b7" opacity="0.8" />
  <path d="M495 310 L485 300 L505 300 Z" fill="#7209b7" />

  <!-- AI/Career graph rising -->
  <path d="M80 340 C 120 300, 160 330, 200 290 C 240 250, 280 280, 320 240 C 360 200, 400 230, 440 190 C 480 150, 520 180, 540 150" 
    stroke="#4361ee" stroke-width="3" stroke-dasharray="0" stroke-linecap="round" opacity="0.7" />
  
  <!-- Data points on graph -->
  <circle cx="80" cy="340" r="5" fill="#4361ee" />
  <circle cx="200" cy="290" r="5" fill="#4361ee" />
  <circle cx="320" cy="240" r="5" fill="#7209b7" />
  <circle cx="440" cy="190" r="5" fill="#4361ee" />
  <circle cx="540" cy="150" r="5" fill="#7209b7" />
</svg> 