<svg width="1363" height="163" viewBox="0 0 1363 163" fill="none" xmlns="http://www.w3.org/2000/svg">
<path d="M0 15C0 6.71573 6.71573 0 15 0H37V163H15C6.71573 163 0 156.284 0 148V15Z" fill="#424242"/>
<rect width="1097" height="163" transform="translate(37)" fill="#F0F0F0"/>
<path d="M101.906 53.9219L94.3945 51.2383V48.0859L104.602 52.375V54.6367L101.906 53.9219ZM94.3945 56.1719L101.918 53.4297L104.602 52.7852V55.0352L94.3945 59.3242V56.1719ZM114.504 43.9375H117.48L121.863 56.4648L126.246 43.9375H129.223L123.059 61H120.668L114.504 43.9375ZM112.898 43.9375H115.863L116.402 56.1484V61H112.898V43.9375ZM127.863 43.9375H130.84V61H127.324V56.1484L127.863 43.9375ZM139.547 61.2344C138.562 61.2344 137.68 61.0781 136.898 60.7656C136.117 60.4453 135.453 60.0039 134.906 59.4414C134.367 58.8789 133.953 58.2266 133.664 57.4844C133.375 56.7344 133.23 55.9375 133.23 55.0938V54.625C133.23 53.6641 133.367 52.7852 133.641 51.9883C133.914 51.1914 134.305 50.5 134.812 49.9141C135.328 49.3281 135.953 48.8789 136.688 48.5664C137.422 48.2461 138.25 48.0859 139.172 48.0859C140.07 48.0859 140.867 48.2344 141.562 48.5312C142.258 48.8281 142.84 49.25 143.309 49.7969C143.785 50.3438 144.145 51 144.387 51.7656C144.629 52.5234 144.75 53.3672 144.75 54.2969V55.7031H134.672V53.4531H141.434V53.1953C141.434 52.7266 141.348 52.3086 141.176 51.9414C141.012 51.5664 140.762 51.2695 140.426 51.0508C140.09 50.832 139.66 50.7227 139.137 50.7227C138.691 50.7227 138.309 50.8203 137.988 51.0156C137.668 51.2109 137.406 51.4844 137.203 51.8359C137.008 52.1875 136.859 52.6016 136.758 53.0781C136.664 53.5469 136.617 54.0625 136.617 54.625V55.0938C136.617 55.6016 136.688 56.0703 136.828 56.5C136.977 56.9297 137.184 57.3008 137.449 57.6133C137.723 57.9258 138.051 58.168 138.434 58.3398C138.824 58.5117 139.266 58.5977 139.758 58.5977C140.367 58.5977 140.934 58.4805 141.457 58.2461C141.988 58.0039 142.445 57.6406 142.828 57.1562L144.469 58.9375C144.203 59.3203 143.84 59.6875 143.379 60.0391C142.926 60.3906 142.379 60.6797 141.738 60.9062C141.098 61.125 140.367 61.2344 139.547 61.2344ZM154.16 58.2344V43H157.559V61H154.5L154.16 58.2344ZM146.145 54.8125V54.5664C146.145 53.5977 146.254 52.7188 146.473 51.9297C146.691 51.1328 147.012 50.4492 147.434 49.8789C147.855 49.3086 148.375 48.8672 148.992 48.5547C149.609 48.2422 150.312 48.0859 151.102 48.0859C151.844 48.0859 152.492 48.2422 153.047 48.5547C153.609 48.8672 154.086 49.3125 154.477 49.8906C154.875 50.4609 155.195 51.1367 155.438 51.918C155.68 52.6914 155.855 53.5391 155.965 54.4609V55C155.855 55.8828 155.68 56.7031 155.438 57.4609C155.195 58.2188 154.875 58.8828 154.477 59.4531C154.086 60.0156 153.609 60.4531 153.047 60.7656C152.484 61.0781 151.828 61.2344 151.078 61.2344C150.289 61.2344 149.586 61.0742 148.969 60.7539C148.359 60.4336 147.844 59.9844 147.422 59.4062C147.008 58.8281 146.691 58.1484 146.473 57.3672C146.254 56.5859 146.145 55.7344 146.145 54.8125ZM149.52 54.5664V54.8125C149.52 55.3359 149.559 55.8242 149.637 56.2773C149.723 56.7305 149.859 57.1328 150.047 57.4844C150.242 57.8281 150.492 58.0977 150.797 58.293C151.109 58.4805 151.488 58.5742 151.934 58.5742C152.512 58.5742 152.988 58.4453 153.363 58.1875C153.738 57.9219 154.023 57.5586 154.219 57.0977C154.422 56.6367 154.539 56.1055 154.57 55.5039V53.9688C154.547 53.4766 154.477 53.0352 154.359 52.6445C154.25 52.2461 154.086 51.9062 153.867 51.625C153.656 51.3438 153.391 51.125 153.07 50.9688C152.758 50.8125 152.387 50.7344 151.957 50.7344C151.52 50.7344 151.145 50.8359 150.832 51.0391C150.52 51.2344 150.266 51.5039 150.07 51.8477C149.883 52.1914 149.742 52.5977 149.648 53.0664C149.562 53.5273 149.52 54.0273 149.52 54.5664ZM163.758 48.3203V61H160.371V48.3203H163.758ZM160.16 45.0156C160.16 44.5234 160.332 44.1172 160.676 43.7969C161.02 43.4766 161.48 43.3164 162.059 43.3164C162.629 43.3164 163.086 43.4766 163.43 43.7969C163.781 44.1172 163.957 44.5234 163.957 45.0156C163.957 45.5078 163.781 45.9141 163.43 46.2344C163.086 46.5547 162.629 46.7148 162.059 46.7148C161.48 46.7148 161.02 46.5547 160.676 46.2344C160.332 45.9141 160.16 45.5078 160.16 45.0156ZM182.625 55.3398H186.129C186.059 56.4883 185.742 57.5078 185.18 58.3984C184.625 59.2891 183.848 59.9844 182.848 60.4844C181.855 60.9844 180.66 61.2344 179.262 61.2344C178.168 61.2344 177.188 61.0469 176.32 60.6719C175.453 60.2891 174.711 59.7422 174.094 59.0312C173.484 58.3203 173.02 57.4609 172.699 56.4531C172.379 55.4453 172.219 54.3164 172.219 53.0664V51.8828C172.219 50.6328 172.383 49.5039 172.711 48.4961C173.047 47.4805 173.523 46.6172 174.141 45.9062C174.766 45.1953 175.512 44.6484 176.379 44.2656C177.246 43.8828 178.215 43.6914 179.285 43.6914C180.707 43.6914 181.906 43.9492 182.883 44.4648C183.867 44.9805 184.629 45.6914 185.168 46.5977C185.715 47.5039 186.043 48.5352 186.152 49.6914H182.637C182.598 49.0039 182.461 48.4219 182.227 47.9453C181.992 47.4609 181.637 47.0977 181.16 46.8555C180.691 46.6055 180.066 46.4805 179.285 46.4805C178.699 46.4805 178.188 46.5898 177.75 46.8086C177.312 47.0273 176.945 47.3594 176.648 47.8047C176.352 48.25 176.129 48.8125 175.98 49.4922C175.84 50.1641 175.77 50.9531 175.77 51.8594V53.0664C175.77 53.9492 175.836 54.7266 175.969 55.3984C176.102 56.0625 176.305 56.625 176.578 57.0859C176.859 57.5391 177.219 57.8828 177.656 58.1172C178.102 58.3438 178.637 58.457 179.262 58.457C179.996 58.457 180.602 58.3398 181.078 58.1055C181.555 57.8711 181.918 57.5234 182.168 57.0625C182.426 56.6016 182.578 56.0273 182.625 55.3398ZM187.688 54.7891V54.543C187.688 53.6133 187.82 52.7578 188.086 51.9766C188.352 51.1875 188.738 50.5039 189.246 49.9258C189.754 49.3477 190.379 48.8984 191.121 48.5781C191.863 48.25 192.715 48.0859 193.676 48.0859C194.637 48.0859 195.492 48.25 196.242 48.5781C196.992 48.8984 197.621 49.3477 198.129 49.9258C198.645 50.5039 199.035 51.1875 199.301 51.9766C199.566 52.7578 199.699 53.6133 199.699 54.543V54.7891C199.699 55.7109 199.566 56.5664 199.301 57.3555C199.035 58.1367 198.645 58.8203 198.129 59.4062C197.621 59.9844 196.996 60.4336 196.254 60.7539C195.512 61.0742 194.66 61.2344 193.699 61.2344C192.738 61.2344 191.883 61.0742 191.133 60.7539C190.391 60.4336 189.762 59.9844 189.246 59.4062C188.738 58.8203 188.352 58.1367 188.086 57.3555C187.82 56.5664 187.688 55.7109 187.688 54.7891ZM191.062 54.543V54.7891C191.062 55.3203 191.109 55.8164 191.203 56.2773C191.297 56.7383 191.445 57.1445 191.648 57.4961C191.859 57.8398 192.133 58.1094 192.469 58.3047C192.805 58.5 193.215 58.5977 193.699 58.5977C194.168 58.5977 194.57 58.5 194.906 58.3047C195.242 58.1094 195.512 57.8398 195.715 57.4961C195.918 57.1445 196.066 56.7383 196.16 56.2773C196.262 55.8164 196.312 55.3203 196.312 54.7891V54.543C196.312 54.0273 196.262 53.543 196.16 53.0898C196.066 52.6289 195.914 52.2227 195.703 51.8711C195.5 51.5117 195.23 51.2305 194.895 51.0273C194.559 50.8242 194.152 50.7227 193.676 50.7227C193.199 50.7227 192.793 50.8242 192.457 51.0273C192.129 51.2305 191.859 51.5117 191.648 51.8711C191.445 52.2227 191.297 52.6289 191.203 53.0898C191.109 53.543 191.062 54.0273 191.062 54.543ZM205.078 51.0273V61H201.703V48.3203H204.867L205.078 51.0273ZM204.586 54.2148H203.672C203.672 53.2773 203.793 52.4336 204.035 51.6836C204.277 50.9258 204.617 50.2812 205.055 49.75C205.492 49.2109 206.012 48.8008 206.613 48.5195C207.223 48.2305 207.902 48.0859 208.652 48.0859C209.246 48.0859 209.789 48.1719 210.281 48.3438C210.773 48.5156 211.195 48.7891 211.547 49.1641C211.906 49.5391 212.18 50.0352 212.367 50.6523C212.562 51.2695 212.66 52.0234 212.66 52.9141V61H209.262V52.9023C209.262 52.3398 209.184 51.9023 209.027 51.5898C208.871 51.2773 208.641 51.0586 208.336 50.9336C208.039 50.8008 207.672 50.7344 207.234 50.7344C206.781 50.7344 206.387 50.8242 206.051 51.0039C205.723 51.1836 205.449 51.4336 205.23 51.7539C205.02 52.0664 204.859 52.4336 204.75 52.8555C204.641 53.2773 204.586 53.7305 204.586 54.2148ZM218.531 51.0273V61H215.156V48.3203H218.32L218.531 51.0273ZM218.039 54.2148H217.125C217.125 53.2773 217.246 52.4336 217.488 51.6836C217.73 50.9258 218.07 50.2812 218.508 49.75C218.945 49.2109 219.465 48.8008 220.066 48.5195C220.676 48.2305 221.355 48.0859 222.105 48.0859C222.699 48.0859 223.242 48.1719 223.734 48.3438C224.227 48.5156 224.648 48.7891 225 49.1641C225.359 49.5391 225.633 50.0352 225.82 50.6523C226.016 51.2695 226.113 52.0234 226.113 52.9141V61H222.715V52.9023C222.715 52.3398 222.637 51.9023 222.48 51.5898C222.324 51.2773 222.094 51.0586 221.789 50.9336C221.492 50.8008 221.125 50.7344 220.688 50.7344C220.234 50.7344 219.84 50.8242 219.504 51.0039C219.176 51.1836 218.902 51.4336 218.684 51.7539C218.473 52.0664 218.312 52.4336 218.203 52.8555C218.094 53.2773 218.039 53.7305 218.039 54.2148ZM234.516 61.2344C233.531 61.2344 232.648 61.0781 231.867 60.7656C231.086 60.4453 230.422 60.0039 229.875 59.4414C229.336 58.8789 228.922 58.2266 228.633 57.4844C228.344 56.7344 228.199 55.9375 228.199 55.0938V54.625C228.199 53.6641 228.336 52.7852 228.609 51.9883C228.883 51.1914 229.273 50.5 229.781 49.9141C230.297 49.3281 230.922 48.8789 231.656 48.5664C232.391 48.2461 233.219 48.0859 234.141 48.0859C235.039 48.0859 235.836 48.2344 236.531 48.5312C237.227 48.8281 237.809 49.25 238.277 49.7969C238.754 50.3438 239.113 51 239.355 51.7656C239.598 52.5234 239.719 53.3672 239.719 54.2969V55.7031H229.641V53.4531H236.402V53.1953C236.402 52.7266 236.316 52.3086 236.145 51.9414C235.98 51.5664 235.73 51.2695 235.395 51.0508C235.059 50.832 234.629 50.7227 234.105 50.7227C233.66 50.7227 233.277 50.8203 232.957 51.0156C232.637 51.2109 232.375 51.4844 232.172 51.8359C231.977 52.1875 231.828 52.6016 231.727 53.0781C231.633 53.5469 231.586 54.0625 231.586 54.625V55.0938C231.586 55.6016 231.656 56.0703 231.797 56.5C231.945 56.9297 232.152 57.3008 232.418 57.6133C232.691 57.9258 233.02 58.168 233.402 58.3398C233.793 58.5117 234.234 58.5977 234.727 58.5977C235.336 58.5977 235.902 58.4805 236.426 58.2461C236.957 58.0039 237.414 57.6406 237.797 57.1562L239.438 58.9375C239.172 59.3203 238.809 59.6875 238.348 60.0391C237.895 60.3906 237.348 60.6797 236.707 60.9062C236.066 61.125 235.336 61.2344 234.516 61.2344ZM246.879 58.5977C247.293 58.5977 247.66 58.5195 247.98 58.3633C248.301 58.1992 248.551 57.9727 248.73 57.6836C248.918 57.3867 249.016 57.0391 249.023 56.6406H252.199C252.191 57.5312 251.953 58.3242 251.484 59.0195C251.016 59.707 250.387 60.25 249.598 60.6484C248.809 61.0391 247.926 61.2344 246.949 61.2344C245.965 61.2344 245.105 61.0703 244.371 60.7422C243.645 60.4141 243.039 59.9609 242.555 59.3828C242.07 58.7969 241.707 58.1172 241.465 57.3438C241.223 56.5625 241.102 55.7266 241.102 54.8359V54.4961C241.102 53.5977 241.223 52.7617 241.465 51.9883C241.707 51.207 242.07 50.5273 242.555 49.9492C243.039 49.3633 243.645 48.9062 244.371 48.5781C245.098 48.25 245.949 48.0859 246.926 48.0859C247.965 48.0859 248.875 48.2852 249.656 48.6836C250.445 49.082 251.062 49.6523 251.508 50.3945C251.961 51.1289 252.191 52 252.199 53.0078H249.023C249.016 52.5859 248.926 52.2031 248.754 51.8594C248.59 51.5156 248.348 51.2422 248.027 51.0391C247.715 50.8281 247.328 50.7227 246.867 50.7227C246.375 50.7227 245.973 50.8281 245.66 51.0391C245.348 51.2422 245.105 51.5234 244.934 51.8828C244.762 52.2344 244.641 52.6367 244.57 53.0898C244.508 53.5352 244.477 54.0039 244.477 54.4961V54.8359C244.477 55.3281 244.508 55.8008 244.57 56.2539C244.633 56.707 244.75 57.1094 244.922 57.4609C245.102 57.8125 245.348 58.0898 245.66 58.293C245.973 58.4961 246.379 58.5977 246.879 58.5977ZM260.367 48.3203V50.7109H252.984V48.3203H260.367ZM254.812 45.1914H258.188V57.1797C258.188 57.5469 258.234 57.8281 258.328 58.0234C258.43 58.2188 258.578 58.3555 258.773 58.4336C258.969 58.5039 259.215 58.5391 259.512 58.5391C259.723 58.5391 259.91 58.5312 260.074 58.5156C260.246 58.4922 260.391 58.4688 260.508 58.4453L260.52 60.9297C260.23 61.0234 259.918 61.0977 259.582 61.1523C259.246 61.207 258.875 61.2344 258.469 61.2344C257.727 61.2344 257.078 61.1133 256.523 60.8711C255.977 60.6211 255.555 60.2227 255.258 59.6758C254.961 59.1289 254.812 58.4102 254.812 57.5195V45.1914Z" fill="#888888"/>
<path d="M113.18 109.93C113.18 109.398 113.102 108.922 112.945 108.5C112.789 108.062 112.5 107.656 112.078 107.281C111.656 106.906 111.047 106.531 110.25 106.156C109.469 105.766 108.438 105.359 107.156 104.938C105.656 104.438 104.211 103.875 102.82 103.25C101.43 102.609 100.188 101.867 99.0938 101.023C98 100.164 97.1328 99.1641 96.4922 98.0234C95.8516 96.8672 95.5312 95.5234 95.5312 93.9922C95.5312 92.5234 95.8594 91.2031 96.5156 90.0312C97.1719 88.8438 98.0859 87.8359 99.2578 87.0078C100.445 86.1641 101.836 85.5234 103.43 85.0859C105.023 84.6328 106.766 84.4062 108.656 84.4062C111.156 84.4062 113.359 84.8438 115.266 85.7188C117.188 86.5781 118.688 87.8047 119.766 89.3984C120.859 90.9766 121.406 92.8438 121.406 95H113.227C113.227 94.1406 113.047 93.3828 112.688 92.7266C112.344 92.0703 111.82 91.5547 111.117 91.1797C110.414 90.8047 109.531 90.6172 108.469 90.6172C107.438 90.6172 106.57 90.7734 105.867 91.0859C105.164 91.3984 104.633 91.8203 104.273 92.3516C103.914 92.8672 103.734 93.4375 103.734 94.0625C103.734 94.5781 103.875 95.0469 104.156 95.4688C104.453 95.875 104.867 96.2578 105.398 96.6172C105.945 96.9766 106.602 97.3203 107.367 97.6484C108.148 97.9766 109.023 98.2969 109.992 98.6094C111.805 99.1875 113.414 99.8359 114.82 100.555C116.242 101.258 117.438 102.062 118.406 102.969C119.391 103.859 120.133 104.875 120.633 106.016C121.148 107.156 121.406 108.445 121.406 109.883C121.406 111.414 121.109 112.773 120.516 113.961C119.922 115.148 119.07 116.156 117.961 116.984C116.852 117.797 115.523 118.414 113.977 118.836C112.43 119.258 110.703 119.469 108.797 119.469C107.047 119.469 105.32 119.25 103.617 118.812C101.93 118.359 100.398 117.672 99.0234 116.75C97.6484 115.812 96.5469 114.617 95.7188 113.164C94.9062 111.695 94.5 109.953 94.5 107.938H102.75C102.75 108.938 102.883 109.781 103.148 110.469C103.414 111.156 103.805 111.711 104.32 112.133C104.836 112.539 105.469 112.836 106.219 113.023C106.969 113.195 107.828 113.281 108.797 113.281C109.844 113.281 110.688 113.133 111.328 112.836C111.969 112.523 112.438 112.117 112.734 111.617C113.031 111.102 113.18 110.539 113.18 109.93ZM133.055 116.023L139.617 93.6406H148.102L137.906 122.773C137.688 123.414 137.398 124.102 137.039 124.836C136.68 125.586 136.188 126.297 135.562 126.969C134.938 127.641 134.133 128.188 133.148 128.609C132.18 129.031 130.977 129.242 129.539 129.242C128.773 129.242 128.211 129.203 127.852 129.125C127.508 129.062 126.977 128.945 126.258 128.773V123.125C126.461 123.125 126.633 123.125 126.773 123.125C126.93 123.125 127.102 123.125 127.289 123.125C128.133 123.125 128.805 123.039 129.305 122.867C129.82 122.695 130.211 122.445 130.477 122.117C130.758 121.789 130.977 121.391 131.133 120.922L133.055 116.023ZM131.391 93.6406L136.383 111.383L137.25 119.75H131.953L122.93 93.6406H131.391ZM163.453 111.875C163.453 111.438 163.305 111.062 163.008 110.75C162.727 110.422 162.227 110.125 161.508 109.859C160.789 109.578 159.781 109.297 158.484 109.016C157.25 108.75 156.086 108.398 154.992 107.961C153.914 107.523 152.969 106.992 152.156 106.367C151.344 105.742 150.703 105 150.234 104.141C149.781 103.281 149.555 102.297 149.555 101.188C149.555 100.109 149.781 99.0938 150.234 98.1406C150.703 97.1719 151.383 96.3203 152.273 95.5859C153.18 94.8359 154.281 94.25 155.578 93.8281C156.875 93.3906 158.352 93.1719 160.008 93.1719C162.289 93.1719 164.258 93.5234 165.914 94.2266C167.57 94.9141 168.844 95.8828 169.734 97.1328C170.641 98.3672 171.094 99.7969 171.094 101.422H163.195C163.195 100.781 163.086 100.234 162.867 99.7812C162.664 99.3281 162.328 98.9844 161.859 98.75C161.391 98.5 160.766 98.375 159.984 98.375C159.438 98.375 158.938 98.4766 158.484 98.6797C158.047 98.8828 157.695 99.1641 157.43 99.5234C157.164 99.8828 157.031 100.305 157.031 100.789C157.031 101.133 157.109 101.445 157.266 101.727C157.438 101.992 157.695 102.242 158.039 102.477C158.383 102.695 158.82 102.898 159.352 103.086C159.883 103.258 160.523 103.414 161.273 103.555C162.977 103.867 164.57 104.312 166.055 104.891C167.539 105.469 168.742 106.289 169.664 107.352C170.602 108.414 171.07 109.844 171.07 111.641C171.07 112.766 170.812 113.805 170.297 114.758C169.781 115.695 169.039 116.523 168.07 117.242C167.102 117.945 165.938 118.492 164.578 118.883C163.219 119.273 161.688 119.469 159.984 119.469C157.562 119.469 155.516 119.039 153.844 118.18C152.172 117.305 150.906 116.211 150.047 114.898C149.203 113.57 148.781 112.227 148.781 110.867H156.141C156.172 111.648 156.359 112.289 156.703 112.789C157.062 113.289 157.539 113.656 158.133 113.891C158.727 114.125 159.414 114.242 160.195 114.242C160.914 114.242 161.508 114.141 161.977 113.938C162.461 113.734 162.828 113.461 163.078 113.117C163.328 112.758 163.453 112.344 163.453 111.875ZM188.133 93.6406V99.125H172.852V93.6406H188.133ZM176.062 87.3359H183.961V110.727C183.961 111.398 184.039 111.922 184.195 112.297C184.352 112.656 184.617 112.914 184.992 113.07C185.383 113.211 185.898 113.281 186.539 113.281C186.992 113.281 187.367 113.273 187.664 113.258C187.961 113.227 188.242 113.188 188.508 113.141V118.789C187.836 119.008 187.133 119.172 186.398 119.281C185.664 119.406 184.883 119.469 184.055 119.469C182.367 119.469 180.922 119.203 179.719 118.672C178.531 118.141 177.625 117.305 177 116.164C176.375 115.023 176.062 113.539 176.062 111.711V87.3359ZM203.555 119.469C201.492 119.469 199.648 119.148 198.023 118.508C196.398 117.852 195.023 116.953 193.898 115.812C192.789 114.672 191.938 113.359 191.344 111.875C190.766 110.391 190.477 108.82 190.477 107.164V106.273C190.477 104.414 190.734 102.695 191.25 101.117C191.766 99.5234 192.531 98.1328 193.547 96.9453C194.562 95.7578 195.836 94.8359 197.367 94.1797C198.898 93.5078 200.68 93.1719 202.711 93.1719C204.508 93.1719 206.117 93.4609 207.539 94.0391C208.961 94.6172 210.164 95.4453 211.148 96.5234C212.148 97.6016 212.906 98.9062 213.422 100.438C213.953 101.969 214.219 103.688 214.219 105.594V108.805H193.5V103.859H206.508V103.25C206.523 102.406 206.375 101.688 206.062 101.094C205.766 100.5 205.328 100.047 204.75 99.7344C204.172 99.4219 203.469 99.2656 202.641 99.2656C201.781 99.2656 201.07 99.4531 200.508 99.8281C199.961 100.203 199.531 100.719 199.219 101.375C198.922 102.016 198.711 102.758 198.586 103.602C198.461 104.445 198.398 105.336 198.398 106.273V107.164C198.398 108.102 198.523 108.953 198.773 109.719C199.039 110.484 199.414 111.141 199.898 111.688C200.398 112.219 200.992 112.633 201.68 112.93C202.383 113.227 203.18 113.375 204.07 113.375C205.148 113.375 206.211 113.172 207.258 112.766C208.305 112.359 209.203 111.688 209.953 110.75L213.539 115.016C213.023 115.75 212.289 116.461 211.336 117.148C210.398 117.836 209.273 118.398 207.961 118.836C206.648 119.258 205.18 119.469 203.555 119.469ZM225.398 99.0078V119H217.5V93.6406H224.906L225.398 99.0078ZM224.438 105.453L222.633 105.5C222.633 103.719 222.844 102.078 223.266 100.578C223.688 99.0781 224.312 97.7734 225.141 96.6641C225.969 95.5547 226.984 94.6953 228.188 94.0859C229.406 93.4766 230.812 93.1719 232.406 93.1719C233.516 93.1719 234.523 93.3438 235.43 93.6875C236.336 94.0156 237.117 94.5391 237.773 95.2578C238.43 95.9609 238.93 96.8828 239.273 98.0234C239.633 99.1484 239.812 100.5 239.812 102.078V119H231.914V103.086C231.914 102.008 231.789 101.195 231.539 100.648C231.305 100.102 230.961 99.7344 230.508 99.5469C230.055 99.3594 229.5 99.2656 228.844 99.2656C228.156 99.2656 227.539 99.4219 226.992 99.7344C226.445 100.047 225.977 100.484 225.586 101.047C225.211 101.594 224.922 102.242 224.719 102.992C224.531 103.742 224.438 104.562 224.438 105.453ZM238.922 105.453L236.719 105.5C236.719 103.719 236.914 102.078 237.305 100.578C237.711 99.0781 238.312 97.7734 239.109 96.6641C239.922 95.5547 240.93 94.6953 242.133 94.0859C243.336 93.4766 244.734 93.1719 246.328 93.1719C247.484 93.1719 248.547 93.3438 249.516 93.6875C250.484 94.0312 251.32 94.5859 252.023 95.3516C252.727 96.1172 253.273 97.1328 253.664 98.3984C254.055 99.6484 254.25 101.195 254.25 103.039V119H246.328V103.039C246.328 101.992 246.203 101.203 245.953 100.672C245.719 100.125 245.375 99.7578 244.922 99.5703C244.469 99.3672 243.93 99.2656 243.305 99.2656C242.555 99.2656 241.906 99.4219 241.359 99.7344C240.812 100.047 240.352 100.484 239.977 101.047C239.617 101.594 239.352 102.242 239.18 102.992C239.008 103.742 238.922 104.562 238.922 105.453ZM282.188 119H274.617L274.664 112.672H282.188C283.75 112.672 285.07 112.297 286.148 111.547C287.242 110.797 288.07 109.68 288.633 108.195C289.211 106.695 289.5 104.852 289.5 102.664V101.188C289.5 99.5469 289.336 98.1094 289.008 96.875C288.695 95.625 288.227 94.5859 287.602 93.7578C286.977 92.9141 286.195 92.2812 285.258 91.8594C284.336 91.4375 283.273 91.2266 282.07 91.2266H274.477V84.875H282.07C284.383 84.875 286.5 85.2734 288.422 86.0703C290.359 86.8516 292.031 87.9766 293.438 89.4453C294.859 90.8984 295.953 92.625 296.719 94.625C297.5 96.6094 297.891 98.8125 297.891 101.234V102.664C297.891 105.07 297.5 107.273 296.719 109.273C295.953 111.273 294.867 113 293.461 114.453C292.055 115.906 290.391 117.031 288.469 117.828C286.562 118.609 284.469 119 282.188 119ZM279.328 84.875V119H271.102V84.875H279.328ZM314.086 119.469C312.023 119.469 310.18 119.148 308.555 118.508C306.93 117.852 305.555 116.953 304.43 115.812C303.32 114.672 302.469 113.359 301.875 111.875C301.297 110.391 301.008 108.82 301.008 107.164V106.273C301.008 104.414 301.266 102.695 301.781 101.117C302.297 99.5234 303.062 98.1328 304.078 96.9453C305.094 95.7578 306.367 94.8359 307.898 94.1797C309.43 93.5078 311.211 93.1719 313.242 93.1719C315.039 93.1719 316.648 93.4609 318.07 94.0391C319.492 94.6172 320.695 95.4453 321.68 96.5234C322.68 97.6016 323.438 98.9062 323.953 100.438C324.484 101.969 324.75 103.688 324.75 105.594V108.805H304.031V103.859H317.039V103.25C317.055 102.406 316.906 101.688 316.594 101.094C316.297 100.5 315.859 100.047 315.281 99.7344C314.703 99.4219 314 99.2656 313.172 99.2656C312.312 99.2656 311.602 99.4531 311.039 99.8281C310.492 100.203 310.062 100.719 309.75 101.375C309.453 102.016 309.242 102.758 309.117 103.602C308.992 104.445 308.93 105.336 308.93 106.273V107.164C308.93 108.102 309.055 108.953 309.305 109.719C309.57 110.484 309.945 111.141 310.43 111.688C310.93 112.219 311.523 112.633 312.211 112.93C312.914 113.227 313.711 113.375 314.602 113.375C315.68 113.375 316.742 113.172 317.789 112.766C318.836 112.359 319.734 111.688 320.484 110.75L324.07 115.016C323.555 115.75 322.82 116.461 321.867 117.148C320.93 117.836 319.805 118.398 318.492 118.836C317.18 119.258 315.711 119.469 314.086 119.469ZM341.25 111.875C341.25 111.438 341.102 111.062 340.805 110.75C340.523 110.422 340.023 110.125 339.305 109.859C338.586 109.578 337.578 109.297 336.281 109.016C335.047 108.75 333.883 108.398 332.789 107.961C331.711 107.523 330.766 106.992 329.953 106.367C329.141 105.742 328.5 105 328.031 104.141C327.578 103.281 327.352 102.297 327.352 101.188C327.352 100.109 327.578 99.0938 328.031 98.1406C328.5 97.1719 329.18 96.3203 330.07 95.5859C330.977 94.8359 332.078 94.25 333.375 93.8281C334.672 93.3906 336.148 93.1719 337.805 93.1719C340.086 93.1719 342.055 93.5234 343.711 94.2266C345.367 94.9141 346.641 95.8828 347.531 97.1328C348.438 98.3672 348.891 99.7969 348.891 101.422H340.992C340.992 100.781 340.883 100.234 340.664 99.7812C340.461 99.3281 340.125 98.9844 339.656 98.75C339.188 98.5 338.562 98.375 337.781 98.375C337.234 98.375 336.734 98.4766 336.281 98.6797C335.844 98.8828 335.492 99.1641 335.227 99.5234C334.961 99.8828 334.828 100.305 334.828 100.789C334.828 101.133 334.906 101.445 335.062 101.727C335.234 101.992 335.492 102.242 335.836 102.477C336.18 102.695 336.617 102.898 337.148 103.086C337.68 103.258 338.32 103.414 339.07 103.555C340.773 103.867 342.367 104.312 343.852 104.891C345.336 105.469 346.539 106.289 347.461 107.352C348.398 108.414 348.867 109.844 348.867 111.641C348.867 112.766 348.609 113.805 348.094 114.758C347.578 115.695 346.836 116.523 345.867 117.242C344.898 117.945 343.734 118.492 342.375 118.883C341.016 119.273 339.484 119.469 337.781 119.469C335.359 119.469 333.312 119.039 331.641 118.18C329.969 117.305 328.703 116.211 327.844 114.898C327 113.57 326.578 112.227 326.578 110.867H333.938C333.969 111.648 334.156 112.289 334.5 112.789C334.859 113.289 335.336 113.656 335.93 113.891C336.523 114.125 337.211 114.242 337.992 114.242C338.711 114.242 339.305 114.141 339.773 113.938C340.258 113.734 340.625 113.461 340.875 113.117C341.125 112.758 341.25 112.344 341.25 111.875ZM360.914 93.6406V119H352.992V93.6406H360.914ZM352.523 87.1016C352.523 85.9766 352.93 85.0547 353.742 84.3359C354.555 83.6172 355.609 83.2578 356.906 83.2578C358.203 83.2578 359.258 83.6172 360.07 84.3359C360.883 85.0547 361.289 85.9766 361.289 87.1016C361.289 88.2266 360.883 89.1484 360.07 89.8672C359.258 90.5859 358.203 90.9453 356.906 90.9453C355.609 90.9453 354.555 90.5859 353.742 89.8672C352.93 89.1484 352.523 88.2266 352.523 87.1016ZM381.727 93.6406H388.898V118.016C388.898 120.359 388.359 122.344 387.281 123.969C386.203 125.609 384.695 126.852 382.758 127.695C380.836 128.555 378.586 128.984 376.008 128.984C374.867 128.984 373.703 128.836 372.516 128.539C371.328 128.258 370.219 127.836 369.188 127.273C368.156 126.711 367.289 126.016 366.586 125.188L369.891 120.547C370.531 121.266 371.336 121.875 372.305 122.375C373.273 122.891 374.414 123.148 375.727 123.148C376.867 123.148 377.82 122.945 378.586 122.539C379.367 122.133 379.961 121.539 380.367 120.758C380.773 119.992 380.977 119.062 380.977 117.969V99.6406L381.727 93.6406ZM364.875 106.625V106.133C364.875 104.211 365.109 102.461 365.578 100.883C366.062 99.2891 366.75 97.9219 367.641 96.7812C368.547 95.625 369.641 94.7344 370.922 94.1094C372.203 93.4844 373.648 93.1719 375.258 93.1719C376.992 93.1719 378.414 93.5078 379.523 94.1797C380.648 94.8359 381.547 95.7578 382.219 96.9453C382.906 98.1328 383.438 99.5234 383.812 101.117C384.203 102.695 384.531 104.398 384.797 106.227V106.812C384.531 108.531 384.164 110.156 383.695 111.688C383.242 113.203 382.648 114.547 381.914 115.719C381.18 116.891 380.258 117.812 379.148 118.484C378.055 119.141 376.742 119.469 375.211 119.469C373.617 119.469 372.18 119.148 370.898 118.508C369.633 117.867 368.547 116.969 367.641 115.812C366.75 114.656 366.062 113.297 365.578 111.734C365.109 110.172 364.875 108.469 364.875 106.625ZM372.773 106.133V106.625C372.773 107.578 372.859 108.461 373.031 109.273C373.219 110.086 373.5 110.805 373.875 111.43C374.25 112.039 374.711 112.516 375.258 112.859C375.82 113.203 376.477 113.375 377.227 113.375C378.367 113.375 379.289 113.133 379.992 112.648C380.695 112.164 381.203 111.477 381.516 110.586C381.828 109.695 381.961 108.648 381.914 107.445V105.594C381.945 104.562 381.875 103.656 381.703 102.875C381.531 102.078 381.258 101.414 380.883 100.883C380.523 100.352 380.039 99.9531 379.43 99.6875C378.836 99.4062 378.117 99.2656 377.273 99.2656C376.539 99.2656 375.891 99.4375 375.328 99.7812C374.766 100.125 374.297 100.609 373.922 101.234C373.547 101.844 373.258 102.57 373.055 103.414C372.867 104.242 372.773 105.148 372.773 106.133ZM401.203 99.0547V119H393.305V93.6406H400.711L401.203 99.0547ZM400.266 105.453L398.414 105.5C398.414 103.562 398.648 101.836 399.117 100.32C399.586 98.7891 400.25 97.4922 401.109 96.4297C401.969 95.3672 402.992 94.5625 404.18 94.0156C405.383 93.4531 406.719 93.1719 408.188 93.1719C409.359 93.1719 410.43 93.3438 411.398 93.6875C412.383 94.0312 413.227 94.5859 413.93 95.3516C414.648 96.1172 415.195 97.1328 415.57 98.3984C415.961 99.6484 416.156 101.195 416.156 103.039V119H408.211V103.016C408.211 102 408.07 101.227 407.789 100.695C407.508 100.148 407.102 99.7734 406.57 99.5703C406.039 99.3672 405.391 99.2656 404.625 99.2656C403.812 99.2656 403.125 99.4219 402.562 99.7344C402 100.047 401.547 100.484 401.203 101.047C400.875 101.594 400.633 102.242 400.477 102.992C400.336 103.742 400.266 104.562 400.266 105.453Z" fill="black"/>
<path d="M1134 0H1348C1356.28 0 1363 6.71573 1363 15V148C1363 156.284 1356.28 163 1348 163H1134V0Z" fill="#248FEF"/>
<path d="M1248.5 51.6667C1257.07 51.6667 1264.74 52.9908 1270.29 55.1784C1273.06 56.2717 1275.33 57.5902 1276.91 59.0895C1278.49 60.5911 1279.42 62.3052 1279.42 64.1667C1279.42 66.0281 1278.49 67.7423 1276.91 69.2438C1275.33 70.7432 1273.06 72.0617 1270.29 73.155C1264.74 75.3426 1257.07 76.6667 1248.5 76.6667C1239.93 76.6667 1232.26 75.3427 1226.71 73.155C1223.94 72.0616 1221.68 70.7433 1220.09 69.2438C1218.51 67.7423 1217.58 66.0281 1217.58 64.1667C1217.58 62.3052 1218.51 60.5911 1220.09 59.0895C1221.68 57.5901 1223.94 56.2717 1226.71 55.1784C1232.26 52.9907 1239.93 51.6667 1248.5 51.6667ZM1248.5 55.3337C1242.07 55.3337 1235.28 56.2868 1230.11 57.9147C1227.52 58.7295 1225.37 59.7039 1223.88 60.7917C1222.37 61.8874 1221.63 63.0284 1221.63 64.1667C1221.63 65.305 1222.37 66.446 1223.88 67.5417C1225.37 68.6295 1227.52 69.6039 1230.11 70.4186C1235.28 72.0466 1242.07 72.9997 1248.5 72.9997C1254.93 72.9997 1261.73 72.0466 1266.89 70.4186C1269.48 69.6038 1271.63 68.6296 1273.12 67.5417C1274.63 66.446 1275.38 65.305 1275.38 64.1667C1275.38 63.0284 1274.63 61.8874 1273.12 60.7917C1271.63 59.7037 1269.48 58.7296 1266.89 57.9147C1261.73 56.2868 1254.93 55.3337 1248.5 55.3337Z" fill="white" stroke="white"/>
<path d="M1277.4 62.3333C1277.91 62.3333 1278.42 62.5126 1278.8 62.848L1278.94 62.9808C1279.24 63.304 1279.42 63.7211 1279.42 64.1663V74.8333C1279.42 76.6948 1278.49 78.4089 1276.91 79.9105C1275.33 81.4098 1273.06 82.7283 1270.29 83.8216C1264.74 86.0092 1257.07 87.3333 1248.5 87.3333C1239.93 87.3333 1232.26 86.0093 1226.71 83.8216C1223.94 82.7283 1221.68 81.4099 1220.09 79.9105C1218.51 78.4089 1217.58 76.6948 1217.58 74.8333V64.1663C1217.58 63.6574 1217.82 63.1851 1218.2 62.848L1218.35 62.7298C1218.71 62.4708 1219.15 62.3334 1219.6 62.3333C1220.12 62.3333 1220.63 62.5126 1221.01 62.848C1221.39 63.1851 1221.63 63.6574 1221.63 64.1663V74.8333C1221.63 75.9716 1222.37 77.1126 1223.88 78.2083C1225.37 79.2961 1227.52 80.2705 1230.11 81.0853C1235.28 82.7132 1242.07 83.6663 1248.5 83.6663C1254.93 83.6663 1261.73 82.7132 1266.89 81.0853C1269.48 80.2704 1271.63 79.2963 1273.12 78.2083C1274.63 77.1126 1275.38 75.9716 1275.38 74.8333V64.1663C1275.38 63.6575 1275.61 63.1851 1275.99 62.848L1276.14 62.7298C1276.5 62.4708 1276.94 62.3333 1277.4 62.3333Z" fill="white" stroke="white"/>
<path d="M1277.4 73C1277.91 73 1278.42 73.1793 1278.8 73.5146L1278.94 73.6475C1279.24 73.9707 1279.42 74.3878 1279.42 74.833V86.833C1279.42 88.6945 1278.49 90.4086 1276.91 91.9102C1275.33 93.4096 1273.06 94.7289 1270.29 95.8223C1264.74 98.0099 1257.07 99.333 1248.5 99.333C1239.93 99.333 1232.26 98.01 1226.71 95.8223C1223.94 94.7289 1221.68 93.4096 1220.09 91.9102C1218.51 90.4087 1217.58 88.6944 1217.58 86.833V74.833L1217.59 74.6445C1217.64 74.2084 1217.86 73.8097 1218.2 73.5146L1218.35 73.3965C1218.71 73.1375 1219.15 73.0001 1219.6 73C1220.12 73 1220.63 73.1793 1221.01 73.5146L1221.15 73.6475C1221.45 73.9707 1221.63 74.3877 1221.63 74.833V86.833C1221.63 87.9713 1222.37 89.1123 1223.88 90.208C1225.37 91.2959 1227.52 92.2711 1230.11 93.0859C1235.28 94.7139 1242.07 95.667 1248.5 95.667C1254.93 95.667 1261.73 94.7139 1266.89 93.0859C1269.48 92.2711 1271.63 91.296 1273.12 90.208C1274.63 89.1124 1275.38 87.9713 1275.38 86.833V74.833C1275.38 74.3242 1275.61 73.8518 1275.99 73.5146L1276.14 73.3965C1276.5 73.1375 1276.94 73 1277.4 73Z" fill="white" stroke="white"/>
<path d="M1277.4 85C1277.91 85 1278.42 85.1793 1278.8 85.5146L1278.94 85.6475C1279.24 85.9707 1279.42 86.3878 1279.42 86.833V98.833C1279.42 100.694 1278.49 102.409 1276.91 103.91C1275.33 105.41 1273.06 106.729 1270.29 107.822C1264.74 110.01 1257.07 111.333 1248.5 111.333C1239.93 111.333 1232.26 110.01 1226.71 107.822C1223.94 106.729 1221.68 105.41 1220.09 103.91C1218.51 102.409 1217.58 100.694 1217.58 98.833V86.833L1217.59 86.6445C1217.64 86.2084 1217.86 85.8097 1218.2 85.5146L1218.35 85.3965C1218.71 85.1375 1219.15 85.0001 1219.6 85C1220.12 85 1220.63 85.1793 1221.01 85.5146L1221.15 85.6475C1221.45 85.9707 1221.63 86.3877 1221.63 86.833V98.833C1221.63 99.9713 1222.37 101.112 1223.88 102.208C1225.37 103.296 1227.52 104.271 1230.11 105.086C1235.28 106.714 1242.07 107.667 1248.5 107.667C1254.93 107.667 1261.73 106.714 1266.89 105.086C1269.48 104.271 1271.63 103.296 1273.12 102.208C1274.63 101.112 1275.38 99.9713 1275.38 98.833V86.833C1275.38 86.3242 1275.61 85.8518 1275.99 85.5146L1276.14 85.3965C1276.5 85.1375 1276.94 85 1277.4 85Z" fill="white" stroke="white"/>
</svg>
