<svg width="1363" height="297" viewBox="0 0 1363 297" fill="none" xmlns="http://www.w3.org/2000/svg">
<path d="M0 15C0 6.71573 6.71573 0 15 0H37V297H15C6.71573 297 0 290.284 0 282V15Z" fill="#248FEF"/>
<path d="M37 0H1066V297H37V0Z" fill="#F0F0F0"/>
<path d="M97.6934 49.4062H102.158L108.732 68.1973L115.307 49.4062H119.771L110.525 75H106.939L97.6934 49.4062ZM95.2852 49.4062H99.7324L100.541 67.7227V75H95.2852V49.4062ZM117.732 49.4062H122.197V75H116.924V67.7227L117.732 49.4062ZM136.77 70.7109V62.2383C136.77 61.6289 136.67 61.1074 136.471 60.6738C136.271 60.2285 135.961 59.8828 135.539 59.6367C135.129 59.3906 134.596 59.2676 133.939 59.2676C133.377 59.2676 132.891 59.3672 132.48 59.5664C132.07 59.7539 131.754 60.0293 131.531 60.3926C131.309 60.7441 131.197 61.1602 131.197 61.6406H126.135C126.135 60.832 126.322 60.0645 126.697 59.3379C127.072 58.6113 127.617 57.9727 128.332 57.4219C129.047 56.8594 129.896 56.4199 130.881 56.1035C131.877 55.7871 132.99 55.6289 134.221 55.6289C135.697 55.6289 137.01 55.875 138.158 56.3672C139.307 56.8594 140.209 57.5977 140.865 58.582C141.533 59.5664 141.867 60.7969 141.867 62.2734V70.4121C141.867 71.4551 141.932 72.3105 142.061 72.9785C142.189 73.6348 142.377 74.209 142.623 74.7012V75H137.508C137.262 74.4844 137.074 73.8398 136.945 73.0664C136.828 72.2812 136.77 71.4961 136.77 70.7109ZM137.438 63.416L137.473 66.2812H134.643C133.975 66.2812 133.395 66.3574 132.902 66.5098C132.41 66.6621 132.006 66.8789 131.689 67.1602C131.373 67.4297 131.139 67.7461 130.986 68.1094C130.846 68.4727 130.775 68.8711 130.775 69.3047C130.775 69.7383 130.875 70.1309 131.074 70.4824C131.273 70.8223 131.561 71.0918 131.936 71.291C132.311 71.4785 132.75 71.5723 133.254 71.5723C134.016 71.5723 134.678 71.4199 135.24 71.1152C135.803 70.8105 136.236 70.4355 136.541 69.9902C136.857 69.5449 137.021 69.123 137.033 68.7246L138.369 70.8691C138.182 71.3496 137.924 71.8477 137.596 72.3633C137.279 72.8789 136.875 73.3652 136.383 73.8223C135.891 74.2676 135.299 74.6367 134.607 74.9297C133.916 75.2109 133.096 75.3516 132.146 75.3516C130.939 75.3516 129.844 75.1113 128.859 74.6309C127.887 74.1387 127.113 73.4648 126.539 72.6094C125.977 71.7422 125.695 70.7578 125.695 69.6562C125.695 68.6602 125.883 67.7754 126.258 67.002C126.633 66.2285 127.184 65.5781 127.91 65.0508C128.648 64.5117 129.568 64.1074 130.67 63.8379C131.771 63.5566 133.049 63.416 134.502 63.416H137.438ZM150.709 48V75H145.646V48H150.709ZM149.988 64.8223H148.6C148.611 63.498 148.787 62.2793 149.127 61.166C149.467 60.041 149.953 59.0684 150.586 58.248C151.219 57.416 151.975 56.7715 152.854 56.3145C153.744 55.8574 154.729 55.6289 155.807 55.6289C156.744 55.6289 157.594 55.7637 158.355 56.0332C159.129 56.291 159.791 56.7129 160.342 57.2988C160.904 57.873 161.338 58.6289 161.643 59.5664C161.947 60.5039 162.1 61.6406 162.1 62.9766V75H157.002V62.9414C157.002 62.0977 156.879 61.4355 156.633 60.9551C156.398 60.4629 156.053 60.1172 155.596 59.918C155.15 59.707 154.6 59.6016 153.943 59.6016C153.217 59.6016 152.596 59.7363 152.08 60.0059C151.576 60.2754 151.172 60.6504 150.867 61.1309C150.562 61.5996 150.34 62.1504 150.199 62.7832C150.059 63.416 149.988 64.0957 149.988 64.8223ZM177.182 70.8516V48H182.279V75H177.691L177.182 70.8516ZM165.158 65.7188V65.3496C165.158 63.8965 165.322 62.5781 165.65 61.3945C165.979 60.1992 166.459 59.1738 167.092 58.3184C167.725 57.4629 168.504 56.8008 169.43 56.332C170.355 55.8633 171.41 55.6289 172.594 55.6289C173.707 55.6289 174.68 55.8633 175.512 56.332C176.355 56.8008 177.07 57.4688 177.656 58.3359C178.254 59.1914 178.734 60.2051 179.098 61.377C179.461 62.5371 179.725 63.8086 179.889 65.1914V66C179.725 67.3242 179.461 68.5547 179.098 69.6914C178.734 70.8281 178.254 71.8242 177.656 72.6797C177.07 73.5234 176.355 74.1797 175.512 74.6484C174.668 75.1172 173.684 75.3516 172.559 75.3516C171.375 75.3516 170.32 75.1113 169.395 74.6309C168.48 74.1504 167.707 73.4766 167.074 72.6094C166.453 71.7422 165.979 70.7227 165.65 69.5508C165.322 68.3789 165.158 67.1016 165.158 65.7188ZM170.221 65.3496V65.7188C170.221 66.5039 170.279 67.2363 170.396 67.916C170.525 68.5957 170.73 69.1992 171.012 69.7266C171.305 70.2422 171.68 70.6465 172.137 70.9395C172.605 71.2207 173.174 71.3613 173.842 71.3613C174.709 71.3613 175.424 71.168 175.986 70.7812C176.549 70.3828 176.977 69.8379 177.27 69.1465C177.574 68.4551 177.75 67.6582 177.797 66.7559V64.4531C177.762 63.7148 177.656 63.0527 177.48 62.4668C177.316 61.8691 177.07 61.3594 176.742 60.9375C176.426 60.5156 176.027 60.1875 175.547 59.9531C175.078 59.7188 174.521 59.6016 173.877 59.6016C173.221 59.6016 172.658 59.7539 172.189 60.0586C171.721 60.3516 171.34 60.7559 171.047 61.2715C170.766 61.7871 170.555 62.3965 170.414 63.0996C170.285 63.791 170.221 64.541 170.221 65.3496ZM191.578 55.9805V75H186.498V55.9805H191.578ZM186.182 51.0234C186.182 50.2852 186.439 49.6758 186.955 49.1953C187.471 48.7148 188.162 48.4746 189.029 48.4746C189.885 48.4746 190.57 48.7148 191.086 49.1953C191.613 49.6758 191.877 50.2852 191.877 51.0234C191.877 51.7617 191.613 52.3711 191.086 52.8516C190.57 53.332 189.885 53.5723 189.029 53.5723C188.162 53.5723 187.471 53.332 186.955 52.8516C186.439 52.3711 186.182 51.7617 186.182 51.0234ZM215.537 49.4062V75H210.281V49.4062H215.537ZM223.412 49.4062V53.5371H202.529V49.4062H223.412ZM233.695 70.7109V62.2383C233.695 61.6289 233.596 61.1074 233.396 60.6738C233.197 60.2285 232.887 59.8828 232.465 59.6367C232.055 59.3906 231.521 59.2676 230.865 59.2676C230.303 59.2676 229.816 59.3672 229.406 59.5664C228.996 59.7539 228.68 60.0293 228.457 60.3926C228.234 60.7441 228.123 61.1602 228.123 61.6406H223.061C223.061 60.832 223.248 60.0645 223.623 59.3379C223.998 58.6113 224.543 57.9727 225.258 57.4219C225.973 56.8594 226.822 56.4199 227.807 56.1035C228.803 55.7871 229.916 55.6289 231.146 55.6289C232.623 55.6289 233.936 55.875 235.084 56.3672C236.232 56.8594 237.135 57.5977 237.791 58.582C238.459 59.5664 238.793 60.7969 238.793 62.2734V70.4121C238.793 71.4551 238.857 72.3105 238.986 72.9785C239.115 73.6348 239.303 74.209 239.549 74.7012V75H234.434C234.188 74.4844 234 73.8398 233.871 73.0664C233.754 72.2812 233.695 71.4961 233.695 70.7109ZM234.363 63.416L234.398 66.2812H231.568C230.9 66.2812 230.32 66.3574 229.828 66.5098C229.336 66.6621 228.932 66.8789 228.615 67.1602C228.299 67.4297 228.064 67.7461 227.912 68.1094C227.771 68.4727 227.701 68.8711 227.701 69.3047C227.701 69.7383 227.801 70.1309 228 70.4824C228.199 70.8223 228.486 71.0918 228.861 71.291C229.236 71.4785 229.676 71.5723 230.18 71.5723C230.941 71.5723 231.604 71.4199 232.166 71.1152C232.729 70.8105 233.162 70.4355 233.467 69.9902C233.783 69.5449 233.947 69.123 233.959 68.7246L235.295 70.8691C235.107 71.3496 234.85 71.8477 234.521 72.3633C234.205 72.8789 233.801 73.3652 233.309 73.8223C232.816 74.2676 232.225 74.6367 231.533 74.9297C230.842 75.2109 230.021 75.3516 229.072 75.3516C227.865 75.3516 226.77 75.1113 225.785 74.6309C224.812 74.1387 224.039 73.4648 223.465 72.6094C222.902 71.7422 222.621 70.7578 222.621 69.6562C222.621 68.6602 222.809 67.7754 223.184 67.002C223.559 66.2285 224.109 65.5781 224.836 65.0508C225.574 64.5117 226.494 64.1074 227.596 63.8379C228.697 63.5566 229.975 63.416 231.428 63.416H234.363ZM248.039 48V75H242.959V48H248.039ZM262.488 70.7109V62.2383C262.488 61.6289 262.389 61.1074 262.189 60.6738C261.99 60.2285 261.68 59.8828 261.258 59.6367C260.848 59.3906 260.314 59.2676 259.658 59.2676C259.096 59.2676 258.609 59.3672 258.199 59.5664C257.789 59.7539 257.473 60.0293 257.25 60.3926C257.027 60.7441 256.916 61.1602 256.916 61.6406H251.854C251.854 60.832 252.041 60.0645 252.416 59.3379C252.791 58.6113 253.336 57.9727 254.051 57.4219C254.766 56.8594 255.615 56.4199 256.6 56.1035C257.596 55.7871 258.709 55.6289 259.939 55.6289C261.416 55.6289 262.729 55.875 263.877 56.3672C265.025 56.8594 265.928 57.5977 266.584 58.582C267.252 59.5664 267.586 60.7969 267.586 62.2734V70.4121C267.586 71.4551 267.65 72.3105 267.779 72.9785C267.908 73.6348 268.096 74.209 268.342 74.7012V75H263.227C262.98 74.4844 262.793 73.8398 262.664 73.0664C262.547 72.2812 262.488 71.4961 262.488 70.7109ZM263.156 63.416L263.191 66.2812H260.361C259.693 66.2812 259.113 66.3574 258.621 66.5098C258.129 66.6621 257.725 66.8789 257.408 67.1602C257.092 67.4297 256.857 67.7461 256.705 68.1094C256.564 68.4727 256.494 68.8711 256.494 69.3047C256.494 69.7383 256.594 70.1309 256.793 70.4824C256.992 70.8223 257.279 71.0918 257.654 71.291C258.029 71.4785 258.469 71.5723 258.973 71.5723C259.734 71.5723 260.396 71.4199 260.959 71.1152C261.521 70.8105 261.955 70.4355 262.26 69.9902C262.576 69.5449 262.74 69.123 262.752 68.7246L264.088 70.8691C263.9 71.3496 263.643 71.8477 263.314 72.3633C262.998 72.8789 262.594 73.3652 262.102 73.8223C261.609 74.2676 261.018 74.6367 260.326 74.9297C259.635 75.2109 258.814 75.3516 257.865 75.3516C256.658 75.3516 255.562 75.1113 254.578 74.6309C253.605 74.1387 252.832 73.4648 252.258 72.6094C251.695 71.7422 251.414 70.7578 251.414 69.6562C251.414 68.6602 251.602 67.7754 251.977 67.002C252.352 66.2285 252.902 65.5781 253.629 65.0508C254.367 64.5117 255.287 64.1074 256.389 63.8379C257.49 63.5566 258.768 63.416 260.221 63.416H263.156ZM276.832 48V75H271.752V48H276.832Z" fill="#888888"/>
<path d="M129.285 100.188V140H119.715L105.633 115.227V140H96.0352V100.188H105.633L119.715 124.961V100.188H129.285ZM149.246 140.547C146.84 140.547 144.689 140.173 142.793 139.426C140.897 138.66 139.293 137.612 137.98 136.281C136.686 134.951 135.693 133.419 135 131.688C134.326 129.956 133.988 128.124 133.988 126.191V125.152C133.988 122.983 134.289 120.978 134.891 119.137C135.492 117.277 136.385 115.655 137.57 114.27C138.755 112.884 140.241 111.809 142.027 111.043C143.814 110.259 145.892 109.867 148.262 109.867C150.358 109.867 152.236 110.204 153.895 110.879C155.553 111.553 156.957 112.52 158.105 113.777C159.272 115.035 160.156 116.557 160.758 118.344C161.378 120.13 161.688 122.135 161.688 124.359V128.105H137.516V122.336H152.691V121.625C152.71 120.641 152.536 119.802 152.172 119.109C151.826 118.417 151.315 117.888 150.641 117.523C149.966 117.159 149.146 116.977 148.18 116.977C147.177 116.977 146.348 117.195 145.691 117.633C145.053 118.07 144.552 118.672 144.188 119.438C143.841 120.185 143.595 121.051 143.449 122.035C143.303 123.02 143.23 124.059 143.23 125.152V126.191C143.23 127.285 143.376 128.279 143.668 129.172C143.978 130.065 144.415 130.831 144.98 131.469C145.564 132.089 146.257 132.572 147.059 132.918C147.879 133.264 148.809 133.438 149.848 133.438C151.105 133.438 152.345 133.201 153.566 132.727C154.788 132.253 155.836 131.469 156.711 130.375L160.895 135.352C160.293 136.208 159.436 137.038 158.324 137.84C157.23 138.642 155.918 139.298 154.387 139.809C152.855 140.301 151.142 140.547 149.246 140.547ZM173.254 110.414L177.41 118.562L181.703 110.414H191.273L183.508 124.824L191.684 140H182.031L177.41 131.25L172.816 140H163.164L171.34 124.824L163.602 110.414H173.254ZM209.895 110.414V116.812H192.066V110.414H209.895ZM195.812 103.059H205.027V130.348C205.027 131.132 205.118 131.742 205.301 132.18C205.483 132.599 205.793 132.9 206.23 133.082C206.686 133.246 207.288 133.328 208.035 133.328C208.564 133.328 209.001 133.319 209.348 133.301C209.694 133.264 210.022 133.219 210.332 133.164V139.754C209.548 140.009 208.728 140.201 207.871 140.328C207.014 140.474 206.103 140.547 205.137 140.547C203.168 140.547 201.482 140.237 200.078 139.617C198.693 138.997 197.635 138.022 196.906 136.691C196.177 135.361 195.812 133.629 195.812 131.496V103.059ZM234.504 129.418C234.504 128.798 234.413 128.242 234.23 127.75C234.048 127.24 233.711 126.766 233.219 126.328C232.727 125.891 232.016 125.453 231.086 125.016C230.174 124.56 228.971 124.086 227.477 123.594C225.727 123.01 224.04 122.354 222.418 121.625C220.796 120.878 219.346 120.012 218.07 119.027C216.794 118.025 215.783 116.858 215.035 115.527C214.288 114.178 213.914 112.611 213.914 110.824C213.914 109.111 214.297 107.57 215.062 106.203C215.828 104.818 216.895 103.642 218.262 102.676C219.647 101.691 221.27 100.944 223.129 100.434C224.988 99.9049 227.021 99.6406 229.227 99.6406C232.143 99.6406 234.714 100.151 236.938 101.172C239.18 102.174 240.93 103.605 242.188 105.465C243.464 107.306 244.102 109.484 244.102 112H234.559C234.559 110.997 234.349 110.113 233.93 109.348C233.529 108.582 232.918 107.98 232.098 107.543C231.277 107.105 230.247 106.887 229.008 106.887C227.805 106.887 226.793 107.069 225.973 107.434C225.152 107.798 224.533 108.29 224.113 108.91C223.694 109.512 223.484 110.177 223.484 110.906C223.484 111.508 223.648 112.055 223.977 112.547C224.323 113.021 224.806 113.467 225.426 113.887C226.064 114.306 226.829 114.707 227.723 115.09C228.634 115.473 229.655 115.846 230.785 116.211C232.9 116.885 234.777 117.642 236.418 118.48C238.077 119.301 239.471 120.24 240.602 121.297C241.75 122.336 242.616 123.521 243.199 124.852C243.801 126.182 244.102 127.686 244.102 129.363C244.102 131.15 243.755 132.736 243.062 134.121C242.37 135.507 241.376 136.682 240.082 137.648C238.788 138.596 237.238 139.316 235.434 139.809C233.629 140.301 231.615 140.547 229.391 140.547C227.349 140.547 225.335 140.292 223.348 139.781C221.379 139.253 219.592 138.451 217.988 137.375C216.384 136.281 215.099 134.887 214.133 133.191C213.185 131.478 212.711 129.445 212.711 127.094H222.336C222.336 128.26 222.491 129.245 222.801 130.047C223.111 130.849 223.566 131.496 224.168 131.988C224.77 132.462 225.508 132.809 226.383 133.027C227.258 133.228 228.26 133.328 229.391 133.328C230.612 133.328 231.596 133.155 232.344 132.809C233.091 132.444 233.638 131.97 233.984 131.387C234.331 130.785 234.504 130.129 234.504 129.418ZM264.199 110.414V116.812H246.371V110.414H264.199ZM250.117 103.059H259.332V130.348C259.332 131.132 259.423 131.742 259.605 132.18C259.788 132.599 260.098 132.9 260.535 133.082C260.991 133.246 261.592 133.328 262.34 133.328C262.868 133.328 263.306 133.319 263.652 133.301C263.999 133.264 264.327 133.219 264.637 133.164V139.754C263.853 140.009 263.033 140.201 262.176 140.328C261.319 140.474 260.408 140.547 259.441 140.547C257.473 140.547 255.786 140.237 254.383 139.617C252.997 138.997 251.94 138.022 251.211 136.691C250.482 135.361 250.117 133.629 250.117 131.496V103.059ZM282.191 140.547C279.785 140.547 277.634 140.173 275.738 139.426C273.842 138.66 272.238 137.612 270.926 136.281C269.632 134.951 268.638 133.419 267.945 131.688C267.271 129.956 266.934 128.124 266.934 126.191V125.152C266.934 122.983 267.234 120.978 267.836 119.137C268.438 117.277 269.331 115.655 270.516 114.27C271.701 112.884 273.186 111.809 274.973 111.043C276.759 110.259 278.837 109.867 281.207 109.867C283.303 109.867 285.181 110.204 286.84 110.879C288.499 111.553 289.902 112.52 291.051 113.777C292.217 115.035 293.102 116.557 293.703 118.344C294.323 120.13 294.633 122.135 294.633 124.359V128.105H270.461V122.336H285.637V121.625C285.655 120.641 285.482 119.802 285.117 119.109C284.771 118.417 284.26 117.888 283.586 117.523C282.911 117.159 282.091 116.977 281.125 116.977C280.122 116.977 279.293 117.195 278.637 117.633C277.999 118.07 277.497 118.672 277.133 119.438C276.786 120.185 276.54 121.051 276.395 122.035C276.249 123.02 276.176 124.059 276.176 125.152V126.191C276.176 127.285 276.322 128.279 276.613 129.172C276.923 130.065 277.361 130.831 277.926 131.469C278.509 132.089 279.202 132.572 280.004 132.918C280.824 133.264 281.754 133.438 282.793 133.438C284.051 133.438 285.29 133.201 286.512 132.727C287.733 132.253 288.781 131.469 289.656 130.375L293.84 135.352C293.238 136.208 292.382 137.038 291.27 137.84C290.176 138.642 288.863 139.298 287.332 139.809C285.801 140.301 284.087 140.547 282.191 140.547ZM307.676 116.102V151.375H298.461V110.414H307.047L307.676 116.102ZM325.832 124.852V125.426C325.832 127.577 325.586 129.573 325.094 131.414C324.602 133.255 323.872 134.859 322.906 136.227C321.94 137.594 320.737 138.66 319.297 139.426C317.875 140.173 316.225 140.547 314.348 140.547C312.579 140.547 311.057 140.155 309.781 139.371C308.505 138.587 307.439 137.503 306.582 136.117C305.725 134.732 305.033 133.146 304.504 131.359C303.975 129.573 303.556 127.686 303.246 125.699V124.961C303.556 122.828 303.975 120.85 304.504 119.027C305.033 117.186 305.725 115.582 306.582 114.215C307.439 112.848 308.496 111.781 309.754 111.016C311.03 110.25 312.552 109.867 314.32 109.867C316.198 109.867 317.848 110.223 319.27 110.934C320.71 111.645 321.913 112.665 322.879 113.996C323.863 115.309 324.602 116.885 325.094 118.727C325.586 120.568 325.832 122.609 325.832 124.852ZM316.617 125.426V124.852C316.617 123.703 316.535 122.655 316.371 121.707C316.207 120.741 315.943 119.902 315.578 119.191C315.232 118.48 314.767 117.934 314.184 117.551C313.6 117.168 312.88 116.977 312.023 116.977C311.039 116.977 310.21 117.132 309.535 117.441C308.879 117.733 308.35 118.189 307.949 118.809C307.566 119.41 307.293 120.167 307.129 121.078C306.983 121.971 306.919 123.02 306.938 124.223V126.465C306.901 127.85 307.038 129.072 307.348 130.129C307.658 131.168 308.195 131.979 308.961 132.562C309.727 133.146 310.766 133.438 312.078 133.438C312.953 133.438 313.682 133.237 314.266 132.836C314.849 132.417 315.314 131.842 315.66 131.113C316.007 130.366 316.253 129.509 316.398 128.543C316.544 127.577 316.617 126.538 316.617 125.426ZM361.188 108.555L351.48 140H341.172L355.801 100.188H362.336L361.188 108.555ZM369.227 140L359.492 108.555L358.234 100.188H364.852L379.562 140H369.227ZM368.844 125.152V132.562H348.418V125.152H368.844ZM397.555 131.688C397.555 131.177 397.382 130.74 397.035 130.375C396.707 129.992 396.124 129.646 395.285 129.336C394.447 129.008 393.271 128.68 391.758 128.352C390.318 128.042 388.96 127.632 387.684 127.121C386.426 126.611 385.323 125.991 384.375 125.262C383.427 124.533 382.68 123.667 382.133 122.664C381.604 121.661 381.34 120.513 381.34 119.219C381.34 117.961 381.604 116.776 382.133 115.664C382.68 114.534 383.473 113.54 384.512 112.684C385.569 111.809 386.854 111.125 388.367 110.633C389.88 110.122 391.603 109.867 393.535 109.867C396.197 109.867 398.493 110.277 400.426 111.098C402.358 111.9 403.844 113.03 404.883 114.488C405.94 115.928 406.469 117.596 406.469 119.492H397.254C397.254 118.745 397.126 118.107 396.871 117.578C396.634 117.049 396.242 116.648 395.695 116.375C395.148 116.083 394.419 115.938 393.508 115.938C392.87 115.938 392.286 116.056 391.758 116.293C391.247 116.53 390.837 116.858 390.527 117.277C390.217 117.697 390.062 118.189 390.062 118.754C390.062 119.155 390.154 119.52 390.336 119.848C390.536 120.158 390.837 120.449 391.238 120.723C391.639 120.978 392.15 121.215 392.77 121.434C393.389 121.634 394.137 121.816 395.012 121.98C396.999 122.345 398.858 122.865 400.59 123.539C402.322 124.214 403.725 125.171 404.801 126.41C405.895 127.65 406.441 129.318 406.441 131.414C406.441 132.727 406.141 133.939 405.539 135.051C404.938 136.145 404.072 137.111 402.941 137.949C401.811 138.77 400.453 139.408 398.867 139.863C397.281 140.319 395.495 140.547 393.508 140.547C390.682 140.547 388.294 140.046 386.344 139.043C384.393 138.022 382.917 136.746 381.914 135.215C380.93 133.665 380.438 132.098 380.438 130.512H389.023C389.06 131.423 389.279 132.171 389.68 132.754C390.099 133.337 390.655 133.766 391.348 134.039C392.04 134.312 392.842 134.449 393.754 134.449C394.592 134.449 395.285 134.331 395.832 134.094C396.397 133.857 396.826 133.538 397.117 133.137C397.409 132.717 397.555 132.234 397.555 131.688ZM426.266 131.688C426.266 131.177 426.092 130.74 425.746 130.375C425.418 129.992 424.835 129.646 423.996 129.336C423.158 129.008 421.982 128.68 420.469 128.352C419.029 128.042 417.671 127.632 416.395 127.121C415.137 126.611 414.034 125.991 413.086 125.262C412.138 124.533 411.391 123.667 410.844 122.664C410.315 121.661 410.051 120.513 410.051 119.219C410.051 117.961 410.315 116.776 410.844 115.664C411.391 114.534 412.184 113.54 413.223 112.684C414.28 111.809 415.565 111.125 417.078 110.633C418.591 110.122 420.314 109.867 422.246 109.867C424.908 109.867 427.204 110.277 429.137 111.098C431.069 111.9 432.555 113.03 433.594 114.488C434.651 115.928 435.18 117.596 435.18 119.492H425.965C425.965 118.745 425.837 118.107 425.582 117.578C425.345 117.049 424.953 116.648 424.406 116.375C423.859 116.083 423.13 115.938 422.219 115.938C421.581 115.938 420.997 116.056 420.469 116.293C419.958 116.53 419.548 116.858 419.238 117.277C418.928 117.697 418.773 118.189 418.773 118.754C418.773 119.155 418.865 119.52 419.047 119.848C419.247 120.158 419.548 120.449 419.949 120.723C420.35 120.978 420.861 121.215 421.48 121.434C422.1 121.634 422.848 121.816 423.723 121.98C425.71 122.345 427.569 122.865 429.301 123.539C431.033 124.214 432.436 125.171 433.512 126.41C434.605 127.65 435.152 129.318 435.152 131.414C435.152 132.727 434.852 133.939 434.25 135.051C433.648 136.145 432.783 137.111 431.652 137.949C430.522 138.77 429.164 139.408 427.578 139.863C425.992 140.319 424.206 140.547 422.219 140.547C419.393 140.547 417.005 140.046 415.055 139.043C413.104 138.022 411.628 136.746 410.625 135.215C409.641 133.665 409.148 132.098 409.148 130.512H417.734C417.771 131.423 417.99 132.171 418.391 132.754C418.81 133.337 419.366 133.766 420.059 134.039C420.751 134.312 421.553 134.449 422.465 134.449C423.303 134.449 423.996 134.331 424.543 134.094C425.108 133.857 425.536 133.538 425.828 133.137C426.12 132.717 426.266 132.234 426.266 131.688ZM449.207 110.414V140H439.965V110.414H449.207ZM439.418 102.785C439.418 101.473 439.892 100.397 440.84 99.5586C441.788 98.7201 443.018 98.3008 444.531 98.3008C446.044 98.3008 447.275 98.7201 448.223 99.5586C449.171 100.397 449.645 101.473 449.645 102.785C449.645 104.098 449.171 105.173 448.223 106.012C447.275 106.85 446.044 107.27 444.531 107.27C443.018 107.27 441.788 106.85 440.84 106.012C439.892 105.173 439.418 104.098 439.418 102.785ZM470.398 131.688C470.398 131.177 470.225 130.74 469.879 130.375C469.551 129.992 468.967 129.646 468.129 129.336C467.29 129.008 466.115 128.68 464.602 128.352C463.161 128.042 461.803 127.632 460.527 127.121C459.27 126.611 458.167 125.991 457.219 125.262C456.271 124.533 455.523 123.667 454.977 122.664C454.448 121.661 454.184 120.513 454.184 119.219C454.184 117.961 454.448 116.776 454.977 115.664C455.523 114.534 456.316 113.54 457.355 112.684C458.413 111.809 459.698 111.125 461.211 110.633C462.724 110.122 464.447 109.867 466.379 109.867C469.04 109.867 471.337 110.277 473.27 111.098C475.202 111.9 476.688 113.03 477.727 114.488C478.784 115.928 479.312 117.596 479.312 119.492H470.098C470.098 118.745 469.97 118.107 469.715 117.578C469.478 117.049 469.086 116.648 468.539 116.375C467.992 116.083 467.263 115.938 466.352 115.938C465.714 115.938 465.13 116.056 464.602 116.293C464.091 116.53 463.681 116.858 463.371 117.277C463.061 117.697 462.906 118.189 462.906 118.754C462.906 119.155 462.997 119.52 463.18 119.848C463.38 120.158 463.681 120.449 464.082 120.723C464.483 120.978 464.993 121.215 465.613 121.434C466.233 121.634 466.98 121.816 467.855 121.98C469.842 122.345 471.702 122.865 473.434 123.539C475.165 124.214 476.569 125.171 477.645 126.41C478.738 127.65 479.285 129.318 479.285 131.414C479.285 132.727 478.984 133.939 478.383 135.051C477.781 136.145 476.915 137.111 475.785 137.949C474.655 138.77 473.297 139.408 471.711 139.863C470.125 140.319 468.339 140.547 466.352 140.547C463.526 140.547 461.138 140.046 459.188 139.043C457.237 138.022 455.76 136.746 454.758 135.215C453.773 133.665 453.281 132.098 453.281 130.512H461.867C461.904 131.423 462.122 132.171 462.523 132.754C462.943 133.337 463.499 133.766 464.191 134.039C464.884 134.312 465.686 134.449 466.598 134.449C467.436 134.449 468.129 134.331 468.676 134.094C469.241 133.857 469.669 133.538 469.961 133.137C470.253 132.717 470.398 132.234 470.398 131.688ZM499.191 110.414V116.812H481.363V110.414H499.191ZM485.109 103.059H494.324V130.348C494.324 131.132 494.415 131.742 494.598 132.18C494.78 132.599 495.09 132.9 495.527 133.082C495.983 133.246 496.585 133.328 497.332 133.328C497.861 133.328 498.298 133.319 498.645 133.301C498.991 133.264 499.319 133.219 499.629 133.164V139.754C498.845 140.009 498.025 140.201 497.168 140.328C496.311 140.474 495.4 140.547 494.434 140.547C492.465 140.547 490.779 140.237 489.375 139.617C487.99 138.997 486.932 138.022 486.203 136.691C485.474 135.361 485.109 133.629 485.109 131.496V103.059ZM518.223 132.562V120.367C518.223 119.529 518.104 118.809 517.867 118.207C517.63 117.605 517.257 117.141 516.746 116.812C516.236 116.466 515.552 116.293 514.695 116.293C514.003 116.293 513.41 116.411 512.918 116.648C512.426 116.885 512.052 117.241 511.797 117.715C511.542 118.189 511.414 118.79 511.414 119.52H502.199C502.199 118.152 502.5 116.885 503.102 115.719C503.721 114.534 504.596 113.504 505.727 112.629C506.875 111.754 508.242 111.079 509.828 110.605C511.432 110.113 513.219 109.867 515.188 109.867C517.539 109.867 519.635 110.259 521.477 111.043C523.336 111.827 524.803 113.003 525.879 114.57C526.954 116.12 527.492 118.07 527.492 120.422V132.535C527.492 134.467 527.602 135.935 527.82 136.938C528.039 137.922 528.349 138.788 528.75 139.535V140H519.508C519.07 139.089 518.742 137.977 518.523 136.664C518.323 135.333 518.223 133.966 518.223 132.562ZM519.344 121.926L519.398 126.848H515.324C514.467 126.848 513.738 126.966 513.137 127.203C512.553 127.44 512.079 127.768 511.715 128.188C511.368 128.589 511.113 129.044 510.949 129.555C510.803 130.065 510.73 130.603 510.73 131.168C510.73 131.715 510.858 132.207 511.113 132.645C511.387 133.064 511.751 133.392 512.207 133.629C512.663 133.866 513.173 133.984 513.738 133.984C514.759 133.984 515.625 133.793 516.336 133.41C517.065 133.009 517.621 132.526 518.004 131.961C518.387 131.396 518.578 130.867 518.578 130.375L520.602 134.148C520.237 134.878 519.818 135.616 519.344 136.363C518.888 137.111 518.314 137.803 517.621 138.441C516.947 139.061 516.117 139.572 515.133 139.973C514.148 140.355 512.954 140.547 511.551 140.547C509.728 140.547 508.051 140.173 506.52 139.426C505.007 138.678 503.794 137.639 502.883 136.309C501.971 134.96 501.516 133.41 501.516 131.66C501.516 130.129 501.789 128.762 502.336 127.559C502.901 126.355 503.749 125.335 504.879 124.496C506.009 123.658 507.449 123.02 509.199 122.582C510.949 122.145 513.009 121.926 515.379 121.926H519.344ZM541.656 116.73V140H532.441V110.414H541.082L541.656 116.73ZM540.562 124.195L538.402 124.25C538.402 121.99 538.676 119.975 539.223 118.207C539.77 116.421 540.544 114.908 541.547 113.668C542.549 112.428 543.743 111.49 545.129 110.852C546.533 110.195 548.091 109.867 549.805 109.867C551.172 109.867 552.421 110.068 553.551 110.469C554.699 110.87 555.684 111.517 556.504 112.41C557.342 113.303 557.98 114.488 558.418 115.965C558.874 117.423 559.102 119.228 559.102 121.379V140H549.832V121.352C549.832 120.167 549.668 119.264 549.34 118.645C549.012 118.007 548.538 117.569 547.918 117.332C547.298 117.095 546.542 116.977 545.648 116.977C544.701 116.977 543.898 117.159 543.242 117.523C542.586 117.888 542.057 118.398 541.656 119.055C541.273 119.693 540.991 120.449 540.809 121.324C540.645 122.199 540.562 123.156 540.562 124.195ZM579.801 110.414V116.812H561.973V110.414H579.801ZM565.719 103.059H574.934V130.348C574.934 131.132 575.025 131.742 575.207 132.18C575.389 132.599 575.699 132.9 576.137 133.082C576.592 133.246 577.194 133.328 577.941 133.328C578.47 133.328 578.908 133.319 579.254 133.301C579.6 133.264 579.928 133.219 580.238 133.164V139.754C579.454 140.009 578.634 140.201 577.777 140.328C576.921 140.474 576.009 140.547 575.043 140.547C573.074 140.547 571.388 140.237 569.984 139.617C568.599 138.997 567.542 138.022 566.812 136.691C566.083 135.361 565.719 133.629 565.719 131.496V103.059Z" fill="black"/>
<rect x="93" y="178" width="917" height="77" rx="10" fill="#D3D3D3"/>
<rect x="111" y="196" width="117" height="41" rx="3" fill="#424242"/>
<rect x="111" y="196" width="117" height="41" rx="3" stroke="#424242" stroke-width="4"/>
<path d="M134.203 210.203H139.239C140.224 210.203 141.079 210.35 141.806 210.643C142.532 210.936 143.092 211.369 143.484 211.943C143.883 212.518 144.082 213.227 144.082 214.07C144.082 214.803 143.968 215.415 143.739 215.907C143.511 216.399 143.191 216.807 142.781 217.129C142.377 217.445 141.905 217.706 141.366 217.911L140.355 218.482H136.128L136.11 216.101H139.239C139.632 216.101 139.957 216.03 140.215 215.89C140.473 215.749 140.666 215.55 140.795 215.292C140.93 215.028 140.997 214.715 140.997 214.352C140.997 213.982 140.93 213.666 140.795 213.402C140.66 213.139 140.461 212.937 140.197 212.796C139.939 212.655 139.62 212.585 139.239 212.585H137.288V223H134.203V210.203ZM141.208 223L138.378 217.34L141.647 217.322L144.513 222.868V223H141.208ZM150.41 223.176C149.637 223.176 148.945 223.056 148.336 222.815C147.727 222.569 147.211 222.232 146.789 221.805C146.373 221.377 146.054 220.885 145.831 220.328C145.614 219.771 145.506 219.183 145.506 218.562V218.228C145.506 217.53 145.603 216.886 145.796 216.294C145.989 215.696 146.276 215.175 146.657 214.729C147.038 214.284 147.516 213.938 148.09 213.692C148.664 213.44 149.332 213.314 150.094 213.314C150.768 213.314 151.371 213.423 151.904 213.64C152.438 213.856 152.889 214.167 153.258 214.571C153.633 214.976 153.917 215.465 154.11 216.039C154.31 216.613 154.409 217.258 154.409 217.973V219.177H146.64V217.322H151.518V217.094C151.523 216.777 151.468 216.508 151.351 216.285C151.239 216.062 151.075 215.893 150.858 215.775C150.642 215.658 150.378 215.6 150.067 215.6C149.745 215.6 149.479 215.67 149.268 215.811C149.062 215.951 148.901 216.145 148.784 216.391C148.673 216.631 148.594 216.909 148.547 217.226C148.5 217.542 148.477 217.876 148.477 218.228V218.562C148.477 218.913 148.523 219.232 148.617 219.52C148.717 219.807 148.857 220.053 149.039 220.258C149.227 220.457 149.449 220.612 149.707 220.724C149.971 220.835 150.27 220.891 150.604 220.891C151.008 220.891 151.406 220.814 151.799 220.662C152.191 220.51 152.528 220.258 152.81 219.906L154.154 221.506C153.961 221.781 153.686 222.048 153.328 222.306C152.977 222.563 152.555 222.774 152.062 222.938C151.57 223.097 151.02 223.176 150.41 223.176ZM160.553 220.609V216.689C160.553 216.42 160.515 216.188 160.438 215.995C160.362 215.802 160.242 215.652 160.078 215.547C159.914 215.436 159.694 215.38 159.419 215.38C159.196 215.38 159.006 215.418 158.848 215.494C158.689 215.57 158.569 215.685 158.487 215.837C158.405 215.989 158.364 216.183 158.364 216.417H155.402C155.402 215.978 155.499 215.57 155.692 215.195C155.892 214.814 156.173 214.483 156.536 214.202C156.905 213.921 157.345 213.704 157.854 213.552C158.37 213.394 158.944 213.314 159.577 213.314C160.333 213.314 161.007 213.44 161.599 213.692C162.196 213.944 162.668 214.322 163.014 214.826C163.359 215.324 163.532 215.951 163.532 216.707V220.601C163.532 221.222 163.567 221.693 163.638 222.016C163.708 222.332 163.808 222.61 163.937 222.851V223H160.966C160.825 222.707 160.72 222.35 160.649 221.928C160.585 221.5 160.553 221.061 160.553 220.609ZM160.913 217.19L160.931 218.772H159.621C159.346 218.772 159.111 218.811 158.918 218.887C158.73 218.963 158.578 219.068 158.461 219.203C158.35 219.332 158.268 219.479 158.215 219.643C158.168 219.807 158.145 219.979 158.145 220.161C158.145 220.337 158.186 220.495 158.268 220.636C158.355 220.771 158.473 220.876 158.619 220.952C158.766 221.028 158.93 221.066 159.111 221.066C159.439 221.066 159.718 221.005 159.946 220.882C160.181 220.753 160.359 220.598 160.482 220.416C160.605 220.234 160.667 220.064 160.667 219.906L161.317 221.119C161.2 221.354 161.065 221.591 160.913 221.831C160.767 222.071 160.582 222.294 160.359 222.499C160.143 222.698 159.876 222.862 159.56 222.991C159.243 223.114 158.859 223.176 158.408 223.176C157.822 223.176 157.283 223.056 156.791 222.815C156.305 222.575 155.915 222.241 155.622 221.813C155.329 221.38 155.183 220.882 155.183 220.319C155.183 219.827 155.271 219.388 155.446 219.001C155.628 218.614 155.9 218.286 156.264 218.017C156.627 217.747 157.09 217.542 157.652 217.401C158.215 217.261 158.877 217.19 159.639 217.19H160.913ZM169.192 220.891C169.468 220.891 169.702 220.841 169.896 220.741C170.095 220.636 170.244 220.489 170.344 220.302C170.449 220.108 170.499 219.877 170.493 219.607H173.279C173.285 220.322 173.109 220.949 172.752 221.488C172.4 222.021 171.92 222.438 171.311 222.736C170.707 223.029 170.024 223.176 169.263 223.176C168.519 223.176 167.868 223.056 167.312 222.815C166.755 222.569 166.289 222.229 165.914 221.796C165.545 221.356 165.267 220.844 165.079 220.258C164.897 219.672 164.807 219.036 164.807 218.351V218.148C164.807 217.463 164.897 216.827 165.079 216.241C165.267 215.649 165.545 215.137 165.914 214.703C166.289 214.264 166.752 213.924 167.303 213.684C167.859 213.438 168.507 213.314 169.245 213.314C170.036 213.314 170.733 213.464 171.337 213.763C171.946 214.062 172.424 214.495 172.77 215.063C173.115 215.632 173.285 216.32 173.279 217.129H170.493C170.499 216.842 170.455 216.584 170.361 216.355C170.268 216.127 170.121 215.945 169.922 215.811C169.729 215.67 169.479 215.6 169.175 215.6C168.87 215.6 168.624 215.667 168.437 215.802C168.249 215.937 168.105 216.124 168.006 216.364C167.912 216.599 167.848 216.868 167.812 217.173C167.783 217.478 167.769 217.803 167.769 218.148V218.351C167.769 218.702 167.783 219.033 167.812 219.344C167.848 219.648 167.915 219.918 168.015 220.152C168.114 220.381 168.258 220.562 168.445 220.697C168.633 220.826 168.882 220.891 169.192 220.891ZM179.555 213.49V215.547H173.824V213.49H179.555ZM175.028 211.126H177.99V219.897C177.99 220.149 178.02 220.346 178.078 220.486C178.137 220.621 178.236 220.718 178.377 220.776C178.523 220.829 178.717 220.855 178.957 220.855C179.127 220.855 179.268 220.853 179.379 220.847C179.49 220.835 179.596 220.82 179.695 220.803V222.921C179.443 223.003 179.18 223.064 178.904 223.105C178.629 223.152 178.336 223.176 178.025 223.176C177.393 223.176 176.851 223.076 176.399 222.877C175.954 222.678 175.614 222.364 175.38 221.937C175.146 221.509 175.028 220.952 175.028 220.267V211.126ZM190.444 218.983V210.203H193.521V218.983C193.521 219.839 193.324 220.58 192.932 221.207C192.545 221.834 192.018 222.32 191.35 222.666C190.688 223.006 189.943 223.176 189.117 223.176C188.262 223.176 187.5 223.032 186.832 222.745C186.17 222.458 185.648 222.016 185.268 221.418C184.893 220.82 184.705 220.059 184.705 219.133H187.799C187.799 219.566 187.849 219.906 187.948 220.152C188.048 220.393 188.194 220.562 188.388 220.662C188.587 220.756 188.83 220.803 189.117 220.803C189.398 220.803 189.636 220.732 189.829 220.592C190.028 220.445 190.181 220.237 190.286 219.968C190.392 219.692 190.444 219.364 190.444 218.983ZM202.072 219.599C202.072 219.399 202.043 219.221 201.984 219.062C201.926 218.898 201.817 218.746 201.659 218.605C201.501 218.465 201.272 218.324 200.974 218.184C200.681 218.037 200.294 217.885 199.813 217.727C199.251 217.539 198.709 217.328 198.188 217.094C197.666 216.854 197.2 216.575 196.79 216.259C196.38 215.937 196.055 215.562 195.814 215.134C195.574 214.7 195.454 214.196 195.454 213.622C195.454 213.071 195.577 212.576 195.823 212.137C196.069 211.691 196.412 211.313 196.852 211.003C197.297 210.687 197.818 210.446 198.416 210.282C199.014 210.112 199.667 210.027 200.376 210.027C201.313 210.027 202.14 210.191 202.854 210.52C203.575 210.842 204.138 211.302 204.542 211.899C204.952 212.491 205.157 213.191 205.157 214H202.09C202.09 213.678 202.022 213.394 201.888 213.147C201.759 212.901 201.562 212.708 201.299 212.567C201.035 212.427 200.704 212.356 200.306 212.356C199.919 212.356 199.594 212.415 199.33 212.532C199.066 212.649 198.867 212.808 198.732 213.007C198.598 213.2 198.53 213.414 198.53 213.648C198.53 213.842 198.583 214.018 198.688 214.176C198.8 214.328 198.955 214.472 199.154 214.606C199.359 214.741 199.605 214.87 199.893 214.993C200.186 215.116 200.514 215.236 200.877 215.354C201.557 215.57 202.16 215.813 202.688 216.083C203.221 216.347 203.669 216.648 204.032 216.988C204.401 217.322 204.68 217.703 204.867 218.131C205.061 218.559 205.157 219.042 205.157 219.581C205.157 220.155 205.046 220.665 204.823 221.11C204.601 221.556 204.281 221.934 203.865 222.244C203.449 222.549 202.951 222.78 202.371 222.938C201.791 223.097 201.144 223.176 200.429 223.176C199.772 223.176 199.125 223.094 198.486 222.93C197.854 222.76 197.279 222.502 196.764 222.156C196.248 221.805 195.835 221.356 195.524 220.812C195.22 220.261 195.067 219.607 195.067 218.852H198.161C198.161 219.227 198.211 219.543 198.311 219.801C198.41 220.059 198.557 220.267 198.75 220.425C198.943 220.577 199.181 220.688 199.462 220.759C199.743 220.823 200.065 220.855 200.429 220.855C200.821 220.855 201.138 220.8 201.378 220.688C201.618 220.571 201.794 220.419 201.905 220.231C202.017 220.038 202.072 219.827 202.072 219.599Z" fill="white"/>
<rect x="248" y="196" width="130" height="41" rx="3" fill="#424242"/>
<rect x="248" y="196" width="130" height="41" rx="3" stroke="#424242" stroke-width="4"/>
<path d="M279.883 220.627V223H273.062V220.627H279.883ZM274.161 210.203V223H271.076V210.203H274.161ZM279.004 215.283V217.577H273.062V215.283H279.004ZM279.909 210.203V212.585H273.062V210.203H279.909ZM283.521 213.49L284.857 216.109L286.237 213.49H289.313L286.817 218.122L289.445 223H286.343L284.857 220.188L283.381 223H280.278L282.906 218.122L280.419 213.49H283.521ZM293.277 215.318V226.656H290.315V213.49H293.075L293.277 215.318ZM299.113 218.131V218.315C299.113 219.007 299.034 219.648 298.876 220.24C298.718 220.832 298.483 221.348 298.173 221.787C297.862 222.227 297.476 222.569 297.013 222.815C296.556 223.056 296.025 223.176 295.422 223.176C294.854 223.176 294.364 223.05 293.954 222.798C293.544 222.546 293.201 222.197 292.926 221.752C292.65 221.307 292.428 220.797 292.258 220.223C292.088 219.648 291.953 219.042 291.854 218.403V218.166C291.953 217.48 292.088 216.845 292.258 216.259C292.428 215.667 292.65 215.151 292.926 214.712C293.201 214.272 293.541 213.93 293.945 213.684C294.355 213.438 294.845 213.314 295.413 213.314C296.017 213.314 296.547 213.429 297.004 213.657C297.467 213.886 297.854 214.214 298.164 214.642C298.48 215.063 298.718 215.57 298.876 216.162C299.034 216.754 299.113 217.41 299.113 218.131ZM296.151 218.315V218.131C296.151 217.762 296.125 217.425 296.072 217.12C296.02 216.81 295.935 216.54 295.817 216.312C295.706 216.083 295.557 215.907 295.369 215.784C295.182 215.661 294.95 215.6 294.675 215.6C294.358 215.6 294.092 215.649 293.875 215.749C293.664 215.843 293.494 215.989 293.365 216.188C293.242 216.382 293.154 216.625 293.102 216.918C293.055 217.205 293.034 217.542 293.04 217.929V218.649C293.028 219.095 293.072 219.487 293.172 219.827C293.271 220.161 293.444 220.422 293.69 220.609C293.937 220.797 294.271 220.891 294.692 220.891C294.974 220.891 295.208 220.826 295.396 220.697C295.583 220.562 295.732 220.378 295.844 220.144C295.955 219.903 296.034 219.628 296.081 219.317C296.128 219.007 296.151 218.673 296.151 218.315ZM303.42 215.846V223H300.458V213.49H303.227L303.42 215.846ZM306.232 213.42L306.18 216.171C306.062 216.159 305.904 216.145 305.705 216.127C305.506 216.109 305.339 216.101 305.204 216.101C304.858 216.101 304.56 216.142 304.308 216.224C304.062 216.3 303.856 216.417 303.692 216.575C303.534 216.728 303.417 216.921 303.341 217.155C303.271 217.39 303.238 217.662 303.244 217.973L302.708 217.621C302.708 216.982 302.77 216.402 302.893 215.881C303.021 215.354 303.203 214.899 303.438 214.519C303.672 214.132 303.956 213.836 304.29 213.631C304.624 213.42 304.999 213.314 305.415 213.314C305.562 213.314 305.705 213.323 305.846 213.341C305.992 213.358 306.121 213.385 306.232 213.42ZM311.682 223.176C310.908 223.176 310.217 223.056 309.607 222.815C308.998 222.569 308.482 222.232 308.061 221.805C307.645 221.377 307.325 220.885 307.103 220.328C306.886 219.771 306.777 219.183 306.777 218.562V218.228C306.777 217.53 306.874 216.886 307.067 216.294C307.261 215.696 307.548 215.175 307.929 214.729C308.31 214.284 308.787 213.938 309.361 213.692C309.936 213.44 310.604 213.314 311.365 213.314C312.039 213.314 312.643 213.423 313.176 213.64C313.709 213.856 314.16 214.167 314.529 214.571C314.904 214.976 315.188 215.465 315.382 216.039C315.581 216.613 315.681 217.258 315.681 217.973V219.177H307.911V217.322H312.789V217.094C312.795 216.777 312.739 216.508 312.622 216.285C312.511 216.062 312.347 215.893 312.13 215.775C311.913 215.658 311.649 215.6 311.339 215.6C311.017 215.6 310.75 215.67 310.539 215.811C310.334 215.951 310.173 216.145 310.056 216.391C309.944 216.631 309.865 216.909 309.818 217.226C309.771 217.542 309.748 217.876 309.748 218.228V218.562C309.748 218.913 309.795 219.232 309.889 219.52C309.988 219.807 310.129 220.053 310.311 220.258C310.498 220.457 310.721 220.612 310.979 220.724C311.242 220.835 311.541 220.891 311.875 220.891C312.279 220.891 312.678 220.814 313.07 220.662C313.463 220.51 313.8 220.258 314.081 219.906L315.426 221.506C315.232 221.781 314.957 222.048 314.6 222.306C314.248 222.563 313.826 222.774 313.334 222.938C312.842 223.097 312.291 223.176 311.682 223.176ZM321.868 220.328C321.868 220.164 321.812 220.023 321.701 219.906C321.596 219.783 321.408 219.672 321.139 219.572C320.869 219.467 320.491 219.361 320.005 219.256C319.542 219.156 319.105 219.024 318.695 218.86C318.291 218.696 317.937 218.497 317.632 218.263C317.327 218.028 317.087 217.75 316.911 217.428C316.741 217.105 316.656 216.736 316.656 216.32C316.656 215.916 316.741 215.535 316.911 215.178C317.087 214.814 317.342 214.495 317.676 214.22C318.016 213.938 318.429 213.719 318.915 213.561C319.401 213.396 319.955 213.314 320.576 213.314C321.432 213.314 322.17 213.446 322.791 213.71C323.412 213.968 323.89 214.331 324.224 214.8C324.563 215.263 324.733 215.799 324.733 216.408H321.771C321.771 216.168 321.73 215.963 321.648 215.793C321.572 215.623 321.446 215.494 321.271 215.406C321.095 215.312 320.86 215.266 320.567 215.266C320.362 215.266 320.175 215.304 320.005 215.38C319.841 215.456 319.709 215.562 319.609 215.696C319.51 215.831 319.46 215.989 319.46 216.171C319.46 216.3 319.489 216.417 319.548 216.522C319.612 216.622 319.709 216.716 319.838 216.804C319.967 216.886 320.131 216.962 320.33 217.032C320.529 217.097 320.77 217.155 321.051 217.208C321.689 217.325 322.287 217.492 322.844 217.709C323.4 217.926 323.852 218.233 324.197 218.632C324.549 219.03 324.725 219.566 324.725 220.24C324.725 220.662 324.628 221.052 324.435 221.409C324.241 221.761 323.963 222.071 323.6 222.341C323.236 222.604 322.8 222.81 322.29 222.956C321.78 223.103 321.206 223.176 320.567 223.176C319.659 223.176 318.892 223.015 318.265 222.692C317.638 222.364 317.163 221.954 316.841 221.462C316.524 220.964 316.366 220.46 316.366 219.95H319.126C319.138 220.243 319.208 220.483 319.337 220.671C319.472 220.858 319.65 220.996 319.873 221.084C320.096 221.172 320.354 221.216 320.646 221.216C320.916 221.216 321.139 221.178 321.314 221.102C321.496 221.025 321.634 220.923 321.728 220.794C321.821 220.659 321.868 220.504 321.868 220.328ZM331.097 220.328C331.097 220.164 331.041 220.023 330.93 219.906C330.824 219.783 330.637 219.672 330.367 219.572C330.098 219.467 329.72 219.361 329.233 219.256C328.771 219.156 328.334 219.024 327.924 218.86C327.52 218.696 327.165 218.497 326.86 218.263C326.556 218.028 326.315 217.75 326.14 217.428C325.97 217.105 325.885 216.736 325.885 216.32C325.885 215.916 325.97 215.535 326.14 215.178C326.315 214.814 326.57 214.495 326.904 214.22C327.244 213.938 327.657 213.719 328.144 213.561C328.63 213.396 329.184 213.314 329.805 213.314C330.66 213.314 331.398 213.446 332.02 213.71C332.641 213.968 333.118 214.331 333.452 214.8C333.792 215.263 333.962 215.799 333.962 216.408H331C331 216.168 330.959 215.963 330.877 215.793C330.801 215.623 330.675 215.494 330.499 215.406C330.323 215.312 330.089 215.266 329.796 215.266C329.591 215.266 329.403 215.304 329.233 215.38C329.069 215.456 328.938 215.562 328.838 215.696C328.738 215.831 328.688 215.989 328.688 216.171C328.688 216.3 328.718 216.417 328.776 216.522C328.841 216.622 328.938 216.716 329.066 216.804C329.195 216.886 329.359 216.962 329.559 217.032C329.758 217.097 329.998 217.155 330.279 217.208C330.918 217.325 331.516 217.492 332.072 217.709C332.629 217.926 333.08 218.233 333.426 218.632C333.777 219.03 333.953 219.566 333.953 220.24C333.953 220.662 333.856 221.052 333.663 221.409C333.47 221.761 333.191 222.071 332.828 222.341C332.465 222.604 332.028 222.81 331.519 222.956C331.009 223.103 330.435 223.176 329.796 223.176C328.888 223.176 328.12 223.015 327.493 222.692C326.866 222.364 326.392 221.954 326.069 221.462C325.753 220.964 325.595 220.46 325.595 219.95H328.354C328.366 220.243 328.437 220.483 328.565 220.671C328.7 220.858 328.879 220.996 329.102 221.084C329.324 221.172 329.582 221.216 329.875 221.216C330.145 221.216 330.367 221.178 330.543 221.102C330.725 221.025 330.862 220.923 330.956 220.794C331.05 220.659 331.097 220.504 331.097 220.328ZM340.571 218.983V210.203H343.647V218.983C343.647 219.839 343.451 220.58 343.059 221.207C342.672 221.834 342.145 222.32 341.477 222.666C340.814 223.006 340.07 223.176 339.244 223.176C338.389 223.176 337.627 223.032 336.959 222.745C336.297 222.458 335.775 222.016 335.395 221.418C335.02 220.82 334.832 220.059 334.832 219.133H337.926C337.926 219.566 337.976 219.906 338.075 220.152C338.175 220.393 338.321 220.562 338.515 220.662C338.714 220.756 338.957 220.803 339.244 220.803C339.525 220.803 339.763 220.732 339.956 220.592C340.155 220.445 340.308 220.237 340.413 219.968C340.519 219.692 340.571 219.364 340.571 218.983ZM352.199 219.599C352.199 219.399 352.17 219.221 352.111 219.062C352.053 218.898 351.944 218.746 351.786 218.605C351.628 218.465 351.399 218.324 351.101 218.184C350.808 218.037 350.421 217.885 349.94 217.727C349.378 217.539 348.836 217.328 348.314 217.094C347.793 216.854 347.327 216.575 346.917 216.259C346.507 215.937 346.182 215.562 345.941 215.134C345.701 214.7 345.581 214.196 345.581 213.622C345.581 213.071 345.704 212.576 345.95 212.137C346.196 211.691 346.539 211.313 346.979 211.003C347.424 210.687 347.945 210.446 348.543 210.282C349.141 210.112 349.794 210.027 350.503 210.027C351.44 210.027 352.267 210.191 352.981 210.52C353.702 210.842 354.265 211.302 354.669 211.899C355.079 212.491 355.284 213.191 355.284 214H352.217C352.217 213.678 352.149 213.394 352.015 213.147C351.886 212.901 351.689 212.708 351.426 212.567C351.162 212.427 350.831 212.356 350.433 212.356C350.046 212.356 349.721 212.415 349.457 212.532C349.193 212.649 348.994 212.808 348.859 213.007C348.725 213.2 348.657 213.414 348.657 213.648C348.657 213.842 348.71 214.018 348.815 214.176C348.927 214.328 349.082 214.472 349.281 214.606C349.486 214.741 349.732 214.87 350.02 214.993C350.312 215.116 350.641 215.236 351.004 215.354C351.684 215.57 352.287 215.813 352.814 216.083C353.348 216.347 353.796 216.648 354.159 216.988C354.528 217.322 354.807 217.703 354.994 218.131C355.188 218.559 355.284 219.042 355.284 219.581C355.284 220.155 355.173 220.665 354.95 221.11C354.728 221.556 354.408 221.934 353.992 222.244C353.576 222.549 353.078 222.78 352.498 222.938C351.918 223.097 351.271 223.176 350.556 223.176C349.899 223.176 349.252 223.094 348.613 222.93C347.98 222.76 347.406 222.502 346.891 222.156C346.375 221.805 345.962 221.356 345.651 220.812C345.347 220.261 345.194 219.607 345.194 218.852H348.288C348.288 219.227 348.338 219.543 348.438 219.801C348.537 220.059 348.684 220.267 348.877 220.425C349.07 220.577 349.308 220.688 349.589 220.759C349.87 220.823 350.192 220.855 350.556 220.855C350.948 220.855 351.265 220.8 351.505 220.688C351.745 220.571 351.921 220.419 352.032 220.231C352.144 220.038 352.199 219.827 352.199 219.599Z" fill="white"/>
<rect x="398" y="196" width="109" height="41" rx="3" fill="#424242"/>
<rect x="398" y="196" width="109" height="41" rx="3" stroke="#424242" stroke-width="4"/>
<path d="M432.118 210.203V223H429.042L424.516 215.037V223H421.431V210.203H424.516L429.042 218.166V210.203H432.118ZM433.56 218.342V218.157C433.56 217.46 433.659 216.818 433.858 216.232C434.058 215.641 434.351 215.128 434.737 214.694C435.124 214.261 435.602 213.924 436.17 213.684C436.738 213.438 437.395 213.314 438.139 213.314C438.889 213.314 439.548 213.438 440.116 213.684C440.69 213.924 441.171 214.261 441.558 214.694C441.944 215.128 442.237 215.641 442.437 216.232C442.636 216.818 442.735 217.46 442.735 218.157V218.342C442.735 219.033 442.636 219.675 442.437 220.267C442.237 220.853 441.944 221.365 441.558 221.805C441.171 222.238 440.693 222.575 440.125 222.815C439.557 223.056 438.9 223.176 438.156 223.176C437.412 223.176 436.753 223.056 436.179 222.815C435.604 222.575 435.124 222.238 434.737 221.805C434.351 221.365 434.058 220.853 433.858 220.267C433.659 219.675 433.56 219.033 433.56 218.342ZM436.521 218.157V218.342C436.521 218.699 436.548 219.033 436.601 219.344C436.653 219.654 436.741 219.927 436.864 220.161C436.987 220.39 437.154 220.568 437.365 220.697C437.576 220.826 437.84 220.891 438.156 220.891C438.467 220.891 438.725 220.826 438.93 220.697C439.141 220.568 439.308 220.39 439.431 220.161C439.554 219.927 439.642 219.654 439.694 219.344C439.747 219.033 439.773 218.699 439.773 218.342V218.157C439.773 217.812 439.747 217.486 439.694 217.182C439.642 216.871 439.554 216.599 439.431 216.364C439.308 216.124 439.141 215.937 438.93 215.802C438.719 215.667 438.455 215.6 438.139 215.6C437.828 215.6 437.567 215.667 437.356 215.802C437.151 215.937 436.987 216.124 436.864 216.364C436.741 216.599 436.653 216.871 436.601 217.182C436.548 217.486 436.521 217.812 436.521 218.157ZM449.521 220.82V209.5H452.5V223H449.828L449.521 220.82ZM443.685 218.359V218.175C443.685 217.454 443.764 216.798 443.922 216.206C444.08 215.608 444.314 215.096 444.625 214.668C444.936 214.234 445.322 213.9 445.785 213.666C446.248 213.432 446.781 213.314 447.385 213.314C447.924 213.314 448.396 213.44 448.8 213.692C449.204 213.938 449.55 214.284 449.837 214.729C450.124 215.175 450.358 215.696 450.54 216.294C450.722 216.886 450.859 217.524 450.953 218.21V218.43C450.859 219.074 450.722 219.684 450.54 220.258C450.358 220.826 450.124 221.33 449.837 221.77C449.55 222.209 449.201 222.555 448.791 222.807C448.387 223.053 447.912 223.176 447.367 223.176C446.764 223.176 446.23 223.056 445.768 222.815C445.311 222.575 444.927 222.238 444.616 221.805C444.312 221.371 444.08 220.861 443.922 220.275C443.764 219.689 443.685 219.051 443.685 218.359ZM446.646 218.175V218.359C446.646 218.717 446.67 219.048 446.717 219.353C446.764 219.657 446.843 219.927 446.954 220.161C447.071 220.39 447.224 220.568 447.411 220.697C447.604 220.826 447.842 220.891 448.123 220.891C448.504 220.891 448.817 220.8 449.063 220.618C449.315 220.437 449.5 220.179 449.617 219.845C449.74 219.511 449.793 219.118 449.775 218.667V217.973C449.787 217.586 449.761 217.246 449.696 216.953C449.632 216.654 449.529 216.405 449.389 216.206C449.254 216.007 449.081 215.857 448.87 215.758C448.665 215.652 448.422 215.6 448.141 215.6C447.865 215.6 447.631 215.664 447.438 215.793C447.25 215.922 447.098 216.104 446.98 216.338C446.863 216.566 446.778 216.839 446.726 217.155C446.673 217.466 446.646 217.806 446.646 218.175ZM458.784 223.176C458.011 223.176 457.319 223.056 456.71 222.815C456.101 222.569 455.585 222.232 455.163 221.805C454.747 221.377 454.428 220.885 454.205 220.328C453.988 219.771 453.88 219.183 453.88 218.562V218.228C453.88 217.53 453.977 216.886 454.17 216.294C454.363 215.696 454.65 215.175 455.031 214.729C455.412 214.284 455.89 213.938 456.464 213.692C457.038 213.44 457.706 213.314 458.468 213.314C459.142 213.314 459.745 213.423 460.278 213.64C460.812 213.856 461.263 214.167 461.632 214.571C462.007 214.976 462.291 215.465 462.484 216.039C462.684 216.613 462.783 217.258 462.783 217.973V219.177H455.014V217.322H459.892V217.094C459.897 216.777 459.842 216.508 459.725 216.285C459.613 216.062 459.449 215.893 459.232 215.775C459.016 215.658 458.752 215.6 458.441 215.6C458.119 215.6 457.853 215.67 457.642 215.811C457.437 215.951 457.275 216.145 457.158 216.391C457.047 216.631 456.968 216.909 456.921 217.226C456.874 217.542 456.851 217.876 456.851 218.228V218.562C456.851 218.913 456.897 219.232 456.991 219.52C457.091 219.807 457.231 220.053 457.413 220.258C457.601 220.457 457.823 220.612 458.081 220.724C458.345 220.835 458.644 220.891 458.978 220.891C459.382 220.891 459.78 220.814 460.173 220.662C460.565 220.51 460.902 220.258 461.184 219.906L462.528 221.506C462.335 221.781 462.06 222.048 461.702 222.306C461.351 222.563 460.929 222.774 460.437 222.938C459.944 223.097 459.394 223.176 458.784 223.176ZM469.217 218.983V210.203H472.293V218.983C472.293 219.839 472.097 220.58 471.704 221.207C471.317 221.834 470.79 222.32 470.122 222.666C469.46 223.006 468.716 223.176 467.89 223.176C467.034 223.176 466.272 223.032 465.604 222.745C464.942 222.458 464.421 222.016 464.04 221.418C463.665 220.82 463.478 220.059 463.478 219.133H466.571C466.571 219.566 466.621 219.906 466.721 220.152C466.82 220.393 466.967 220.562 467.16 220.662C467.359 220.756 467.603 220.803 467.89 220.803C468.171 220.803 468.408 220.732 468.602 220.592C468.801 220.445 468.953 220.237 469.059 219.968C469.164 219.692 469.217 219.364 469.217 218.983ZM480.845 219.599C480.845 219.399 480.815 219.221 480.757 219.062C480.698 218.898 480.59 218.746 480.432 218.605C480.273 218.465 480.045 218.324 479.746 218.184C479.453 218.037 479.066 217.885 478.586 217.727C478.023 217.539 477.481 217.328 476.96 217.094C476.438 216.854 475.973 216.575 475.562 216.259C475.152 215.937 474.827 215.562 474.587 215.134C474.347 214.7 474.227 214.196 474.227 213.622C474.227 213.071 474.35 212.576 474.596 212.137C474.842 211.691 475.185 211.313 475.624 211.003C476.069 210.687 476.591 210.446 477.188 210.282C477.786 210.112 478.439 210.027 479.148 210.027C480.086 210.027 480.912 210.191 481.627 210.52C482.348 210.842 482.91 211.302 483.314 211.899C483.725 212.491 483.93 213.191 483.93 214H480.862C480.862 213.678 480.795 213.394 480.66 213.147C480.531 212.901 480.335 212.708 480.071 212.567C479.808 212.427 479.477 212.356 479.078 212.356C478.691 212.356 478.366 212.415 478.103 212.532C477.839 212.649 477.64 212.808 477.505 213.007C477.37 213.2 477.303 213.414 477.303 213.648C477.303 213.842 477.355 214.018 477.461 214.176C477.572 214.328 477.728 214.472 477.927 214.606C478.132 214.741 478.378 214.87 478.665 214.993C478.958 215.116 479.286 215.236 479.649 215.354C480.329 215.57 480.933 215.813 481.46 216.083C481.993 216.347 482.441 216.648 482.805 216.988C483.174 217.322 483.452 217.703 483.64 218.131C483.833 218.559 483.93 219.042 483.93 219.581C483.93 220.155 483.818 220.665 483.596 221.11C483.373 221.556 483.054 221.934 482.638 222.244C482.222 222.549 481.724 222.78 481.144 222.938C480.563 223.097 479.916 223.176 479.201 223.176C478.545 223.176 477.897 223.094 477.259 222.93C476.626 222.76 476.052 222.502 475.536 222.156C475.021 221.805 474.607 221.356 474.297 220.812C473.992 220.261 473.84 219.607 473.84 218.852H476.934C476.934 219.227 476.983 219.543 477.083 219.801C477.183 220.059 477.329 220.267 477.522 220.425C477.716 220.577 477.953 220.688 478.234 220.759C478.516 220.823 478.838 220.855 479.201 220.855C479.594 220.855 479.91 220.8 480.15 220.688C480.391 220.571 480.566 220.419 480.678 220.231C480.789 220.038 480.845 219.827 480.845 219.599Z" fill="white"/>
<rect x="527" y="196" width="104" height="41" rx="3" fill="#424242"/>
<rect x="527" y="196" width="104" height="41" rx="3" stroke="#424242" stroke-width="4"/>
<path d="M558.812 220.627V223H552.343V220.627H558.812ZM553.441 210.203V223H550.356V210.203H553.441ZM564.911 220.609V216.689C564.911 216.42 564.873 216.188 564.797 215.995C564.721 215.802 564.601 215.652 564.437 215.547C564.272 215.436 564.053 215.38 563.777 215.38C563.555 215.38 563.364 215.418 563.206 215.494C563.048 215.57 562.928 215.685 562.846 215.837C562.764 215.989 562.723 216.183 562.723 216.417H559.761C559.761 215.978 559.857 215.57 560.051 215.195C560.25 214.814 560.531 214.483 560.895 214.202C561.264 213.921 561.703 213.704 562.213 213.552C562.729 213.394 563.303 213.314 563.936 213.314C564.691 213.314 565.365 213.44 565.957 213.692C566.555 213.944 567.026 214.322 567.372 214.826C567.718 215.324 567.891 215.951 567.891 216.707V220.601C567.891 221.222 567.926 221.693 567.996 222.016C568.066 222.332 568.166 222.61 568.295 222.851V223H565.324C565.184 222.707 565.078 222.35 565.008 221.928C564.943 221.5 564.911 221.061 564.911 220.609ZM565.271 217.19L565.289 218.772H563.979C563.704 218.772 563.47 218.811 563.276 218.887C563.089 218.963 562.937 219.068 562.819 219.203C562.708 219.332 562.626 219.479 562.573 219.643C562.526 219.807 562.503 219.979 562.503 220.161C562.503 220.337 562.544 220.495 562.626 220.636C562.714 220.771 562.831 220.876 562.978 220.952C563.124 221.028 563.288 221.066 563.47 221.066C563.798 221.066 564.076 221.005 564.305 220.882C564.539 220.753 564.718 220.598 564.841 220.416C564.964 220.234 565.025 220.064 565.025 219.906L565.676 221.119C565.559 221.354 565.424 221.591 565.271 221.831C565.125 222.071 564.94 222.294 564.718 222.499C564.501 222.698 564.234 222.862 563.918 222.991C563.602 223.114 563.218 223.176 562.767 223.176C562.181 223.176 561.642 223.056 561.149 222.815C560.663 222.575 560.273 222.241 559.98 221.813C559.688 221.38 559.541 220.882 559.541 220.319C559.541 219.827 559.629 219.388 559.805 219.001C559.986 218.614 560.259 218.286 560.622 218.017C560.985 217.747 561.448 217.542 562.011 217.401C562.573 217.261 563.235 217.19 563.997 217.19H565.271ZM572.522 215.846V223H569.561V213.49H572.329L572.522 215.846ZM575.335 213.42L575.282 216.171C575.165 216.159 575.007 216.145 574.808 216.127C574.608 216.109 574.441 216.101 574.307 216.101C573.961 216.101 573.662 216.142 573.41 216.224C573.164 216.3 572.959 216.417 572.795 216.575C572.637 216.728 572.52 216.921 572.443 217.155C572.373 217.39 572.341 217.662 572.347 217.973L571.811 217.621C571.811 216.982 571.872 216.402 571.995 215.881C572.124 215.354 572.306 214.899 572.54 214.519C572.774 214.132 573.059 213.836 573.393 213.631C573.727 213.42 574.102 213.314 574.518 213.314C574.664 213.314 574.808 213.323 574.948 213.341C575.095 213.358 575.224 213.385 575.335 213.42ZM581.03 220.609V216.689C581.03 216.42 580.992 216.188 580.916 215.995C580.84 215.802 580.72 215.652 580.556 215.547C580.392 215.436 580.172 215.38 579.896 215.38C579.674 215.38 579.483 215.418 579.325 215.494C579.167 215.57 579.047 215.685 578.965 215.837C578.883 215.989 578.842 216.183 578.842 216.417H575.88C575.88 215.978 575.977 215.57 576.17 215.195C576.369 214.814 576.65 214.483 577.014 214.202C577.383 213.921 577.822 213.704 578.332 213.552C578.848 213.394 579.422 213.314 580.055 213.314C580.811 213.314 581.484 213.44 582.076 213.692C582.674 213.944 583.146 214.322 583.491 214.826C583.837 215.324 584.01 215.951 584.01 216.707V220.601C584.01 221.222 584.045 221.693 584.115 222.016C584.186 222.332 584.285 222.61 584.414 222.851V223H581.443C581.303 222.707 581.197 222.35 581.127 221.928C581.062 221.5 581.03 221.061 581.03 220.609ZM581.391 217.19L581.408 218.772H580.099C579.823 218.772 579.589 218.811 579.396 218.887C579.208 218.963 579.056 219.068 578.938 219.203C578.827 219.332 578.745 219.479 578.692 219.643C578.646 219.807 578.622 219.979 578.622 220.161C578.622 220.337 578.663 220.495 578.745 220.636C578.833 220.771 578.95 220.876 579.097 220.952C579.243 221.028 579.407 221.066 579.589 221.066C579.917 221.066 580.195 221.005 580.424 220.882C580.658 220.753 580.837 220.598 580.96 220.416C581.083 220.234 581.145 220.064 581.145 219.906L581.795 221.119C581.678 221.354 581.543 221.591 581.391 221.831C581.244 222.071 581.06 222.294 580.837 222.499C580.62 222.698 580.354 222.862 580.037 222.991C579.721 223.114 579.337 223.176 578.886 223.176C578.3 223.176 577.761 223.056 577.269 222.815C576.782 222.575 576.393 222.241 576.1 221.813C575.807 221.38 575.66 220.882 575.66 220.319C575.66 219.827 575.748 219.388 575.924 219.001C576.105 218.614 576.378 218.286 576.741 218.017C577.104 217.747 577.567 217.542 578.13 217.401C578.692 217.261 579.354 217.19 580.116 217.19H581.391ZM588.94 220.97L590.812 213.49H593.933L590.821 223H588.976L588.94 220.97ZM587.833 213.49L589.679 220.97L589.661 223H587.807L584.704 213.49H587.833ZM599.294 223.176C598.521 223.176 597.829 223.056 597.22 222.815C596.61 222.569 596.095 222.232 595.673 221.805C595.257 221.377 594.938 220.885 594.715 220.328C594.498 219.771 594.39 219.183 594.39 218.562V218.228C594.39 217.53 594.486 216.886 594.68 216.294C594.873 215.696 595.16 215.175 595.541 214.729C595.922 214.284 596.399 213.938 596.974 213.692C597.548 213.44 598.216 213.314 598.978 213.314C599.651 213.314 600.255 213.423 600.788 213.64C601.321 213.856 601.772 214.167 602.142 214.571C602.517 214.976 602.801 215.465 602.994 216.039C603.193 216.613 603.293 217.258 603.293 217.973V219.177H595.523V217.322H600.401V217.094C600.407 216.777 600.352 216.508 600.234 216.285C600.123 216.062 599.959 215.893 599.742 215.775C599.525 215.658 599.262 215.6 598.951 215.6C598.629 215.6 598.362 215.67 598.151 215.811C597.946 215.951 597.785 216.145 597.668 216.391C597.557 216.631 597.478 216.909 597.431 217.226C597.384 217.542 597.36 217.876 597.36 218.228V218.562C597.36 218.913 597.407 219.232 597.501 219.52C597.601 219.807 597.741 220.053 597.923 220.258C598.11 220.457 598.333 220.612 598.591 220.724C598.854 220.835 599.153 220.891 599.487 220.891C599.892 220.891 600.29 220.814 600.683 220.662C601.075 220.51 601.412 220.258 601.693 219.906L603.038 221.506C602.845 221.781 602.569 222.048 602.212 222.306C601.86 222.563 601.438 222.774 600.946 222.938C600.454 223.097 599.903 223.176 599.294 223.176ZM607.626 209.5V223H604.655V209.5H607.626Z" fill="white"/>
<rect x="651" y="196" width="80" height="41" rx="3" fill="#424242"/>
<rect x="651" y="196" width="80" height="41" rx="3" stroke="#424242" stroke-width="4"/>
<path d="M684.804 210.203V223H681.728L677.201 215.037V223H674.116V210.203H677.201L681.728 218.166V210.203H684.804ZM695.456 219.476C695.456 220.29 695.263 220.973 694.876 221.523C694.495 222.074 693.968 222.487 693.294 222.763C692.626 223.038 691.864 223.176 691.009 223.176C690.159 223.176 689.395 223.038 688.715 222.763C688.041 222.487 687.508 222.074 687.115 221.523C686.723 220.973 686.526 220.29 686.526 219.476C686.526 218.919 686.638 218.421 686.86 217.981C687.089 217.536 687.405 217.158 687.81 216.848C688.214 216.537 688.686 216.3 689.225 216.136C689.77 215.972 690.358 215.89 690.991 215.89C691.847 215.89 692.611 216.036 693.285 216.329C693.959 216.616 694.489 217.026 694.876 217.56C695.263 218.093 695.456 218.731 695.456 219.476ZM692.477 219.238C692.477 218.887 692.415 218.591 692.292 218.351C692.169 218.104 691.996 217.917 691.773 217.788C691.551 217.659 691.29 217.595 690.991 217.595C690.698 217.595 690.438 217.659 690.209 217.788C689.986 217.917 689.811 218.104 689.682 218.351C689.559 218.591 689.497 218.887 689.497 219.238C689.497 219.578 689.562 219.874 689.69 220.126C689.819 220.372 689.995 220.562 690.218 220.697C690.446 220.826 690.71 220.891 691.009 220.891C691.308 220.891 691.565 220.826 691.782 220.697C692.005 220.562 692.175 220.372 692.292 220.126C692.415 219.874 692.477 219.578 692.477 219.238ZM695.192 213.622C695.192 214.29 695.014 214.876 694.656 215.38C694.305 215.878 693.812 216.268 693.18 216.549C692.553 216.824 691.829 216.962 691.009 216.962C690.194 216.962 689.468 216.824 688.829 216.549C688.196 216.268 687.698 215.878 687.335 215.38C686.978 214.876 686.799 214.29 686.799 213.622C686.799 212.837 686.978 212.178 687.335 211.645C687.698 211.111 688.196 210.707 688.829 210.432C689.462 210.156 690.183 210.019 690.991 210.019C691.812 210.019 692.538 210.156 693.171 210.432C693.804 210.707 694.299 211.111 694.656 211.645C695.014 212.178 695.192 212.837 695.192 213.622ZM692.23 213.78C692.23 213.476 692.184 213.215 692.09 212.998C691.996 212.775 691.858 212.605 691.677 212.488C691.495 212.365 691.267 212.304 690.991 212.304C690.728 212.304 690.505 212.362 690.323 212.479C690.142 212.597 690.004 212.767 689.91 212.989C689.816 213.206 689.77 213.47 689.77 213.78C689.77 214.085 689.816 214.352 689.91 214.58C690.004 214.809 690.142 214.987 690.323 215.116C690.511 215.245 690.739 215.31 691.009 215.31C691.284 215.31 691.51 215.245 691.686 215.116C691.867 214.987 692.002 214.809 692.09 214.58C692.184 214.352 692.23 214.085 692.23 213.78ZM707.884 210.203V223H704.808L700.281 215.037V223H697.196V210.203H700.281L704.808 218.166V210.203H707.884Z" fill="white"/>
<path d="M1066 0H1348C1356.28 0 1363 6.71573 1363 15V282C1363 290.284 1356.28 297 1348 297H1066V0Z" fill="#01212D"/>
<path d="M1166.14 178.676C1166.17 178.487 1166.18 178.279 1166.18 178.049V167.475H1167.87L1172.34 174.496V168.05C1172.34 167.741 1172.31 167.55 1172.25 167.475H1174.52C1174.49 167.704 1174.48 167.953 1174.48 168.221V178.676H1172.73L1168.34 171.929V178.676H1166.14Z" fill="#D9D9D9"/>
<path d="M1185.55 176.659C1185.9 176.659 1186.14 176.625 1186.27 176.556L1186.31 176.564L1186.22 178.676H1179.92V167.415C1180.07 167.427 1180.24 167.436 1180.43 167.44L1181.01 167.458C1181.4 167.47 1181.83 167.475 1182.29 167.475C1183.58 167.475 1184.85 167.453 1186.11 167.406C1186.04 167.904 1186.01 168.565 1186.01 169.389C1186.01 169.481 1186.02 169.55 1186.03 169.595L1186.01 169.612C1185.72 169.533 1185.31 169.492 1184.77 169.492H1182.12V171.638H1184.11C1184.73 171.638 1185.1 171.62 1185.22 171.586L1185.25 173.663C1184.98 173.635 1184.63 173.62 1184.2 173.62H1182.12V176.659H1185.55Z" fill="#D9D9D9"/>
<path d="M1196.08 168.29C1196.2 168.045 1196.26 167.861 1196.26 167.741C1196.26 167.621 1196.25 167.533 1196.23 167.475H1199.26C1199.19 167.543 1199.12 167.625 1199.02 167.715C1198.93 167.807 1198.82 167.919 1198.7 168.05C1198.42 168.365 1198.16 168.732 1197.93 169.148L1195.9 172.848L1197.79 176.41L1198.02 176.873C1198.45 177.762 1198.81 178.363 1199.1 178.676H1196.37C1196.34 178.483 1196.25 178.219 1196.07 177.886L1194.43 174.719C1193.26 177.071 1192.67 178.285 1192.64 178.358C1192.61 178.451 1192.59 178.556 1192.57 178.676H1189.83C1190.04 178.466 1190.25 178.165 1190.47 177.775L1191.48 175.981L1193.28 172.942L1190.92 168.505C1190.66 168.03 1190.44 167.687 1190.25 167.475H1193.08C1193.06 167.533 1193.04 167.595 1193.04 167.663C1193.04 167.814 1193.12 168.022 1193.26 168.29L1194.66 171.105L1196.08 168.29Z" fill="#D9D9D9"/>
<path d="M1207.48 178.727C1207.2 178.693 1206.51 178.676 1205.39 178.676H1205.13V169.363H1203.46C1202.96 169.363 1202.67 169.389 1202.58 169.44C1202.49 169.492 1202.42 169.539 1202.37 169.578L1202.35 169.569V167.406L1202.37 167.389C1202.55 167.447 1203.05 167.475 1203.87 167.475H1209.15C1209.64 167.475 1209.94 167.453 1210.03 167.406C1210.12 167.355 1210.19 167.309 1210.23 167.269L1210.26 167.277V169.432L1210.23 169.457C1210.05 169.395 1209.55 169.363 1208.74 169.363H1207.48V178.727Z" fill="#D9D9D9"/>
<path d="M1229.38 168.101L1229.23 170.573L1229.17 170.59C1228.75 169.968 1228.04 169.565 1227.05 169.38C1226.73 169.318 1226.43 169.286 1226.14 169.286C1225.85 169.286 1225.6 169.312 1225.4 169.363C1225.19 169.415 1225.02 169.49 1224.87 169.586C1224.56 169.788 1224.41 170.05 1224.41 170.376C1224.41 170.801 1224.54 171.12 1224.81 171.337C1225.15 171.595 1225.71 171.775 1226.49 171.878C1227.26 171.981 1227.89 172.125 1228.36 172.307C1228.83 172.485 1229.22 172.711 1229.53 172.985C1230.1 173.5 1230.38 174.23 1230.38 175.174C1230.38 176.41 1229.92 177.361 1228.99 178.024C1228.19 178.603 1227.18 178.891 1225.97 178.891C1224.99 178.891 1224.03 178.704 1223.08 178.333C1222.76 178.208 1222.49 178.064 1222.26 177.903L1222.34 175.088L1222.38 175.062C1223.07 176.264 1224.22 176.865 1225.81 176.865C1226.94 176.865 1227.68 176.594 1228.04 176.049C1228.17 175.867 1228.23 175.661 1228.23 175.431C1228.23 175.204 1228.19 175.015 1228.12 174.865C1228.05 174.717 1227.93 174.588 1227.76 174.479C1227.43 174.268 1226.88 174.127 1226.11 174.058C1225.34 173.985 1224.71 173.848 1224.23 173.646C1223.74 173.44 1223.35 173.189 1223.06 172.891C1222.53 172.354 1222.27 171.601 1222.27 170.633C1222.27 169.638 1222.62 168.831 1223.32 168.213C1224.03 167.584 1225 167.269 1226.2 167.269C1227.42 167.269 1228.47 167.548 1229.38 168.101Z" fill="#D9D9D9"/>
<path d="M1239.13 178.727C1238.85 178.693 1238.16 178.676 1237.04 178.676H1236.78V169.363H1235.11C1234.61 169.363 1234.32 169.389 1234.23 169.44C1234.14 169.492 1234.07 169.539 1234.02 169.578L1234 169.569V167.406L1234.02 167.389C1234.2 167.447 1234.7 167.475 1235.52 167.475H1240.8C1241.29 167.475 1241.59 167.453 1241.68 167.406C1241.77 167.355 1241.84 167.309 1241.88 167.269L1241.91 167.277V169.432L1241.88 169.457C1241.7 169.395 1241.2 169.363 1240.39 169.363H1239.13V178.727Z" fill="#D9D9D9"/>
<path d="M1251.77 176.659C1252.12 176.659 1252.36 176.625 1252.49 176.556L1252.53 176.564L1252.44 178.676H1246.14V167.415C1246.29 167.427 1246.46 167.436 1246.65 167.44L1247.23 167.458C1247.63 167.47 1248.05 167.475 1248.51 167.475C1249.8 167.475 1251.07 167.453 1252.33 167.406C1252.26 167.904 1252.23 168.565 1252.23 169.389C1252.23 169.481 1252.24 169.55 1252.25 169.595L1252.23 169.612C1251.94 169.533 1251.53 169.492 1250.99 169.492H1248.34V171.638H1250.33C1250.95 171.638 1251.32 171.62 1251.45 171.586L1251.47 173.663C1251.2 173.635 1250.85 173.62 1250.42 173.62H1248.34V176.659H1251.77Z" fill="#D9D9D9"/>
<path d="M1257.03 167.415C1257.81 167.318 1258.61 167.269 1259.43 167.269C1260.96 167.269 1262.11 167.627 1262.91 168.342C1263.7 169.058 1264.1 170.127 1264.1 171.552C1264.1 172.829 1263.67 173.835 1262.8 174.573C1261.99 175.273 1260.94 175.62 1259.66 175.62C1259.51 175.62 1259.35 175.612 1259.18 175.595V178.676H1257.03V167.415ZM1259.68 169.294C1259.52 169.294 1259.35 169.301 1259.18 169.312V173.741C1259.36 173.764 1259.58 173.775 1259.84 173.775C1260.1 173.775 1260.36 173.721 1260.64 173.612C1260.92 173.504 1261.16 173.35 1261.35 173.148C1261.75 172.743 1261.95 172.204 1261.95 171.535C1261.95 170.041 1261.19 169.294 1259.68 169.294Z" fill="#D9D9D9"/>
<path d="M1199.81 191.107C1199.82 191.268 1199.86 191.386 1199.93 191.458C1200 191.527 1200.08 191.566 1200.16 191.57L1200.14 191.716C1199.88 191.699 1199.53 191.69 1199.08 191.69C1198.58 191.69 1198.22 191.699 1197.98 191.716L1198.02 191.57C1198.18 191.559 1198.31 191.54 1198.4 191.51C1198.49 191.476 1198.56 191.42 1198.59 191.338C1198.63 191.252 1198.65 191.128 1198.64 190.961L1198.58 189.759H1197L1196.36 190.677C1196.21 190.896 1196.13 191.072 1196.13 191.21C1196.13 191.33 1196.18 191.42 1196.28 191.476C1196.39 191.527 1196.54 191.559 1196.74 191.57L1196.7 191.716C1196.3 191.699 1195.98 191.69 1195.75 191.69C1195.58 191.69 1195.41 191.699 1195.25 191.716L1195.28 191.57C1195.41 191.536 1195.53 191.465 1195.65 191.355C1195.77 191.242 1195.92 191.055 1196.1 190.798L1199.14 186.523C1199.19 186.53 1199.25 186.532 1199.33 186.532C1199.42 186.532 1199.49 186.53 1199.52 186.523L1199.81 191.107ZM1198.57 189.613L1198.47 187.69L1197.11 189.613H1198.57Z" fill="#D9D9D9"/>
<path d="M1202.13 191.613C1202.2 191.647 1202.3 191.664 1202.41 191.664C1202.59 191.664 1202.74 191.611 1202.85 191.501C1202.96 191.388 1203.02 191.233 1203.02 191.038C1203.02 190.883 1202.99 190.725 1202.92 190.557C1202.85 190.392 1202.75 190.205 1202.62 189.999C1202.59 189.971 1202.53 189.886 1202.44 189.742C1202.35 189.594 1202.28 189.454 1202.23 189.321C1202.19 189.184 1202.16 189.051 1202.16 188.918C1202.16 188.604 1202.28 188.347 1202.52 188.145C1202.75 187.946 1203.08 187.845 1203.49 187.845C1203.81 187.845 1204.07 187.903 1204.28 188.017C1204.49 188.132 1204.6 188.326 1204.6 188.6C1204.6 188.738 1204.56 188.864 1204.48 188.978C1204.4 189.087 1204.29 189.141 1204.15 189.141C1204.03 189.141 1203.94 189.096 1203.86 189.004C1203.79 188.913 1203.75 188.795 1203.75 188.652C1203.75 188.532 1203.77 188.42 1203.81 188.317C1203.86 188.214 1203.91 188.126 1203.97 188.051C1203.91 188.012 1203.83 187.991 1203.73 187.991C1203.55 187.991 1203.41 188.047 1203.31 188.154C1203.21 188.263 1203.16 188.416 1203.16 188.609C1203.16 188.742 1203.18 188.862 1203.23 188.969C1203.28 189.079 1203.37 189.231 1203.49 189.424L1203.59 189.57C1203.75 189.828 1203.86 190.04 1203.92 190.205C1203.99 190.373 1204.03 190.538 1204.03 190.703C1204.03 190.916 1203.97 191.107 1203.85 191.278C1203.75 191.446 1203.58 191.576 1203.37 191.673C1203.17 191.77 1202.93 191.819 1202.65 191.819C1202.31 191.819 1202.02 191.752 1201.79 191.622C1201.57 191.484 1201.45 191.267 1201.45 190.969C1201.45 190.828 1201.49 190.703 1201.56 190.6C1201.63 190.497 1201.73 190.446 1201.85 190.446C1201.98 190.446 1202.08 190.501 1202.16 190.609C1202.23 190.718 1202.28 190.853 1202.28 191.012C1202.28 191.122 1202.26 191.218 1202.23 191.304C1202.21 191.39 1202.17 191.493 1202.13 191.613Z" fill="#D9D9D9"/>
<path d="M1206.1 191.613C1206.17 191.647 1206.27 191.664 1206.38 191.664C1206.56 191.664 1206.71 191.611 1206.82 191.501C1206.93 191.388 1206.99 191.233 1206.99 191.038C1206.99 190.883 1206.96 190.725 1206.89 190.557C1206.82 190.392 1206.72 190.205 1206.59 189.999C1206.56 189.971 1206.5 189.886 1206.41 189.742C1206.31 189.594 1206.25 189.454 1206.2 189.321C1206.15 189.184 1206.13 189.051 1206.13 188.918C1206.13 188.604 1206.25 188.347 1206.48 188.145C1206.72 187.946 1207.04 187.845 1207.46 187.845C1207.78 187.845 1208.04 187.903 1208.25 188.017C1208.46 188.132 1208.57 188.326 1208.57 188.6C1208.57 188.738 1208.53 188.864 1208.45 188.978C1208.37 189.087 1208.26 189.141 1208.12 189.141C1208 189.141 1207.9 189.096 1207.83 189.004C1207.76 188.913 1207.72 188.795 1207.72 188.652C1207.72 188.532 1207.74 188.42 1207.78 188.317C1207.83 188.214 1207.88 188.126 1207.94 188.051C1207.88 188.012 1207.8 187.991 1207.69 187.991C1207.52 187.991 1207.38 188.047 1207.27 188.154C1207.18 188.263 1207.13 188.416 1207.13 188.609C1207.13 188.742 1207.15 188.862 1207.2 188.969C1207.25 189.079 1207.34 189.231 1207.46 189.424L1207.56 189.57C1207.72 189.828 1207.83 190.04 1207.89 190.205C1207.96 190.373 1207.99 190.538 1207.99 190.703C1207.99 190.916 1207.94 191.107 1207.82 191.278C1207.71 191.446 1207.55 191.576 1207.34 191.673C1207.14 191.77 1206.9 191.819 1206.62 191.819C1206.28 191.819 1205.99 191.752 1205.76 191.622C1205.54 191.484 1205.42 191.267 1205.42 190.969C1205.42 190.828 1205.46 190.703 1205.53 190.6C1205.6 190.497 1205.7 190.446 1205.82 190.446C1205.95 190.446 1206.05 190.501 1206.12 190.609C1206.2 190.718 1206.24 190.853 1206.24 191.012C1206.24 191.122 1206.23 191.218 1206.2 191.304C1206.18 191.39 1206.14 191.493 1206.1 191.613Z" fill="#D9D9D9"/>
<path d="M1210.81 186.729C1210.82 186.53 1210.89 186.373 1211.03 186.257C1211.17 186.143 1211.35 186.085 1211.56 186.085C1211.73 186.085 1211.86 186.126 1211.95 186.205C1212.05 186.287 1212.1 186.394 1212.1 186.532C1212.1 186.727 1212.02 186.888 1211.88 187.012C1211.73 187.139 1211.55 187.201 1211.34 187.201C1211.16 187.201 1211.03 187.163 1210.94 187.081C1210.85 186.995 1210.81 186.879 1210.81 186.729ZM1210.54 188.566C1210.57 188.459 1210.59 188.386 1210.59 188.351C1210.59 188.255 1210.55 188.205 1210.46 188.205C1210.37 188.205 1210.28 188.253 1210.21 188.343C1210.14 188.429 1210.07 188.574 1209.99 188.78L1209.84 189.15H1209.71L1209.91 188.6C1210.09 188.098 1210.43 187.845 1210.92 187.845C1211.15 187.845 1211.31 187.901 1211.41 188.008C1211.52 188.117 1211.57 188.261 1211.57 188.437C1211.57 188.581 1211.54 188.725 1211.48 188.866L1210.72 191.098C1210.69 191.184 1210.67 191.252 1210.67 191.304C1210.67 191.407 1210.72 191.458 1210.82 191.458C1210.89 191.458 1210.97 191.42 1211.04 191.338C1211.12 191.252 1211.2 191.102 1211.28 190.883L1211.41 190.531H1211.55L1211.36 191.064C1211.19 191.568 1210.86 191.819 1210.37 191.819C1209.93 191.819 1209.71 191.617 1209.71 191.21C1209.71 191.051 1209.75 190.866 1209.83 190.66L1210.54 188.566Z" fill="#D9D9D9"/>
<path d="M1213.32 191.613C1213.4 191.647 1213.49 191.664 1213.61 191.664C1213.79 191.664 1213.93 191.611 1214.04 191.501C1214.16 191.388 1214.22 191.233 1214.22 191.038C1214.22 190.883 1214.18 190.725 1214.11 190.557C1214.04 190.392 1213.94 190.205 1213.81 189.999C1213.79 189.971 1213.73 189.886 1213.63 189.742C1213.54 189.594 1213.47 189.454 1213.43 189.321C1213.38 189.184 1213.36 189.051 1213.36 188.918C1213.36 188.604 1213.47 188.347 1213.71 188.145C1213.94 187.946 1214.27 187.845 1214.69 187.845C1215 187.845 1215.26 187.903 1215.48 188.017C1215.69 188.132 1215.79 188.326 1215.79 188.6C1215.79 188.738 1215.75 188.864 1215.67 188.978C1215.59 189.087 1215.49 189.141 1215.35 189.141C1215.23 189.141 1215.13 189.096 1215.06 189.004C1214.98 188.913 1214.94 188.795 1214.94 188.652C1214.94 188.532 1214.96 188.42 1215 188.317C1215.05 188.214 1215.1 188.126 1215.17 188.051C1215.1 188.012 1215.02 187.991 1214.92 187.991C1214.74 187.991 1214.6 188.047 1214.5 188.154C1214.4 188.263 1214.35 188.416 1214.35 188.609C1214.35 188.742 1214.37 188.862 1214.42 188.969C1214.47 189.079 1214.56 189.231 1214.69 189.424L1214.78 189.57C1214.94 189.828 1215.05 190.04 1215.12 190.205C1215.19 190.373 1215.22 190.538 1215.22 190.703C1215.22 190.916 1215.16 191.107 1215.05 191.278C1214.94 191.446 1214.78 191.576 1214.57 191.673C1214.36 191.77 1214.12 191.819 1213.85 191.819C1213.5 191.819 1213.22 191.752 1212.99 191.622C1212.76 191.484 1212.64 191.267 1212.64 190.969C1212.64 190.828 1212.68 190.703 1212.76 190.6C1212.82 190.497 1212.92 190.446 1213.05 190.446C1213.17 190.446 1213.27 190.501 1213.35 190.609C1213.43 190.718 1213.47 190.853 1213.47 191.012C1213.47 191.122 1213.45 191.218 1213.43 191.304C1213.4 191.39 1213.37 191.493 1213.32 191.613Z" fill="#D9D9D9"/>
<path d="M1217.94 191.098C1217.93 191.145 1217.93 191.192 1217.93 191.244C1217.93 191.319 1217.94 191.373 1217.98 191.407C1218.02 191.441 1218.07 191.459 1218.14 191.459C1218.25 191.459 1218.35 191.407 1218.45 191.304C1218.55 191.201 1218.64 191.044 1218.72 190.832L1218.83 190.532H1218.97L1218.82 190.961C1218.63 191.534 1218.27 191.819 1217.73 191.819C1217.48 191.819 1217.29 191.755 1217.16 191.63C1217.04 191.499 1216.98 191.321 1216.98 191.098C1216.98 190.956 1217 190.81 1217.05 190.66L1217.79 188.094H1217.13L1217.16 187.948H1217.83L1218.14 186.866C1218.55 186.862 1218.91 186.828 1219.2 186.763L1218.85 187.948H1219.68L1219.66 188.094H1218.81L1217.94 191.098Z" fill="#D9D9D9"/>
<path d="M1223.84 190.531H1223.97L1223.79 191.064C1223.69 191.338 1223.56 191.534 1223.39 191.647C1223.22 191.761 1223.03 191.819 1222.83 191.819C1222.58 191.819 1222.4 191.744 1222.29 191.596C1222.22 191.506 1222.19 191.381 1222.19 191.227C1222.19 191.102 1222.21 190.958 1222.26 190.798C1222.09 191.158 1221.91 191.42 1221.71 191.579C1221.51 191.737 1221.28 191.819 1221.04 191.819C1220.77 191.819 1220.57 191.742 1220.43 191.587C1220.29 191.428 1220.22 191.205 1220.22 190.918C1220.22 190.489 1220.34 190.034 1220.57 189.553C1220.8 189.068 1221.09 188.66 1221.45 188.334C1221.8 188.008 1222.15 187.845 1222.49 187.845C1222.62 187.845 1222.72 187.886 1222.81 187.965C1222.89 188.04 1222.93 188.158 1222.95 188.317L1223.06 187.956C1223.44 187.952 1223.79 187.914 1224.11 187.845L1223.15 191.098C1223.13 191.179 1223.12 191.248 1223.12 191.304C1223.12 191.407 1223.16 191.458 1223.25 191.458C1223.42 191.458 1223.57 191.267 1223.71 190.883L1223.84 190.531ZM1222.87 188.6C1222.87 188.572 1222.87 188.536 1222.87 188.489C1222.87 188.368 1222.85 188.278 1222.81 188.214C1222.77 188.152 1222.71 188.12 1222.63 188.12C1222.46 188.12 1222.27 188.27 1222.06 188.566C1221.85 188.858 1221.68 189.227 1221.53 189.673C1221.38 190.119 1221.3 190.553 1221.3 190.969C1221.3 191.13 1221.32 191.248 1221.35 191.321C1221.38 191.39 1221.44 191.424 1221.51 191.424C1221.61 191.424 1221.73 191.351 1221.85 191.201C1221.98 191.053 1222.11 190.84 1222.24 190.566C1222.37 190.287 1222.48 189.954 1222.58 189.57L1222.55 189.742L1222.87 188.6Z" fill="#D9D9D9"/>
<path d="M1229.28 190.531L1229.09 191.064C1228.92 191.568 1228.6 191.819 1228.12 191.819C1227.85 191.819 1227.65 191.737 1227.54 191.579C1227.47 191.488 1227.44 191.373 1227.44 191.235C1227.44 191.081 1227.48 190.89 1227.56 190.66L1228.22 188.695C1228.26 188.564 1228.28 188.459 1228.28 188.377C1228.28 188.27 1228.23 188.214 1228.14 188.214C1228 188.214 1227.82 188.364 1227.62 188.66C1227.41 188.952 1227.2 189.343 1226.99 189.828C1226.78 190.308 1226.59 190.819 1226.44 191.355L1226.35 191.716H1225.32L1226.2 188.566C1226.23 188.48 1226.24 188.403 1226.24 188.334C1226.24 188.248 1226.2 188.205 1226.12 188.205C1226.03 188.205 1225.95 188.248 1225.87 188.334C1225.8 188.416 1225.73 188.564 1225.66 188.78L1225.52 189.15H1225.38L1225.57 188.6C1225.66 188.332 1225.79 188.141 1225.94 188.025C1226.1 187.905 1226.29 187.845 1226.52 187.845C1226.93 187.845 1227.14 188.047 1227.14 188.446C1227.14 188.583 1227.12 188.725 1227.08 188.866L1226.86 189.75C1227.06 189.253 1227.25 188.866 1227.43 188.592C1227.61 188.317 1227.8 188.126 1227.99 188.017C1228.17 187.903 1228.38 187.845 1228.6 187.845C1229.04 187.845 1229.26 188.04 1229.26 188.429C1229.26 188.579 1229.23 188.75 1229.17 188.944L1228.46 191.098C1228.43 191.184 1228.41 191.252 1228.41 191.304C1228.41 191.407 1228.46 191.458 1228.55 191.458C1228.62 191.458 1228.7 191.42 1228.77 191.338C1228.85 191.252 1228.93 191.102 1229.01 190.883L1229.14 190.531H1229.28Z" fill="#D9D9D9"/>
<path d="M1231.7 191.098C1231.68 191.145 1231.68 191.192 1231.68 191.244C1231.68 191.319 1231.7 191.373 1231.73 191.407C1231.77 191.441 1231.83 191.459 1231.9 191.459C1232 191.459 1232.11 191.407 1232.2 191.304C1232.31 191.201 1232.4 191.044 1232.47 190.832L1232.58 190.532H1232.72L1232.57 190.961C1232.38 191.534 1232.02 191.819 1231.48 191.819C1231.23 191.819 1231.04 191.755 1230.92 191.63C1230.8 191.499 1230.74 191.321 1230.74 191.098C1230.74 190.956 1230.76 190.81 1230.8 190.66L1231.54 188.094H1230.88L1230.92 187.948H1231.59L1231.9 186.866C1232.31 186.862 1232.66 186.828 1232.95 186.763L1232.61 187.948H1233.43L1233.41 188.094H1232.56L1231.7 191.098Z" fill="#D9D9D9"/>
<mask id="mask0_226_1437" style="mask-type:luminance" maskUnits="userSpaceOnUse" x="1183" y="103" width="63" height="56">
<path d="M1183.55 103.785H1245.35V158.581H1183.55V103.785Z" fill="white"/>
</mask>
<g mask="url(#mask0_226_1437)">
<path fill-rule="evenodd" clip-rule="evenodd" d="M1208.88 126.994L1211.67 128.9C1211.81 128.638 1212.09 128.462 1212.41 128.462H1216.65C1217.11 128.462 1217.49 128.84 1217.49 129.303V133.556C1217.49 134.018 1217.11 134.395 1216.65 134.395H1214.59L1212.8 137.925H1213.16C1213.76 137.925 1214.24 138.412 1214.24 139.009V141.372L1220.24 141.47V141.322C1220.24 140.97 1220.53 140.681 1220.88 140.681H1224.12C1224.47 140.681 1224.76 140.97 1224.76 141.322V144.562C1224.76 144.916 1224.47 145.204 1224.12 145.204H1220.88C1220.53 145.204 1220.24 144.916 1220.24 144.562V143.067L1214.24 142.97V144.477C1214.24 145.073 1213.76 145.56 1213.16 145.56H1207.7C1207.11 145.56 1206.62 145.073 1206.62 144.477V139.009C1206.62 138.415 1207.11 137.927 1207.7 137.927H1211.02L1212.8 134.398H1212.41C1211.94 134.398 1211.56 134.02 1211.56 133.556V130.767L1208.72 128.821C1208.49 129.239 1208.05 129.524 1207.54 129.524H1200.77C1200.03 129.524 1199.43 128.919 1199.43 128.181V121.398C1199.43 120.66 1200.03 120.057 1200.77 120.057H1207.54C1208.28 120.057 1208.88 120.66 1208.88 121.398V126.994ZM1194.03 118.641L1190.32 123.317V127.924C1190.32 128.149 1190.25 128.355 1190.12 128.52L1192.78 131.711H1197.45C1198.19 131.711 1198.79 132.314 1198.79 133.054V139.835C1198.79 140.575 1198.19 141.178 1197.45 141.178H1190.68C1189.94 141.178 1189.34 140.575 1189.34 139.835V133.054C1189.34 132.314 1189.94 131.711 1190.68 131.711H1190.7L1188.34 128.885H1184.51C1183.98 128.885 1183.55 128.454 1183.55 127.926V123.065C1183.55 122.535 1183.98 122.104 1184.51 122.104H1189.25L1192.03 118.596C1191.45 118.443 1191.03 117.92 1191.03 117.3V110.517C1191.03 109.778 1191.63 109.173 1192.37 109.173H1199.14C1199.88 109.173 1200.48 109.778 1200.48 110.517V117.297C1200.48 118.038 1199.88 118.641 1199.14 118.641H1194.03ZM1227.31 152.06L1231.46 147.461L1231.46 147.408V139.614C1231.46 139.198 1231.63 138.82 1231.9 138.541L1229.71 136.003C1229.64 136.016 1229.56 136.02 1229.48 136.02H1222.71C1221.97 136.02 1221.37 135.417 1221.37 134.677V127.896C1221.37 127.155 1221.97 126.555 1222.71 126.555H1229.48C1230.22 126.555 1230.83 127.158 1230.83 127.896V134.677C1230.83 134.732 1230.82 134.786 1230.81 134.84L1233.6 138.071H1240.78C1241.63 138.071 1242.32 138.767 1242.32 139.614V147.406C1242.32 148.253 1241.63 148.948 1240.78 148.948H1233C1232.78 148.948 1232.57 148.901 1232.39 148.818L1228.57 153.047V157.639C1228.57 158.146 1228.15 158.56 1227.65 158.56H1223C1222.49 158.56 1222.07 158.146 1222.07 157.639V152.981C1222.07 152.474 1222.49 152.06 1223 152.06H1227.31ZM1240.15 125.636L1237.63 120.757H1234.27C1233.74 120.757 1233.3 120.317 1233.3 119.776V114.819C1233.3 114.278 1233.74 113.838 1234.27 113.838H1239.23C1239.76 113.838 1240.2 114.278 1240.2 114.819V119.776C1240.2 120.252 1239.86 120.651 1239.41 120.739L1241.95 125.636H1244.38C1244.92 125.636 1245.36 126.076 1245.36 126.617V131.574C1245.36 132.114 1244.92 132.554 1244.38 132.554H1239.43C1238.89 132.554 1238.45 132.114 1238.45 131.574V126.617C1238.45 126.076 1238.89 125.636 1239.43 125.636H1240.15ZM1208.74 103.804H1215.51C1216.25 103.804 1216.85 104.407 1216.85 105.146V111.929C1216.85 112.669 1216.25 113.272 1215.51 113.272H1214.25L1215.66 116.735H1219.19C1219.25 116.735 1219.31 116.742 1219.37 116.752L1221.51 114.95C1221.25 114.705 1221.09 114.36 1221.09 113.978V107.195C1221.09 106.457 1221.69 105.852 1222.43 105.852H1229.2C1229.94 105.852 1230.54 106.457 1230.54 107.195V113.978C1230.54 114.716 1229.94 115.319 1229.2 115.319H1223.54L1220.17 118.173V122.675C1220.17 123.214 1219.73 123.656 1219.19 123.656H1214.24C1213.7 123.656 1213.26 123.214 1213.26 122.675V117.716C1213.26 117.276 1213.55 116.9 1213.95 116.778L1212.52 113.272H1208.74C1208 113.272 1207.4 112.667 1207.4 111.929V105.146C1207.4 104.407 1208 103.804 1208.74 103.804Z" fill="#248FEF"/>
</g>
</svg>
