<svg width="1363" height="163" viewBox="0 0 1363 163" fill="none" xmlns="http://www.w3.org/2000/svg">
<path d="M0 15C0 6.71573 6.71573 0 15 0H37V163H15C6.71573 163 0 156.284 0 148V15Z" fill="#424242"/>
<rect width="1097" height="163" transform="translate(37)" fill="#F0F0F0"/>
<path d="M101.906 53.9219L94.3945 51.2383V48.0859L104.602 52.375V54.6367L101.906 53.9219ZM94.3945 56.1719L101.918 53.4297L104.602 52.7852V55.0352L94.3945 59.3242V56.1719ZM114.504 43.9375H117.48L121.863 56.4648L126.246 43.9375H129.223L123.059 61H120.668L114.504 43.9375ZM112.898 43.9375H115.863L116.402 56.1484V61H112.898V43.9375ZM127.863 43.9375H130.84V61H127.324V56.1484L127.863 43.9375ZM139.547 61.2344C138.562 61.2344 137.68 61.0781 136.898 60.7656C136.117 60.4453 135.453 60.0039 134.906 59.4414C134.367 58.8789 133.953 58.2266 133.664 57.4844C133.375 56.7344 133.23 55.9375 133.23 55.0938V54.625C133.23 53.6641 133.367 52.7852 133.641 51.9883C133.914 51.1914 134.305 50.5 134.812 49.9141C135.328 49.3281 135.953 48.8789 136.688 48.5664C137.422 48.2461 138.25 48.0859 139.172 48.0859C140.07 48.0859 140.867 48.2344 141.562 48.5312C142.258 48.8281 142.84 49.25 143.309 49.7969C143.785 50.3438 144.145 51 144.387 51.7656C144.629 52.5234 144.75 53.3672 144.75 54.2969V55.7031H134.672V53.4531H141.434V53.1953C141.434 52.7266 141.348 52.3086 141.176 51.9414C141.012 51.5664 140.762 51.2695 140.426 51.0508C140.09 50.832 139.66 50.7227 139.137 50.7227C138.691 50.7227 138.309 50.8203 137.988 51.0156C137.668 51.2109 137.406 51.4844 137.203 51.8359C137.008 52.1875 136.859 52.6016 136.758 53.0781C136.664 53.5469 136.617 54.0625 136.617 54.625V55.0938C136.617 55.6016 136.688 56.0703 136.828 56.5C136.977 56.9297 137.184 57.3008 137.449 57.6133C137.723 57.9258 138.051 58.168 138.434 58.3398C138.824 58.5117 139.266 58.5977 139.758 58.5977C140.367 58.5977 140.934 58.4805 141.457 58.2461C141.988 58.0039 142.445 57.6406 142.828 57.1562L144.469 58.9375C144.203 59.3203 143.84 59.6875 143.379 60.0391C142.926 60.3906 142.379 60.6797 141.738 60.9062C141.098 61.125 140.367 61.2344 139.547 61.2344ZM154.16 58.2344V43H157.559V61H154.5L154.16 58.2344ZM146.145 54.8125V54.5664C146.145 53.5977 146.254 52.7188 146.473 51.9297C146.691 51.1328 147.012 50.4492 147.434 49.8789C147.855 49.3086 148.375 48.8672 148.992 48.5547C149.609 48.2422 150.312 48.0859 151.102 48.0859C151.844 48.0859 152.492 48.2422 153.047 48.5547C153.609 48.8672 154.086 49.3125 154.477 49.8906C154.875 50.4609 155.195 51.1367 155.438 51.918C155.68 52.6914 155.855 53.5391 155.965 54.4609V55C155.855 55.8828 155.68 56.7031 155.438 57.4609C155.195 58.2188 154.875 58.8828 154.477 59.4531C154.086 60.0156 153.609 60.4531 153.047 60.7656C152.484 61.0781 151.828 61.2344 151.078 61.2344C150.289 61.2344 149.586 61.0742 148.969 60.7539C148.359 60.4336 147.844 59.9844 147.422 59.4062C147.008 58.8281 146.691 58.1484 146.473 57.3672C146.254 56.5859 146.145 55.7344 146.145 54.8125ZM149.52 54.5664V54.8125C149.52 55.3359 149.559 55.8242 149.637 56.2773C149.723 56.7305 149.859 57.1328 150.047 57.4844C150.242 57.8281 150.492 58.0977 150.797 58.293C151.109 58.4805 151.488 58.5742 151.934 58.5742C152.512 58.5742 152.988 58.4453 153.363 58.1875C153.738 57.9219 154.023 57.5586 154.219 57.0977C154.422 56.6367 154.539 56.1055 154.57 55.5039V53.9688C154.547 53.4766 154.477 53.0352 154.359 52.6445C154.25 52.2461 154.086 51.9062 153.867 51.625C153.656 51.3438 153.391 51.125 153.07 50.9688C152.758 50.8125 152.387 50.7344 151.957 50.7344C151.52 50.7344 151.145 50.8359 150.832 51.0391C150.52 51.2344 150.266 51.5039 150.07 51.8477C149.883 52.1914 149.742 52.5977 149.648 53.0664C149.562 53.5273 149.52 54.0273 149.52 54.5664ZM163.758 48.3203V61H160.371V48.3203H163.758ZM160.16 45.0156C160.16 44.5234 160.332 44.1172 160.676 43.7969C161.02 43.4766 161.48 43.3164 162.059 43.3164C162.629 43.3164 163.086 43.4766 163.43 43.7969C163.781 44.1172 163.957 44.5234 163.957 45.0156C163.957 45.5078 163.781 45.9141 163.43 46.2344C163.086 46.5547 162.629 46.7148 162.059 46.7148C161.48 46.7148 161.02 46.5547 160.676 46.2344C160.332 45.9141 160.16 45.5078 160.16 45.0156ZM182.625 55.3398H186.129C186.059 56.4883 185.742 57.5078 185.18 58.3984C184.625 59.2891 183.848 59.9844 182.848 60.4844C181.855 60.9844 180.66 61.2344 179.262 61.2344C178.168 61.2344 177.188 61.0469 176.32 60.6719C175.453 60.2891 174.711 59.7422 174.094 59.0312C173.484 58.3203 173.02 57.4609 172.699 56.4531C172.379 55.4453 172.219 54.3164 172.219 53.0664V51.8828C172.219 50.6328 172.383 49.5039 172.711 48.4961C173.047 47.4805 173.523 46.6172 174.141 45.9062C174.766 45.1953 175.512 44.6484 176.379 44.2656C177.246 43.8828 178.215 43.6914 179.285 43.6914C180.707 43.6914 181.906 43.9492 182.883 44.4648C183.867 44.9805 184.629 45.6914 185.168 46.5977C185.715 47.5039 186.043 48.5352 186.152 49.6914H182.637C182.598 49.0039 182.461 48.4219 182.227 47.9453C181.992 47.4609 181.637 47.0977 181.16 46.8555C180.691 46.6055 180.066 46.4805 179.285 46.4805C178.699 46.4805 178.188 46.5898 177.75 46.8086C177.312 47.0273 176.945 47.3594 176.648 47.8047C176.352 48.25 176.129 48.8125 175.98 49.4922C175.84 50.1641 175.77 50.9531 175.77 51.8594V53.0664C175.77 53.9492 175.836 54.7266 175.969 55.3984C176.102 56.0625 176.305 56.625 176.578 57.0859C176.859 57.5391 177.219 57.8828 177.656 58.1172C178.102 58.3438 178.637 58.457 179.262 58.457C179.996 58.457 180.602 58.3398 181.078 58.1055C181.555 57.8711 181.918 57.5234 182.168 57.0625C182.426 56.6016 182.578 56.0273 182.625 55.3398ZM187.688 54.7891V54.543C187.688 53.6133 187.82 52.7578 188.086 51.9766C188.352 51.1875 188.738 50.5039 189.246 49.9258C189.754 49.3477 190.379 48.8984 191.121 48.5781C191.863 48.25 192.715 48.0859 193.676 48.0859C194.637 48.0859 195.492 48.25 196.242 48.5781C196.992 48.8984 197.621 49.3477 198.129 49.9258C198.645 50.5039 199.035 51.1875 199.301 51.9766C199.566 52.7578 199.699 53.6133 199.699 54.543V54.7891C199.699 55.7109 199.566 56.5664 199.301 57.3555C199.035 58.1367 198.645 58.8203 198.129 59.4062C197.621 59.9844 196.996 60.4336 196.254 60.7539C195.512 61.0742 194.66 61.2344 193.699 61.2344C192.738 61.2344 191.883 61.0742 191.133 60.7539C190.391 60.4336 189.762 59.9844 189.246 59.4062C188.738 58.8203 188.352 58.1367 188.086 57.3555C187.82 56.5664 187.688 55.7109 187.688 54.7891ZM191.062 54.543V54.7891C191.062 55.3203 191.109 55.8164 191.203 56.2773C191.297 56.7383 191.445 57.1445 191.648 57.4961C191.859 57.8398 192.133 58.1094 192.469 58.3047C192.805 58.5 193.215 58.5977 193.699 58.5977C194.168 58.5977 194.57 58.5 194.906 58.3047C195.242 58.1094 195.512 57.8398 195.715 57.4961C195.918 57.1445 196.066 56.7383 196.16 56.2773C196.262 55.8164 196.312 55.3203 196.312 54.7891V54.543C196.312 54.0273 196.262 53.543 196.16 53.0898C196.066 52.6289 195.914 52.2227 195.703 51.8711C195.5 51.5117 195.23 51.2305 194.895 51.0273C194.559 50.8242 194.152 50.7227 193.676 50.7227C193.199 50.7227 192.793 50.8242 192.457 51.0273C192.129 51.2305 191.859 51.5117 191.648 51.8711C191.445 52.2227 191.297 52.6289 191.203 53.0898C191.109 53.543 191.062 54.0273 191.062 54.543ZM205.078 51.0273V61H201.703V48.3203H204.867L205.078 51.0273ZM204.586 54.2148H203.672C203.672 53.2773 203.793 52.4336 204.035 51.6836C204.277 50.9258 204.617 50.2812 205.055 49.75C205.492 49.2109 206.012 48.8008 206.613 48.5195C207.223 48.2305 207.902 48.0859 208.652 48.0859C209.246 48.0859 209.789 48.1719 210.281 48.3438C210.773 48.5156 211.195 48.7891 211.547 49.1641C211.906 49.5391 212.18 50.0352 212.367 50.6523C212.562 51.2695 212.66 52.0234 212.66 52.9141V61H209.262V52.9023C209.262 52.3398 209.184 51.9023 209.027 51.5898C208.871 51.2773 208.641 51.0586 208.336 50.9336C208.039 50.8008 207.672 50.7344 207.234 50.7344C206.781 50.7344 206.387 50.8242 206.051 51.0039C205.723 51.1836 205.449 51.4336 205.23 51.7539C205.02 52.0664 204.859 52.4336 204.75 52.8555C204.641 53.2773 204.586 53.7305 204.586 54.2148ZM218.531 51.0273V61H215.156V48.3203H218.32L218.531 51.0273ZM218.039 54.2148H217.125C217.125 53.2773 217.246 52.4336 217.488 51.6836C217.73 50.9258 218.07 50.2812 218.508 49.75C218.945 49.2109 219.465 48.8008 220.066 48.5195C220.676 48.2305 221.355 48.0859 222.105 48.0859C222.699 48.0859 223.242 48.1719 223.734 48.3438C224.227 48.5156 224.648 48.7891 225 49.1641C225.359 49.5391 225.633 50.0352 225.82 50.6523C226.016 51.2695 226.113 52.0234 226.113 52.9141V61H222.715V52.9023C222.715 52.3398 222.637 51.9023 222.48 51.5898C222.324 51.2773 222.094 51.0586 221.789 50.9336C221.492 50.8008 221.125 50.7344 220.688 50.7344C220.234 50.7344 219.84 50.8242 219.504 51.0039C219.176 51.1836 218.902 51.4336 218.684 51.7539C218.473 52.0664 218.312 52.4336 218.203 52.8555C218.094 53.2773 218.039 53.7305 218.039 54.2148ZM234.516 61.2344C233.531 61.2344 232.648 61.0781 231.867 60.7656C231.086 60.4453 230.422 60.0039 229.875 59.4414C229.336 58.8789 228.922 58.2266 228.633 57.4844C228.344 56.7344 228.199 55.9375 228.199 55.0938V54.625C228.199 53.6641 228.336 52.7852 228.609 51.9883C228.883 51.1914 229.273 50.5 229.781 49.9141C230.297 49.3281 230.922 48.8789 231.656 48.5664C232.391 48.2461 233.219 48.0859 234.141 48.0859C235.039 48.0859 235.836 48.2344 236.531 48.5312C237.227 48.8281 237.809 49.25 238.277 49.7969C238.754 50.3438 239.113 51 239.355 51.7656C239.598 52.5234 239.719 53.3672 239.719 54.2969V55.7031H229.641V53.4531H236.402V53.1953C236.402 52.7266 236.316 52.3086 236.145 51.9414C235.98 51.5664 235.73 51.2695 235.395 51.0508C235.059 50.832 234.629 50.7227 234.105 50.7227C233.66 50.7227 233.277 50.8203 232.957 51.0156C232.637 51.2109 232.375 51.4844 232.172 51.8359C231.977 52.1875 231.828 52.6016 231.727 53.0781C231.633 53.5469 231.586 54.0625 231.586 54.625V55.0938C231.586 55.6016 231.656 56.0703 231.797 56.5C231.945 56.9297 232.152 57.3008 232.418 57.6133C232.691 57.9258 233.02 58.168 233.402 58.3398C233.793 58.5117 234.234 58.5977 234.727 58.5977C235.336 58.5977 235.902 58.4805 236.426 58.2461C236.957 58.0039 237.414 57.6406 237.797 57.1562L239.438 58.9375C239.172 59.3203 238.809 59.6875 238.348 60.0391C237.895 60.3906 237.348 60.6797 236.707 60.9062C236.066 61.125 235.336 61.2344 234.516 61.2344ZM246.879 58.5977C247.293 58.5977 247.66 58.5195 247.98 58.3633C248.301 58.1992 248.551 57.9727 248.73 57.6836C248.918 57.3867 249.016 57.0391 249.023 56.6406H252.199C252.191 57.5312 251.953 58.3242 251.484 59.0195C251.016 59.707 250.387 60.25 249.598 60.6484C248.809 61.0391 247.926 61.2344 246.949 61.2344C245.965 61.2344 245.105 61.0703 244.371 60.7422C243.645 60.4141 243.039 59.9609 242.555 59.3828C242.07 58.7969 241.707 58.1172 241.465 57.3438C241.223 56.5625 241.102 55.7266 241.102 54.8359V54.4961C241.102 53.5977 241.223 52.7617 241.465 51.9883C241.707 51.207 242.07 50.5273 242.555 49.9492C243.039 49.3633 243.645 48.9062 244.371 48.5781C245.098 48.25 245.949 48.0859 246.926 48.0859C247.965 48.0859 248.875 48.2852 249.656 48.6836C250.445 49.082 251.062 49.6523 251.508 50.3945C251.961 51.1289 252.191 52 252.199 53.0078H249.023C249.016 52.5859 248.926 52.2031 248.754 51.8594C248.59 51.5156 248.348 51.2422 248.027 51.0391C247.715 50.8281 247.328 50.7227 246.867 50.7227C246.375 50.7227 245.973 50.8281 245.66 51.0391C245.348 51.2422 245.105 51.5234 244.934 51.8828C244.762 52.2344 244.641 52.6367 244.57 53.0898C244.508 53.5352 244.477 54.0039 244.477 54.4961V54.8359C244.477 55.3281 244.508 55.8008 244.57 56.2539C244.633 56.707 244.75 57.1094 244.922 57.4609C245.102 57.8125 245.348 58.0898 245.66 58.293C245.973 58.4961 246.379 58.5977 246.879 58.5977ZM260.367 48.3203V50.7109H252.984V48.3203H260.367ZM254.812 45.1914H258.188V57.1797C258.188 57.5469 258.234 57.8281 258.328 58.0234C258.43 58.2188 258.578 58.3555 258.773 58.4336C258.969 58.5039 259.215 58.5391 259.512 58.5391C259.723 58.5391 259.91 58.5312 260.074 58.5156C260.246 58.4922 260.391 58.4688 260.508 58.4453L260.52 60.9297C260.23 61.0234 259.918 61.0977 259.582 61.1523C259.246 61.207 258.875 61.2344 258.469 61.2344C257.727 61.2344 257.078 61.1133 256.523 60.8711C255.977 60.6211 255.555 60.2227 255.258 59.6758C254.961 59.1289 254.812 58.4102 254.812 57.5195V45.1914Z" fill="#888888"/>
<path d="M109.219 107.422H100.734V101.07H109.219C110.375 101.07 111.312 100.875 112.031 100.484C112.75 100.094 113.273 99.5547 113.602 98.8672C113.945 98.1641 114.117 97.375 114.117 96.5C114.117 95.5625 113.945 94.6953 113.602 93.8984C113.273 93.1016 112.75 92.4609 112.031 91.9766C111.312 91.4766 110.375 91.2266 109.219 91.2266H103.828V119H95.6016V84.875H109.219C111.953 84.875 114.305 85.375 116.273 86.375C118.258 87.375 119.781 88.75 120.844 90.5C121.906 92.2344 122.438 94.2188 122.438 96.4531C122.438 98.6562 121.906 100.578 120.844 102.219C119.781 103.859 118.258 105.141 116.273 106.062C114.305 106.969 111.953 107.422 109.219 107.422ZM134.461 99.9219V119H126.562V93.6406H133.945L134.461 99.9219ZM141.961 93.4531L141.82 100.789C141.508 100.758 141.086 100.719 140.555 100.672C140.023 100.625 139.578 100.602 139.219 100.602C138.297 100.602 137.5 100.711 136.828 100.93C136.172 101.133 135.625 101.445 135.188 101.867C134.766 102.273 134.453 102.789 134.25 103.414C134.062 104.039 133.977 104.766 133.992 105.594L132.562 104.656C132.562 102.953 132.727 101.406 133.055 100.016C133.398 98.6094 133.883 97.3984 134.508 96.3828C135.133 95.3516 135.891 94.5625 136.781 94.0156C137.672 93.4531 138.672 93.1719 139.781 93.1719C140.172 93.1719 140.555 93.1953 140.93 93.2422C141.32 93.2891 141.664 93.3594 141.961 93.4531ZM142.852 106.578V106.086C142.852 104.227 143.117 102.516 143.648 100.953C144.18 99.375 144.961 98.0078 145.992 96.8516C147.023 95.6953 148.297 94.7969 149.812 94.1562C151.328 93.5 153.078 93.1719 155.062 93.1719C157.062 93.1719 158.82 93.5 160.336 94.1562C161.867 94.7969 163.148 95.6953 164.18 96.8516C165.211 98.0078 165.992 99.375 166.523 100.953C167.055 102.516 167.32 104.227 167.32 106.086V106.578C167.32 108.422 167.055 110.133 166.523 111.711C165.992 113.273 165.211 114.641 164.18 115.812C163.148 116.969 161.875 117.867 160.359 118.508C158.844 119.148 157.094 119.469 155.109 119.469C153.125 119.469 151.367 119.148 149.836 118.508C148.305 117.867 147.023 116.969 145.992 115.812C144.961 114.641 144.18 113.273 143.648 111.711C143.117 110.133 142.852 108.422 142.852 106.578ZM150.75 106.086V106.578C150.75 107.531 150.82 108.422 150.961 109.25C151.102 110.078 151.336 110.805 151.664 111.43C151.992 112.039 152.438 112.516 153 112.859C153.562 113.203 154.266 113.375 155.109 113.375C155.938 113.375 156.625 113.203 157.172 112.859C157.734 112.516 158.18 112.039 158.508 111.43C158.836 110.805 159.07 110.078 159.211 109.25C159.352 108.422 159.422 107.531 159.422 106.578V106.086C159.422 105.164 159.352 104.297 159.211 103.484C159.07 102.656 158.836 101.93 158.508 101.305C158.18 100.664 157.734 100.164 157.172 99.8047C156.609 99.4453 155.906 99.2656 155.062 99.2656C154.234 99.2656 153.539 99.4453 152.977 99.8047C152.43 100.164 151.992 100.664 151.664 101.305C151.336 101.93 151.102 102.656 150.961 103.484C150.82 104.297 150.75 105.164 150.75 106.086ZM171.422 93.6406H179.344V119.82C179.344 121.852 178.953 123.562 178.172 124.953C177.391 126.359 176.273 127.422 174.82 128.141C173.367 128.875 171.633 129.242 169.617 129.242C168.945 129.242 168.328 129.211 167.766 129.148C167.188 129.102 166.555 129 165.867 128.844V122.867C166.273 122.93 166.648 122.977 166.992 123.008C167.336 123.055 167.711 123.078 168.117 123.078C168.836 123.078 169.438 122.961 169.922 122.727C170.406 122.492 170.773 122.133 171.023 121.648C171.289 121.164 171.422 120.555 171.422 119.82V93.6406ZM170.836 87.1016C170.836 85.9766 171.242 85.0547 172.055 84.3359C172.867 83.6172 173.922 83.2578 175.219 83.2578C176.516 83.2578 177.57 83.6172 178.383 84.3359C179.195 85.0547 179.602 85.9766 179.602 87.1016C179.602 88.2266 179.195 89.1484 178.383 89.8672C177.57 90.5859 176.516 90.9453 175.219 90.9453C173.922 90.9453 172.867 90.5859 172.055 89.8672C171.242 89.1484 170.836 88.2266 170.836 87.1016ZM196.102 119.469C194.039 119.469 192.195 119.148 190.57 118.508C188.945 117.852 187.57 116.953 186.445 115.812C185.336 114.672 184.484 113.359 183.891 111.875C183.312 110.391 183.023 108.82 183.023 107.164V106.273C183.023 104.414 183.281 102.695 183.797 101.117C184.312 99.5234 185.078 98.1328 186.094 96.9453C187.109 95.7578 188.383 94.8359 189.914 94.1797C191.445 93.5078 193.227 93.1719 195.258 93.1719C197.055 93.1719 198.664 93.4609 200.086 94.0391C201.508 94.6172 202.711 95.4453 203.695 96.5234C204.695 97.6016 205.453 98.9062 205.969 100.438C206.5 101.969 206.766 103.688 206.766 105.594V108.805H186.047V103.859H199.055V103.25C199.07 102.406 198.922 101.688 198.609 101.094C198.312 100.5 197.875 100.047 197.297 99.7344C196.719 99.4219 196.016 99.2656 195.188 99.2656C194.328 99.2656 193.617 99.4531 193.055 99.8281C192.508 100.203 192.078 100.719 191.766 101.375C191.469 102.016 191.258 102.758 191.133 103.602C191.008 104.445 190.945 105.336 190.945 106.273V107.164C190.945 108.102 191.07 108.953 191.32 109.719C191.586 110.484 191.961 111.141 192.445 111.688C192.945 112.219 193.539 112.633 194.227 112.93C194.93 113.227 195.727 113.375 196.617 113.375C197.695 113.375 198.758 113.172 199.805 112.766C200.852 112.359 201.75 111.688 202.5 110.75L206.086 115.016C205.57 115.75 204.836 116.461 203.883 117.148C202.945 117.836 201.82 118.398 200.508 118.836C199.195 119.258 197.727 119.469 196.102 119.469ZM220.688 113.375C221.422 113.375 222.047 113.242 222.562 112.977C223.094 112.695 223.492 112.305 223.758 111.805C224.039 111.289 224.172 110.672 224.156 109.953H231.586C231.602 111.859 231.133 113.531 230.18 114.969C229.242 116.391 227.961 117.5 226.336 118.297C224.727 119.078 222.906 119.469 220.875 119.469C218.891 119.469 217.156 119.148 215.672 118.508C214.188 117.852 212.945 116.945 211.945 115.789C210.961 114.617 210.219 113.25 209.719 111.688C209.234 110.125 208.992 108.43 208.992 106.602V106.062C208.992 104.234 209.234 102.539 209.719 100.977C210.219 99.3984 210.961 98.0312 211.945 96.875C212.945 95.7031 214.18 94.7969 215.648 94.1562C217.133 93.5 218.859 93.1719 220.828 93.1719C222.938 93.1719 224.797 93.5703 226.406 94.3672C228.031 95.1641 229.305 96.3203 230.227 97.8359C231.148 99.3516 231.602 101.188 231.586 103.344H224.156C224.172 102.578 224.055 101.891 223.805 101.281C223.555 100.672 223.164 100.188 222.633 99.8281C222.117 99.4531 221.453 99.2656 220.641 99.2656C219.828 99.2656 219.172 99.4453 218.672 99.8047C218.172 100.164 217.789 100.664 217.523 101.305C217.273 101.93 217.102 102.648 217.008 103.461C216.93 104.273 216.891 105.141 216.891 106.062V106.602C216.891 107.539 216.93 108.422 217.008 109.25C217.102 110.062 217.281 110.781 217.547 111.406C217.812 112.016 218.195 112.5 218.695 112.859C219.195 113.203 219.859 113.375 220.688 113.375ZM248.32 93.6406V99.125H233.039V93.6406H248.32ZM236.25 87.3359H244.148V110.727C244.148 111.398 244.227 111.922 244.383 112.297C244.539 112.656 244.805 112.914 245.18 113.07C245.57 113.211 246.086 113.281 246.727 113.281C247.18 113.281 247.555 113.273 247.852 113.258C248.148 113.227 248.43 113.188 248.695 113.141V118.789C248.023 119.008 247.32 119.172 246.586 119.281C245.852 119.406 245.07 119.469 244.242 119.469C242.555 119.469 241.109 119.203 239.906 118.672C238.719 118.141 237.812 117.305 237.188 116.164C236.562 115.023 236.25 113.539 236.25 111.711V87.3359ZM292.664 101.258V102.641C292.664 105.25 292.297 107.594 291.562 109.672C290.844 111.734 289.82 113.5 288.492 114.969C287.164 116.422 285.594 117.539 283.781 118.32C281.969 119.086 279.969 119.469 277.781 119.469C275.578 119.469 273.562 119.086 271.734 118.32C269.922 117.539 268.344 116.422 267 114.969C265.672 113.5 264.641 111.734 263.906 109.672C263.188 107.594 262.828 105.25 262.828 102.641V101.258C262.828 98.6484 263.188 96.3047 263.906 94.2266C264.641 92.1484 265.664 90.3828 266.977 88.9297C268.305 87.4609 269.875 86.3438 271.688 85.5781C273.516 84.7969 275.531 84.4062 277.734 84.4062C279.922 84.4062 281.922 84.7969 283.734 85.5781C285.562 86.3438 287.141 87.4609 288.469 88.9297C289.797 90.3828 290.828 92.1484 291.562 94.2266C292.297 96.3047 292.664 98.6484 292.664 101.258ZM284.32 102.641V101.211C284.32 99.5234 284.172 98.0391 283.875 96.7578C283.594 95.4609 283.172 94.375 282.609 93.5C282.047 92.625 281.352 91.9688 280.523 91.5312C279.711 91.0781 278.781 90.8516 277.734 90.8516C276.641 90.8516 275.688 91.0781 274.875 91.5312C274.062 91.9688 273.383 92.625 272.836 93.5C272.289 94.375 271.875 95.4609 271.594 96.7578C271.328 98.0391 271.195 99.5234 271.195 101.211V102.641C271.195 104.312 271.328 105.797 271.594 107.094C271.875 108.375 272.289 109.461 272.836 110.352C273.398 111.242 274.086 111.914 274.898 112.367C275.727 112.82 276.688 113.047 277.781 113.047C278.828 113.047 279.758 112.82 280.57 112.367C281.383 111.914 282.062 111.242 282.609 110.352C283.172 109.461 283.594 108.375 283.875 107.094C284.172 105.797 284.32 104.312 284.32 102.641ZM305.695 113.586L310.688 93.6406H319.008L310.711 119H305.789L305.695 113.586ZM302.742 93.6406L307.664 113.586L307.617 119H302.672L294.398 93.6406H302.742ZM333.305 119.469C331.242 119.469 329.398 119.148 327.773 118.508C326.148 117.852 324.773 116.953 323.648 115.812C322.539 114.672 321.688 113.359 321.094 111.875C320.516 110.391 320.227 108.82 320.227 107.164V106.273C320.227 104.414 320.484 102.695 321 101.117C321.516 99.5234 322.281 98.1328 323.297 96.9453C324.312 95.7578 325.586 94.8359 327.117 94.1797C328.648 93.5078 330.43 93.1719 332.461 93.1719C334.258 93.1719 335.867 93.4609 337.289 94.0391C338.711 94.6172 339.914 95.4453 340.898 96.5234C341.898 97.6016 342.656 98.9062 343.172 100.438C343.703 101.969 343.969 103.688 343.969 105.594V108.805H323.25V103.859H336.258V103.25C336.273 102.406 336.125 101.688 335.812 101.094C335.516 100.5 335.078 100.047 334.5 99.7344C333.922 99.4219 333.219 99.2656 332.391 99.2656C331.531 99.2656 330.82 99.4531 330.258 99.8281C329.711 100.203 329.281 100.719 328.969 101.375C328.672 102.016 328.461 102.758 328.336 103.602C328.211 104.445 328.148 105.336 328.148 106.273V107.164C328.148 108.102 328.273 108.953 328.523 109.719C328.789 110.484 329.164 111.141 329.648 111.688C330.148 112.219 330.742 112.633 331.43 112.93C332.133 113.227 332.93 113.375 333.82 113.375C334.898 113.375 335.961 113.172 337.008 112.766C338.055 112.359 338.953 111.688 339.703 110.75L343.289 115.016C342.773 115.75 342.039 116.461 341.086 117.148C340.148 117.836 339.023 118.398 337.711 118.836C336.398 119.258 334.93 119.469 333.305 119.469ZM355.148 99.9219V119H347.25V93.6406H354.633L355.148 99.9219ZM362.648 93.4531L362.508 100.789C362.195 100.758 361.773 100.719 361.242 100.672C360.711 100.625 360.266 100.602 359.906 100.602C358.984 100.602 358.188 100.711 357.516 100.93C356.859 101.133 356.312 101.445 355.875 101.867C355.453 102.273 355.141 102.789 354.938 103.414C354.75 104.039 354.664 104.766 354.68 105.594L353.25 104.656C353.25 102.953 353.414 101.406 353.742 100.016C354.086 98.6094 354.57 97.3984 355.195 96.3828C355.82 95.3516 356.578 94.5625 357.469 94.0156C358.359 93.4531 359.359 93.1719 360.469 93.1719C360.859 93.1719 361.242 93.1953 361.617 93.2422C362.008 93.2891 362.352 93.3594 362.648 93.4531ZM374.93 113.586L379.922 93.6406H388.242L379.945 119H375.023L374.93 113.586ZM371.977 93.6406L376.898 113.586L376.852 119H371.906L363.633 93.6406H371.977ZM398.93 93.6406V119H391.008V93.6406H398.93ZM390.539 87.1016C390.539 85.9766 390.945 85.0547 391.758 84.3359C392.57 83.6172 393.625 83.2578 394.922 83.2578C396.219 83.2578 397.273 83.6172 398.086 84.3359C398.898 85.0547 399.305 85.9766 399.305 87.1016C399.305 88.2266 398.898 89.1484 398.086 89.8672C397.273 90.5859 396.219 90.9453 394.922 90.9453C393.625 90.9453 392.57 90.5859 391.758 89.8672C390.945 89.1484 390.539 88.2266 390.539 87.1016ZM416.086 119.469C414.023 119.469 412.18 119.148 410.555 118.508C408.93 117.852 407.555 116.953 406.43 115.812C405.32 114.672 404.469 113.359 403.875 111.875C403.297 110.391 403.008 108.82 403.008 107.164V106.273C403.008 104.414 403.266 102.695 403.781 101.117C404.297 99.5234 405.062 98.1328 406.078 96.9453C407.094 95.7578 408.367 94.8359 409.898 94.1797C411.43 93.5078 413.211 93.1719 415.242 93.1719C417.039 93.1719 418.648 93.4609 420.07 94.0391C421.492 94.6172 422.695 95.4453 423.68 96.5234C424.68 97.6016 425.438 98.9062 425.953 100.438C426.484 101.969 426.75 103.688 426.75 105.594V108.805H406.031V103.859H419.039V103.25C419.055 102.406 418.906 101.688 418.594 101.094C418.297 100.5 417.859 100.047 417.281 99.7344C416.703 99.4219 416 99.2656 415.172 99.2656C414.312 99.2656 413.602 99.4531 413.039 99.8281C412.492 100.203 412.062 100.719 411.75 101.375C411.453 102.016 411.242 102.758 411.117 103.602C410.992 104.445 410.93 105.336 410.93 106.273V107.164C410.93 108.102 411.055 108.953 411.305 109.719C411.57 110.484 411.945 111.141 412.43 111.688C412.93 112.219 413.523 112.633 414.211 112.93C414.914 113.227 415.711 113.375 416.602 113.375C417.68 113.375 418.742 113.172 419.789 112.766C420.836 112.359 421.734 111.688 422.484 110.75L426.07 115.016C425.555 115.75 424.82 116.461 423.867 117.148C422.93 117.836 421.805 118.398 420.492 118.836C419.18 119.258 417.711 119.469 416.086 119.469ZM437.672 111.453L442.359 93.6406H447.305L445.547 102.57L440.906 119H436.945L437.672 111.453ZM435.82 93.6406L438.727 111.312L439.055 119H434.25L428.25 93.6406H435.82ZM451.477 110.938L454.406 93.6406H461.977L456.023 119H451.219L451.477 110.938ZM447.867 93.6406L452.602 111.406L453.328 119H449.32L444.773 102.617L443.086 93.6406H447.867Z" fill="black"/>
<path d="M1134 0H1348C1356.28 0 1363 6.71573 1363 15V148C1363 156.284 1356.28 163 1348 163H1134V0Z" fill="#248FEF"/>
<path d="M1234.26 103.786H1262.74V109.357H1234.26V103.786ZM1239.96 114.929H1257.04V120.5H1239.96V114.929ZM1248.5 42.5C1240.95 42.5 1233.71 45.4349 1228.37 50.6592C1223.03 55.8834 1220.03 62.969 1220.03 70.3571C1219.84 74.4057 1220.63 78.4412 1222.34 82.1315C1224.05 85.8219 1226.64 89.0616 1229.88 91.5843C1232.73 94.175 1234.26 95.6514 1234.26 98.2143H1239.96C1239.96 93.0886 1236.8 90.2193 1233.72 87.4614C1231.06 85.4676 1228.94 82.8658 1227.55 79.8838C1226.15 76.9019 1225.53 73.6308 1225.72 70.3571C1225.72 64.4466 1228.12 58.7781 1232.39 54.5988C1236.67 50.4194 1242.46 48.0714 1248.5 48.0714C1254.54 48.0714 1260.33 50.4194 1264.61 54.5988C1268.88 58.7781 1271.28 64.4466 1271.28 70.3571C1271.47 73.6333 1270.84 76.9059 1269.44 79.888C1268.04 82.8701 1265.92 85.4706 1263.25 87.4614C1260.2 90.2471 1257.04 93.0329 1257.04 98.2143H1262.74C1262.74 95.6514 1264.25 94.175 1267.12 91.5564C1270.36 89.0381 1272.94 85.8031 1274.66 82.1176C1276.37 78.4321 1277.16 74.4014 1276.97 70.3571C1276.97 66.6989 1276.24 63.0765 1274.81 59.6967C1273.37 56.3169 1271.28 53.2459 1268.63 50.6592C1265.99 48.0724 1262.85 46.0205 1259.4 44.6205C1255.94 43.2205 1252.24 42.5 1248.5 42.5Z" fill="white"/>
</svg>
