<svg width="1363" height="163" viewBox="0 0 1363 163" fill="none" xmlns="http://www.w3.org/2000/svg">
<path d="M0 15C0 6.71573 6.71573 0 15 0H37V163H15C6.71573 163 0 156.284 0 148V15Z" fill="#424242"/>
<rect width="1097" height="163" transform="translate(37)" fill="#F0F0F0"/>
<path d="M101.906 53.9219L94.3945 51.2383V48.0859L104.602 52.375V54.6367L101.906 53.9219ZM94.3945 56.1719L101.918 53.4297L104.602 52.7852V55.0352L94.3945 59.3242V56.1719ZM126.785 43.9375V61H123.27L116.414 49.5625V61H112.898V43.9375H116.414L123.281 55.3867V43.9375H126.785ZM135.469 61.2344C134.484 61.2344 133.602 61.0781 132.82 60.7656C132.039 60.4453 131.375 60.0039 130.828 59.4414C130.289 58.8789 129.875 58.2266 129.586 57.4844C129.297 56.7344 129.152 55.9375 129.152 55.0938V54.625C129.152 53.6641 129.289 52.7852 129.562 51.9883C129.836 51.1914 130.227 50.5 130.734 49.9141C131.25 49.3281 131.875 48.8789 132.609 48.5664C133.344 48.2461 134.172 48.0859 135.094 48.0859C135.992 48.0859 136.789 48.2344 137.484 48.5312C138.18 48.8281 138.762 49.25 139.23 49.7969C139.707 50.3438 140.066 51 140.309 51.7656C140.551 52.5234 140.672 53.3672 140.672 54.2969V55.7031H130.594V53.4531H137.355V53.1953C137.355 52.7266 137.27 52.3086 137.098 51.9414C136.934 51.5664 136.684 51.2695 136.348 51.0508C136.012 50.832 135.582 50.7227 135.059 50.7227C134.613 50.7227 134.23 50.8203 133.91 51.0156C133.59 51.2109 133.328 51.4844 133.125 51.8359C132.93 52.1875 132.781 52.6016 132.68 53.0781C132.586 53.5469 132.539 54.0625 132.539 54.625V55.0938C132.539 55.6016 132.609 56.0703 132.75 56.5C132.898 56.9297 133.105 57.3008 133.371 57.6133C133.645 57.9258 133.973 58.168 134.355 58.3398C134.746 58.5117 135.188 58.5977 135.68 58.5977C136.289 58.5977 136.855 58.4805 137.379 58.2461C137.91 58.0039 138.367 57.6406 138.75 57.1562L140.391 58.9375C140.125 59.3203 139.762 59.6875 139.301 60.0391C138.848 60.3906 138.301 60.6797 137.66 60.9062C137.02 61.125 136.289 61.2344 135.469 61.2344ZM149.449 57.4961C149.449 57.2539 149.379 57.0352 149.238 56.8398C149.098 56.6445 148.836 56.4648 148.453 56.3008C148.078 56.1289 147.535 55.9727 146.824 55.832C146.184 55.6914 145.586 55.5156 145.031 55.3047C144.484 55.0859 144.008 54.8242 143.602 54.5195C143.203 54.2148 142.891 53.8555 142.664 53.4414C142.438 53.0195 142.324 52.5391 142.324 52C142.324 51.4688 142.438 50.9688 142.664 50.5C142.898 50.0312 143.23 49.6172 143.66 49.2578C144.098 48.8906 144.629 48.6055 145.254 48.4023C145.887 48.1914 146.598 48.0859 147.387 48.0859C148.488 48.0859 149.434 48.2617 150.223 48.6133C151.02 48.9648 151.629 49.4492 152.051 50.0664C152.48 50.6758 152.695 51.3711 152.695 52.1523H149.32C149.32 51.8242 149.25 51.5312 149.109 51.2734C148.977 51.0078 148.766 50.8008 148.477 50.6523C148.195 50.4961 147.828 50.418 147.375 50.418C147 50.418 146.676 50.4844 146.402 50.6172C146.129 50.7422 145.918 50.9141 145.77 51.1328C145.629 51.3438 145.559 51.5781 145.559 51.8359C145.559 52.0312 145.598 52.207 145.676 52.3633C145.762 52.5117 145.898 52.6484 146.086 52.7734C146.273 52.8984 146.516 53.0156 146.812 53.125C147.117 53.2266 147.492 53.3203 147.938 53.4062C148.852 53.5938 149.668 53.8398 150.387 54.1445C151.105 54.4414 151.676 54.8477 152.098 55.3633C152.52 55.8711 152.73 56.5391 152.73 57.3672C152.73 57.9297 152.605 58.4453 152.355 58.9141C152.105 59.3828 151.746 59.793 151.277 60.1445C150.809 60.4883 150.246 60.7578 149.59 60.9531C148.941 61.1406 148.211 61.2344 147.398 61.2344C146.219 61.2344 145.219 61.0234 144.398 60.6016C143.586 60.1797 142.969 59.6445 142.547 58.9961C142.133 58.3398 141.926 57.668 141.926 56.9805H145.125C145.141 57.4414 145.258 57.8125 145.477 58.0938C145.703 58.375 145.988 58.5781 146.332 58.7031C146.684 58.8281 147.062 58.8906 147.469 58.8906C147.906 58.8906 148.27 58.832 148.559 58.7148C148.848 58.5898 149.066 58.4258 149.215 58.2227C149.371 58.0117 149.449 57.7695 149.449 57.4961ZM161.133 48.3203V50.7109H153.75V48.3203H161.133ZM155.578 45.1914H158.953V57.1797C158.953 57.5469 159 57.8281 159.094 58.0234C159.195 58.2188 159.344 58.3555 159.539 58.4336C159.734 58.5039 159.98 58.5391 160.277 58.5391C160.488 58.5391 160.676 58.5312 160.84 58.5156C161.012 58.4922 161.156 58.4688 161.273 58.4453L161.285 60.9297C160.996 61.0234 160.684 61.0977 160.348 61.1523C160.012 61.207 159.641 61.2344 159.234 61.2344C158.492 61.2344 157.844 61.1133 157.289 60.8711C156.742 60.6211 156.32 60.2227 156.023 59.6758C155.727 59.1289 155.578 58.4102 155.578 57.5195V45.1914ZM172.148 56.5352C172.148 56.2305 172.102 55.957 172.008 55.7148C171.922 55.4648 171.758 55.2383 171.516 55.0352C171.273 54.8242 170.934 54.6172 170.496 54.4141C170.059 54.2109 169.492 54 168.797 53.7812C168.023 53.5312 167.289 53.25 166.594 52.9375C165.906 52.625 165.297 52.2617 164.766 51.8477C164.242 51.4258 163.828 50.9375 163.523 50.3828C163.227 49.8281 163.078 49.1836 163.078 48.4492C163.078 47.7383 163.234 47.0938 163.547 46.5156C163.859 45.9297 164.297 45.4297 164.859 45.0156C165.422 44.5938 166.086 44.2695 166.852 44.043C167.625 43.8164 168.473 43.7031 169.395 43.7031C170.652 43.7031 171.75 43.9297 172.688 44.3828C173.625 44.8359 174.352 45.457 174.867 46.2461C175.391 47.0352 175.652 47.9375 175.652 48.9531H172.16C172.16 48.4531 172.055 48.0156 171.844 47.6406C171.641 47.2578 171.328 46.957 170.906 46.7383C170.492 46.5195 169.969 46.4102 169.336 46.4102C168.727 46.4102 168.219 46.5039 167.812 46.6914C167.406 46.8711 167.102 47.1172 166.898 47.4297C166.695 47.7344 166.594 48.0781 166.594 48.4609C166.594 48.75 166.664 49.0117 166.805 49.2461C166.953 49.4805 167.172 49.6992 167.461 49.9023C167.75 50.1055 168.105 50.2969 168.527 50.4766C168.949 50.6562 169.438 50.832 169.992 51.0039C170.922 51.2852 171.738 51.6016 172.441 51.9531C173.152 52.3047 173.746 52.6992 174.223 53.1367C174.699 53.5742 175.059 54.0703 175.301 54.625C175.543 55.1797 175.664 55.8086 175.664 56.5117C175.664 57.2539 175.52 57.918 175.23 58.5039C174.941 59.0898 174.523 59.5859 173.977 59.9922C173.43 60.3984 172.777 60.707 172.02 60.918C171.262 61.1289 170.414 61.2344 169.477 61.2344C168.633 61.2344 167.801 61.125 166.98 60.9062C166.16 60.6797 165.414 60.3398 164.742 59.8867C164.078 59.4336 163.547 58.8555 163.148 58.1523C162.75 57.4492 162.551 56.6172 162.551 55.6562H166.078C166.078 56.1875 166.16 56.6367 166.324 57.0039C166.488 57.3711 166.719 57.668 167.016 57.8945C167.32 58.1211 167.68 58.2852 168.094 58.3867C168.516 58.4883 168.977 58.5391 169.477 58.5391C170.086 58.5391 170.586 58.4531 170.977 58.2812C171.375 58.1094 171.668 57.8711 171.855 57.5664C172.051 57.2617 172.148 56.918 172.148 56.5352ZM184.055 48.3203V50.7109H176.672V48.3203H184.055ZM178.5 45.1914H181.875V57.1797C181.875 57.5469 181.922 57.8281 182.016 58.0234C182.117 58.2188 182.266 58.3555 182.461 58.4336C182.656 58.5039 182.902 58.5391 183.199 58.5391C183.41 58.5391 183.598 58.5312 183.762 58.5156C183.934 58.4922 184.078 58.4688 184.195 58.4453L184.207 60.9297C183.918 61.0234 183.605 61.0977 183.27 61.1523C182.934 61.207 182.562 61.2344 182.156 61.2344C181.414 61.2344 180.766 61.1133 180.211 60.8711C179.664 60.6211 179.242 60.2227 178.945 59.6758C178.648 59.1289 178.5 58.4102 178.5 57.5195V45.1914ZM191.812 61.2344C190.828 61.2344 189.945 61.0781 189.164 60.7656C188.383 60.4453 187.719 60.0039 187.172 59.4414C186.633 58.8789 186.219 58.2266 185.93 57.4844C185.641 56.7344 185.496 55.9375 185.496 55.0938V54.625C185.496 53.6641 185.633 52.7852 185.906 51.9883C186.18 51.1914 186.57 50.5 187.078 49.9141C187.594 49.3281 188.219 48.8789 188.953 48.5664C189.688 48.2461 190.516 48.0859 191.438 48.0859C192.336 48.0859 193.133 48.2344 193.828 48.5312C194.523 48.8281 195.105 49.25 195.574 49.7969C196.051 50.3438 196.41 51 196.652 51.7656C196.895 52.5234 197.016 53.3672 197.016 54.2969V55.7031H186.938V53.4531H193.699V53.1953C193.699 52.7266 193.613 52.3086 193.441 51.9414C193.277 51.5664 193.027 51.2695 192.691 51.0508C192.355 50.832 191.926 50.7227 191.402 50.7227C190.957 50.7227 190.574 50.8203 190.254 51.0156C189.934 51.2109 189.672 51.4844 189.469 51.8359C189.273 52.1875 189.125 52.6016 189.023 53.0781C188.93 53.5469 188.883 54.0625 188.883 54.625V55.0938C188.883 55.6016 188.953 56.0703 189.094 56.5C189.242 56.9297 189.449 57.3008 189.715 57.6133C189.988 57.9258 190.316 58.168 190.699 58.3398C191.09 58.5117 191.531 58.5977 192.023 58.5977C192.633 58.5977 193.199 58.4805 193.723 58.2461C194.254 58.0039 194.711 57.6406 195.094 57.1562L196.734 58.9375C196.469 59.3203 196.105 59.6875 195.645 60.0391C195.191 60.3906 194.645 60.6797 194.004 60.9062C193.363 61.125 192.633 61.2344 191.812 61.2344ZM202.312 50.7578V65.875H198.938V48.3203H202.066L202.312 50.7578ZM210.34 54.5195V54.7656C210.34 55.6875 210.23 56.543 210.012 57.332C209.801 58.1211 209.488 58.8086 209.074 59.3945C208.66 59.9727 208.145 60.4258 207.527 60.7539C206.918 61.0742 206.215 61.2344 205.418 61.2344C204.645 61.2344 203.973 61.0781 203.402 60.7656C202.832 60.4531 202.352 60.0156 201.961 59.4531C201.578 58.8828 201.27 58.2227 201.035 57.4727C200.801 56.7227 200.621 55.918 200.496 55.0586V54.4141C200.621 53.4922 200.801 52.6484 201.035 51.8828C201.27 51.1094 201.578 50.4414 201.961 49.8789C202.352 49.3086 202.828 48.8672 203.391 48.5547C203.961 48.2422 204.629 48.0859 205.395 48.0859C206.199 48.0859 206.906 48.2383 207.516 48.543C208.133 48.8477 208.648 49.2852 209.062 49.8555C209.484 50.4258 209.801 51.1055 210.012 51.8945C210.23 52.6836 210.34 53.5586 210.34 54.5195ZM206.953 54.7656V54.5195C206.953 53.9805 206.906 53.4844 206.812 53.0312C206.727 52.5703 206.586 52.168 206.391 51.8242C206.203 51.4805 205.953 51.2148 205.641 51.0273C205.336 50.832 204.965 50.7344 204.527 50.7344C204.066 50.7344 203.672 50.8086 203.344 50.957C203.023 51.1055 202.762 51.3203 202.559 51.6016C202.355 51.8828 202.203 52.2188 202.102 52.6094C202 53 201.938 53.4414 201.914 53.9336V55.5625C201.953 56.1406 202.062 56.6602 202.242 57.1211C202.422 57.5742 202.699 57.9336 203.074 58.1992C203.449 58.4648 203.941 58.5977 204.551 58.5977C204.996 58.5977 205.371 58.5 205.676 58.3047C205.98 58.1016 206.227 57.8242 206.414 57.4727C206.609 57.1211 206.746 56.7148 206.824 56.2539C206.91 55.793 206.953 55.2969 206.953 54.7656ZM225.562 46.8555L220.922 61H217.184L223.523 43.9375H225.902L225.562 46.8555ZM229.418 61L224.766 46.8555L224.391 43.9375H226.793L233.168 61H229.418ZM229.207 54.6484V57.4023H220.195V54.6484H229.207ZM241.395 57.4961C241.395 57.2539 241.324 57.0352 241.184 56.8398C241.043 56.6445 240.781 56.4648 240.398 56.3008C240.023 56.1289 239.48 55.9727 238.77 55.832C238.129 55.6914 237.531 55.5156 236.977 55.3047C236.43 55.0859 235.953 54.8242 235.547 54.5195C235.148 54.2148 234.836 53.8555 234.609 53.4414C234.383 53.0195 234.27 52.5391 234.27 52C234.27 51.4688 234.383 50.9688 234.609 50.5C234.844 50.0312 235.176 49.6172 235.605 49.2578C236.043 48.8906 236.574 48.6055 237.199 48.4023C237.832 48.1914 238.543 48.0859 239.332 48.0859C240.434 48.0859 241.379 48.2617 242.168 48.6133C242.965 48.9648 243.574 49.4492 243.996 50.0664C244.426 50.6758 244.641 51.3711 244.641 52.1523H241.266C241.266 51.8242 241.195 51.5312 241.055 51.2734C240.922 51.0078 240.711 50.8008 240.422 50.6523C240.141 50.4961 239.773 50.418 239.32 50.418C238.945 50.418 238.621 50.4844 238.348 50.6172C238.074 50.7422 237.863 50.9141 237.715 51.1328C237.574 51.3438 237.504 51.5781 237.504 51.8359C237.504 52.0312 237.543 52.207 237.621 52.3633C237.707 52.5117 237.844 52.6484 238.031 52.7734C238.219 52.8984 238.461 53.0156 238.758 53.125C239.062 53.2266 239.438 53.3203 239.883 53.4062C240.797 53.5938 241.613 53.8398 242.332 54.1445C243.051 54.4414 243.621 54.8477 244.043 55.3633C244.465 55.8711 244.676 56.5391 244.676 57.3672C244.676 57.9297 244.551 58.4453 244.301 58.9141C244.051 59.3828 243.691 59.793 243.223 60.1445C242.754 60.4883 242.191 60.7578 241.535 60.9531C240.887 61.1406 240.156 61.2344 239.344 61.2344C238.164 61.2344 237.164 61.0234 236.344 60.6016C235.531 60.1797 234.914 59.6445 234.492 58.9961C234.078 58.3398 233.871 57.668 233.871 56.9805H237.07C237.086 57.4414 237.203 57.8125 237.422 58.0938C237.648 58.375 237.934 58.5781 238.277 58.7031C238.629 58.8281 239.008 58.8906 239.414 58.8906C239.852 58.8906 240.215 58.832 240.504 58.7148C240.793 58.5898 241.012 58.4258 241.16 58.2227C241.316 58.0117 241.395 57.7695 241.395 57.4961ZM253.723 57.4961C253.723 57.2539 253.652 57.0352 253.512 56.8398C253.371 56.6445 253.109 56.4648 252.727 56.3008C252.352 56.1289 251.809 55.9727 251.098 55.832C250.457 55.6914 249.859 55.5156 249.305 55.3047C248.758 55.0859 248.281 54.8242 247.875 54.5195C247.477 54.2148 247.164 53.8555 246.938 53.4414C246.711 53.0195 246.598 52.5391 246.598 52C246.598 51.4688 246.711 50.9688 246.938 50.5C247.172 50.0312 247.504 49.6172 247.934 49.2578C248.371 48.8906 248.902 48.6055 249.527 48.4023C250.16 48.1914 250.871 48.0859 251.66 48.0859C252.762 48.0859 253.707 48.2617 254.496 48.6133C255.293 48.9648 255.902 49.4492 256.324 50.0664C256.754 50.6758 256.969 51.3711 256.969 52.1523H253.594C253.594 51.8242 253.523 51.5312 253.383 51.2734C253.25 51.0078 253.039 50.8008 252.75 50.6523C252.469 50.4961 252.102 50.418 251.648 50.418C251.273 50.418 250.949 50.4844 250.676 50.6172C250.402 50.7422 250.191 50.9141 250.043 51.1328C249.902 51.3438 249.832 51.5781 249.832 51.8359C249.832 52.0312 249.871 52.207 249.949 52.3633C250.035 52.5117 250.172 52.6484 250.359 52.7734C250.547 52.8984 250.789 53.0156 251.086 53.125C251.391 53.2266 251.766 53.3203 252.211 53.4062C253.125 53.5938 253.941 53.8398 254.66 54.1445C255.379 54.4414 255.949 54.8477 256.371 55.3633C256.793 55.8711 257.004 56.5391 257.004 57.3672C257.004 57.9297 256.879 58.4453 256.629 58.9141C256.379 59.3828 256.02 59.793 255.551 60.1445C255.082 60.4883 254.52 60.7578 253.863 60.9531C253.215 61.1406 252.484 61.2344 251.672 61.2344C250.492 61.2344 249.492 61.0234 248.672 60.6016C247.859 60.1797 247.242 59.6445 246.82 58.9961C246.406 58.3398 246.199 57.668 246.199 56.9805H249.398C249.414 57.4414 249.531 57.8125 249.75 58.0938C249.977 58.375 250.262 58.5781 250.605 58.7031C250.957 58.8281 251.336 58.8906 251.742 58.8906C252.18 58.8906 252.543 58.832 252.832 58.7148C253.121 58.5898 253.34 58.4258 253.488 58.2227C253.645 58.0117 253.723 57.7695 253.723 57.4961ZM262.758 48.3203V61H259.371V48.3203H262.758ZM259.16 45.0156C259.16 44.5234 259.332 44.1172 259.676 43.7969C260.02 43.4766 260.48 43.3164 261.059 43.3164C261.629 43.3164 262.086 43.4766 262.43 43.7969C262.781 44.1172 262.957 44.5234 262.957 45.0156C262.957 45.5078 262.781 45.9141 262.43 46.2344C262.086 46.5547 261.629 46.7148 261.059 46.7148C260.48 46.7148 260.02 46.5547 259.676 46.2344C259.332 45.9141 259.16 45.5078 259.16 45.0156ZM272.402 57.4961C272.402 57.2539 272.332 57.0352 272.191 56.8398C272.051 56.6445 271.789 56.4648 271.406 56.3008C271.031 56.1289 270.488 55.9727 269.777 55.832C269.137 55.6914 268.539 55.5156 267.984 55.3047C267.438 55.0859 266.961 54.8242 266.555 54.5195C266.156 54.2148 265.844 53.8555 265.617 53.4414C265.391 53.0195 265.277 52.5391 265.277 52C265.277 51.4688 265.391 50.9688 265.617 50.5C265.852 50.0312 266.184 49.6172 266.613 49.2578C267.051 48.8906 267.582 48.6055 268.207 48.4023C268.84 48.1914 269.551 48.0859 270.34 48.0859C271.441 48.0859 272.387 48.2617 273.176 48.6133C273.973 48.9648 274.582 49.4492 275.004 50.0664C275.434 50.6758 275.648 51.3711 275.648 52.1523H272.273C272.273 51.8242 272.203 51.5312 272.062 51.2734C271.93 51.0078 271.719 50.8008 271.43 50.6523C271.148 50.4961 270.781 50.418 270.328 50.418C269.953 50.418 269.629 50.4844 269.355 50.6172C269.082 50.7422 268.871 50.9141 268.723 51.1328C268.582 51.3438 268.512 51.5781 268.512 51.8359C268.512 52.0312 268.551 52.207 268.629 52.3633C268.715 52.5117 268.852 52.6484 269.039 52.7734C269.227 52.8984 269.469 53.0156 269.766 53.125C270.07 53.2266 270.445 53.3203 270.891 53.4062C271.805 53.5938 272.621 53.8398 273.34 54.1445C274.059 54.4414 274.629 54.8477 275.051 55.3633C275.473 55.8711 275.684 56.5391 275.684 57.3672C275.684 57.9297 275.559 58.4453 275.309 58.9141C275.059 59.3828 274.699 59.793 274.23 60.1445C273.762 60.4883 273.199 60.7578 272.543 60.9531C271.895 61.1406 271.164 61.2344 270.352 61.2344C269.172 61.2344 268.172 61.0234 267.352 60.6016C266.539 60.1797 265.922 59.6445 265.5 58.9961C265.086 58.3398 264.879 57.668 264.879 56.9805H268.078C268.094 57.4414 268.211 57.8125 268.43 58.0938C268.656 58.375 268.941 58.5781 269.285 58.7031C269.637 58.8281 270.016 58.8906 270.422 58.8906C270.859 58.8906 271.223 58.832 271.512 58.7148C271.801 58.5898 272.02 58.4258 272.168 58.2227C272.324 58.0117 272.402 57.7695 272.402 57.4961ZM284.086 48.3203V50.7109H276.703V48.3203H284.086ZM278.531 45.1914H281.906V57.1797C281.906 57.5469 281.953 57.8281 282.047 58.0234C282.148 58.2188 282.297 58.3555 282.492 58.4336C282.688 58.5039 282.934 58.5391 283.23 58.5391C283.441 58.5391 283.629 58.5312 283.793 58.5156C283.965 58.4922 284.109 58.4688 284.227 58.4453L284.238 60.9297C283.949 61.0234 283.637 61.0977 283.301 61.1523C282.965 61.207 282.594 61.2344 282.188 61.2344C281.445 61.2344 280.797 61.1133 280.242 60.8711C279.695 60.6211 279.273 60.2227 278.977 59.6758C278.68 59.1289 278.531 58.4102 278.531 57.5195V45.1914ZM292.852 58.1406V52.4922C292.852 52.0859 292.785 51.7383 292.652 51.4492C292.52 51.1523 292.312 50.9219 292.031 50.7578C291.758 50.5938 291.402 50.5117 290.965 50.5117C290.59 50.5117 290.266 50.5781 289.992 50.7109C289.719 50.8359 289.508 51.0195 289.359 51.2617C289.211 51.4961 289.137 51.7734 289.137 52.0938H285.762C285.762 51.5547 285.887 51.043 286.137 50.5586C286.387 50.0742 286.75 49.6484 287.227 49.2812C287.703 48.9062 288.27 48.6133 288.926 48.4023C289.59 48.1914 290.332 48.0859 291.152 48.0859C292.137 48.0859 293.012 48.25 293.777 48.5781C294.543 48.9062 295.145 49.3984 295.582 50.0547C296.027 50.7109 296.25 51.5312 296.25 52.5156V57.9414C296.25 58.6367 296.293 59.207 296.379 59.6523C296.465 60.0898 296.59 60.4727 296.754 60.8008V61H293.344C293.18 60.6562 293.055 60.2266 292.969 59.7109C292.891 59.1875 292.852 58.6641 292.852 58.1406ZM293.297 53.2773L293.32 55.1875H291.434C290.988 55.1875 290.602 55.2383 290.273 55.3398C289.945 55.4414 289.676 55.5859 289.465 55.7734C289.254 55.9531 289.098 56.1641 288.996 56.4062C288.902 56.6484 288.855 56.9141 288.855 57.2031C288.855 57.4922 288.922 57.7539 289.055 57.9883C289.188 58.2148 289.379 58.3945 289.629 58.5273C289.879 58.6523 290.172 58.7148 290.508 58.7148C291.016 58.7148 291.457 58.6133 291.832 58.4102C292.207 58.207 292.496 57.957 292.699 57.6602C292.91 57.3633 293.02 57.082 293.027 56.8164L293.918 58.2461C293.793 58.5664 293.621 58.8984 293.402 59.2422C293.191 59.5859 292.922 59.9102 292.594 60.2148C292.266 60.5117 291.871 60.7578 291.41 60.9531C290.949 61.1406 290.402 61.2344 289.77 61.2344C288.965 61.2344 288.234 61.0742 287.578 60.7539C286.93 60.4258 286.414 59.9766 286.031 59.4062C285.656 58.8281 285.469 58.1719 285.469 57.4375C285.469 56.7734 285.594 56.1836 285.844 55.668C286.094 55.1523 286.461 54.7188 286.945 54.3672C287.438 54.0078 288.051 53.7383 288.785 53.5586C289.52 53.3711 290.371 53.2773 291.34 53.2773H293.297ZM302.156 51.0273V61H298.781V48.3203H301.945L302.156 51.0273ZM301.664 54.2148H300.75C300.75 53.2773 300.871 52.4336 301.113 51.6836C301.355 50.9258 301.695 50.2812 302.133 49.75C302.57 49.2109 303.09 48.8008 303.691 48.5195C304.301 48.2305 304.98 48.0859 305.73 48.0859C306.324 48.0859 306.867 48.1719 307.359 48.3438C307.852 48.5156 308.273 48.7891 308.625 49.1641C308.984 49.5391 309.258 50.0352 309.445 50.6523C309.641 51.2695 309.738 52.0234 309.738 52.9141V61H306.34V52.9023C306.34 52.3398 306.262 51.9023 306.105 51.5898C305.949 51.2773 305.719 51.0586 305.414 50.9336C305.117 50.8008 304.75 50.7344 304.312 50.7344C303.859 50.7344 303.465 50.8242 303.129 51.0039C302.801 51.1836 302.527 51.4336 302.309 51.7539C302.098 52.0664 301.938 52.4336 301.828 52.8555C301.719 53.2773 301.664 53.7305 301.664 54.2148ZM318.516 48.3203V50.7109H311.133V48.3203H318.516ZM312.961 45.1914H316.336V57.1797C316.336 57.5469 316.383 57.8281 316.477 58.0234C316.578 58.2188 316.727 58.3555 316.922 58.4336C317.117 58.5039 317.363 58.5391 317.66 58.5391C317.871 58.5391 318.059 58.5312 318.223 58.5156C318.395 58.4922 318.539 58.4688 318.656 58.4453L318.668 60.9297C318.379 61.0234 318.066 61.0977 317.73 61.1523C317.395 61.207 317.023 61.2344 316.617 61.2344C315.875 61.2344 315.227 61.1133 314.672 60.8711C314.125 60.6211 313.703 60.2227 313.406 59.6758C313.109 59.1289 312.961 58.4102 312.961 57.5195V45.1914Z" fill="#888888"/>
<path d="M113.18 109.93C113.18 109.398 113.102 108.922 112.945 108.5C112.789 108.062 112.5 107.656 112.078 107.281C111.656 106.906 111.047 106.531 110.25 106.156C109.469 105.766 108.438 105.359 107.156 104.938C105.656 104.438 104.211 103.875 102.82 103.25C101.43 102.609 100.188 101.867 99.0938 101.023C98 100.164 97.1328 99.1641 96.4922 98.0234C95.8516 96.8672 95.5312 95.5234 95.5312 93.9922C95.5312 92.5234 95.8594 91.2031 96.5156 90.0312C97.1719 88.8438 98.0859 87.8359 99.2578 87.0078C100.445 86.1641 101.836 85.5234 103.43 85.0859C105.023 84.6328 106.766 84.4062 108.656 84.4062C111.156 84.4062 113.359 84.8438 115.266 85.7188C117.188 86.5781 118.688 87.8047 119.766 89.3984C120.859 90.9766 121.406 92.8438 121.406 95H113.227C113.227 94.1406 113.047 93.3828 112.688 92.7266C112.344 92.0703 111.82 91.5547 111.117 91.1797C110.414 90.8047 109.531 90.6172 108.469 90.6172C107.438 90.6172 106.57 90.7734 105.867 91.0859C105.164 91.3984 104.633 91.8203 104.273 92.3516C103.914 92.8672 103.734 93.4375 103.734 94.0625C103.734 94.5781 103.875 95.0469 104.156 95.4688C104.453 95.875 104.867 96.2578 105.398 96.6172C105.945 96.9766 106.602 97.3203 107.367 97.6484C108.148 97.9766 109.023 98.2969 109.992 98.6094C111.805 99.1875 113.414 99.8359 114.82 100.555C116.242 101.258 117.438 102.062 118.406 102.969C119.391 103.859 120.133 104.875 120.633 106.016C121.148 107.156 121.406 108.445 121.406 109.883C121.406 111.414 121.109 112.773 120.516 113.961C119.922 115.148 119.07 116.156 117.961 116.984C116.852 117.797 115.523 118.414 113.977 118.836C112.43 119.258 110.703 119.469 108.797 119.469C107.047 119.469 105.32 119.25 103.617 118.812C101.93 118.359 100.398 117.672 99.0234 116.75C97.6484 115.812 96.5469 114.617 95.7188 113.164C94.9062 111.695 94.5 109.953 94.5 107.938H102.75C102.75 108.938 102.883 109.781 103.148 110.469C103.414 111.156 103.805 111.711 104.32 112.133C104.836 112.539 105.469 112.836 106.219 113.023C106.969 113.195 107.828 113.281 108.797 113.281C109.844 113.281 110.688 113.133 111.328 112.836C111.969 112.523 112.438 112.117 112.734 111.617C113.031 111.102 113.18 110.539 113.18 109.93ZM133.055 116.023L139.617 93.6406H148.102L137.906 122.773C137.688 123.414 137.398 124.102 137.039 124.836C136.68 125.586 136.188 126.297 135.562 126.969C134.938 127.641 134.133 128.188 133.148 128.609C132.18 129.031 130.977 129.242 129.539 129.242C128.773 129.242 128.211 129.203 127.852 129.125C127.508 129.062 126.977 128.945 126.258 128.773V123.125C126.461 123.125 126.633 123.125 126.773 123.125C126.93 123.125 127.102 123.125 127.289 123.125C128.133 123.125 128.805 123.039 129.305 122.867C129.82 122.695 130.211 122.445 130.477 122.117C130.758 121.789 130.977 121.391 131.133 120.922L133.055 116.023ZM131.391 93.6406L136.383 111.383L137.25 119.75H131.953L122.93 93.6406H131.391ZM163.453 111.875C163.453 111.438 163.305 111.062 163.008 110.75C162.727 110.422 162.227 110.125 161.508 109.859C160.789 109.578 159.781 109.297 158.484 109.016C157.25 108.75 156.086 108.398 154.992 107.961C153.914 107.523 152.969 106.992 152.156 106.367C151.344 105.742 150.703 105 150.234 104.141C149.781 103.281 149.555 102.297 149.555 101.188C149.555 100.109 149.781 99.0938 150.234 98.1406C150.703 97.1719 151.383 96.3203 152.273 95.5859C153.18 94.8359 154.281 94.25 155.578 93.8281C156.875 93.3906 158.352 93.1719 160.008 93.1719C162.289 93.1719 164.258 93.5234 165.914 94.2266C167.57 94.9141 168.844 95.8828 169.734 97.1328C170.641 98.3672 171.094 99.7969 171.094 101.422H163.195C163.195 100.781 163.086 100.234 162.867 99.7812C162.664 99.3281 162.328 98.9844 161.859 98.75C161.391 98.5 160.766 98.375 159.984 98.375C159.438 98.375 158.938 98.4766 158.484 98.6797C158.047 98.8828 157.695 99.1641 157.43 99.5234C157.164 99.8828 157.031 100.305 157.031 100.789C157.031 101.133 157.109 101.445 157.266 101.727C157.438 101.992 157.695 102.242 158.039 102.477C158.383 102.695 158.82 102.898 159.352 103.086C159.883 103.258 160.523 103.414 161.273 103.555C162.977 103.867 164.57 104.312 166.055 104.891C167.539 105.469 168.742 106.289 169.664 107.352C170.602 108.414 171.07 109.844 171.07 111.641C171.07 112.766 170.812 113.805 170.297 114.758C169.781 115.695 169.039 116.523 168.07 117.242C167.102 117.945 165.938 118.492 164.578 118.883C163.219 119.273 161.688 119.469 159.984 119.469C157.562 119.469 155.516 119.039 153.844 118.18C152.172 117.305 150.906 116.211 150.047 114.898C149.203 113.57 148.781 112.227 148.781 110.867H156.141C156.172 111.648 156.359 112.289 156.703 112.789C157.062 113.289 157.539 113.656 158.133 113.891C158.727 114.125 159.414 114.242 160.195 114.242C160.914 114.242 161.508 114.141 161.977 113.938C162.461 113.734 162.828 113.461 163.078 113.117C163.328 112.758 163.453 112.344 163.453 111.875ZM188.133 93.6406V99.125H172.852V93.6406H188.133ZM176.062 87.3359H183.961V110.727C183.961 111.398 184.039 111.922 184.195 112.297C184.352 112.656 184.617 112.914 184.992 113.07C185.383 113.211 185.898 113.281 186.539 113.281C186.992 113.281 187.367 113.273 187.664 113.258C187.961 113.227 188.242 113.188 188.508 113.141V118.789C187.836 119.008 187.133 119.172 186.398 119.281C185.664 119.406 184.883 119.469 184.055 119.469C182.367 119.469 180.922 119.203 179.719 118.672C178.531 118.141 177.625 117.305 177 116.164C176.375 115.023 176.062 113.539 176.062 111.711V87.3359ZM203.555 119.469C201.492 119.469 199.648 119.148 198.023 118.508C196.398 117.852 195.023 116.953 193.898 115.812C192.789 114.672 191.938 113.359 191.344 111.875C190.766 110.391 190.477 108.82 190.477 107.164V106.273C190.477 104.414 190.734 102.695 191.25 101.117C191.766 99.5234 192.531 98.1328 193.547 96.9453C194.562 95.7578 195.836 94.8359 197.367 94.1797C198.898 93.5078 200.68 93.1719 202.711 93.1719C204.508 93.1719 206.117 93.4609 207.539 94.0391C208.961 94.6172 210.164 95.4453 211.148 96.5234C212.148 97.6016 212.906 98.9062 213.422 100.438C213.953 101.969 214.219 103.688 214.219 105.594V108.805H193.5V103.859H206.508V103.25C206.523 102.406 206.375 101.688 206.062 101.094C205.766 100.5 205.328 100.047 204.75 99.7344C204.172 99.4219 203.469 99.2656 202.641 99.2656C201.781 99.2656 201.07 99.4531 200.508 99.8281C199.961 100.203 199.531 100.719 199.219 101.375C198.922 102.016 198.711 102.758 198.586 103.602C198.461 104.445 198.398 105.336 198.398 106.273V107.164C198.398 108.102 198.523 108.953 198.773 109.719C199.039 110.484 199.414 111.141 199.898 111.688C200.398 112.219 200.992 112.633 201.68 112.93C202.383 113.227 203.18 113.375 204.07 113.375C205.148 113.375 206.211 113.172 207.258 112.766C208.305 112.359 209.203 111.688 209.953 110.75L213.539 115.016C213.023 115.75 212.289 116.461 211.336 117.148C210.398 117.836 209.273 118.398 207.961 118.836C206.648 119.258 205.18 119.469 203.555 119.469ZM225.398 99.0078V119H217.5V93.6406H224.906L225.398 99.0078ZM224.438 105.453L222.633 105.5C222.633 103.719 222.844 102.078 223.266 100.578C223.688 99.0781 224.312 97.7734 225.141 96.6641C225.969 95.5547 226.984 94.6953 228.188 94.0859C229.406 93.4766 230.812 93.1719 232.406 93.1719C233.516 93.1719 234.523 93.3438 235.43 93.6875C236.336 94.0156 237.117 94.5391 237.773 95.2578C238.43 95.9609 238.93 96.8828 239.273 98.0234C239.633 99.1484 239.812 100.5 239.812 102.078V119H231.914V103.086C231.914 102.008 231.789 101.195 231.539 100.648C231.305 100.102 230.961 99.7344 230.508 99.5469C230.055 99.3594 229.5 99.2656 228.844 99.2656C228.156 99.2656 227.539 99.4219 226.992 99.7344C226.445 100.047 225.977 100.484 225.586 101.047C225.211 101.594 224.922 102.242 224.719 102.992C224.531 103.742 224.438 104.562 224.438 105.453ZM238.922 105.453L236.719 105.5C236.719 103.719 236.914 102.078 237.305 100.578C237.711 99.0781 238.312 97.7734 239.109 96.6641C239.922 95.5547 240.93 94.6953 242.133 94.0859C243.336 93.4766 244.734 93.1719 246.328 93.1719C247.484 93.1719 248.547 93.3438 249.516 93.6875C250.484 94.0312 251.32 94.5859 252.023 95.3516C252.727 96.1172 253.273 97.1328 253.664 98.3984C254.055 99.6484 254.25 101.195 254.25 103.039V119H246.328V103.039C246.328 101.992 246.203 101.203 245.953 100.672C245.719 100.125 245.375 99.7578 244.922 99.5703C244.469 99.3672 243.93 99.2656 243.305 99.2656C242.555 99.2656 241.906 99.4219 241.359 99.7344C240.812 100.047 240.352 100.484 239.977 101.047C239.617 101.594 239.352 102.242 239.18 102.992C239.008 103.742 238.922 104.562 238.922 105.453ZM282.188 119H274.617L274.664 112.672H282.188C283.75 112.672 285.07 112.297 286.148 111.547C287.242 110.797 288.07 109.68 288.633 108.195C289.211 106.695 289.5 104.852 289.5 102.664V101.188C289.5 99.5469 289.336 98.1094 289.008 96.875C288.695 95.625 288.227 94.5859 287.602 93.7578C286.977 92.9141 286.195 92.2812 285.258 91.8594C284.336 91.4375 283.273 91.2266 282.07 91.2266H274.477V84.875H282.07C284.383 84.875 286.5 85.2734 288.422 86.0703C290.359 86.8516 292.031 87.9766 293.438 89.4453C294.859 90.8984 295.953 92.625 296.719 94.625C297.5 96.6094 297.891 98.8125 297.891 101.234V102.664C297.891 105.07 297.5 107.273 296.719 109.273C295.953 111.273 294.867 113 293.461 114.453C292.055 115.906 290.391 117.031 288.469 117.828C286.562 118.609 284.469 119 282.188 119ZM279.328 84.875V119H271.102V84.875H279.328ZM314.086 119.469C312.023 119.469 310.18 119.148 308.555 118.508C306.93 117.852 305.555 116.953 304.43 115.812C303.32 114.672 302.469 113.359 301.875 111.875C301.297 110.391 301.008 108.82 301.008 107.164V106.273C301.008 104.414 301.266 102.695 301.781 101.117C302.297 99.5234 303.062 98.1328 304.078 96.9453C305.094 95.7578 306.367 94.8359 307.898 94.1797C309.43 93.5078 311.211 93.1719 313.242 93.1719C315.039 93.1719 316.648 93.4609 318.07 94.0391C319.492 94.6172 320.695 95.4453 321.68 96.5234C322.68 97.6016 323.438 98.9062 323.953 100.438C324.484 101.969 324.75 103.688 324.75 105.594V108.805H304.031V103.859H317.039V103.25C317.055 102.406 316.906 101.688 316.594 101.094C316.297 100.5 315.859 100.047 315.281 99.7344C314.703 99.4219 314 99.2656 313.172 99.2656C312.312 99.2656 311.602 99.4531 311.039 99.8281C310.492 100.203 310.062 100.719 309.75 101.375C309.453 102.016 309.242 102.758 309.117 103.602C308.992 104.445 308.93 105.336 308.93 106.273V107.164C308.93 108.102 309.055 108.953 309.305 109.719C309.57 110.484 309.945 111.141 310.43 111.688C310.93 112.219 311.523 112.633 312.211 112.93C312.914 113.227 313.711 113.375 314.602 113.375C315.68 113.375 316.742 113.172 317.789 112.766C318.836 112.359 319.734 111.688 320.484 110.75L324.07 115.016C323.555 115.75 322.82 116.461 321.867 117.148C320.93 117.836 319.805 118.398 318.492 118.836C317.18 119.258 315.711 119.469 314.086 119.469ZM341.25 111.875C341.25 111.438 341.102 111.062 340.805 110.75C340.523 110.422 340.023 110.125 339.305 109.859C338.586 109.578 337.578 109.297 336.281 109.016C335.047 108.75 333.883 108.398 332.789 107.961C331.711 107.523 330.766 106.992 329.953 106.367C329.141 105.742 328.5 105 328.031 104.141C327.578 103.281 327.352 102.297 327.352 101.188C327.352 100.109 327.578 99.0938 328.031 98.1406C328.5 97.1719 329.18 96.3203 330.07 95.5859C330.977 94.8359 332.078 94.25 333.375 93.8281C334.672 93.3906 336.148 93.1719 337.805 93.1719C340.086 93.1719 342.055 93.5234 343.711 94.2266C345.367 94.9141 346.641 95.8828 347.531 97.1328C348.438 98.3672 348.891 99.7969 348.891 101.422H340.992C340.992 100.781 340.883 100.234 340.664 99.7812C340.461 99.3281 340.125 98.9844 339.656 98.75C339.188 98.5 338.562 98.375 337.781 98.375C337.234 98.375 336.734 98.4766 336.281 98.6797C335.844 98.8828 335.492 99.1641 335.227 99.5234C334.961 99.8828 334.828 100.305 334.828 100.789C334.828 101.133 334.906 101.445 335.062 101.727C335.234 101.992 335.492 102.242 335.836 102.477C336.18 102.695 336.617 102.898 337.148 103.086C337.68 103.258 338.32 103.414 339.07 103.555C340.773 103.867 342.367 104.312 343.852 104.891C345.336 105.469 346.539 106.289 347.461 107.352C348.398 108.414 348.867 109.844 348.867 111.641C348.867 112.766 348.609 113.805 348.094 114.758C347.578 115.695 346.836 116.523 345.867 117.242C344.898 117.945 343.734 118.492 342.375 118.883C341.016 119.273 339.484 119.469 337.781 119.469C335.359 119.469 333.312 119.039 331.641 118.18C329.969 117.305 328.703 116.211 327.844 114.898C327 113.57 326.578 112.227 326.578 110.867H333.938C333.969 111.648 334.156 112.289 334.5 112.789C334.859 113.289 335.336 113.656 335.93 113.891C336.523 114.125 337.211 114.242 337.992 114.242C338.711 114.242 339.305 114.141 339.773 113.938C340.258 113.734 340.625 113.461 340.875 113.117C341.125 112.758 341.25 112.344 341.25 111.875ZM360.914 93.6406V119H352.992V93.6406H360.914ZM352.523 87.1016C352.523 85.9766 352.93 85.0547 353.742 84.3359C354.555 83.6172 355.609 83.2578 356.906 83.2578C358.203 83.2578 359.258 83.6172 360.07 84.3359C360.883 85.0547 361.289 85.9766 361.289 87.1016C361.289 88.2266 360.883 89.1484 360.07 89.8672C359.258 90.5859 358.203 90.9453 356.906 90.9453C355.609 90.9453 354.555 90.5859 353.742 89.8672C352.93 89.1484 352.523 88.2266 352.523 87.1016ZM381.727 93.6406H388.898V118.016C388.898 120.359 388.359 122.344 387.281 123.969C386.203 125.609 384.695 126.852 382.758 127.695C380.836 128.555 378.586 128.984 376.008 128.984C374.867 128.984 373.703 128.836 372.516 128.539C371.328 128.258 370.219 127.836 369.188 127.273C368.156 126.711 367.289 126.016 366.586 125.188L369.891 120.547C370.531 121.266 371.336 121.875 372.305 122.375C373.273 122.891 374.414 123.148 375.727 123.148C376.867 123.148 377.82 122.945 378.586 122.539C379.367 122.133 379.961 121.539 380.367 120.758C380.773 119.992 380.977 119.062 380.977 117.969V99.6406L381.727 93.6406ZM364.875 106.625V106.133C364.875 104.211 365.109 102.461 365.578 100.883C366.062 99.2891 366.75 97.9219 367.641 96.7812C368.547 95.625 369.641 94.7344 370.922 94.1094C372.203 93.4844 373.648 93.1719 375.258 93.1719C376.992 93.1719 378.414 93.5078 379.523 94.1797C380.648 94.8359 381.547 95.7578 382.219 96.9453C382.906 98.1328 383.438 99.5234 383.812 101.117C384.203 102.695 384.531 104.398 384.797 106.227V106.812C384.531 108.531 384.164 110.156 383.695 111.688C383.242 113.203 382.648 114.547 381.914 115.719C381.18 116.891 380.258 117.812 379.148 118.484C378.055 119.141 376.742 119.469 375.211 119.469C373.617 119.469 372.18 119.148 370.898 118.508C369.633 117.867 368.547 116.969 367.641 115.812C366.75 114.656 366.062 113.297 365.578 111.734C365.109 110.172 364.875 108.469 364.875 106.625ZM372.773 106.133V106.625C372.773 107.578 372.859 108.461 373.031 109.273C373.219 110.086 373.5 110.805 373.875 111.43C374.25 112.039 374.711 112.516 375.258 112.859C375.82 113.203 376.477 113.375 377.227 113.375C378.367 113.375 379.289 113.133 379.992 112.648C380.695 112.164 381.203 111.477 381.516 110.586C381.828 109.695 381.961 108.648 381.914 107.445V105.594C381.945 104.562 381.875 103.656 381.703 102.875C381.531 102.078 381.258 101.414 380.883 100.883C380.523 100.352 380.039 99.9531 379.43 99.6875C378.836 99.4062 378.117 99.2656 377.273 99.2656C376.539 99.2656 375.891 99.4375 375.328 99.7812C374.766 100.125 374.297 100.609 373.922 101.234C373.547 101.844 373.258 102.57 373.055 103.414C372.867 104.242 372.773 105.148 372.773 106.133ZM401.203 99.0547V119H393.305V93.6406H400.711L401.203 99.0547ZM400.266 105.453L398.414 105.5C398.414 103.562 398.648 101.836 399.117 100.32C399.586 98.7891 400.25 97.4922 401.109 96.4297C401.969 95.3672 402.992 94.5625 404.18 94.0156C405.383 93.4531 406.719 93.1719 408.188 93.1719C409.359 93.1719 410.43 93.3438 411.398 93.6875C412.383 94.0312 413.227 94.5859 413.93 95.3516C414.648 96.1172 415.195 97.1328 415.57 98.3984C415.961 99.6484 416.156 101.195 416.156 103.039V119H408.211V103.016C408.211 102 408.07 101.227 407.789 100.695C407.508 100.148 407.102 99.7734 406.57 99.5703C406.039 99.3672 405.391 99.2656 404.625 99.2656C403.812 99.2656 403.125 99.4219 402.562 99.7344C402 100.047 401.547 100.484 401.203 101.047C400.875 101.594 400.633 102.242 400.477 102.992C400.336 103.742 400.266 104.562 400.266 105.453Z" fill="black"/>
<path d="M1134 0H1348C1356.28 0 1363 6.71573 1363 15V148C1363 156.284 1356.28 163 1348 163H1134V0Z" fill="#248FEF"/>
<path d="M1248.5 51.6667C1257.07 51.6667 1264.74 52.9908 1270.29 55.1784C1273.06 56.2717 1275.33 57.5902 1276.91 59.0895C1278.49 60.5911 1279.42 62.3052 1279.42 64.1667C1279.42 66.0281 1278.49 67.7423 1276.91 69.2438C1275.33 70.7432 1273.06 72.0617 1270.29 73.155C1264.74 75.3426 1257.07 76.6667 1248.5 76.6667C1239.93 76.6667 1232.26 75.3427 1226.71 73.155C1223.94 72.0616 1221.68 70.7433 1220.09 69.2438C1218.51 67.7423 1217.58 66.0281 1217.58 64.1667C1217.58 62.3052 1218.51 60.5911 1220.09 59.0895C1221.68 57.5901 1223.94 56.2717 1226.71 55.1784C1232.26 52.9907 1239.93 51.6667 1248.5 51.6667ZM1248.5 55.3337C1242.07 55.3337 1235.28 56.2868 1230.11 57.9147C1227.52 58.7295 1225.37 59.7039 1223.88 60.7917C1222.37 61.8874 1221.63 63.0284 1221.63 64.1667C1221.63 65.305 1222.37 66.446 1223.88 67.5417C1225.37 68.6295 1227.52 69.6039 1230.11 70.4186C1235.28 72.0466 1242.07 72.9997 1248.5 72.9997C1254.93 72.9997 1261.73 72.0466 1266.89 70.4186C1269.48 69.6038 1271.63 68.6296 1273.12 67.5417C1274.63 66.446 1275.38 65.305 1275.38 64.1667C1275.38 63.0284 1274.63 61.8874 1273.12 60.7917C1271.63 59.7037 1269.48 58.7296 1266.89 57.9147C1261.73 56.2868 1254.93 55.3337 1248.5 55.3337Z" fill="white" stroke="white"/>
<path d="M1277.4 62.3333C1277.91 62.3333 1278.42 62.5126 1278.8 62.848L1278.94 62.9808C1279.24 63.304 1279.42 63.7211 1279.42 64.1663V74.8333C1279.42 76.6948 1278.49 78.4089 1276.91 79.9105C1275.33 81.4098 1273.06 82.7283 1270.29 83.8216C1264.74 86.0092 1257.07 87.3333 1248.5 87.3333C1239.93 87.3333 1232.26 86.0093 1226.71 83.8216C1223.94 82.7283 1221.68 81.4099 1220.09 79.9105C1218.51 78.4089 1217.58 76.6948 1217.58 74.8333V64.1663C1217.58 63.6574 1217.82 63.1851 1218.2 62.848L1218.35 62.7298C1218.71 62.4708 1219.15 62.3334 1219.6 62.3333C1220.12 62.3333 1220.63 62.5126 1221.01 62.848C1221.39 63.1851 1221.63 63.6574 1221.63 64.1663V74.8333C1221.63 75.9716 1222.37 77.1126 1223.88 78.2083C1225.37 79.2961 1227.52 80.2705 1230.11 81.0853C1235.28 82.7132 1242.07 83.6663 1248.5 83.6663C1254.93 83.6663 1261.73 82.7132 1266.89 81.0853C1269.48 80.2704 1271.63 79.2963 1273.12 78.2083C1274.63 77.1126 1275.38 75.9716 1275.38 74.8333V64.1663C1275.38 63.6575 1275.61 63.1851 1275.99 62.848L1276.14 62.7298C1276.5 62.4708 1276.94 62.3333 1277.4 62.3333Z" fill="white" stroke="white"/>
<path d="M1277.4 73C1277.91 73 1278.42 73.1793 1278.8 73.5146L1278.94 73.6475C1279.24 73.9707 1279.42 74.3878 1279.42 74.833V86.833C1279.42 88.6945 1278.49 90.4086 1276.91 91.9102C1275.33 93.4096 1273.06 94.7289 1270.29 95.8223C1264.74 98.0099 1257.07 99.333 1248.5 99.333C1239.93 99.333 1232.26 98.01 1226.71 95.8223C1223.94 94.7289 1221.68 93.4096 1220.09 91.9102C1218.51 90.4087 1217.58 88.6944 1217.58 86.833V74.833L1217.59 74.6445C1217.64 74.2084 1217.86 73.8097 1218.2 73.5146L1218.35 73.3965C1218.71 73.1375 1219.15 73.0001 1219.6 73C1220.12 73 1220.63 73.1793 1221.01 73.5146L1221.15 73.6475C1221.45 73.9707 1221.63 74.3877 1221.63 74.833V86.833C1221.63 87.9713 1222.37 89.1123 1223.88 90.208C1225.37 91.2959 1227.52 92.2711 1230.11 93.0859C1235.28 94.7139 1242.07 95.667 1248.5 95.667C1254.93 95.667 1261.73 94.7139 1266.89 93.0859C1269.48 92.2711 1271.63 91.296 1273.12 90.208C1274.63 89.1124 1275.38 87.9713 1275.38 86.833V74.833C1275.38 74.3242 1275.61 73.8518 1275.99 73.5146L1276.14 73.3965C1276.5 73.1375 1276.94 73 1277.4 73Z" fill="white" stroke="white"/>
<path d="M1277.4 85C1277.91 85 1278.42 85.1793 1278.8 85.5146L1278.94 85.6475C1279.24 85.9707 1279.42 86.3878 1279.42 86.833V98.833C1279.42 100.694 1278.49 102.409 1276.91 103.91C1275.33 105.41 1273.06 106.729 1270.29 107.822C1264.74 110.01 1257.07 111.333 1248.5 111.333C1239.93 111.333 1232.26 110.01 1226.71 107.822C1223.94 106.729 1221.68 105.41 1220.09 103.91C1218.51 102.409 1217.58 100.694 1217.58 98.833V86.833L1217.59 86.6445C1217.64 86.2084 1217.86 85.8097 1218.2 85.5146L1218.35 85.3965C1218.71 85.1375 1219.15 85.0001 1219.6 85C1220.12 85 1220.63 85.1793 1221.01 85.5146L1221.15 85.6475C1221.45 85.9707 1221.63 86.3877 1221.63 86.833V98.833C1221.63 99.9713 1222.37 101.112 1223.88 102.208C1225.37 103.296 1227.52 104.271 1230.11 105.086C1235.28 106.714 1242.07 107.667 1248.5 107.667C1254.93 107.667 1261.73 106.714 1266.89 105.086C1269.48 104.271 1271.63 103.296 1273.12 102.208C1274.63 101.112 1275.38 99.9713 1275.38 98.833V86.833C1275.38 86.3242 1275.61 85.8518 1275.99 85.5146L1276.14 85.3965C1276.5 85.1375 1276.94 85 1277.4 85Z" fill="white" stroke="white"/>
</svg>
