<svg width="1363" height="163" viewBox="0 0 1363 163" fill="none" xmlns="http://www.w3.org/2000/svg">
<path d="M0 15C0 6.71573 6.71573 0 15 0H37V163H15C6.71573 163 0 156.284 0 148V15Z" fill="#424242"/>
<rect width="1097" height="163" transform="translate(37)" fill="#F0F0F0"/>
<path d="M101.906 53.9219L94.3945 51.2383V48.0859L104.602 52.375V54.6367L101.906 53.9219ZM94.3945 56.1719L101.918 53.4297L104.602 52.7852V55.0352L94.3945 59.3242V56.1719ZM126.785 43.9375V61H123.27L116.414 49.5625V61H112.898V43.9375H116.414L123.281 55.3867V43.9375H126.785ZM135.469 61.2344C134.484 61.2344 133.602 61.0781 132.82 60.7656C132.039 60.4453 131.375 60.0039 130.828 59.4414C130.289 58.8789 129.875 58.2266 129.586 57.4844C129.297 56.7344 129.152 55.9375 129.152 55.0938V54.625C129.152 53.6641 129.289 52.7852 129.562 51.9883C129.836 51.1914 130.227 50.5 130.734 49.9141C131.25 49.3281 131.875 48.8789 132.609 48.5664C133.344 48.2461 134.172 48.0859 135.094 48.0859C135.992 48.0859 136.789 48.2344 137.484 48.5312C138.18 48.8281 138.762 49.25 139.23 49.7969C139.707 50.3438 140.066 51 140.309 51.7656C140.551 52.5234 140.672 53.3672 140.672 54.2969V55.7031H130.594V53.4531H137.355V53.1953C137.355 52.7266 137.27 52.3086 137.098 51.9414C136.934 51.5664 136.684 51.2695 136.348 51.0508C136.012 50.832 135.582 50.7227 135.059 50.7227C134.613 50.7227 134.23 50.8203 133.91 51.0156C133.59 51.2109 133.328 51.4844 133.125 51.8359C132.93 52.1875 132.781 52.6016 132.68 53.0781C132.586 53.5469 132.539 54.0625 132.539 54.625V55.0938C132.539 55.6016 132.609 56.0703 132.75 56.5C132.898 56.9297 133.105 57.3008 133.371 57.6133C133.645 57.9258 133.973 58.168 134.355 58.3398C134.746 58.5117 135.188 58.5977 135.68 58.5977C136.289 58.5977 136.855 58.4805 137.379 58.2461C137.91 58.0039 138.367 57.6406 138.75 57.1562L140.391 58.9375C140.125 59.3203 139.762 59.6875 139.301 60.0391C138.848 60.3906 138.301 60.6797 137.66 60.9062C137.02 61.125 136.289 61.2344 135.469 61.2344ZM149.449 57.4961C149.449 57.2539 149.379 57.0352 149.238 56.8398C149.098 56.6445 148.836 56.4648 148.453 56.3008C148.078 56.1289 147.535 55.9727 146.824 55.832C146.184 55.6914 145.586 55.5156 145.031 55.3047C144.484 55.0859 144.008 54.8242 143.602 54.5195C143.203 54.2148 142.891 53.8555 142.664 53.4414C142.438 53.0195 142.324 52.5391 142.324 52C142.324 51.4688 142.438 50.9688 142.664 50.5C142.898 50.0312 143.23 49.6172 143.66 49.2578C144.098 48.8906 144.629 48.6055 145.254 48.4023C145.887 48.1914 146.598 48.0859 147.387 48.0859C148.488 48.0859 149.434 48.2617 150.223 48.6133C151.02 48.9648 151.629 49.4492 152.051 50.0664C152.48 50.6758 152.695 51.3711 152.695 52.1523H149.32C149.32 51.8242 149.25 51.5312 149.109 51.2734C148.977 51.0078 148.766 50.8008 148.477 50.6523C148.195 50.4961 147.828 50.418 147.375 50.418C147 50.418 146.676 50.4844 146.402 50.6172C146.129 50.7422 145.918 50.9141 145.77 51.1328C145.629 51.3438 145.559 51.5781 145.559 51.8359C145.559 52.0312 145.598 52.207 145.676 52.3633C145.762 52.5117 145.898 52.6484 146.086 52.7734C146.273 52.8984 146.516 53.0156 146.812 53.125C147.117 53.2266 147.492 53.3203 147.938 53.4062C148.852 53.5938 149.668 53.8398 150.387 54.1445C151.105 54.4414 151.676 54.8477 152.098 55.3633C152.52 55.8711 152.73 56.5391 152.73 57.3672C152.73 57.9297 152.605 58.4453 152.355 58.9141C152.105 59.3828 151.746 59.793 151.277 60.1445C150.809 60.4883 150.246 60.7578 149.59 60.9531C148.941 61.1406 148.211 61.2344 147.398 61.2344C146.219 61.2344 145.219 61.0234 144.398 60.6016C143.586 60.1797 142.969 59.6445 142.547 58.9961C142.133 58.3398 141.926 57.668 141.926 56.9805H145.125C145.141 57.4414 145.258 57.8125 145.477 58.0938C145.703 58.375 145.988 58.5781 146.332 58.7031C146.684 58.8281 147.062 58.8906 147.469 58.8906C147.906 58.8906 148.27 58.832 148.559 58.7148C148.848 58.5898 149.066 58.4258 149.215 58.2227C149.371 58.0117 149.449 57.7695 149.449 57.4961ZM161.133 48.3203V50.7109H153.75V48.3203H161.133ZM155.578 45.1914H158.953V57.1797C158.953 57.5469 159 57.8281 159.094 58.0234C159.195 58.2188 159.344 58.3555 159.539 58.4336C159.734 58.5039 159.98 58.5391 160.277 58.5391C160.488 58.5391 160.676 58.5312 160.84 58.5156C161.012 58.4922 161.156 58.4688 161.273 58.4453L161.285 60.9297C160.996 61.0234 160.684 61.0977 160.348 61.1523C160.012 61.207 159.641 61.2344 159.234 61.2344C158.492 61.2344 157.844 61.1133 157.289 60.8711C156.742 60.6211 156.32 60.2227 156.023 59.6758C155.727 59.1289 155.578 58.4102 155.578 57.5195V45.1914ZM172.148 56.5352C172.148 56.2305 172.102 55.957 172.008 55.7148C171.922 55.4648 171.758 55.2383 171.516 55.0352C171.273 54.8242 170.934 54.6172 170.496 54.4141C170.059 54.2109 169.492 54 168.797 53.7812C168.023 53.5312 167.289 53.25 166.594 52.9375C165.906 52.625 165.297 52.2617 164.766 51.8477C164.242 51.4258 163.828 50.9375 163.523 50.3828C163.227 49.8281 163.078 49.1836 163.078 48.4492C163.078 47.7383 163.234 47.0938 163.547 46.5156C163.859 45.9297 164.297 45.4297 164.859 45.0156C165.422 44.5938 166.086 44.2695 166.852 44.043C167.625 43.8164 168.473 43.7031 169.395 43.7031C170.652 43.7031 171.75 43.9297 172.688 44.3828C173.625 44.8359 174.352 45.457 174.867 46.2461C175.391 47.0352 175.652 47.9375 175.652 48.9531H172.16C172.16 48.4531 172.055 48.0156 171.844 47.6406C171.641 47.2578 171.328 46.957 170.906 46.7383C170.492 46.5195 169.969 46.4102 169.336 46.4102C168.727 46.4102 168.219 46.5039 167.812 46.6914C167.406 46.8711 167.102 47.1172 166.898 47.4297C166.695 47.7344 166.594 48.0781 166.594 48.4609C166.594 48.75 166.664 49.0117 166.805 49.2461C166.953 49.4805 167.172 49.6992 167.461 49.9023C167.75 50.1055 168.105 50.2969 168.527 50.4766C168.949 50.6562 169.438 50.832 169.992 51.0039C170.922 51.2852 171.738 51.6016 172.441 51.9531C173.152 52.3047 173.746 52.6992 174.223 53.1367C174.699 53.5742 175.059 54.0703 175.301 54.625C175.543 55.1797 175.664 55.8086 175.664 56.5117C175.664 57.2539 175.52 57.918 175.23 58.5039C174.941 59.0898 174.523 59.5859 173.977 59.9922C173.43 60.3984 172.777 60.707 172.02 60.918C171.262 61.1289 170.414 61.2344 169.477 61.2344C168.633 61.2344 167.801 61.125 166.98 60.9062C166.16 60.6797 165.414 60.3398 164.742 59.8867C164.078 59.4336 163.547 58.8555 163.148 58.1523C162.75 57.4492 162.551 56.6172 162.551 55.6562H166.078C166.078 56.1875 166.16 56.6367 166.324 57.0039C166.488 57.3711 166.719 57.668 167.016 57.8945C167.32 58.1211 167.68 58.2852 168.094 58.3867C168.516 58.4883 168.977 58.5391 169.477 58.5391C170.086 58.5391 170.586 58.4531 170.977 58.2812C171.375 58.1094 171.668 57.8711 171.855 57.5664C172.051 57.2617 172.148 56.918 172.148 56.5352ZM184.055 48.3203V50.7109H176.672V48.3203H184.055ZM178.5 45.1914H181.875V57.1797C181.875 57.5469 181.922 57.8281 182.016 58.0234C182.117 58.2188 182.266 58.3555 182.461 58.4336C182.656 58.5039 182.902 58.5391 183.199 58.5391C183.41 58.5391 183.598 58.5312 183.762 58.5156C183.934 58.4922 184.078 58.4688 184.195 58.4453L184.207 60.9297C183.918 61.0234 183.605 61.0977 183.27 61.1523C182.934 61.207 182.562 61.2344 182.156 61.2344C181.414 61.2344 180.766 61.1133 180.211 60.8711C179.664 60.6211 179.242 60.2227 178.945 59.6758C178.648 59.1289 178.5 58.4102 178.5 57.5195V45.1914ZM191.812 61.2344C190.828 61.2344 189.945 61.0781 189.164 60.7656C188.383 60.4453 187.719 60.0039 187.172 59.4414C186.633 58.8789 186.219 58.2266 185.93 57.4844C185.641 56.7344 185.496 55.9375 185.496 55.0938V54.625C185.496 53.6641 185.633 52.7852 185.906 51.9883C186.18 51.1914 186.57 50.5 187.078 49.9141C187.594 49.3281 188.219 48.8789 188.953 48.5664C189.688 48.2461 190.516 48.0859 191.438 48.0859C192.336 48.0859 193.133 48.2344 193.828 48.5312C194.523 48.8281 195.105 49.25 195.574 49.7969C196.051 50.3438 196.41 51 196.652 51.7656C196.895 52.5234 197.016 53.3672 197.016 54.2969V55.7031H186.938V53.4531H193.699V53.1953C193.699 52.7266 193.613 52.3086 193.441 51.9414C193.277 51.5664 193.027 51.2695 192.691 51.0508C192.355 50.832 191.926 50.7227 191.402 50.7227C190.957 50.7227 190.574 50.8203 190.254 51.0156C189.934 51.2109 189.672 51.4844 189.469 51.8359C189.273 52.1875 189.125 52.6016 189.023 53.0781C188.93 53.5469 188.883 54.0625 188.883 54.625V55.0938C188.883 55.6016 188.953 56.0703 189.094 56.5C189.242 56.9297 189.449 57.3008 189.715 57.6133C189.988 57.9258 190.316 58.168 190.699 58.3398C191.09 58.5117 191.531 58.5977 192.023 58.5977C192.633 58.5977 193.199 58.4805 193.723 58.2461C194.254 58.0039 194.711 57.6406 195.094 57.1562L196.734 58.9375C196.469 59.3203 196.105 59.6875 195.645 60.0391C195.191 60.3906 194.645 60.6797 194.004 60.9062C193.363 61.125 192.633 61.2344 191.812 61.2344ZM202.312 50.7578V65.875H198.938V48.3203H202.066L202.312 50.7578ZM210.34 54.5195V54.7656C210.34 55.6875 210.23 56.543 210.012 57.332C209.801 58.1211 209.488 58.8086 209.074 59.3945C208.66 59.9727 208.145 60.4258 207.527 60.7539C206.918 61.0742 206.215 61.2344 205.418 61.2344C204.645 61.2344 203.973 61.0781 203.402 60.7656C202.832 60.4531 202.352 60.0156 201.961 59.4531C201.578 58.8828 201.27 58.2227 201.035 57.4727C200.801 56.7227 200.621 55.918 200.496 55.0586V54.4141C200.621 53.4922 200.801 52.6484 201.035 51.8828C201.27 51.1094 201.578 50.4414 201.961 49.8789C202.352 49.3086 202.828 48.8672 203.391 48.5547C203.961 48.2422 204.629 48.0859 205.395 48.0859C206.199 48.0859 206.906 48.2383 207.516 48.543C208.133 48.8477 208.648 49.2852 209.062 49.8555C209.484 50.4258 209.801 51.1055 210.012 51.8945C210.23 52.6836 210.34 53.5586 210.34 54.5195ZM206.953 54.7656V54.5195C206.953 53.9805 206.906 53.4844 206.812 53.0312C206.727 52.5703 206.586 52.168 206.391 51.8242C206.203 51.4805 205.953 51.2148 205.641 51.0273C205.336 50.832 204.965 50.7344 204.527 50.7344C204.066 50.7344 203.672 50.8086 203.344 50.957C203.023 51.1055 202.762 51.3203 202.559 51.6016C202.355 51.8828 202.203 52.2188 202.102 52.6094C202 53 201.938 53.4414 201.914 53.9336V55.5625C201.953 56.1406 202.062 56.6602 202.242 57.1211C202.422 57.5742 202.699 57.9336 203.074 58.1992C203.449 58.4648 203.941 58.5977 204.551 58.5977C204.996 58.5977 205.371 58.5 205.676 58.3047C205.98 58.1016 206.227 57.8242 206.414 57.4727C206.609 57.1211 206.746 56.7148 206.824 56.2539C206.91 55.793 206.953 55.2969 206.953 54.7656ZM225.562 46.8555L220.922 61H217.184L223.523 43.9375H225.902L225.562 46.8555ZM229.418 61L224.766 46.8555L224.391 43.9375H226.793L233.168 61H229.418ZM229.207 54.6484V57.4023H220.195V54.6484H229.207ZM241.395 57.4961C241.395 57.2539 241.324 57.0352 241.184 56.8398C241.043 56.6445 240.781 56.4648 240.398 56.3008C240.023 56.1289 239.48 55.9727 238.77 55.832C238.129 55.6914 237.531 55.5156 236.977 55.3047C236.43 55.0859 235.953 54.8242 235.547 54.5195C235.148 54.2148 234.836 53.8555 234.609 53.4414C234.383 53.0195 234.27 52.5391 234.27 52C234.27 51.4688 234.383 50.9688 234.609 50.5C234.844 50.0312 235.176 49.6172 235.605 49.2578C236.043 48.8906 236.574 48.6055 237.199 48.4023C237.832 48.1914 238.543 48.0859 239.332 48.0859C240.434 48.0859 241.379 48.2617 242.168 48.6133C242.965 48.9648 243.574 49.4492 243.996 50.0664C244.426 50.6758 244.641 51.3711 244.641 52.1523H241.266C241.266 51.8242 241.195 51.5312 241.055 51.2734C240.922 51.0078 240.711 50.8008 240.422 50.6523C240.141 50.4961 239.773 50.418 239.32 50.418C238.945 50.418 238.621 50.4844 238.348 50.6172C238.074 50.7422 237.863 50.9141 237.715 51.1328C237.574 51.3438 237.504 51.5781 237.504 51.8359C237.504 52.0312 237.543 52.207 237.621 52.3633C237.707 52.5117 237.844 52.6484 238.031 52.7734C238.219 52.8984 238.461 53.0156 238.758 53.125C239.062 53.2266 239.438 53.3203 239.883 53.4062C240.797 53.5938 241.613 53.8398 242.332 54.1445C243.051 54.4414 243.621 54.8477 244.043 55.3633C244.465 55.8711 244.676 56.5391 244.676 57.3672C244.676 57.9297 244.551 58.4453 244.301 58.9141C244.051 59.3828 243.691 59.793 243.223 60.1445C242.754 60.4883 242.191 60.7578 241.535 60.9531C240.887 61.1406 240.156 61.2344 239.344 61.2344C238.164 61.2344 237.164 61.0234 236.344 60.6016C235.531 60.1797 234.914 59.6445 234.492 58.9961C234.078 58.3398 233.871 57.668 233.871 56.9805H237.07C237.086 57.4414 237.203 57.8125 237.422 58.0938C237.648 58.375 237.934 58.5781 238.277 58.7031C238.629 58.8281 239.008 58.8906 239.414 58.8906C239.852 58.8906 240.215 58.832 240.504 58.7148C240.793 58.5898 241.012 58.4258 241.16 58.2227C241.316 58.0117 241.395 57.7695 241.395 57.4961ZM253.723 57.4961C253.723 57.2539 253.652 57.0352 253.512 56.8398C253.371 56.6445 253.109 56.4648 252.727 56.3008C252.352 56.1289 251.809 55.9727 251.098 55.832C250.457 55.6914 249.859 55.5156 249.305 55.3047C248.758 55.0859 248.281 54.8242 247.875 54.5195C247.477 54.2148 247.164 53.8555 246.938 53.4414C246.711 53.0195 246.598 52.5391 246.598 52C246.598 51.4688 246.711 50.9688 246.938 50.5C247.172 50.0312 247.504 49.6172 247.934 49.2578C248.371 48.8906 248.902 48.6055 249.527 48.4023C250.16 48.1914 250.871 48.0859 251.66 48.0859C252.762 48.0859 253.707 48.2617 254.496 48.6133C255.293 48.9648 255.902 49.4492 256.324 50.0664C256.754 50.6758 256.969 51.3711 256.969 52.1523H253.594C253.594 51.8242 253.523 51.5312 253.383 51.2734C253.25 51.0078 253.039 50.8008 252.75 50.6523C252.469 50.4961 252.102 50.418 251.648 50.418C251.273 50.418 250.949 50.4844 250.676 50.6172C250.402 50.7422 250.191 50.9141 250.043 51.1328C249.902 51.3438 249.832 51.5781 249.832 51.8359C249.832 52.0312 249.871 52.207 249.949 52.3633C250.035 52.5117 250.172 52.6484 250.359 52.7734C250.547 52.8984 250.789 53.0156 251.086 53.125C251.391 53.2266 251.766 53.3203 252.211 53.4062C253.125 53.5938 253.941 53.8398 254.66 54.1445C255.379 54.4414 255.949 54.8477 256.371 55.3633C256.793 55.8711 257.004 56.5391 257.004 57.3672C257.004 57.9297 256.879 58.4453 256.629 58.9141C256.379 59.3828 256.02 59.793 255.551 60.1445C255.082 60.4883 254.52 60.7578 253.863 60.9531C253.215 61.1406 252.484 61.2344 251.672 61.2344C250.492 61.2344 249.492 61.0234 248.672 60.6016C247.859 60.1797 247.242 59.6445 246.82 58.9961C246.406 58.3398 246.199 57.668 246.199 56.9805H249.398C249.414 57.4414 249.531 57.8125 249.75 58.0938C249.977 58.375 250.262 58.5781 250.605 58.7031C250.957 58.8281 251.336 58.8906 251.742 58.8906C252.18 58.8906 252.543 58.832 252.832 58.7148C253.121 58.5898 253.34 58.4258 253.488 58.2227C253.645 58.0117 253.723 57.7695 253.723 57.4961ZM262.758 48.3203V61H259.371V48.3203H262.758ZM259.16 45.0156C259.16 44.5234 259.332 44.1172 259.676 43.7969C260.02 43.4766 260.48 43.3164 261.059 43.3164C261.629 43.3164 262.086 43.4766 262.43 43.7969C262.781 44.1172 262.957 44.5234 262.957 45.0156C262.957 45.5078 262.781 45.9141 262.43 46.2344C262.086 46.5547 261.629 46.7148 261.059 46.7148C260.48 46.7148 260.02 46.5547 259.676 46.2344C259.332 45.9141 259.16 45.5078 259.16 45.0156ZM272.402 57.4961C272.402 57.2539 272.332 57.0352 272.191 56.8398C272.051 56.6445 271.789 56.4648 271.406 56.3008C271.031 56.1289 270.488 55.9727 269.777 55.832C269.137 55.6914 268.539 55.5156 267.984 55.3047C267.438 55.0859 266.961 54.8242 266.555 54.5195C266.156 54.2148 265.844 53.8555 265.617 53.4414C265.391 53.0195 265.277 52.5391 265.277 52C265.277 51.4688 265.391 50.9688 265.617 50.5C265.852 50.0312 266.184 49.6172 266.613 49.2578C267.051 48.8906 267.582 48.6055 268.207 48.4023C268.84 48.1914 269.551 48.0859 270.34 48.0859C271.441 48.0859 272.387 48.2617 273.176 48.6133C273.973 48.9648 274.582 49.4492 275.004 50.0664C275.434 50.6758 275.648 51.3711 275.648 52.1523H272.273C272.273 51.8242 272.203 51.5312 272.062 51.2734C271.93 51.0078 271.719 50.8008 271.43 50.6523C271.148 50.4961 270.781 50.418 270.328 50.418C269.953 50.418 269.629 50.4844 269.355 50.6172C269.082 50.7422 268.871 50.9141 268.723 51.1328C268.582 51.3438 268.512 51.5781 268.512 51.8359C268.512 52.0312 268.551 52.207 268.629 52.3633C268.715 52.5117 268.852 52.6484 269.039 52.7734C269.227 52.8984 269.469 53.0156 269.766 53.125C270.07 53.2266 270.445 53.3203 270.891 53.4062C271.805 53.5938 272.621 53.8398 273.34 54.1445C274.059 54.4414 274.629 54.8477 275.051 55.3633C275.473 55.8711 275.684 56.5391 275.684 57.3672C275.684 57.9297 275.559 58.4453 275.309 58.9141C275.059 59.3828 274.699 59.793 274.23 60.1445C273.762 60.4883 273.199 60.7578 272.543 60.9531C271.895 61.1406 271.164 61.2344 270.352 61.2344C269.172 61.2344 268.172 61.0234 267.352 60.6016C266.539 60.1797 265.922 59.6445 265.5 58.9961C265.086 58.3398 264.879 57.668 264.879 56.9805H268.078C268.094 57.4414 268.211 57.8125 268.43 58.0938C268.656 58.375 268.941 58.5781 269.285 58.7031C269.637 58.8281 270.016 58.8906 270.422 58.8906C270.859 58.8906 271.223 58.832 271.512 58.7148C271.801 58.5898 272.02 58.4258 272.168 58.2227C272.324 58.0117 272.402 57.7695 272.402 57.4961ZM284.086 48.3203V50.7109H276.703V48.3203H284.086ZM278.531 45.1914H281.906V57.1797C281.906 57.5469 281.953 57.8281 282.047 58.0234C282.148 58.2188 282.297 58.3555 282.492 58.4336C282.688 58.5039 282.934 58.5391 283.23 58.5391C283.441 58.5391 283.629 58.5312 283.793 58.5156C283.965 58.4922 284.109 58.4688 284.227 58.4453L284.238 60.9297C283.949 61.0234 283.637 61.0977 283.301 61.1523C282.965 61.207 282.594 61.2344 282.188 61.2344C281.445 61.2344 280.797 61.1133 280.242 60.8711C279.695 60.6211 279.273 60.2227 278.977 59.6758C278.68 59.1289 278.531 58.4102 278.531 57.5195V45.1914ZM292.852 58.1406V52.4922C292.852 52.0859 292.785 51.7383 292.652 51.4492C292.52 51.1523 292.312 50.9219 292.031 50.7578C291.758 50.5938 291.402 50.5117 290.965 50.5117C290.59 50.5117 290.266 50.5781 289.992 50.7109C289.719 50.8359 289.508 51.0195 289.359 51.2617C289.211 51.4961 289.137 51.7734 289.137 52.0938H285.762C285.762 51.5547 285.887 51.043 286.137 50.5586C286.387 50.0742 286.75 49.6484 287.227 49.2812C287.703 48.9062 288.27 48.6133 288.926 48.4023C289.59 48.1914 290.332 48.0859 291.152 48.0859C292.137 48.0859 293.012 48.25 293.777 48.5781C294.543 48.9062 295.145 49.3984 295.582 50.0547C296.027 50.7109 296.25 51.5312 296.25 52.5156V57.9414C296.25 58.6367 296.293 59.207 296.379 59.6523C296.465 60.0898 296.59 60.4727 296.754 60.8008V61H293.344C293.18 60.6562 293.055 60.2266 292.969 59.7109C292.891 59.1875 292.852 58.6641 292.852 58.1406ZM293.297 53.2773L293.32 55.1875H291.434C290.988 55.1875 290.602 55.2383 290.273 55.3398C289.945 55.4414 289.676 55.5859 289.465 55.7734C289.254 55.9531 289.098 56.1641 288.996 56.4062C288.902 56.6484 288.855 56.9141 288.855 57.2031C288.855 57.4922 288.922 57.7539 289.055 57.9883C289.188 58.2148 289.379 58.3945 289.629 58.5273C289.879 58.6523 290.172 58.7148 290.508 58.7148C291.016 58.7148 291.457 58.6133 291.832 58.4102C292.207 58.207 292.496 57.957 292.699 57.6602C292.91 57.3633 293.02 57.082 293.027 56.8164L293.918 58.2461C293.793 58.5664 293.621 58.8984 293.402 59.2422C293.191 59.5859 292.922 59.9102 292.594 60.2148C292.266 60.5117 291.871 60.7578 291.41 60.9531C290.949 61.1406 290.402 61.2344 289.77 61.2344C288.965 61.2344 288.234 61.0742 287.578 60.7539C286.93 60.4258 286.414 59.9766 286.031 59.4062C285.656 58.8281 285.469 58.1719 285.469 57.4375C285.469 56.7734 285.594 56.1836 285.844 55.668C286.094 55.1523 286.461 54.7188 286.945 54.3672C287.438 54.0078 288.051 53.7383 288.785 53.5586C289.52 53.3711 290.371 53.2773 291.34 53.2773H293.297ZM302.156 51.0273V61H298.781V48.3203H301.945L302.156 51.0273ZM301.664 54.2148H300.75C300.75 53.2773 300.871 52.4336 301.113 51.6836C301.355 50.9258 301.695 50.2812 302.133 49.75C302.57 49.2109 303.09 48.8008 303.691 48.5195C304.301 48.2305 304.98 48.0859 305.73 48.0859C306.324 48.0859 306.867 48.1719 307.359 48.3438C307.852 48.5156 308.273 48.7891 308.625 49.1641C308.984 49.5391 309.258 50.0352 309.445 50.6523C309.641 51.2695 309.738 52.0234 309.738 52.9141V61H306.34V52.9023C306.34 52.3398 306.262 51.9023 306.105 51.5898C305.949 51.2773 305.719 51.0586 305.414 50.9336C305.117 50.8008 304.75 50.7344 304.312 50.7344C303.859 50.7344 303.465 50.8242 303.129 51.0039C302.801 51.1836 302.527 51.4336 302.309 51.7539C302.098 52.0664 301.938 52.4336 301.828 52.8555C301.719 53.2773 301.664 53.7305 301.664 54.2148ZM318.516 48.3203V50.7109H311.133V48.3203H318.516ZM312.961 45.1914H316.336V57.1797C316.336 57.5469 316.383 57.8281 316.477 58.0234C316.578 58.2188 316.727 58.3555 316.922 58.4336C317.117 58.5039 317.363 58.5391 317.66 58.5391C317.871 58.5391 318.059 58.5312 318.223 58.5156C318.395 58.4922 318.539 58.4688 318.656 58.4453L318.668 60.9297C318.379 61.0234 318.066 61.0977 317.73 61.1523C317.395 61.207 317.023 61.2344 316.617 61.2344C315.875 61.2344 315.227 61.1133 314.672 60.8711C314.125 60.6211 313.703 60.2227 313.406 59.6758C313.109 59.1289 312.961 58.4102 312.961 57.5195V45.1914Z" fill="#888888"/>
<path d="M106.688 119H99.1172L99.1641 112.672H106.688C108.25 112.672 109.57 112.297 110.648 111.547C111.742 110.797 112.57 109.68 113.133 108.195C113.711 106.695 114 104.852 114 102.664V101.188C114 99.5469 113.836 98.1094 113.508 96.875C113.195 95.625 112.727 94.5859 112.102 93.7578C111.477 92.9141 110.695 92.2812 109.758 91.8594C108.836 91.4375 107.773 91.2266 106.57 91.2266H98.9766V84.875H106.57C108.883 84.875 111 85.2734 112.922 86.0703C114.859 86.8516 116.531 87.9766 117.938 89.4453C119.359 90.8984 120.453 92.625 121.219 94.625C122 96.6094 122.391 98.8125 122.391 101.234V102.664C122.391 105.07 122 107.273 121.219 109.273C120.453 111.273 119.367 113 117.961 114.453C116.555 115.906 114.891 117.031 112.969 117.828C111.062 118.609 108.969 119 106.688 119ZM103.828 84.875V119H95.6016V84.875H103.828ZM138.586 119.469C136.523 119.469 134.68 119.148 133.055 118.508C131.43 117.852 130.055 116.953 128.93 115.812C127.82 114.672 126.969 113.359 126.375 111.875C125.797 110.391 125.508 108.82 125.508 107.164V106.273C125.508 104.414 125.766 102.695 126.281 101.117C126.797 99.5234 127.562 98.1328 128.578 96.9453C129.594 95.7578 130.867 94.8359 132.398 94.1797C133.93 93.5078 135.711 93.1719 137.742 93.1719C139.539 93.1719 141.148 93.4609 142.57 94.0391C143.992 94.6172 145.195 95.4453 146.18 96.5234C147.18 97.6016 147.938 98.9062 148.453 100.438C148.984 101.969 149.25 103.688 149.25 105.594V108.805H128.531V103.859H141.539V103.25C141.555 102.406 141.406 101.688 141.094 101.094C140.797 100.5 140.359 100.047 139.781 99.7344C139.203 99.4219 138.5 99.2656 137.672 99.2656C136.812 99.2656 136.102 99.4531 135.539 99.8281C134.992 100.203 134.562 100.719 134.25 101.375C133.953 102.016 133.742 102.758 133.617 103.602C133.492 104.445 133.43 105.336 133.43 106.273V107.164C133.43 108.102 133.555 108.953 133.805 109.719C134.07 110.484 134.445 111.141 134.93 111.688C135.43 112.219 136.023 112.633 136.711 112.93C137.414 113.227 138.211 113.375 139.102 113.375C140.18 113.375 141.242 113.172 142.289 112.766C143.336 112.359 144.234 111.688 144.984 110.75L148.57 115.016C148.055 115.75 147.32 116.461 146.367 117.148C145.43 117.836 144.305 118.398 142.992 118.836C141.68 119.258 140.211 119.469 138.586 119.469ZM161.273 113.586L166.266 93.6406H174.586L166.289 119H161.367L161.273 113.586ZM158.32 93.6406L163.242 113.586L163.195 119H158.25L149.977 93.6406H158.32ZM188.883 119.469C186.82 119.469 184.977 119.148 183.352 118.508C181.727 117.852 180.352 116.953 179.227 115.812C178.117 114.672 177.266 113.359 176.672 111.875C176.094 110.391 175.805 108.82 175.805 107.164V106.273C175.805 104.414 176.062 102.695 176.578 101.117C177.094 99.5234 177.859 98.1328 178.875 96.9453C179.891 95.7578 181.164 94.8359 182.695 94.1797C184.227 93.5078 186.008 93.1719 188.039 93.1719C189.836 93.1719 191.445 93.4609 192.867 94.0391C194.289 94.6172 195.492 95.4453 196.477 96.5234C197.477 97.6016 198.234 98.9062 198.75 100.438C199.281 101.969 199.547 103.688 199.547 105.594V108.805H178.828V103.859H191.836V103.25C191.852 102.406 191.703 101.688 191.391 101.094C191.094 100.5 190.656 100.047 190.078 99.7344C189.5 99.4219 188.797 99.2656 187.969 99.2656C187.109 99.2656 186.398 99.4531 185.836 99.8281C185.289 100.203 184.859 100.719 184.547 101.375C184.25 102.016 184.039 102.758 183.914 103.602C183.789 104.445 183.727 105.336 183.727 106.273V107.164C183.727 108.102 183.852 108.953 184.102 109.719C184.367 110.484 184.742 111.141 185.227 111.688C185.727 112.219 186.32 112.633 187.008 112.93C187.711 113.227 188.508 113.375 189.398 113.375C190.477 113.375 191.539 113.172 192.586 112.766C193.633 112.359 194.531 111.688 195.281 110.75L198.867 115.016C198.352 115.75 197.617 116.461 196.664 117.148C195.727 117.836 194.602 118.398 193.289 118.836C191.977 119.258 190.508 119.469 188.883 119.469ZM211.102 83V119H203.18V83H211.102ZM214.992 106.578V106.086C214.992 104.227 215.258 102.516 215.789 100.953C216.32 99.375 217.102 98.0078 218.133 96.8516C219.164 95.6953 220.438 94.7969 221.953 94.1562C223.469 93.5 225.219 93.1719 227.203 93.1719C229.203 93.1719 230.961 93.5 232.477 94.1562C234.008 94.7969 235.289 95.6953 236.32 96.8516C237.352 98.0078 238.133 99.375 238.664 100.953C239.195 102.516 239.461 104.227 239.461 106.086V106.578C239.461 108.422 239.195 110.133 238.664 111.711C238.133 113.273 237.352 114.641 236.32 115.812C235.289 116.969 234.016 117.867 232.5 118.508C230.984 119.148 229.234 119.469 227.25 119.469C225.266 119.469 223.508 119.148 221.977 118.508C220.445 117.867 219.164 116.969 218.133 115.812C217.102 114.641 216.32 113.273 215.789 111.711C215.258 110.133 214.992 108.422 214.992 106.578ZM222.891 106.086V106.578C222.891 107.531 222.961 108.422 223.102 109.25C223.242 110.078 223.477 110.805 223.805 111.43C224.133 112.039 224.578 112.516 225.141 112.859C225.703 113.203 226.406 113.375 227.25 113.375C228.078 113.375 228.766 113.203 229.312 112.859C229.875 112.516 230.32 112.039 230.648 111.43C230.977 110.805 231.211 110.078 231.352 109.25C231.492 108.422 231.562 107.531 231.562 106.578V106.086C231.562 105.164 231.492 104.297 231.352 103.484C231.211 102.656 230.977 101.93 230.648 101.305C230.32 100.664 229.875 100.164 229.312 99.8047C228.75 99.4453 228.047 99.2656 227.203 99.2656C226.375 99.2656 225.68 99.4453 225.117 99.8047C224.57 100.164 224.133 100.664 223.805 101.305C223.477 101.93 223.242 102.656 223.102 103.484C222.961 104.297 222.891 105.164 222.891 106.086ZM250.945 98.5156V128.75H243.047V93.6406H250.406L250.945 98.5156ZM266.508 106.016V106.508C266.508 108.352 266.297 110.062 265.875 111.641C265.453 113.219 264.828 114.594 264 115.766C263.172 116.938 262.141 117.852 260.906 118.508C259.688 119.148 258.273 119.469 256.664 119.469C255.148 119.469 253.844 119.133 252.75 118.461C251.656 117.789 250.742 116.859 250.008 115.672C249.273 114.484 248.68 113.125 248.227 111.594C247.773 110.062 247.414 108.445 247.148 106.742V106.109C247.414 104.281 247.773 102.586 248.227 101.023C248.68 99.4453 249.273 98.0703 250.008 96.8984C250.742 95.7266 251.648 94.8125 252.727 94.1562C253.82 93.5 255.125 93.1719 256.641 93.1719C258.25 93.1719 259.664 93.4766 260.883 94.0859C262.117 94.6953 263.148 95.5703 263.977 96.7109C264.82 97.8359 265.453 99.1875 265.875 100.766C266.297 102.344 266.508 104.094 266.508 106.016ZM258.609 106.508V106.016C258.609 105.031 258.539 104.133 258.398 103.32C258.258 102.492 258.031 101.773 257.719 101.164C257.422 100.555 257.023 100.086 256.523 99.7578C256.023 99.4297 255.406 99.2656 254.672 99.2656C253.828 99.2656 253.117 99.3984 252.539 99.6641C251.977 99.9141 251.523 100.305 251.18 100.836C250.852 101.352 250.617 102 250.477 102.781C250.352 103.547 250.297 104.445 250.312 105.477V107.398C250.281 108.586 250.398 109.633 250.664 110.539C250.93 111.43 251.391 112.125 252.047 112.625C252.703 113.125 253.594 113.375 254.719 113.375C255.469 113.375 256.094 113.203 256.594 112.859C257.094 112.5 257.492 112.008 257.789 111.383C258.086 110.742 258.297 110.008 258.422 109.18C258.547 108.352 258.609 107.461 258.609 106.508ZM277.992 99.0078V119H270.094V93.6406H277.5L277.992 99.0078ZM277.031 105.453L275.227 105.5C275.227 103.719 275.438 102.078 275.859 100.578C276.281 99.0781 276.906 97.7734 277.734 96.6641C278.562 95.5547 279.578 94.6953 280.781 94.0859C282 93.4766 283.406 93.1719 285 93.1719C286.109 93.1719 287.117 93.3438 288.023 93.6875C288.93 94.0156 289.711 94.5391 290.367 95.2578C291.023 95.9609 291.523 96.8828 291.867 98.0234C292.227 99.1484 292.406 100.5 292.406 102.078V119H284.508V103.086C284.508 102.008 284.383 101.195 284.133 100.648C283.898 100.102 283.555 99.7344 283.102 99.5469C282.648 99.3594 282.094 99.2656 281.438 99.2656C280.75 99.2656 280.133 99.4219 279.586 99.7344C279.039 100.047 278.57 100.484 278.18 101.047C277.805 101.594 277.516 102.242 277.312 102.992C277.125 103.742 277.031 104.562 277.031 105.453ZM291.516 105.453L289.312 105.5C289.312 103.719 289.508 102.078 289.898 100.578C290.305 99.0781 290.906 97.7734 291.703 96.6641C292.516 95.5547 293.523 94.6953 294.727 94.0859C295.93 93.4766 297.328 93.1719 298.922 93.1719C300.078 93.1719 301.141 93.3438 302.109 93.6875C303.078 94.0312 303.914 94.5859 304.617 95.3516C305.32 96.1172 305.867 97.1328 306.258 98.3984C306.648 99.6484 306.844 101.195 306.844 103.039V119H298.922V103.039C298.922 101.992 298.797 101.203 298.547 100.672C298.312 100.125 297.969 99.7578 297.516 99.5703C297.062 99.3672 296.523 99.2656 295.898 99.2656C295.148 99.2656 294.5 99.4219 293.953 99.7344C293.406 100.047 292.945 100.484 292.57 101.047C292.211 101.594 291.945 102.242 291.773 102.992C291.602 103.742 291.516 104.562 291.516 105.453ZM323.648 119.469C321.586 119.469 319.742 119.148 318.117 118.508C316.492 117.852 315.117 116.953 313.992 115.812C312.883 114.672 312.031 113.359 311.438 111.875C310.859 110.391 310.57 108.82 310.57 107.164V106.273C310.57 104.414 310.828 102.695 311.344 101.117C311.859 99.5234 312.625 98.1328 313.641 96.9453C314.656 95.7578 315.93 94.8359 317.461 94.1797C318.992 93.5078 320.773 93.1719 322.805 93.1719C324.602 93.1719 326.211 93.4609 327.633 94.0391C329.055 94.6172 330.258 95.4453 331.242 96.5234C332.242 97.6016 333 98.9062 333.516 100.438C334.047 101.969 334.312 103.688 334.312 105.594V108.805H313.594V103.859H326.602V103.25C326.617 102.406 326.469 101.688 326.156 101.094C325.859 100.5 325.422 100.047 324.844 99.7344C324.266 99.4219 323.562 99.2656 322.734 99.2656C321.875 99.2656 321.164 99.4531 320.602 99.8281C320.055 100.203 319.625 100.719 319.312 101.375C319.016 102.016 318.805 102.758 318.68 103.602C318.555 104.445 318.492 105.336 318.492 106.273V107.164C318.492 108.102 318.617 108.953 318.867 109.719C319.133 110.484 319.508 111.141 319.992 111.688C320.492 112.219 321.086 112.633 321.773 112.93C322.477 113.227 323.273 113.375 324.164 113.375C325.242 113.375 326.305 113.172 327.352 112.766C328.398 112.359 329.297 111.688 330.047 110.75L333.633 115.016C333.117 115.75 332.383 116.461 331.43 117.148C330.492 117.836 329.367 118.398 328.055 118.836C326.742 119.258 325.273 119.469 323.648 119.469ZM345.281 99.0547V119H337.383V93.6406H344.789L345.281 99.0547ZM344.344 105.453L342.492 105.5C342.492 103.562 342.727 101.836 343.195 100.32C343.664 98.7891 344.328 97.4922 345.188 96.4297C346.047 95.3672 347.07 94.5625 348.258 94.0156C349.461 93.4531 350.797 93.1719 352.266 93.1719C353.438 93.1719 354.508 93.3438 355.477 93.6875C356.461 94.0312 357.305 94.5859 358.008 95.3516C358.727 96.1172 359.273 97.1328 359.648 98.3984C360.039 99.6484 360.234 101.195 360.234 103.039V119H352.289V103.016C352.289 102 352.148 101.227 351.867 100.695C351.586 100.148 351.18 99.7734 350.648 99.5703C350.117 99.3672 349.469 99.2656 348.703 99.2656C347.891 99.2656 347.203 99.4219 346.641 99.7344C346.078 100.047 345.625 100.484 345.281 101.047C344.953 101.594 344.711 102.242 344.555 102.992C344.414 103.742 344.344 104.562 344.344 105.453ZM377.977 93.6406V99.125H362.695V93.6406H377.977ZM365.906 87.3359H373.805V110.727C373.805 111.398 373.883 111.922 374.039 112.297C374.195 112.656 374.461 112.914 374.836 113.07C375.227 113.211 375.742 113.281 376.383 113.281C376.836 113.281 377.211 113.273 377.508 113.258C377.805 113.227 378.086 113.188 378.352 113.141V118.789C377.68 119.008 376.977 119.172 376.242 119.281C375.508 119.406 374.727 119.469 373.898 119.469C372.211 119.469 370.766 119.203 369.562 118.672C368.375 118.141 367.469 117.305 366.844 116.164C366.219 115.023 365.906 113.539 365.906 111.711V87.3359ZM398.062 101.07L405.305 96.5469C406.273 95.9219 406.867 95.3359 407.086 94.7891C407.32 94.2266 407.438 93.6797 407.438 93.1484C407.438 92.5078 407.203 91.9062 406.734 91.3438C406.281 90.7656 405.641 90.4766 404.812 90.4766C404.203 90.4766 403.688 90.6172 403.266 90.8984C402.859 91.1641 402.547 91.5234 402.328 91.9766C402.125 92.4297 402.023 92.9375 402.023 93.5C402.023 94.2031 402.219 94.9141 402.609 95.6328C403 96.3516 403.516 97.1094 404.156 97.9062C404.812 98.7031 405.539 99.5781 406.336 100.531L422.391 119H413.578L400.5 104.141C399.422 102.766 398.484 101.5 397.688 100.344C396.906 99.1875 396.297 98.0625 395.859 96.9688C395.422 95.875 395.203 94.75 395.203 93.5938C395.203 91.7969 395.594 90.2109 396.375 88.8359C397.172 87.4453 398.289 86.3594 399.727 85.5781C401.18 84.7812 402.883 84.3828 404.836 84.3828C406.648 84.3828 408.219 84.7578 409.547 85.5078C410.891 86.2578 411.93 87.2578 412.664 88.5078C413.398 89.7422 413.766 91.1016 413.766 92.5859C413.766 93.6172 413.57 94.5938 413.18 95.5156C412.789 96.4375 412.25 97.2812 411.562 98.0469C410.891 98.8125 410.117 99.5078 409.242 100.133L401.414 105.594C401.102 105.984 400.844 106.383 400.641 106.789C400.453 107.18 400.312 107.578 400.219 107.984C400.141 108.391 400.102 108.828 400.102 109.297C400.102 110.109 400.273 110.828 400.617 111.453C400.961 112.062 401.414 112.539 401.977 112.883C402.555 113.227 403.18 113.398 403.852 113.398C405.117 113.398 406.336 113.125 407.508 112.578C408.695 112.016 409.758 111.227 410.695 110.211C411.633 109.195 412.375 107.984 412.922 106.578C413.469 105.172 413.742 103.625 413.742 101.938H420.352C420.352 103.781 420.164 105.539 419.789 107.211C419.43 108.867 418.828 110.398 417.984 111.805C417.156 113.211 416.039 114.445 414.633 115.508C414.555 115.555 414.406 115.648 414.188 115.789C413.984 115.914 413.836 116 413.742 116.047C412.102 117.219 410.484 118.086 408.891 118.648C407.297 119.211 405.438 119.492 403.312 119.492C401.016 119.492 399.031 119.078 397.359 118.25C395.703 117.422 394.422 116.281 393.516 114.828C392.609 113.375 392.156 111.711 392.156 109.836C392.156 108.508 392.406 107.352 392.906 106.367C393.406 105.367 394.102 104.445 394.992 103.602C395.883 102.758 396.906 101.914 398.062 101.07ZM452.906 84.875V119H444.68V84.875H452.906ZM463.172 84.875V91.2266H434.648V84.875H463.172ZM476.461 119.469C474.398 119.469 472.555 119.148 470.93 118.508C469.305 117.852 467.93 116.953 466.805 115.812C465.695 114.672 464.844 113.359 464.25 111.875C463.672 110.391 463.383 108.82 463.383 107.164V106.273C463.383 104.414 463.641 102.695 464.156 101.117C464.672 99.5234 465.438 98.1328 466.453 96.9453C467.469 95.7578 468.742 94.8359 470.273 94.1797C471.805 93.5078 473.586 93.1719 475.617 93.1719C477.414 93.1719 479.023 93.4609 480.445 94.0391C481.867 94.6172 483.07 95.4453 484.055 96.5234C485.055 97.6016 485.812 98.9062 486.328 100.438C486.859 101.969 487.125 103.688 487.125 105.594V108.805H466.406V103.859H479.414V103.25C479.43 102.406 479.281 101.688 478.969 101.094C478.672 100.5 478.234 100.047 477.656 99.7344C477.078 99.4219 476.375 99.2656 475.547 99.2656C474.688 99.2656 473.977 99.4531 473.414 99.8281C472.867 100.203 472.438 100.719 472.125 101.375C471.828 102.016 471.617 102.758 471.492 103.602C471.367 104.445 471.305 105.336 471.305 106.273V107.164C471.305 108.102 471.43 108.953 471.68 109.719C471.945 110.484 472.32 111.141 472.805 111.688C473.305 112.219 473.898 112.633 474.586 112.93C475.289 113.227 476.086 113.375 476.977 113.375C478.055 113.375 479.117 113.172 480.164 112.766C481.211 112.359 482.109 111.688 482.859 110.75L486.445 115.016C485.93 115.75 485.195 116.461 484.242 117.148C483.305 117.836 482.18 118.398 480.867 118.836C479.555 119.258 478.086 119.469 476.461 119.469ZM503.625 111.875C503.625 111.438 503.477 111.062 503.18 110.75C502.898 110.422 502.398 110.125 501.68 109.859C500.961 109.578 499.953 109.297 498.656 109.016C497.422 108.75 496.258 108.398 495.164 107.961C494.086 107.523 493.141 106.992 492.328 106.367C491.516 105.742 490.875 105 490.406 104.141C489.953 103.281 489.727 102.297 489.727 101.188C489.727 100.109 489.953 99.0938 490.406 98.1406C490.875 97.1719 491.555 96.3203 492.445 95.5859C493.352 94.8359 494.453 94.25 495.75 93.8281C497.047 93.3906 498.523 93.1719 500.18 93.1719C502.461 93.1719 504.43 93.5234 506.086 94.2266C507.742 94.9141 509.016 95.8828 509.906 97.1328C510.812 98.3672 511.266 99.7969 511.266 101.422H503.367C503.367 100.781 503.258 100.234 503.039 99.7812C502.836 99.3281 502.5 98.9844 502.031 98.75C501.562 98.5 500.938 98.375 500.156 98.375C499.609 98.375 499.109 98.4766 498.656 98.6797C498.219 98.8828 497.867 99.1641 497.602 99.5234C497.336 99.8828 497.203 100.305 497.203 100.789C497.203 101.133 497.281 101.445 497.438 101.727C497.609 101.992 497.867 102.242 498.211 102.477C498.555 102.695 498.992 102.898 499.523 103.086C500.055 103.258 500.695 103.414 501.445 103.555C503.148 103.867 504.742 104.312 506.227 104.891C507.711 105.469 508.914 106.289 509.836 107.352C510.773 108.414 511.242 109.844 511.242 111.641C511.242 112.766 510.984 113.805 510.469 114.758C509.953 115.695 509.211 116.523 508.242 117.242C507.273 117.945 506.109 118.492 504.75 118.883C503.391 119.273 501.859 119.469 500.156 119.469C497.734 119.469 495.688 119.039 494.016 118.18C492.344 117.305 491.078 116.211 490.219 114.898C489.375 113.57 488.953 112.227 488.953 110.867H496.312C496.344 111.648 496.531 112.289 496.875 112.789C497.234 113.289 497.711 113.656 498.305 113.891C498.898 114.125 499.586 114.242 500.367 114.242C501.086 114.242 501.68 114.141 502.148 113.938C502.633 113.734 503 113.461 503.25 113.117C503.5 112.758 503.625 112.344 503.625 111.875ZM528.305 93.6406V99.125H513.023V93.6406H528.305ZM516.234 87.3359H524.133V110.727C524.133 111.398 524.211 111.922 524.367 112.297C524.523 112.656 524.789 112.914 525.164 113.07C525.555 113.211 526.07 113.281 526.711 113.281C527.164 113.281 527.539 113.273 527.836 113.258C528.133 113.227 528.414 113.188 528.68 113.141V118.789C528.008 119.008 527.305 119.172 526.57 119.281C525.836 119.406 525.055 119.469 524.227 119.469C522.539 119.469 521.094 119.203 519.891 118.672C518.703 118.141 517.797 117.305 517.172 116.164C516.547 115.023 516.234 113.539 516.234 111.711V87.3359ZM539.789 93.6406V119H531.867V93.6406H539.789ZM531.398 87.1016C531.398 85.9766 531.805 85.0547 532.617 84.3359C533.43 83.6172 534.484 83.2578 535.781 83.2578C537.078 83.2578 538.133 83.6172 538.945 84.3359C539.758 85.0547 540.164 85.9766 540.164 87.1016C540.164 88.2266 539.758 89.1484 538.945 89.8672C538.133 90.5859 537.078 90.9453 535.781 90.9453C534.484 90.9453 533.43 90.5859 532.617 89.8672C531.805 89.1484 531.398 88.2266 531.398 87.1016ZM552.422 99.0547V119H544.523V93.6406H551.93L552.422 99.0547ZM551.484 105.453L549.633 105.5C549.633 103.562 549.867 101.836 550.336 100.32C550.805 98.7891 551.469 97.4922 552.328 96.4297C553.188 95.3672 554.211 94.5625 555.398 94.0156C556.602 93.4531 557.938 93.1719 559.406 93.1719C560.578 93.1719 561.648 93.3438 562.617 93.6875C563.602 94.0312 564.445 94.5859 565.148 95.3516C565.867 96.1172 566.414 97.1328 566.789 98.3984C567.18 99.6484 567.375 101.195 567.375 103.039V119H559.43V103.016C559.43 102 559.289 101.227 559.008 100.695C558.727 100.148 558.32 99.7734 557.789 99.5703C557.258 99.3672 556.609 99.2656 555.844 99.2656C555.031 99.2656 554.344 99.4219 553.781 99.7344C553.219 100.047 552.766 100.484 552.422 101.047C552.094 101.594 551.852 102.242 551.695 102.992C551.555 103.742 551.484 104.562 551.484 105.453ZM587.695 93.6406H594.867V118.016C594.867 120.359 594.328 122.344 593.25 123.969C592.172 125.609 590.664 126.852 588.727 127.695C586.805 128.555 584.555 128.984 581.977 128.984C580.836 128.984 579.672 128.836 578.484 128.539C577.297 128.258 576.188 127.836 575.156 127.273C574.125 126.711 573.258 126.016 572.555 125.188L575.859 120.547C576.5 121.266 577.305 121.875 578.273 122.375C579.242 122.891 580.383 123.148 581.695 123.148C582.836 123.148 583.789 122.945 584.555 122.539C585.336 122.133 585.93 121.539 586.336 120.758C586.742 119.992 586.945 119.062 586.945 117.969V99.6406L587.695 93.6406ZM570.844 106.625V106.133C570.844 104.211 571.078 102.461 571.547 100.883C572.031 99.2891 572.719 97.9219 573.609 96.7812C574.516 95.625 575.609 94.7344 576.891 94.1094C578.172 93.4844 579.617 93.1719 581.227 93.1719C582.961 93.1719 584.383 93.5078 585.492 94.1797C586.617 94.8359 587.516 95.7578 588.188 96.9453C588.875 98.1328 589.406 99.5234 589.781 101.117C590.172 102.695 590.5 104.398 590.766 106.227V106.812C590.5 108.531 590.133 110.156 589.664 111.688C589.211 113.203 588.617 114.547 587.883 115.719C587.148 116.891 586.227 117.812 585.117 118.484C584.023 119.141 582.711 119.469 581.18 119.469C579.586 119.469 578.148 119.148 576.867 118.508C575.602 117.867 574.516 116.969 573.609 115.812C572.719 114.656 572.031 113.297 571.547 111.734C571.078 110.172 570.844 108.469 570.844 106.625ZM578.742 106.133V106.625C578.742 107.578 578.828 108.461 579 109.273C579.188 110.086 579.469 110.805 579.844 111.43C580.219 112.039 580.68 112.516 581.227 112.859C581.789 113.203 582.445 113.375 583.195 113.375C584.336 113.375 585.258 113.133 585.961 112.648C586.664 112.164 587.172 111.477 587.484 110.586C587.797 109.695 587.93 108.648 587.883 107.445V105.594C587.914 104.562 587.844 103.656 587.672 102.875C587.5 102.078 587.227 101.414 586.852 100.883C586.492 100.352 586.008 99.9531 585.398 99.6875C584.805 99.4062 584.086 99.2656 583.242 99.2656C582.508 99.2656 581.859 99.4375 581.297 99.7812C580.734 100.125 580.266 100.609 579.891 101.234C579.516 101.844 579.227 102.57 579.023 103.414C578.836 104.242 578.742 105.148 578.742 106.133Z" fill="black"/>
<path d="M1134 0H1348C1356.28 0 1363 6.71573 1363 15V148C1363 156.284 1356.28 163 1348 163H1134V0Z" fill="#248FEF"/>
<path d="M1220.17 104.167H1276.83" stroke="white" stroke-width="5" stroke-linecap="round" stroke-linejoin="round"/>
<path d="M1240 75.8333L1245.67 81.5L1257 70.1667" stroke="white" stroke-width="5" stroke-linecap="round" stroke-linejoin="round"/>
<path d="M1268.33 58.8333H1228.67C1225.54 58.8333 1223 61.3704 1223 64.5V87.1667C1223 90.2963 1225.54 92.8333 1228.67 92.8333H1268.33C1271.46 92.8333 1274 90.2963 1274 87.1667V64.5C1274 61.3704 1271.46 58.8333 1268.33 58.8333Z" stroke="white" stroke-width="5" stroke-linecap="round" stroke-linejoin="round"/>
</svg>
