<svg width="1363" height="297" viewBox="0 0 1363 297" fill="none" xmlns="http://www.w3.org/2000/svg">
<path d="M0 15C0 6.71573 6.71573 0 15 0H37V297H15C6.71573 297 0 290.284 0 282V15Z" fill="#248FEF"/>
<path d="M37 0H1066V297H37V0Z" fill="#F0F0F0"/>
<path d="M97.6934 49.4062H102.158L108.732 68.1973L115.307 49.4062H119.771L110.525 75H106.939L97.6934 49.4062ZM95.2852 49.4062H99.7324L100.541 67.7227V75H95.2852V49.4062ZM117.732 49.4062H122.197V75H116.924V67.7227L117.732 49.4062ZM136.77 70.7109V62.2383C136.77 61.6289 136.67 61.1074 136.471 60.6738C136.271 60.2285 135.961 59.8828 135.539 59.6367C135.129 59.3906 134.596 59.2676 133.939 59.2676C133.377 59.2676 132.891 59.3672 132.48 59.5664C132.07 59.7539 131.754 60.0293 131.531 60.3926C131.309 60.7441 131.197 61.1602 131.197 61.6406H126.135C126.135 60.832 126.322 60.0645 126.697 59.3379C127.072 58.6113 127.617 57.9727 128.332 57.4219C129.047 56.8594 129.896 56.4199 130.881 56.1035C131.877 55.7871 132.99 55.6289 134.221 55.6289C135.697 55.6289 137.01 55.875 138.158 56.3672C139.307 56.8594 140.209 57.5977 140.865 58.582C141.533 59.5664 141.867 60.7969 141.867 62.2734V70.4121C141.867 71.4551 141.932 72.3105 142.061 72.9785C142.189 73.6348 142.377 74.209 142.623 74.7012V75H137.508C137.262 74.4844 137.074 73.8398 136.945 73.0664C136.828 72.2812 136.77 71.4961 136.77 70.7109ZM137.438 63.416L137.473 66.2812H134.643C133.975 66.2812 133.395 66.3574 132.902 66.5098C132.41 66.6621 132.006 66.8789 131.689 67.1602C131.373 67.4297 131.139 67.7461 130.986 68.1094C130.846 68.4727 130.775 68.8711 130.775 69.3047C130.775 69.7383 130.875 70.1309 131.074 70.4824C131.273 70.8223 131.561 71.0918 131.936 71.291C132.311 71.4785 132.75 71.5723 133.254 71.5723C134.016 71.5723 134.678 71.4199 135.24 71.1152C135.803 70.8105 136.236 70.4355 136.541 69.9902C136.857 69.5449 137.021 69.123 137.033 68.7246L138.369 70.8691C138.182 71.3496 137.924 71.8477 137.596 72.3633C137.279 72.8789 136.875 73.3652 136.383 73.8223C135.891 74.2676 135.299 74.6367 134.607 74.9297C133.916 75.2109 133.096 75.3516 132.146 75.3516C130.939 75.3516 129.844 75.1113 128.859 74.6309C127.887 74.1387 127.113 73.4648 126.539 72.6094C125.977 71.7422 125.695 70.7578 125.695 69.6562C125.695 68.6602 125.883 67.7754 126.258 67.002C126.633 66.2285 127.184 65.5781 127.91 65.0508C128.648 64.5117 129.568 64.1074 130.67 63.8379C131.771 63.5566 133.049 63.416 134.502 63.416H137.438ZM150.709 48V75H145.646V48H150.709ZM149.988 64.8223H148.6C148.611 63.498 148.787 62.2793 149.127 61.166C149.467 60.041 149.953 59.0684 150.586 58.248C151.219 57.416 151.975 56.7715 152.854 56.3145C153.744 55.8574 154.729 55.6289 155.807 55.6289C156.744 55.6289 157.594 55.7637 158.355 56.0332C159.129 56.291 159.791 56.7129 160.342 57.2988C160.904 57.873 161.338 58.6289 161.643 59.5664C161.947 60.5039 162.1 61.6406 162.1 62.9766V75H157.002V62.9414C157.002 62.0977 156.879 61.4355 156.633 60.9551C156.398 60.4629 156.053 60.1172 155.596 59.918C155.15 59.707 154.6 59.6016 153.943 59.6016C153.217 59.6016 152.596 59.7363 152.08 60.0059C151.576 60.2754 151.172 60.6504 150.867 61.1309C150.562 61.5996 150.34 62.1504 150.199 62.7832C150.059 63.416 149.988 64.0957 149.988 64.8223ZM177.182 70.8516V48H182.279V75H177.691L177.182 70.8516ZM165.158 65.7188V65.3496C165.158 63.8965 165.322 62.5781 165.65 61.3945C165.979 60.1992 166.459 59.1738 167.092 58.3184C167.725 57.4629 168.504 56.8008 169.43 56.332C170.355 55.8633 171.41 55.6289 172.594 55.6289C173.707 55.6289 174.68 55.8633 175.512 56.332C176.355 56.8008 177.07 57.4688 177.656 58.3359C178.254 59.1914 178.734 60.2051 179.098 61.377C179.461 62.5371 179.725 63.8086 179.889 65.1914V66C179.725 67.3242 179.461 68.5547 179.098 69.6914C178.734 70.8281 178.254 71.8242 177.656 72.6797C177.07 73.5234 176.355 74.1797 175.512 74.6484C174.668 75.1172 173.684 75.3516 172.559 75.3516C171.375 75.3516 170.32 75.1113 169.395 74.6309C168.48 74.1504 167.707 73.4766 167.074 72.6094C166.453 71.7422 165.979 70.7227 165.65 69.5508C165.322 68.3789 165.158 67.1016 165.158 65.7188ZM170.221 65.3496V65.7188C170.221 66.5039 170.279 67.2363 170.396 67.916C170.525 68.5957 170.73 69.1992 171.012 69.7266C171.305 70.2422 171.68 70.6465 172.137 70.9395C172.605 71.2207 173.174 71.3613 173.842 71.3613C174.709 71.3613 175.424 71.168 175.986 70.7812C176.549 70.3828 176.977 69.8379 177.27 69.1465C177.574 68.4551 177.75 67.6582 177.797 66.7559V64.4531C177.762 63.7148 177.656 63.0527 177.48 62.4668C177.316 61.8691 177.07 61.3594 176.742 60.9375C176.426 60.5156 176.027 60.1875 175.547 59.9531C175.078 59.7188 174.521 59.6016 173.877 59.6016C173.221 59.6016 172.658 59.7539 172.189 60.0586C171.721 60.3516 171.34 60.7559 171.047 61.2715C170.766 61.7871 170.555 62.3965 170.414 63.0996C170.285 63.791 170.221 64.541 170.221 65.3496ZM191.578 55.9805V75H186.498V55.9805H191.578ZM186.182 51.0234C186.182 50.2852 186.439 49.6758 186.955 49.1953C187.471 48.7148 188.162 48.4746 189.029 48.4746C189.885 48.4746 190.57 48.7148 191.086 49.1953C191.613 49.6758 191.877 50.2852 191.877 51.0234C191.877 51.7617 191.613 52.3711 191.086 52.8516C190.57 53.332 189.885 53.5723 189.029 53.5723C188.162 53.5723 187.471 53.332 186.955 52.8516C186.439 52.3711 186.182 51.7617 186.182 51.0234ZM215.537 49.4062V75H210.281V49.4062H215.537ZM223.412 49.4062V53.5371H202.529V49.4062H223.412ZM233.695 70.7109V62.2383C233.695 61.6289 233.596 61.1074 233.396 60.6738C233.197 60.2285 232.887 59.8828 232.465 59.6367C232.055 59.3906 231.521 59.2676 230.865 59.2676C230.303 59.2676 229.816 59.3672 229.406 59.5664C228.996 59.7539 228.68 60.0293 228.457 60.3926C228.234 60.7441 228.123 61.1602 228.123 61.6406H223.061C223.061 60.832 223.248 60.0645 223.623 59.3379C223.998 58.6113 224.543 57.9727 225.258 57.4219C225.973 56.8594 226.822 56.4199 227.807 56.1035C228.803 55.7871 229.916 55.6289 231.146 55.6289C232.623 55.6289 233.936 55.875 235.084 56.3672C236.232 56.8594 237.135 57.5977 237.791 58.582C238.459 59.5664 238.793 60.7969 238.793 62.2734V70.4121C238.793 71.4551 238.857 72.3105 238.986 72.9785C239.115 73.6348 239.303 74.209 239.549 74.7012V75H234.434C234.188 74.4844 234 73.8398 233.871 73.0664C233.754 72.2812 233.695 71.4961 233.695 70.7109ZM234.363 63.416L234.398 66.2812H231.568C230.9 66.2812 230.32 66.3574 229.828 66.5098C229.336 66.6621 228.932 66.8789 228.615 67.1602C228.299 67.4297 228.064 67.7461 227.912 68.1094C227.771 68.4727 227.701 68.8711 227.701 69.3047C227.701 69.7383 227.801 70.1309 228 70.4824C228.199 70.8223 228.486 71.0918 228.861 71.291C229.236 71.4785 229.676 71.5723 230.18 71.5723C230.941 71.5723 231.604 71.4199 232.166 71.1152C232.729 70.8105 233.162 70.4355 233.467 69.9902C233.783 69.5449 233.947 69.123 233.959 68.7246L235.295 70.8691C235.107 71.3496 234.85 71.8477 234.521 72.3633C234.205 72.8789 233.801 73.3652 233.309 73.8223C232.816 74.2676 232.225 74.6367 231.533 74.9297C230.842 75.2109 230.021 75.3516 229.072 75.3516C227.865 75.3516 226.77 75.1113 225.785 74.6309C224.812 74.1387 224.039 73.4648 223.465 72.6094C222.902 71.7422 222.621 70.7578 222.621 69.6562C222.621 68.6602 222.809 67.7754 223.184 67.002C223.559 66.2285 224.109 65.5781 224.836 65.0508C225.574 64.5117 226.494 64.1074 227.596 63.8379C228.697 63.5566 229.975 63.416 231.428 63.416H234.363ZM248.039 48V75H242.959V48H248.039ZM262.488 70.7109V62.2383C262.488 61.6289 262.389 61.1074 262.189 60.6738C261.99 60.2285 261.68 59.8828 261.258 59.6367C260.848 59.3906 260.314 59.2676 259.658 59.2676C259.096 59.2676 258.609 59.3672 258.199 59.5664C257.789 59.7539 257.473 60.0293 257.25 60.3926C257.027 60.7441 256.916 61.1602 256.916 61.6406H251.854C251.854 60.832 252.041 60.0645 252.416 59.3379C252.791 58.6113 253.336 57.9727 254.051 57.4219C254.766 56.8594 255.615 56.4199 256.6 56.1035C257.596 55.7871 258.709 55.6289 259.939 55.6289C261.416 55.6289 262.729 55.875 263.877 56.3672C265.025 56.8594 265.928 57.5977 266.584 58.582C267.252 59.5664 267.586 60.7969 267.586 62.2734V70.4121C267.586 71.4551 267.65 72.3105 267.779 72.9785C267.908 73.6348 268.096 74.209 268.342 74.7012V75H263.227C262.98 74.4844 262.793 73.8398 262.664 73.0664C262.547 72.2812 262.488 71.4961 262.488 70.7109ZM263.156 63.416L263.191 66.2812H260.361C259.693 66.2812 259.113 66.3574 258.621 66.5098C258.129 66.6621 257.725 66.8789 257.408 67.1602C257.092 67.4297 256.857 67.7461 256.705 68.1094C256.564 68.4727 256.494 68.8711 256.494 69.3047C256.494 69.7383 256.594 70.1309 256.793 70.4824C256.992 70.8223 257.279 71.0918 257.654 71.291C258.029 71.4785 258.469 71.5723 258.973 71.5723C259.734 71.5723 260.396 71.4199 260.959 71.1152C261.521 70.8105 261.955 70.4355 262.26 69.9902C262.576 69.5449 262.74 69.123 262.752 68.7246L264.088 70.8691C263.9 71.3496 263.643 71.8477 263.314 72.3633C262.998 72.8789 262.594 73.3652 262.102 73.8223C261.609 74.2676 261.018 74.6367 260.326 74.9297C259.635 75.2109 258.814 75.3516 257.865 75.3516C256.658 75.3516 255.562 75.1113 254.578 74.6309C253.605 74.1387 252.832 73.4648 252.258 72.6094C251.695 71.7422 251.414 70.7578 251.414 69.6562C251.414 68.6602 251.602 67.7754 251.977 67.002C252.352 66.2285 252.902 65.5781 253.629 65.0508C254.367 64.5117 255.287 64.1074 256.389 63.8379C257.49 63.5566 258.768 63.416 260.221 63.416H263.156ZM276.832 48V75H271.752V48H276.832Z" fill="#888888"/>
<path d="M129.285 100.188V140H119.715L105.633 115.227V140H96.0352V100.188H105.633L119.715 124.961V100.188H129.285ZM149.246 140.547C146.84 140.547 144.689 140.173 142.793 139.426C140.897 138.66 139.293 137.612 137.98 136.281C136.686 134.951 135.693 133.419 135 131.688C134.326 129.956 133.988 128.124 133.988 126.191V125.152C133.988 122.983 134.289 120.978 134.891 119.137C135.492 117.277 136.385 115.655 137.57 114.27C138.755 112.884 140.241 111.809 142.027 111.043C143.814 110.259 145.892 109.867 148.262 109.867C150.358 109.867 152.236 110.204 153.895 110.879C155.553 111.553 156.957 112.52 158.105 113.777C159.272 115.035 160.156 116.557 160.758 118.344C161.378 120.13 161.688 122.135 161.688 124.359V128.105H137.516V122.336H152.691V121.625C152.71 120.641 152.536 119.802 152.172 119.109C151.826 118.417 151.315 117.888 150.641 117.523C149.966 117.159 149.146 116.977 148.18 116.977C147.177 116.977 146.348 117.195 145.691 117.633C145.053 118.07 144.552 118.672 144.188 119.438C143.841 120.185 143.595 121.051 143.449 122.035C143.303 123.02 143.23 124.059 143.23 125.152V126.191C143.23 127.285 143.376 128.279 143.668 129.172C143.978 130.065 144.415 130.831 144.98 131.469C145.564 132.089 146.257 132.572 147.059 132.918C147.879 133.264 148.809 133.438 149.848 133.438C151.105 133.438 152.345 133.201 153.566 132.727C154.788 132.253 155.836 131.469 156.711 130.375L160.895 135.352C160.293 136.208 159.436 137.038 158.324 137.84C157.23 138.642 155.918 139.298 154.387 139.809C152.855 140.301 151.142 140.547 149.246 140.547ZM173.254 110.414L177.41 118.562L181.703 110.414H191.273L183.508 124.824L191.684 140H182.031L177.41 131.25L172.816 140H163.164L171.34 124.824L163.602 110.414H173.254ZM209.895 110.414V116.812H192.066V110.414H209.895ZM195.812 103.059H205.027V130.348C205.027 131.132 205.118 131.742 205.301 132.18C205.483 132.599 205.793 132.9 206.23 133.082C206.686 133.246 207.288 133.328 208.035 133.328C208.564 133.328 209.001 133.319 209.348 133.301C209.694 133.264 210.022 133.219 210.332 133.164V139.754C209.548 140.009 208.728 140.201 207.871 140.328C207.014 140.474 206.103 140.547 205.137 140.547C203.168 140.547 201.482 140.237 200.078 139.617C198.693 138.997 197.635 138.022 196.906 136.691C196.177 135.361 195.812 133.629 195.812 131.496V103.059ZM234.504 129.418C234.504 128.798 234.413 128.242 234.23 127.75C234.048 127.24 233.711 126.766 233.219 126.328C232.727 125.891 232.016 125.453 231.086 125.016C230.174 124.56 228.971 124.086 227.477 123.594C225.727 123.01 224.04 122.354 222.418 121.625C220.796 120.878 219.346 120.012 218.07 119.027C216.794 118.025 215.783 116.858 215.035 115.527C214.288 114.178 213.914 112.611 213.914 110.824C213.914 109.111 214.297 107.57 215.062 106.203C215.828 104.818 216.895 103.642 218.262 102.676C219.647 101.691 221.27 100.944 223.129 100.434C224.988 99.9049 227.021 99.6406 229.227 99.6406C232.143 99.6406 234.714 100.151 236.938 101.172C239.18 102.174 240.93 103.605 242.188 105.465C243.464 107.306 244.102 109.484 244.102 112H234.559C234.559 110.997 234.349 110.113 233.93 109.348C233.529 108.582 232.918 107.98 232.098 107.543C231.277 107.105 230.247 106.887 229.008 106.887C227.805 106.887 226.793 107.069 225.973 107.434C225.152 107.798 224.533 108.29 224.113 108.91C223.694 109.512 223.484 110.177 223.484 110.906C223.484 111.508 223.648 112.055 223.977 112.547C224.323 113.021 224.806 113.467 225.426 113.887C226.064 114.306 226.829 114.707 227.723 115.09C228.634 115.473 229.655 115.846 230.785 116.211C232.9 116.885 234.777 117.642 236.418 118.48C238.077 119.301 239.471 120.24 240.602 121.297C241.75 122.336 242.616 123.521 243.199 124.852C243.801 126.182 244.102 127.686 244.102 129.363C244.102 131.15 243.755 132.736 243.062 134.121C242.37 135.507 241.376 136.682 240.082 137.648C238.788 138.596 237.238 139.316 235.434 139.809C233.629 140.301 231.615 140.547 229.391 140.547C227.349 140.547 225.335 140.292 223.348 139.781C221.379 139.253 219.592 138.451 217.988 137.375C216.384 136.281 215.099 134.887 214.133 133.191C213.185 131.478 212.711 129.445 212.711 127.094H222.336C222.336 128.26 222.491 129.245 222.801 130.047C223.111 130.849 223.566 131.496 224.168 131.988C224.77 132.462 225.508 132.809 226.383 133.027C227.258 133.228 228.26 133.328 229.391 133.328C230.612 133.328 231.596 133.155 232.344 132.809C233.091 132.444 233.638 131.97 233.984 131.387C234.331 130.785 234.504 130.129 234.504 129.418ZM264.199 110.414V116.812H246.371V110.414H264.199ZM250.117 103.059H259.332V130.348C259.332 131.132 259.423 131.742 259.605 132.18C259.788 132.599 260.098 132.9 260.535 133.082C260.991 133.246 261.592 133.328 262.34 133.328C262.868 133.328 263.306 133.319 263.652 133.301C263.999 133.264 264.327 133.219 264.637 133.164V139.754C263.853 140.009 263.033 140.201 262.176 140.328C261.319 140.474 260.408 140.547 259.441 140.547C257.473 140.547 255.786 140.237 254.383 139.617C252.997 138.997 251.94 138.022 251.211 136.691C250.482 135.361 250.117 133.629 250.117 131.496V103.059ZM282.191 140.547C279.785 140.547 277.634 140.173 275.738 139.426C273.842 138.66 272.238 137.612 270.926 136.281C269.632 134.951 268.638 133.419 267.945 131.688C267.271 129.956 266.934 128.124 266.934 126.191V125.152C266.934 122.983 267.234 120.978 267.836 119.137C268.438 117.277 269.331 115.655 270.516 114.27C271.701 112.884 273.186 111.809 274.973 111.043C276.759 110.259 278.837 109.867 281.207 109.867C283.303 109.867 285.181 110.204 286.84 110.879C288.499 111.553 289.902 112.52 291.051 113.777C292.217 115.035 293.102 116.557 293.703 118.344C294.323 120.13 294.633 122.135 294.633 124.359V128.105H270.461V122.336H285.637V121.625C285.655 120.641 285.482 119.802 285.117 119.109C284.771 118.417 284.26 117.888 283.586 117.523C282.911 117.159 282.091 116.977 281.125 116.977C280.122 116.977 279.293 117.195 278.637 117.633C277.999 118.07 277.497 118.672 277.133 119.438C276.786 120.185 276.54 121.051 276.395 122.035C276.249 123.02 276.176 124.059 276.176 125.152V126.191C276.176 127.285 276.322 128.279 276.613 129.172C276.923 130.065 277.361 130.831 277.926 131.469C278.509 132.089 279.202 132.572 280.004 132.918C280.824 133.264 281.754 133.438 282.793 133.438C284.051 133.438 285.29 133.201 286.512 132.727C287.733 132.253 288.781 131.469 289.656 130.375L293.84 135.352C293.238 136.208 292.382 137.038 291.27 137.84C290.176 138.642 288.863 139.298 287.332 139.809C285.801 140.301 284.087 140.547 282.191 140.547ZM307.676 116.102V151.375H298.461V110.414H307.047L307.676 116.102ZM325.832 124.852V125.426C325.832 127.577 325.586 129.573 325.094 131.414C324.602 133.255 323.872 134.859 322.906 136.227C321.94 137.594 320.737 138.66 319.297 139.426C317.875 140.173 316.225 140.547 314.348 140.547C312.579 140.547 311.057 140.155 309.781 139.371C308.505 138.587 307.439 137.503 306.582 136.117C305.725 134.732 305.033 133.146 304.504 131.359C303.975 129.573 303.556 127.686 303.246 125.699V124.961C303.556 122.828 303.975 120.85 304.504 119.027C305.033 117.186 305.725 115.582 306.582 114.215C307.439 112.848 308.496 111.781 309.754 111.016C311.03 110.25 312.552 109.867 314.32 109.867C316.198 109.867 317.848 110.223 319.27 110.934C320.71 111.645 321.913 112.665 322.879 113.996C323.863 115.309 324.602 116.885 325.094 118.727C325.586 120.568 325.832 122.609 325.832 124.852ZM316.617 125.426V124.852C316.617 123.703 316.535 122.655 316.371 121.707C316.207 120.741 315.943 119.902 315.578 119.191C315.232 118.48 314.767 117.934 314.184 117.551C313.6 117.168 312.88 116.977 312.023 116.977C311.039 116.977 310.21 117.132 309.535 117.441C308.879 117.733 308.35 118.189 307.949 118.809C307.566 119.41 307.293 120.167 307.129 121.078C306.983 121.971 306.919 123.02 306.938 124.223V126.465C306.901 127.85 307.038 129.072 307.348 130.129C307.658 131.168 308.195 131.979 308.961 132.562C309.727 133.146 310.766 133.438 312.078 133.438C312.953 133.438 313.682 133.237 314.266 132.836C314.849 132.417 315.314 131.842 315.66 131.113C316.007 130.366 316.253 129.509 316.398 128.543C316.544 127.577 316.617 126.538 316.617 125.426ZM361.188 108.555L351.48 140H341.172L355.801 100.188H362.336L361.188 108.555ZM369.227 140L359.492 108.555L358.234 100.188H364.852L379.562 140H369.227ZM368.844 125.152V132.562H348.418V125.152H368.844ZM397.555 131.688C397.555 131.177 397.382 130.74 397.035 130.375C396.707 129.992 396.124 129.646 395.285 129.336C394.447 129.008 393.271 128.68 391.758 128.352C390.318 128.042 388.96 127.632 387.684 127.121C386.426 126.611 385.323 125.991 384.375 125.262C383.427 124.533 382.68 123.667 382.133 122.664C381.604 121.661 381.34 120.513 381.34 119.219C381.34 117.961 381.604 116.776 382.133 115.664C382.68 114.534 383.473 113.54 384.512 112.684C385.569 111.809 386.854 111.125 388.367 110.633C389.88 110.122 391.603 109.867 393.535 109.867C396.197 109.867 398.493 110.277 400.426 111.098C402.358 111.9 403.844 113.03 404.883 114.488C405.94 115.928 406.469 117.596 406.469 119.492H397.254C397.254 118.745 397.126 118.107 396.871 117.578C396.634 117.049 396.242 116.648 395.695 116.375C395.148 116.083 394.419 115.938 393.508 115.938C392.87 115.938 392.286 116.056 391.758 116.293C391.247 116.53 390.837 116.858 390.527 117.277C390.217 117.697 390.062 118.189 390.062 118.754C390.062 119.155 390.154 119.52 390.336 119.848C390.536 120.158 390.837 120.449 391.238 120.723C391.639 120.978 392.15 121.215 392.77 121.434C393.389 121.634 394.137 121.816 395.012 121.98C396.999 122.345 398.858 122.865 400.59 123.539C402.322 124.214 403.725 125.171 404.801 126.41C405.895 127.65 406.441 129.318 406.441 131.414C406.441 132.727 406.141 133.939 405.539 135.051C404.938 136.145 404.072 137.111 402.941 137.949C401.811 138.77 400.453 139.408 398.867 139.863C397.281 140.319 395.495 140.547 393.508 140.547C390.682 140.547 388.294 140.046 386.344 139.043C384.393 138.022 382.917 136.746 381.914 135.215C380.93 133.665 380.438 132.098 380.438 130.512H389.023C389.06 131.423 389.279 132.171 389.68 132.754C390.099 133.337 390.655 133.766 391.348 134.039C392.04 134.312 392.842 134.449 393.754 134.449C394.592 134.449 395.285 134.331 395.832 134.094C396.397 133.857 396.826 133.538 397.117 133.137C397.409 132.717 397.555 132.234 397.555 131.688ZM426.266 131.688C426.266 131.177 426.092 130.74 425.746 130.375C425.418 129.992 424.835 129.646 423.996 129.336C423.158 129.008 421.982 128.68 420.469 128.352C419.029 128.042 417.671 127.632 416.395 127.121C415.137 126.611 414.034 125.991 413.086 125.262C412.138 124.533 411.391 123.667 410.844 122.664C410.315 121.661 410.051 120.513 410.051 119.219C410.051 117.961 410.315 116.776 410.844 115.664C411.391 114.534 412.184 113.54 413.223 112.684C414.28 111.809 415.565 111.125 417.078 110.633C418.591 110.122 420.314 109.867 422.246 109.867C424.908 109.867 427.204 110.277 429.137 111.098C431.069 111.9 432.555 113.03 433.594 114.488C434.651 115.928 435.18 117.596 435.18 119.492H425.965C425.965 118.745 425.837 118.107 425.582 117.578C425.345 117.049 424.953 116.648 424.406 116.375C423.859 116.083 423.13 115.938 422.219 115.938C421.581 115.938 420.997 116.056 420.469 116.293C419.958 116.53 419.548 116.858 419.238 117.277C418.928 117.697 418.773 118.189 418.773 118.754C418.773 119.155 418.865 119.52 419.047 119.848C419.247 120.158 419.548 120.449 419.949 120.723C420.35 120.978 420.861 121.215 421.48 121.434C422.1 121.634 422.848 121.816 423.723 121.98C425.71 122.345 427.569 122.865 429.301 123.539C431.033 124.214 432.436 125.171 433.512 126.41C434.605 127.65 435.152 129.318 435.152 131.414C435.152 132.727 434.852 133.939 434.25 135.051C433.648 136.145 432.783 137.111 431.652 137.949C430.522 138.77 429.164 139.408 427.578 139.863C425.992 140.319 424.206 140.547 422.219 140.547C419.393 140.547 417.005 140.046 415.055 139.043C413.104 138.022 411.628 136.746 410.625 135.215C409.641 133.665 409.148 132.098 409.148 130.512H417.734C417.771 131.423 417.99 132.171 418.391 132.754C418.81 133.337 419.366 133.766 420.059 134.039C420.751 134.312 421.553 134.449 422.465 134.449C423.303 134.449 423.996 134.331 424.543 134.094C425.108 133.857 425.536 133.538 425.828 133.137C426.12 132.717 426.266 132.234 426.266 131.688ZM449.207 110.414V140H439.965V110.414H449.207ZM439.418 102.785C439.418 101.473 439.892 100.397 440.84 99.5586C441.788 98.7201 443.018 98.3008 444.531 98.3008C446.044 98.3008 447.275 98.7201 448.223 99.5586C449.171 100.397 449.645 101.473 449.645 102.785C449.645 104.098 449.171 105.173 448.223 106.012C447.275 106.85 446.044 107.27 444.531 107.27C443.018 107.27 441.788 106.85 440.84 106.012C439.892 105.173 439.418 104.098 439.418 102.785ZM470.398 131.688C470.398 131.177 470.225 130.74 469.879 130.375C469.551 129.992 468.967 129.646 468.129 129.336C467.29 129.008 466.115 128.68 464.602 128.352C463.161 128.042 461.803 127.632 460.527 127.121C459.27 126.611 458.167 125.991 457.219 125.262C456.271 124.533 455.523 123.667 454.977 122.664C454.448 121.661 454.184 120.513 454.184 119.219C454.184 117.961 454.448 116.776 454.977 115.664C455.523 114.534 456.316 113.54 457.355 112.684C458.413 111.809 459.698 111.125 461.211 110.633C462.724 110.122 464.447 109.867 466.379 109.867C469.04 109.867 471.337 110.277 473.27 111.098C475.202 111.9 476.688 113.03 477.727 114.488C478.784 115.928 479.312 117.596 479.312 119.492H470.098C470.098 118.745 469.97 118.107 469.715 117.578C469.478 117.049 469.086 116.648 468.539 116.375C467.992 116.083 467.263 115.938 466.352 115.938C465.714 115.938 465.13 116.056 464.602 116.293C464.091 116.53 463.681 116.858 463.371 117.277C463.061 117.697 462.906 118.189 462.906 118.754C462.906 119.155 462.997 119.52 463.18 119.848C463.38 120.158 463.681 120.449 464.082 120.723C464.483 120.978 464.993 121.215 465.613 121.434C466.233 121.634 466.98 121.816 467.855 121.98C469.842 122.345 471.702 122.865 473.434 123.539C475.165 124.214 476.569 125.171 477.645 126.41C478.738 127.65 479.285 129.318 479.285 131.414C479.285 132.727 478.984 133.939 478.383 135.051C477.781 136.145 476.915 137.111 475.785 137.949C474.655 138.77 473.297 139.408 471.711 139.863C470.125 140.319 468.339 140.547 466.352 140.547C463.526 140.547 461.138 140.046 459.188 139.043C457.237 138.022 455.76 136.746 454.758 135.215C453.773 133.665 453.281 132.098 453.281 130.512H461.867C461.904 131.423 462.122 132.171 462.523 132.754C462.943 133.337 463.499 133.766 464.191 134.039C464.884 134.312 465.686 134.449 466.598 134.449C467.436 134.449 468.129 134.331 468.676 134.094C469.241 133.857 469.669 133.538 469.961 133.137C470.253 132.717 470.398 132.234 470.398 131.688ZM499.191 110.414V116.812H481.363V110.414H499.191ZM485.109 103.059H494.324V130.348C494.324 131.132 494.415 131.742 494.598 132.18C494.78 132.599 495.09 132.9 495.527 133.082C495.983 133.246 496.585 133.328 497.332 133.328C497.861 133.328 498.298 133.319 498.645 133.301C498.991 133.264 499.319 133.219 499.629 133.164V139.754C498.845 140.009 498.025 140.201 497.168 140.328C496.311 140.474 495.4 140.547 494.434 140.547C492.465 140.547 490.779 140.237 489.375 139.617C487.99 138.997 486.932 138.022 486.203 136.691C485.474 135.361 485.109 133.629 485.109 131.496V103.059ZM518.223 132.562V120.367C518.223 119.529 518.104 118.809 517.867 118.207C517.63 117.605 517.257 117.141 516.746 116.812C516.236 116.466 515.552 116.293 514.695 116.293C514.003 116.293 513.41 116.411 512.918 116.648C512.426 116.885 512.052 117.241 511.797 117.715C511.542 118.189 511.414 118.79 511.414 119.52H502.199C502.199 118.152 502.5 116.885 503.102 115.719C503.721 114.534 504.596 113.504 505.727 112.629C506.875 111.754 508.242 111.079 509.828 110.605C511.432 110.113 513.219 109.867 515.188 109.867C517.539 109.867 519.635 110.259 521.477 111.043C523.336 111.827 524.803 113.003 525.879 114.57C526.954 116.12 527.492 118.07 527.492 120.422V132.535C527.492 134.467 527.602 135.935 527.82 136.938C528.039 137.922 528.349 138.788 528.75 139.535V140H519.508C519.07 139.089 518.742 137.977 518.523 136.664C518.323 135.333 518.223 133.966 518.223 132.562ZM519.344 121.926L519.398 126.848H515.324C514.467 126.848 513.738 126.966 513.137 127.203C512.553 127.44 512.079 127.768 511.715 128.188C511.368 128.589 511.113 129.044 510.949 129.555C510.803 130.065 510.73 130.603 510.73 131.168C510.73 131.715 510.858 132.207 511.113 132.645C511.387 133.064 511.751 133.392 512.207 133.629C512.663 133.866 513.173 133.984 513.738 133.984C514.759 133.984 515.625 133.793 516.336 133.41C517.065 133.009 517.621 132.526 518.004 131.961C518.387 131.396 518.578 130.867 518.578 130.375L520.602 134.148C520.237 134.878 519.818 135.616 519.344 136.363C518.888 137.111 518.314 137.803 517.621 138.441C516.947 139.061 516.117 139.572 515.133 139.973C514.148 140.355 512.954 140.547 511.551 140.547C509.728 140.547 508.051 140.173 506.52 139.426C505.007 138.678 503.794 137.639 502.883 136.309C501.971 134.96 501.516 133.41 501.516 131.66C501.516 130.129 501.789 128.762 502.336 127.559C502.901 126.355 503.749 125.335 504.879 124.496C506.009 123.658 507.449 123.02 509.199 122.582C510.949 122.145 513.009 121.926 515.379 121.926H519.344ZM541.656 116.73V140H532.441V110.414H541.082L541.656 116.73ZM540.562 124.195L538.402 124.25C538.402 121.99 538.676 119.975 539.223 118.207C539.77 116.421 540.544 114.908 541.547 113.668C542.549 112.428 543.743 111.49 545.129 110.852C546.533 110.195 548.091 109.867 549.805 109.867C551.172 109.867 552.421 110.068 553.551 110.469C554.699 110.87 555.684 111.517 556.504 112.41C557.342 113.303 557.98 114.488 558.418 115.965C558.874 117.423 559.102 119.228 559.102 121.379V140H549.832V121.352C549.832 120.167 549.668 119.264 549.34 118.645C549.012 118.007 548.538 117.569 547.918 117.332C547.298 117.095 546.542 116.977 545.648 116.977C544.701 116.977 543.898 117.159 543.242 117.523C542.586 117.888 542.057 118.398 541.656 119.055C541.273 119.693 540.991 120.449 540.809 121.324C540.645 122.199 540.562 123.156 540.562 124.195ZM579.801 110.414V116.812H561.973V110.414H579.801ZM565.719 103.059H574.934V130.348C574.934 131.132 575.025 131.742 575.207 132.18C575.389 132.599 575.699 132.9 576.137 133.082C576.592 133.246 577.194 133.328 577.941 133.328C578.47 133.328 578.908 133.319 579.254 133.301C579.6 133.264 579.928 133.219 580.238 133.164V139.754C579.454 140.009 578.634 140.201 577.777 140.328C576.921 140.474 576.009 140.547 575.043 140.547C573.074 140.547 571.388 140.237 569.984 139.617C568.599 138.997 567.542 138.022 566.812 136.691C566.083 135.361 565.719 133.629 565.719 131.496V103.059Z" fill="black"/>
<rect x="93" y="178" width="917" height="77" rx="10" fill="#D3D3D3"/>
<rect x="111" y="196" width="117" height="41" rx="3" fill="#424242"/>
<rect x="111" y="196" width="117" height="41" rx="3" stroke="#424242" stroke-width="4"/>
<path d="M134.203 210.203H139.239C140.224 210.203 141.079 210.35 141.806 210.643C142.532 210.936 143.092 211.369 143.484 211.943C143.883 212.518 144.082 213.227 144.082 214.07C144.082 214.803 143.968 215.415 143.739 215.907C143.511 216.399 143.191 216.807 142.781 217.129C142.377 217.445 141.905 217.706 141.366 217.911L140.355 218.482H136.128L136.11 216.101H139.239C139.632 216.101 139.957 216.03 140.215 215.89C140.473 215.749 140.666 215.55 140.795 215.292C140.93 215.028 140.997 214.715 140.997 214.352C140.997 213.982 140.93 213.666 140.795 213.402C140.66 213.139 140.461 212.937 140.197 212.796C139.939 212.655 139.62 212.585 139.239 212.585H137.288V223H134.203V210.203ZM141.208 223L138.378 217.34L141.647 217.322L144.513 222.868V223H141.208ZM150.41 223.176C149.637 223.176 148.945 223.056 148.336 222.815C147.727 222.569 147.211 222.232 146.789 221.805C146.373 221.377 146.054 220.885 145.831 220.328C145.614 219.771 145.506 219.183 145.506 218.562V218.228C145.506 217.53 145.603 216.886 145.796 216.294C145.989 215.696 146.276 215.175 146.657 214.729C147.038 214.284 147.516 213.938 148.09 213.692C148.664 213.44 149.332 213.314 150.094 213.314C150.768 213.314 151.371 213.423 151.904 213.64C152.438 213.856 152.889 214.167 153.258 214.571C153.633 214.976 153.917 215.465 154.11 216.039C154.31 216.613 154.409 217.258 154.409 217.973V219.177H146.64V217.322H151.518V217.094C151.523 216.777 151.468 216.508 151.351 216.285C151.239 216.062 151.075 215.893 150.858 215.775C150.642 215.658 150.378 215.6 150.067 215.6C149.745 215.6 149.479 215.67 149.268 215.811C149.062 215.951 148.901 216.145 148.784 216.391C148.673 216.631 148.594 216.909 148.547 217.226C148.5 217.542 148.477 217.876 148.477 218.228V218.562C148.477 218.913 148.523 219.232 148.617 219.52C148.717 219.807 148.857 220.053 149.039 220.258C149.227 220.457 149.449 220.612 149.707 220.724C149.971 220.835 150.27 220.891 150.604 220.891C151.008 220.891 151.406 220.814 151.799 220.662C152.191 220.51 152.528 220.258 152.81 219.906L154.154 221.506C153.961 221.781 153.686 222.048 153.328 222.306C152.977 222.563 152.555 222.774 152.062 222.938C151.57 223.097 151.02 223.176 150.41 223.176ZM160.553 220.609V216.689C160.553 216.42 160.515 216.188 160.438 215.995C160.362 215.802 160.242 215.652 160.078 215.547C159.914 215.436 159.694 215.38 159.419 215.38C159.196 215.38 159.006 215.418 158.848 215.494C158.689 215.57 158.569 215.685 158.487 215.837C158.405 215.989 158.364 216.183 158.364 216.417H155.402C155.402 215.978 155.499 215.57 155.692 215.195C155.892 214.814 156.173 214.483 156.536 214.202C156.905 213.921 157.345 213.704 157.854 213.552C158.37 213.394 158.944 213.314 159.577 213.314C160.333 213.314 161.007 213.44 161.599 213.692C162.196 213.944 162.668 214.322 163.014 214.826C163.359 215.324 163.532 215.951 163.532 216.707V220.601C163.532 221.222 163.567 221.693 163.638 222.016C163.708 222.332 163.808 222.61 163.937 222.851V223H160.966C160.825 222.707 160.72 222.35 160.649 221.928C160.585 221.5 160.553 221.061 160.553 220.609ZM160.913 217.19L160.931 218.772H159.621C159.346 218.772 159.111 218.811 158.918 218.887C158.73 218.963 158.578 219.068 158.461 219.203C158.35 219.332 158.268 219.479 158.215 219.643C158.168 219.807 158.145 219.979 158.145 220.161C158.145 220.337 158.186 220.495 158.268 220.636C158.355 220.771 158.473 220.876 158.619 220.952C158.766 221.028 158.93 221.066 159.111 221.066C159.439 221.066 159.718 221.005 159.946 220.882C160.181 220.753 160.359 220.598 160.482 220.416C160.605 220.234 160.667 220.064 160.667 219.906L161.317 221.119C161.2 221.354 161.065 221.591 160.913 221.831C160.767 222.071 160.582 222.294 160.359 222.499C160.143 222.698 159.876 222.862 159.56 222.991C159.243 223.114 158.859 223.176 158.408 223.176C157.822 223.176 157.283 223.056 156.791 222.815C156.305 222.575 155.915 222.241 155.622 221.813C155.329 221.38 155.183 220.882 155.183 220.319C155.183 219.827 155.271 219.388 155.446 219.001C155.628 218.614 155.9 218.286 156.264 218.017C156.627 217.747 157.09 217.542 157.652 217.401C158.215 217.261 158.877 217.19 159.639 217.19H160.913ZM169.192 220.891C169.468 220.891 169.702 220.841 169.896 220.741C170.095 220.636 170.244 220.489 170.344 220.302C170.449 220.108 170.499 219.877 170.493 219.607H173.279C173.285 220.322 173.109 220.949 172.752 221.488C172.4 222.021 171.92 222.438 171.311 222.736C170.707 223.029 170.024 223.176 169.263 223.176C168.519 223.176 167.868 223.056 167.312 222.815C166.755 222.569 166.289 222.229 165.914 221.796C165.545 221.356 165.267 220.844 165.079 220.258C164.897 219.672 164.807 219.036 164.807 218.351V218.148C164.807 217.463 164.897 216.827 165.079 216.241C165.267 215.649 165.545 215.137 165.914 214.703C166.289 214.264 166.752 213.924 167.303 213.684C167.859 213.438 168.507 213.314 169.245 213.314C170.036 213.314 170.733 213.464 171.337 213.763C171.946 214.062 172.424 214.495 172.77 215.063C173.115 215.632 173.285 216.32 173.279 217.129H170.493C170.499 216.842 170.455 216.584 170.361 216.355C170.268 216.127 170.121 215.945 169.922 215.811C169.729 215.67 169.479 215.6 169.175 215.6C168.87 215.6 168.624 215.667 168.437 215.802C168.249 215.937 168.105 216.124 168.006 216.364C167.912 216.599 167.848 216.868 167.812 217.173C167.783 217.478 167.769 217.803 167.769 218.148V218.351C167.769 218.702 167.783 219.033 167.812 219.344C167.848 219.648 167.915 219.918 168.015 220.152C168.114 220.381 168.258 220.562 168.445 220.697C168.633 220.826 168.882 220.891 169.192 220.891ZM179.555 213.49V215.547H173.824V213.49H179.555ZM175.028 211.126H177.99V219.897C177.99 220.149 178.02 220.346 178.078 220.486C178.137 220.621 178.236 220.718 178.377 220.776C178.523 220.829 178.717 220.855 178.957 220.855C179.127 220.855 179.268 220.853 179.379 220.847C179.49 220.835 179.596 220.82 179.695 220.803V222.921C179.443 223.003 179.18 223.064 178.904 223.105C178.629 223.152 178.336 223.176 178.025 223.176C177.393 223.176 176.851 223.076 176.399 222.877C175.954 222.678 175.614 222.364 175.38 221.937C175.146 221.509 175.028 220.952 175.028 220.267V211.126ZM190.444 218.983V210.203H193.521V218.983C193.521 219.839 193.324 220.58 192.932 221.207C192.545 221.834 192.018 222.32 191.35 222.666C190.688 223.006 189.943 223.176 189.117 223.176C188.262 223.176 187.5 223.032 186.832 222.745C186.17 222.458 185.648 222.016 185.268 221.418C184.893 220.82 184.705 220.059 184.705 219.133H187.799C187.799 219.566 187.849 219.906 187.948 220.152C188.048 220.393 188.194 220.562 188.388 220.662C188.587 220.756 188.83 220.803 189.117 220.803C189.398 220.803 189.636 220.732 189.829 220.592C190.028 220.445 190.181 220.237 190.286 219.968C190.392 219.692 190.444 219.364 190.444 218.983ZM202.072 219.599C202.072 219.399 202.043 219.221 201.984 219.062C201.926 218.898 201.817 218.746 201.659 218.605C201.501 218.465 201.272 218.324 200.974 218.184C200.681 218.037 200.294 217.885 199.813 217.727C199.251 217.539 198.709 217.328 198.188 217.094C197.666 216.854 197.2 216.575 196.79 216.259C196.38 215.937 196.055 215.562 195.814 215.134C195.574 214.7 195.454 214.196 195.454 213.622C195.454 213.071 195.577 212.576 195.823 212.137C196.069 211.691 196.412 211.313 196.852 211.003C197.297 210.687 197.818 210.446 198.416 210.282C199.014 210.112 199.667 210.027 200.376 210.027C201.313 210.027 202.14 210.191 202.854 210.52C203.575 210.842 204.138 211.302 204.542 211.899C204.952 212.491 205.157 213.191 205.157 214H202.09C202.09 213.678 202.022 213.394 201.888 213.147C201.759 212.901 201.562 212.708 201.299 212.567C201.035 212.427 200.704 212.356 200.306 212.356C199.919 212.356 199.594 212.415 199.33 212.532C199.066 212.649 198.867 212.808 198.732 213.007C198.598 213.2 198.53 213.414 198.53 213.648C198.53 213.842 198.583 214.018 198.688 214.176C198.8 214.328 198.955 214.472 199.154 214.606C199.359 214.741 199.605 214.87 199.893 214.993C200.186 215.116 200.514 215.236 200.877 215.354C201.557 215.57 202.16 215.813 202.688 216.083C203.221 216.347 203.669 216.648 204.032 216.988C204.401 217.322 204.68 217.703 204.867 218.131C205.061 218.559 205.157 219.042 205.157 219.581C205.157 220.155 205.046 220.665 204.823 221.11C204.601 221.556 204.281 221.934 203.865 222.244C203.449 222.549 202.951 222.78 202.371 222.938C201.791 223.097 201.144 223.176 200.429 223.176C199.772 223.176 199.125 223.094 198.486 222.93C197.854 222.76 197.279 222.502 196.764 222.156C196.248 221.805 195.835 221.356 195.524 220.812C195.22 220.261 195.067 219.607 195.067 218.852H198.161C198.161 219.227 198.211 219.543 198.311 219.801C198.41 220.059 198.557 220.267 198.75 220.425C198.943 220.577 199.181 220.688 199.462 220.759C199.743 220.823 200.065 220.855 200.429 220.855C200.821 220.855 201.138 220.8 201.378 220.688C201.618 220.571 201.794 220.419 201.905 220.231C202.017 220.038 202.072 219.827 202.072 219.599Z" fill="white"/>
<rect x="248" y="196" width="111" height="41" rx="3" fill="#424242"/>
<rect x="248" y="196" width="111" height="41" rx="3" stroke="#424242" stroke-width="4"/>
<path d="M281.896 210.203V223H278.82L274.294 215.037V223H271.209V210.203H274.294L278.82 218.166V210.203H281.896ZM283.338 218.342V218.157C283.338 217.46 283.438 216.818 283.637 216.232C283.836 215.641 284.129 215.128 284.516 214.694C284.902 214.261 285.38 213.924 285.948 213.684C286.517 213.438 287.173 213.314 287.917 213.314C288.667 213.314 289.326 213.438 289.895 213.684C290.469 213.924 290.949 214.261 291.336 214.694C291.723 215.128 292.016 215.641 292.215 216.232C292.414 216.818 292.514 217.46 292.514 218.157V218.342C292.514 219.033 292.414 219.675 292.215 220.267C292.016 220.853 291.723 221.365 291.336 221.805C290.949 222.238 290.472 222.575 289.903 222.815C289.335 223.056 288.679 223.176 287.935 223.176C287.19 223.176 286.531 223.056 285.957 222.815C285.383 222.575 284.902 222.238 284.516 221.805C284.129 221.365 283.836 220.853 283.637 220.267C283.438 219.675 283.338 219.033 283.338 218.342ZM286.3 218.157V218.342C286.3 218.699 286.326 219.033 286.379 219.344C286.432 219.654 286.52 219.927 286.643 220.161C286.766 220.39 286.933 220.568 287.144 220.697C287.354 220.826 287.618 220.891 287.935 220.891C288.245 220.891 288.503 220.826 288.708 220.697C288.919 220.568 289.086 220.39 289.209 220.161C289.332 219.927 289.42 219.654 289.473 219.344C289.525 219.033 289.552 218.699 289.552 218.342V218.157C289.552 217.812 289.525 217.486 289.473 217.182C289.42 216.871 289.332 216.599 289.209 216.364C289.086 216.124 288.919 215.937 288.708 215.802C288.497 215.667 288.233 215.6 287.917 215.6C287.606 215.6 287.346 215.667 287.135 215.802C286.93 215.937 286.766 216.124 286.643 216.364C286.52 216.599 286.432 216.871 286.379 217.182C286.326 217.486 286.3 217.812 286.3 218.157ZM299.299 220.82V209.5H302.278V223H299.606L299.299 220.82ZM293.463 218.359V218.175C293.463 217.454 293.542 216.798 293.7 216.206C293.858 215.608 294.093 215.096 294.403 214.668C294.714 214.234 295.101 213.9 295.563 213.666C296.026 213.432 296.56 213.314 297.163 213.314C297.702 213.314 298.174 213.44 298.578 213.692C298.982 213.938 299.328 214.284 299.615 214.729C299.902 215.175 300.137 215.696 300.318 216.294C300.5 216.886 300.638 217.524 300.731 218.21V218.43C300.638 219.074 300.5 219.684 300.318 220.258C300.137 220.826 299.902 221.33 299.615 221.77C299.328 222.209 298.979 222.555 298.569 222.807C298.165 223.053 297.69 223.176 297.146 223.176C296.542 223.176 296.009 223.056 295.546 222.815C295.089 222.575 294.705 222.238 294.395 221.805C294.09 221.371 293.858 220.861 293.7 220.275C293.542 219.689 293.463 219.051 293.463 218.359ZM296.425 218.175V218.359C296.425 218.717 296.448 219.048 296.495 219.353C296.542 219.657 296.621 219.927 296.732 220.161C296.85 220.39 297.002 220.568 297.189 220.697C297.383 220.826 297.62 220.891 297.901 220.891C298.282 220.891 298.596 220.8 298.842 220.618C299.094 220.437 299.278 220.179 299.396 219.845C299.519 219.511 299.571 219.118 299.554 218.667V217.973C299.565 217.586 299.539 217.246 299.475 216.953C299.41 216.654 299.308 216.405 299.167 216.206C299.032 216.007 298.859 215.857 298.648 215.758C298.443 215.652 298.2 215.6 297.919 215.6C297.644 215.6 297.409 215.664 297.216 215.793C297.028 215.922 296.876 216.104 296.759 216.338C296.642 216.566 296.557 216.839 296.504 217.155C296.451 217.466 296.425 217.806 296.425 218.175ZM308.562 223.176C307.789 223.176 307.098 223.056 306.488 222.815C305.879 222.569 305.363 222.232 304.941 221.805C304.525 221.377 304.206 220.885 303.983 220.328C303.767 219.771 303.658 219.183 303.658 218.562V218.228C303.658 217.53 303.755 216.886 303.948 216.294C304.142 215.696 304.429 215.175 304.81 214.729C305.19 214.284 305.668 213.938 306.242 213.692C306.816 213.44 307.484 213.314 308.246 213.314C308.92 213.314 309.523 213.423 310.057 213.64C310.59 213.856 311.041 214.167 311.41 214.571C311.785 214.976 312.069 215.465 312.263 216.039C312.462 216.613 312.562 217.258 312.562 217.973V219.177H304.792V217.322H309.67V217.094C309.676 216.777 309.62 216.508 309.503 216.285C309.392 216.062 309.228 215.893 309.011 215.775C308.794 215.658 308.53 215.6 308.22 215.6C307.897 215.6 307.631 215.67 307.42 215.811C307.215 215.951 307.054 216.145 306.937 216.391C306.825 216.631 306.746 216.909 306.699 217.226C306.652 217.542 306.629 217.876 306.629 218.228V218.562C306.629 218.913 306.676 219.232 306.77 219.52C306.869 219.807 307.01 220.053 307.191 220.258C307.379 220.457 307.602 220.612 307.859 220.724C308.123 220.835 308.422 220.891 308.756 220.891C309.16 220.891 309.559 220.814 309.951 220.662C310.344 220.51 310.681 220.258 310.962 219.906L312.307 221.506C312.113 221.781 311.838 222.048 311.48 222.306C311.129 222.563 310.707 222.774 310.215 222.938C309.723 223.097 309.172 223.176 308.562 223.176ZM323.478 218.983V210.203H326.554V218.983C326.554 219.839 326.357 220.58 325.965 221.207C325.578 221.834 325.051 222.32 324.383 222.666C323.721 223.006 322.977 223.176 322.15 223.176C321.295 223.176 320.533 223.032 319.865 222.745C319.203 222.458 318.682 222.016 318.301 221.418C317.926 220.82 317.738 220.059 317.738 219.133H320.832C320.832 219.566 320.882 219.906 320.981 220.152C321.081 220.393 321.228 220.562 321.421 220.662C321.62 220.756 321.863 220.803 322.15 220.803C322.432 220.803 322.669 220.732 322.862 220.592C323.062 220.445 323.214 220.237 323.319 219.968C323.425 219.692 323.478 219.364 323.478 218.983ZM333.356 220.328C333.356 220.164 333.301 220.023 333.189 219.906C333.084 219.783 332.896 219.672 332.627 219.572C332.357 219.467 331.979 219.361 331.493 219.256C331.03 219.156 330.594 219.024 330.184 218.86C329.779 218.696 329.425 218.497 329.12 218.263C328.815 218.028 328.575 217.75 328.399 217.428C328.229 217.105 328.145 216.736 328.145 216.32C328.145 215.916 328.229 215.535 328.399 215.178C328.575 214.814 328.83 214.495 329.164 214.22C329.504 213.938 329.917 213.719 330.403 213.561C330.89 213.396 331.443 213.314 332.064 213.314C332.92 213.314 333.658 213.446 334.279 213.71C334.9 213.968 335.378 214.331 335.712 214.8C336.052 215.263 336.222 215.799 336.222 216.408H333.26C333.26 216.168 333.219 215.963 333.137 215.793C333.061 215.623 332.935 215.494 332.759 215.406C332.583 215.312 332.349 215.266 332.056 215.266C331.851 215.266 331.663 215.304 331.493 215.38C331.329 215.456 331.197 215.562 331.098 215.696C330.998 215.831 330.948 215.989 330.948 216.171C330.948 216.3 330.978 216.417 331.036 216.522C331.101 216.622 331.197 216.716 331.326 216.804C331.455 216.886 331.619 216.962 331.818 217.032C332.018 217.097 332.258 217.155 332.539 217.208C333.178 217.325 333.775 217.492 334.332 217.709C334.889 217.926 335.34 218.233 335.686 218.632C336.037 219.03 336.213 219.566 336.213 220.24C336.213 220.662 336.116 221.052 335.923 221.409C335.729 221.761 335.451 222.071 335.088 222.341C334.725 222.604 334.288 222.81 333.778 222.956C333.269 223.103 332.694 223.176 332.056 223.176C331.147 223.176 330.38 223.015 329.753 222.692C329.126 222.364 328.651 221.954 328.329 221.462C328.013 220.964 327.854 220.46 327.854 219.95H330.614C330.626 220.243 330.696 220.483 330.825 220.671C330.96 220.858 331.139 220.996 331.361 221.084C331.584 221.172 331.842 221.216 332.135 221.216C332.404 221.216 332.627 221.178 332.803 221.102C332.984 221.025 333.122 220.923 333.216 220.794C333.31 220.659 333.356 220.504 333.356 220.328Z" fill="white"/>
<rect x="379" y="196" width="132" height="41" rx="3" fill="#424242"/>
<rect x="379" y="196" width="132" height="41" rx="3" stroke="#424242" stroke-width="4"/>
<path d="M410.846 220.627V223H404.025V220.627H410.846ZM405.124 210.203V223H402.039V210.203H405.124ZM409.967 215.283V217.577H404.025V215.283H409.967ZM410.872 210.203V212.585H404.025V210.203H410.872ZM414.484 213.49L415.82 216.109L417.2 213.49H420.276L417.78 218.122L420.408 223H417.306L415.82 220.188L414.344 223H411.241L413.869 218.122L411.382 213.49H414.484ZM420.531 218.342V218.157C420.531 217.46 420.631 216.818 420.83 216.232C421.029 215.641 421.322 215.128 421.709 214.694C422.096 214.261 422.573 213.924 423.142 213.684C423.71 213.438 424.366 213.314 425.11 213.314C425.86 213.314 426.52 213.438 427.088 213.684C427.662 213.924 428.143 214.261 428.529 214.694C428.916 215.128 429.209 215.641 429.408 216.232C429.607 216.818 429.707 217.46 429.707 218.157V218.342C429.707 219.033 429.607 219.675 429.408 220.267C429.209 220.853 428.916 221.365 428.529 221.805C428.143 222.238 427.665 222.575 427.097 222.815C426.528 223.056 425.872 223.176 425.128 223.176C424.384 223.176 423.725 223.056 423.15 222.815C422.576 222.575 422.096 222.238 421.709 221.805C421.322 221.365 421.029 220.853 420.83 220.267C420.631 219.675 420.531 219.033 420.531 218.342ZM423.493 218.157V218.342C423.493 218.699 423.52 219.033 423.572 219.344C423.625 219.654 423.713 219.927 423.836 220.161C423.959 220.39 424.126 220.568 424.337 220.697C424.548 220.826 424.812 220.891 425.128 220.891C425.438 220.891 425.696 220.826 425.901 220.697C426.112 220.568 426.279 220.39 426.402 220.161C426.525 219.927 426.613 219.654 426.666 219.344C426.719 219.033 426.745 218.699 426.745 218.342V218.157C426.745 217.812 426.719 217.486 426.666 217.182C426.613 216.871 426.525 216.599 426.402 216.364C426.279 216.124 426.112 215.937 425.901 215.802C425.69 215.667 425.427 215.6 425.11 215.6C424.8 215.6 424.539 215.667 424.328 215.802C424.123 215.937 423.959 216.124 423.836 216.364C423.713 216.599 423.625 216.871 423.572 217.182C423.52 217.486 423.493 217.812 423.493 218.157ZM434.014 215.846V223H431.052V213.49H433.82L434.014 215.846ZM436.826 213.42L436.773 216.171C436.656 216.159 436.498 216.145 436.299 216.127C436.1 216.109 435.933 216.101 435.798 216.101C435.452 216.101 435.153 216.142 434.901 216.224C434.655 216.3 434.45 216.417 434.286 216.575C434.128 216.728 434.011 216.921 433.935 217.155C433.864 217.39 433.832 217.662 433.838 217.973L433.302 217.621C433.302 216.982 433.363 216.402 433.486 215.881C433.615 215.354 433.797 214.899 434.031 214.519C434.266 214.132 434.55 213.836 434.884 213.631C435.218 213.42 435.593 213.314 436.009 213.314C436.155 213.314 436.299 213.323 436.439 213.341C436.586 213.358 436.715 213.385 436.826 213.42ZM442.275 223.176C441.502 223.176 440.811 223.056 440.201 222.815C439.592 222.569 439.076 222.232 438.654 221.805C438.238 221.377 437.919 220.885 437.696 220.328C437.479 219.771 437.371 219.183 437.371 218.562V218.228C437.371 217.53 437.468 216.886 437.661 216.294C437.854 215.696 438.142 215.175 438.522 214.729C438.903 214.284 439.381 213.938 439.955 213.692C440.529 213.44 441.197 213.314 441.959 213.314C442.633 213.314 443.236 213.423 443.77 213.64C444.303 213.856 444.754 214.167 445.123 214.571C445.498 214.976 445.782 215.465 445.976 216.039C446.175 216.613 446.274 217.258 446.274 217.973V219.177H438.505V217.322H443.383V217.094C443.389 216.777 443.333 216.508 443.216 216.285C443.104 216.062 442.94 215.893 442.724 215.775C442.507 215.658 442.243 215.6 441.933 215.6C441.61 215.6 441.344 215.67 441.133 215.811C440.928 215.951 440.767 216.145 440.649 216.391C440.538 216.631 440.459 216.909 440.412 217.226C440.365 217.542 440.342 217.876 440.342 218.228V218.562C440.342 218.913 440.389 219.232 440.482 219.52C440.582 219.807 440.723 220.053 440.904 220.258C441.092 220.457 441.314 220.612 441.572 220.724C441.836 220.835 442.135 220.891 442.469 220.891C442.873 220.891 443.271 220.814 443.664 220.662C444.057 220.51 444.394 220.258 444.675 219.906L446.02 221.506C445.826 221.781 445.551 222.048 445.193 222.306C444.842 222.563 444.42 222.774 443.928 222.938C443.436 223.097 442.885 223.176 442.275 223.176ZM452.462 220.328C452.462 220.164 452.406 220.023 452.295 219.906C452.189 219.783 452.002 219.672 451.732 219.572C451.463 219.467 451.085 219.361 450.599 219.256C450.136 219.156 449.699 219.024 449.289 218.86C448.885 218.696 448.53 218.497 448.226 218.263C447.921 218.028 447.681 217.75 447.505 217.428C447.335 217.105 447.25 216.736 447.25 216.32C447.25 215.916 447.335 215.535 447.505 215.178C447.681 214.814 447.936 214.495 448.27 214.22C448.609 213.938 449.022 213.719 449.509 213.561C449.995 213.396 450.549 213.314 451.17 213.314C452.025 213.314 452.764 213.446 453.385 213.71C454.006 213.968 454.483 214.331 454.817 214.8C455.157 215.263 455.327 215.799 455.327 216.408H452.365C452.365 216.168 452.324 215.963 452.242 215.793C452.166 215.623 452.04 215.494 451.864 215.406C451.688 215.312 451.454 215.266 451.161 215.266C450.956 215.266 450.769 215.304 450.599 215.38C450.435 215.456 450.303 215.562 450.203 215.696C450.104 215.831 450.054 215.989 450.054 216.171C450.054 216.3 450.083 216.417 450.142 216.522C450.206 216.622 450.303 216.716 450.432 216.804C450.561 216.886 450.725 216.962 450.924 217.032C451.123 217.097 451.363 217.155 451.645 217.208C452.283 217.325 452.881 217.492 453.438 217.709C453.994 217.926 454.445 218.233 454.791 218.632C455.143 219.03 455.318 219.566 455.318 220.24C455.318 220.662 455.222 221.052 455.028 221.409C454.835 221.761 454.557 222.071 454.193 222.341C453.83 222.604 453.394 222.81 452.884 222.956C452.374 223.103 451.8 223.176 451.161 223.176C450.253 223.176 449.485 223.015 448.858 222.692C448.231 222.364 447.757 221.954 447.435 221.462C447.118 220.964 446.96 220.46 446.96 219.95H449.72C449.731 220.243 449.802 220.483 449.931 220.671C450.065 220.858 450.244 220.996 450.467 221.084C450.689 221.172 450.947 221.216 451.24 221.216C451.51 221.216 451.732 221.178 451.908 221.102C452.09 221.025 452.228 220.923 452.321 220.794C452.415 220.659 452.462 220.504 452.462 220.328ZM461.69 220.328C461.69 220.164 461.635 220.023 461.523 219.906C461.418 219.783 461.23 219.672 460.961 219.572C460.691 219.467 460.313 219.361 459.827 219.256C459.364 219.156 458.928 219.024 458.518 218.86C458.113 218.696 457.759 218.497 457.454 218.263C457.149 218.028 456.909 217.75 456.733 217.428C456.563 217.105 456.479 216.736 456.479 216.32C456.479 215.916 456.563 215.535 456.733 215.178C456.909 214.814 457.164 214.495 457.498 214.22C457.838 213.938 458.251 213.719 458.737 213.561C459.224 213.396 459.777 213.314 460.398 213.314C461.254 213.314 461.992 213.446 462.613 213.71C463.234 213.968 463.712 214.331 464.046 214.8C464.386 215.263 464.556 215.799 464.556 216.408H461.594C461.594 216.168 461.553 215.963 461.471 215.793C461.395 215.623 461.269 215.494 461.093 215.406C460.917 215.312 460.683 215.266 460.39 215.266C460.185 215.266 459.997 215.304 459.827 215.38C459.663 215.456 459.531 215.562 459.432 215.696C459.332 215.831 459.282 215.989 459.282 216.171C459.282 216.3 459.312 216.417 459.37 216.522C459.435 216.622 459.531 216.716 459.66 216.804C459.789 216.886 459.953 216.962 460.152 217.032C460.352 217.097 460.592 217.155 460.873 217.208C461.512 217.325 462.109 217.492 462.666 217.709C463.223 217.926 463.674 218.233 464.02 218.632C464.371 219.03 464.547 219.566 464.547 220.24C464.547 220.662 464.45 221.052 464.257 221.409C464.063 221.761 463.785 222.071 463.422 222.341C463.059 222.604 462.622 222.81 462.112 222.956C461.603 223.103 461.028 223.176 460.39 223.176C459.481 223.176 458.714 223.015 458.087 222.692C457.46 222.364 456.985 221.954 456.663 221.462C456.347 220.964 456.188 220.46 456.188 219.95H458.948C458.96 220.243 459.03 220.483 459.159 220.671C459.294 220.858 459.473 220.996 459.695 221.084C459.918 221.172 460.176 221.216 460.469 221.216C460.738 221.216 460.961 221.178 461.137 221.102C461.318 221.025 461.456 220.923 461.55 220.794C461.644 220.659 461.69 220.504 461.69 220.328ZM475.647 218.983V210.203H478.724V218.983C478.724 219.839 478.527 220.58 478.135 221.207C477.748 221.834 477.221 222.32 476.553 222.666C475.891 223.006 475.146 223.176 474.32 223.176C473.465 223.176 472.703 223.032 472.035 222.745C471.373 222.458 470.852 222.016 470.471 221.418C470.096 220.82 469.908 220.059 469.908 219.133H473.002C473.002 219.566 473.052 219.906 473.151 220.152C473.251 220.393 473.397 220.562 473.591 220.662C473.79 220.756 474.033 220.803 474.32 220.803C474.602 220.803 474.839 220.732 475.032 220.592C475.231 220.445 475.384 220.237 475.489 219.968C475.595 219.692 475.647 219.364 475.647 218.983ZM485.526 220.328C485.526 220.164 485.471 220.023 485.359 219.906C485.254 219.783 485.066 219.672 484.797 219.572C484.527 219.467 484.149 219.361 483.663 219.256C483.2 219.156 482.764 219.024 482.354 218.86C481.949 218.696 481.595 218.497 481.29 218.263C480.985 218.028 480.745 217.75 480.569 217.428C480.399 217.105 480.314 216.736 480.314 216.32C480.314 215.916 480.399 215.535 480.569 215.178C480.745 214.814 481 214.495 481.334 214.22C481.674 213.938 482.087 213.719 482.573 213.561C483.06 213.396 483.613 213.314 484.234 213.314C485.09 213.314 485.828 213.446 486.449 213.71C487.07 213.968 487.548 214.331 487.882 214.8C488.222 215.263 488.392 215.799 488.392 216.408H485.43C485.43 216.168 485.389 215.963 485.307 215.793C485.23 215.623 485.104 215.494 484.929 215.406C484.753 215.312 484.519 215.266 484.226 215.266C484.021 215.266 483.833 215.304 483.663 215.38C483.499 215.456 483.367 215.562 483.268 215.696C483.168 215.831 483.118 215.989 483.118 216.171C483.118 216.3 483.147 216.417 483.206 216.522C483.271 216.622 483.367 216.716 483.496 216.804C483.625 216.886 483.789 216.962 483.988 217.032C484.188 217.097 484.428 217.155 484.709 217.208C485.348 217.325 485.945 217.492 486.502 217.709C487.059 217.926 487.51 218.233 487.855 218.632C488.207 219.03 488.383 219.566 488.383 220.24C488.383 220.662 488.286 221.052 488.093 221.409C487.899 221.761 487.621 222.071 487.258 222.341C486.895 222.604 486.458 222.81 485.948 222.956C485.438 223.103 484.864 223.176 484.226 223.176C483.317 223.176 482.55 223.015 481.923 222.692C481.296 222.364 480.821 221.954 480.499 221.462C480.183 220.964 480.024 220.46 480.024 219.95H482.784C482.796 220.243 482.866 220.483 482.995 220.671C483.13 220.858 483.309 220.996 483.531 221.084C483.754 221.172 484.012 221.216 484.305 221.216C484.574 221.216 484.797 221.178 484.973 221.102C485.154 221.025 485.292 220.923 485.386 220.794C485.479 220.659 485.526 220.504 485.526 220.328Z" fill="white"/>
<rect x="531" y="196" width="80" height="41" rx="3" fill="#424242"/>
<rect x="531" y="196" width="80" height="41" rx="3" stroke="#424242" stroke-width="4"/>
<path d="M564.804 210.203V223H561.728L557.201 215.037V223H554.116V210.203H557.201L561.728 218.166V210.203H564.804ZM575.456 219.476C575.456 220.29 575.263 220.973 574.876 221.523C574.495 222.074 573.968 222.487 573.294 222.763C572.626 223.038 571.864 223.176 571.009 223.176C570.159 223.176 569.395 223.038 568.715 222.763C568.041 222.487 567.508 222.074 567.115 221.523C566.723 220.973 566.526 220.29 566.526 219.476C566.526 218.919 566.638 218.421 566.86 217.981C567.089 217.536 567.405 217.158 567.81 216.848C568.214 216.537 568.686 216.3 569.225 216.136C569.77 215.972 570.358 215.89 570.991 215.89C571.847 215.89 572.611 216.036 573.285 216.329C573.959 216.616 574.489 217.026 574.876 217.56C575.263 218.093 575.456 218.731 575.456 219.476ZM572.477 219.238C572.477 218.887 572.415 218.591 572.292 218.351C572.169 218.104 571.996 217.917 571.773 217.788C571.551 217.659 571.29 217.595 570.991 217.595C570.698 217.595 570.438 217.659 570.209 217.788C569.986 217.917 569.811 218.104 569.682 218.351C569.559 218.591 569.497 218.887 569.497 219.238C569.497 219.578 569.562 219.874 569.69 220.126C569.819 220.372 569.995 220.562 570.218 220.697C570.446 220.826 570.71 220.891 571.009 220.891C571.308 220.891 571.565 220.826 571.782 220.697C572.005 220.562 572.175 220.372 572.292 220.126C572.415 219.874 572.477 219.578 572.477 219.238ZM575.192 213.622C575.192 214.29 575.014 214.876 574.656 215.38C574.305 215.878 573.812 216.268 573.18 216.549C572.553 216.824 571.829 216.962 571.009 216.962C570.194 216.962 569.468 216.824 568.829 216.549C568.196 216.268 567.698 215.878 567.335 215.38C566.978 214.876 566.799 214.29 566.799 213.622C566.799 212.837 566.978 212.178 567.335 211.645C567.698 211.111 568.196 210.707 568.829 210.432C569.462 210.156 570.183 210.019 570.991 210.019C571.812 210.019 572.538 210.156 573.171 210.432C573.804 210.707 574.299 211.111 574.656 211.645C575.014 212.178 575.192 212.837 575.192 213.622ZM572.23 213.78C572.23 213.476 572.184 213.215 572.09 212.998C571.996 212.775 571.858 212.605 571.677 212.488C571.495 212.365 571.267 212.304 570.991 212.304C570.728 212.304 570.505 212.362 570.323 212.479C570.142 212.597 570.004 212.767 569.91 212.989C569.816 213.206 569.77 213.47 569.77 213.78C569.77 214.085 569.816 214.352 569.91 214.58C570.004 214.809 570.142 214.987 570.323 215.116C570.511 215.245 570.739 215.31 571.009 215.31C571.284 215.31 571.51 215.245 571.686 215.116C571.867 214.987 572.002 214.809 572.09 214.58C572.184 214.352 572.23 214.085 572.23 213.78ZM587.884 210.203V223H584.808L580.281 215.037V223H577.196V210.203H580.281L584.808 218.166V210.203H587.884Z" fill="white"/>
<rect x="631" y="196" width="105" height="41" rx="3" fill="#424242"/>
<rect x="631" y="196" width="105" height="41" rx="3" stroke="#424242" stroke-width="4"/>
<path d="M655.929 210.203H658.442L661.299 219.106L664.155 210.203H666.669L662.318 223H660.279L655.929 210.203ZM654.399 210.203H657.001L657.484 220.012V223H654.399V210.203ZM665.597 210.203H668.207V223H665.113V220.012L665.597 210.203ZM672.259 210.203L674.614 215.758L676.979 210.203H680.301L676.188 218.403V223H673.05V218.403L668.928 210.203H672.259ZM687.692 219.599C687.692 219.399 687.663 219.221 687.604 219.062C687.546 218.898 687.438 218.746 687.279 218.605C687.121 218.465 686.893 218.324 686.594 218.184C686.301 218.037 685.914 217.885 685.434 217.727C684.871 217.539 684.329 217.328 683.808 217.094C683.286 216.854 682.82 216.575 682.41 216.259C682 215.937 681.675 215.562 681.435 215.134C681.194 214.7 681.074 214.196 681.074 213.622C681.074 213.071 681.197 212.576 681.443 212.137C681.689 211.691 682.032 211.313 682.472 211.003C682.917 210.687 683.438 210.446 684.036 210.282C684.634 210.112 685.287 210.027 685.996 210.027C686.934 210.027 687.76 210.191 688.475 210.52C689.195 210.842 689.758 211.302 690.162 211.899C690.572 212.491 690.777 213.191 690.777 214H687.71C687.71 213.678 687.643 213.394 687.508 213.147C687.379 212.901 687.183 212.708 686.919 212.567C686.655 212.427 686.324 212.356 685.926 212.356C685.539 212.356 685.214 212.415 684.95 212.532C684.687 212.649 684.487 212.808 684.353 213.007C684.218 213.2 684.15 213.414 684.15 213.648C684.15 213.842 684.203 214.018 684.309 214.176C684.42 214.328 684.575 214.472 684.774 214.606C684.979 214.741 685.226 214.87 685.513 214.993C685.806 215.116 686.134 215.236 686.497 215.354C687.177 215.57 687.78 215.813 688.308 216.083C688.841 216.347 689.289 216.648 689.652 216.988C690.021 217.322 690.3 217.703 690.487 218.131C690.681 218.559 690.777 219.042 690.777 219.581C690.777 220.155 690.666 220.665 690.443 221.11C690.221 221.556 689.901 221.934 689.485 222.244C689.069 222.549 688.571 222.78 687.991 222.938C687.411 223.097 686.764 223.176 686.049 223.176C685.393 223.176 684.745 223.094 684.106 222.93C683.474 222.76 682.899 222.502 682.384 222.156C681.868 221.805 681.455 221.356 681.145 220.812C680.84 220.261 680.688 219.607 680.688 218.852H683.781C683.781 219.227 683.831 219.543 683.931 219.801C684.03 220.059 684.177 220.267 684.37 220.425C684.563 220.577 684.801 220.688 685.082 220.759C685.363 220.823 685.686 220.855 686.049 220.855C686.441 220.855 686.758 220.8 686.998 220.688C687.238 220.571 687.414 220.419 687.525 220.231C687.637 220.038 687.692 219.827 687.692 219.599ZM699.505 220.891L703.073 223.721L701.157 225.338L697.65 222.508L699.505 220.891ZM703.223 216.347V216.865C703.223 217.844 703.085 218.723 702.81 219.502C702.54 220.275 702.153 220.938 701.649 221.488C701.151 222.033 700.562 222.452 699.883 222.745C699.203 223.032 698.453 223.176 697.633 223.176C696.807 223.176 696.051 223.032 695.365 222.745C694.686 222.452 694.094 222.033 693.59 221.488C693.092 220.938 692.705 220.275 692.43 219.502C692.16 218.723 692.025 217.844 692.025 216.865V216.347C692.025 215.368 692.16 214.489 692.43 213.71C692.705 212.931 693.089 212.269 693.581 211.724C694.079 211.173 694.668 210.754 695.348 210.467C696.033 210.174 696.789 210.027 697.615 210.027C698.436 210.027 699.186 210.174 699.865 210.467C700.551 210.754 701.143 211.173 701.641 211.724C702.145 212.269 702.534 212.931 702.81 213.71C703.085 214.489 703.223 215.368 703.223 216.347ZM700.085 216.865V216.329C700.085 215.696 700.029 215.14 699.918 214.659C699.812 214.173 699.654 213.766 699.443 213.438C699.232 213.109 698.972 212.863 698.661 212.699C698.356 212.529 698.008 212.444 697.615 212.444C697.205 212.444 696.848 212.529 696.543 212.699C696.238 212.863 695.983 213.109 695.778 213.438C695.573 213.766 695.418 214.173 695.312 214.659C695.213 215.14 695.163 215.696 695.163 216.329V216.865C695.163 217.492 695.213 218.049 695.312 218.535C695.418 219.016 695.573 219.423 695.778 219.757C695.989 220.091 696.247 220.343 696.552 220.513C696.862 220.683 697.223 220.768 697.633 220.768C698.025 220.768 698.374 220.683 698.679 220.513C698.983 220.343 699.238 220.091 699.443 219.757C699.654 219.423 699.812 219.016 699.918 218.535C700.029 218.049 700.085 217.492 700.085 216.865ZM713.251 220.627V223H706.782V220.627H713.251ZM707.881 210.203V223H704.796V210.203H707.881Z" fill="white"/>
<path d="M1066 0H1348C1356.28 0 1363 6.71573 1363 15V282C1363 290.284 1356.28 297 1348 297H1066V0Z" fill="#01212D"/>
<path d="M1166.14 178.676C1166.17 178.487 1166.18 178.279 1166.18 178.049V167.475H1167.87L1172.34 174.496V168.05C1172.34 167.741 1172.31 167.55 1172.25 167.475H1174.52C1174.49 167.704 1174.48 167.953 1174.48 168.221V178.676H1172.73L1168.34 171.929V178.676H1166.14Z" fill="#D9D9D9"/>
<path d="M1185.55 176.659C1185.9 176.659 1186.14 176.625 1186.27 176.556L1186.31 176.564L1186.22 178.676H1179.92V167.415C1180.07 167.427 1180.24 167.436 1180.43 167.44L1181.01 167.458C1181.4 167.47 1181.83 167.475 1182.29 167.475C1183.58 167.475 1184.85 167.453 1186.11 167.406C1186.04 167.904 1186.01 168.565 1186.01 169.389C1186.01 169.481 1186.02 169.55 1186.03 169.595L1186.01 169.612C1185.72 169.533 1185.31 169.492 1184.77 169.492H1182.12V171.638H1184.11C1184.73 171.638 1185.1 171.62 1185.22 171.586L1185.25 173.663C1184.98 173.635 1184.63 173.62 1184.2 173.62H1182.12V176.659H1185.55Z" fill="#D9D9D9"/>
<path d="M1196.08 168.29C1196.2 168.045 1196.26 167.861 1196.26 167.741C1196.26 167.621 1196.25 167.533 1196.23 167.475H1199.26C1199.19 167.543 1199.12 167.625 1199.02 167.715C1198.93 167.807 1198.82 167.919 1198.7 168.05C1198.42 168.365 1198.16 168.732 1197.93 169.148L1195.9 172.848L1197.79 176.41L1198.02 176.873C1198.45 177.762 1198.81 178.363 1199.1 178.676H1196.37C1196.34 178.483 1196.25 178.219 1196.07 177.886L1194.43 174.719C1193.26 177.071 1192.67 178.285 1192.64 178.358C1192.61 178.451 1192.59 178.556 1192.57 178.676H1189.83C1190.04 178.466 1190.25 178.165 1190.47 177.775L1191.48 175.981L1193.28 172.942L1190.92 168.505C1190.66 168.03 1190.44 167.687 1190.25 167.475H1193.08C1193.06 167.533 1193.04 167.595 1193.04 167.663C1193.04 167.814 1193.12 168.022 1193.26 168.29L1194.66 171.105L1196.08 168.29Z" fill="#D9D9D9"/>
<path d="M1207.48 178.727C1207.2 178.693 1206.51 178.676 1205.39 178.676H1205.13V169.363H1203.46C1202.96 169.363 1202.67 169.389 1202.58 169.44C1202.49 169.492 1202.42 169.539 1202.37 169.578L1202.35 169.569V167.406L1202.37 167.389C1202.55 167.447 1203.05 167.475 1203.87 167.475H1209.15C1209.64 167.475 1209.94 167.453 1210.03 167.406C1210.12 167.355 1210.19 167.309 1210.23 167.269L1210.26 167.277V169.432L1210.23 169.457C1210.05 169.395 1209.55 169.363 1208.74 169.363H1207.48V178.727Z" fill="#D9D9D9"/>
<path d="M1229.38 168.101L1229.23 170.573L1229.17 170.59C1228.75 169.968 1228.04 169.565 1227.05 169.38C1226.73 169.318 1226.43 169.286 1226.14 169.286C1225.85 169.286 1225.6 169.312 1225.4 169.363C1225.19 169.415 1225.02 169.49 1224.87 169.586C1224.56 169.788 1224.41 170.05 1224.41 170.376C1224.41 170.801 1224.54 171.12 1224.81 171.337C1225.15 171.595 1225.71 171.775 1226.49 171.878C1227.26 171.981 1227.89 172.125 1228.36 172.307C1228.83 172.485 1229.22 172.711 1229.53 172.985C1230.1 173.5 1230.38 174.23 1230.38 175.174C1230.38 176.41 1229.92 177.361 1228.99 178.024C1228.19 178.603 1227.18 178.891 1225.97 178.891C1224.99 178.891 1224.03 178.704 1223.08 178.333C1222.76 178.208 1222.49 178.064 1222.26 177.903L1222.34 175.088L1222.38 175.062C1223.07 176.264 1224.22 176.865 1225.81 176.865C1226.94 176.865 1227.68 176.594 1228.04 176.049C1228.17 175.867 1228.23 175.661 1228.23 175.431C1228.23 175.204 1228.19 175.015 1228.12 174.865C1228.05 174.717 1227.93 174.588 1227.76 174.479C1227.43 174.268 1226.88 174.127 1226.11 174.058C1225.34 173.985 1224.71 173.848 1224.23 173.646C1223.74 173.44 1223.35 173.189 1223.06 172.891C1222.53 172.354 1222.27 171.601 1222.27 170.633C1222.27 169.638 1222.62 168.831 1223.32 168.213C1224.03 167.584 1225 167.269 1226.2 167.269C1227.42 167.269 1228.47 167.548 1229.38 168.101Z" fill="#D9D9D9"/>
<path d="M1239.13 178.727C1238.85 178.693 1238.16 178.676 1237.04 178.676H1236.78V169.363H1235.11C1234.61 169.363 1234.32 169.389 1234.23 169.44C1234.14 169.492 1234.07 169.539 1234.02 169.578L1234 169.569V167.406L1234.02 167.389C1234.2 167.447 1234.7 167.475 1235.52 167.475H1240.8C1241.29 167.475 1241.59 167.453 1241.68 167.406C1241.77 167.355 1241.84 167.309 1241.88 167.269L1241.91 167.277V169.432L1241.88 169.457C1241.7 169.395 1241.2 169.363 1240.39 169.363H1239.13V178.727Z" fill="#D9D9D9"/>
<path d="M1251.77 176.659C1252.12 176.659 1252.36 176.625 1252.49 176.556L1252.53 176.564L1252.44 178.676H1246.14V167.415C1246.29 167.427 1246.46 167.436 1246.65 167.44L1247.23 167.458C1247.63 167.47 1248.05 167.475 1248.51 167.475C1249.8 167.475 1251.07 167.453 1252.33 167.406C1252.26 167.904 1252.23 168.565 1252.23 169.389C1252.23 169.481 1252.24 169.55 1252.25 169.595L1252.23 169.612C1251.94 169.533 1251.53 169.492 1250.99 169.492H1248.34V171.638H1250.33C1250.95 171.638 1251.32 171.62 1251.45 171.586L1251.47 173.663C1251.2 173.635 1250.85 173.62 1250.42 173.62H1248.34V176.659H1251.77Z" fill="#D9D9D9"/>
<path d="M1257.03 167.415C1257.81 167.318 1258.61 167.269 1259.43 167.269C1260.96 167.269 1262.11 167.627 1262.91 168.342C1263.7 169.058 1264.1 170.127 1264.1 171.552C1264.1 172.829 1263.67 173.835 1262.8 174.573C1261.99 175.273 1260.94 175.62 1259.66 175.62C1259.51 175.62 1259.35 175.612 1259.18 175.595V178.676H1257.03V167.415ZM1259.68 169.294C1259.52 169.294 1259.35 169.301 1259.18 169.312V173.741C1259.36 173.764 1259.58 173.775 1259.84 173.775C1260.1 173.775 1260.36 173.721 1260.64 173.612C1260.92 173.504 1261.16 173.35 1261.35 173.148C1261.75 172.743 1261.95 172.204 1261.95 171.535C1261.95 170.041 1261.19 169.294 1259.68 169.294Z" fill="#D9D9D9"/>
<path d="M1199.81 191.107C1199.82 191.268 1199.86 191.386 1199.93 191.458C1200 191.527 1200.08 191.566 1200.16 191.57L1200.14 191.716C1199.88 191.699 1199.53 191.69 1199.08 191.69C1198.58 191.69 1198.22 191.699 1197.98 191.716L1198.02 191.57C1198.18 191.559 1198.31 191.54 1198.4 191.51C1198.49 191.476 1198.56 191.42 1198.59 191.338C1198.63 191.252 1198.65 191.128 1198.64 190.961L1198.58 189.759H1197L1196.36 190.677C1196.21 190.896 1196.13 191.072 1196.13 191.21C1196.13 191.33 1196.18 191.42 1196.28 191.476C1196.39 191.527 1196.54 191.559 1196.74 191.57L1196.7 191.716C1196.3 191.699 1195.98 191.69 1195.75 191.69C1195.58 191.69 1195.41 191.699 1195.25 191.716L1195.28 191.57C1195.41 191.536 1195.53 191.465 1195.65 191.355C1195.77 191.242 1195.92 191.055 1196.1 190.798L1199.14 186.523C1199.19 186.53 1199.25 186.532 1199.33 186.532C1199.42 186.532 1199.49 186.53 1199.52 186.523L1199.81 191.107ZM1198.57 189.613L1198.47 187.69L1197.11 189.613H1198.57Z" fill="#D9D9D9"/>
<path d="M1202.13 191.613C1202.2 191.647 1202.3 191.664 1202.41 191.664C1202.59 191.664 1202.74 191.611 1202.85 191.501C1202.96 191.388 1203.02 191.233 1203.02 191.038C1203.02 190.883 1202.99 190.725 1202.92 190.557C1202.85 190.392 1202.75 190.205 1202.62 189.999C1202.59 189.971 1202.53 189.886 1202.44 189.742C1202.35 189.594 1202.28 189.454 1202.23 189.321C1202.19 189.184 1202.16 189.051 1202.16 188.918C1202.16 188.604 1202.28 188.347 1202.52 188.145C1202.75 187.946 1203.08 187.845 1203.49 187.845C1203.81 187.845 1204.07 187.903 1204.28 188.017C1204.49 188.132 1204.6 188.326 1204.6 188.6C1204.6 188.738 1204.56 188.864 1204.48 188.978C1204.4 189.087 1204.29 189.141 1204.15 189.141C1204.03 189.141 1203.94 189.096 1203.86 189.004C1203.79 188.913 1203.75 188.795 1203.75 188.652C1203.75 188.532 1203.77 188.42 1203.81 188.317C1203.86 188.214 1203.91 188.126 1203.97 188.051C1203.91 188.012 1203.83 187.991 1203.73 187.991C1203.55 187.991 1203.41 188.047 1203.31 188.154C1203.21 188.263 1203.16 188.416 1203.16 188.609C1203.16 188.742 1203.18 188.862 1203.23 188.969C1203.28 189.079 1203.37 189.231 1203.49 189.424L1203.59 189.57C1203.75 189.828 1203.86 190.04 1203.92 190.205C1203.99 190.373 1204.03 190.538 1204.03 190.703C1204.03 190.916 1203.97 191.107 1203.85 191.278C1203.75 191.446 1203.58 191.576 1203.37 191.673C1203.17 191.77 1202.93 191.819 1202.65 191.819C1202.31 191.819 1202.02 191.752 1201.79 191.622C1201.57 191.484 1201.45 191.267 1201.45 190.969C1201.45 190.828 1201.49 190.703 1201.56 190.6C1201.63 190.497 1201.73 190.446 1201.85 190.446C1201.98 190.446 1202.08 190.501 1202.16 190.609C1202.23 190.718 1202.28 190.853 1202.28 191.012C1202.28 191.122 1202.26 191.218 1202.23 191.304C1202.21 191.39 1202.17 191.493 1202.13 191.613Z" fill="#D9D9D9"/>
<path d="M1206.1 191.613C1206.17 191.647 1206.27 191.664 1206.38 191.664C1206.56 191.664 1206.71 191.611 1206.82 191.501C1206.93 191.388 1206.99 191.233 1206.99 191.038C1206.99 190.883 1206.96 190.725 1206.89 190.557C1206.82 190.392 1206.72 190.205 1206.59 189.999C1206.56 189.971 1206.5 189.886 1206.41 189.742C1206.31 189.594 1206.25 189.454 1206.2 189.321C1206.15 189.184 1206.13 189.051 1206.13 188.918C1206.13 188.604 1206.25 188.347 1206.48 188.145C1206.72 187.946 1207.04 187.845 1207.46 187.845C1207.78 187.845 1208.04 187.903 1208.25 188.017C1208.46 188.132 1208.57 188.326 1208.57 188.6C1208.57 188.738 1208.53 188.864 1208.45 188.978C1208.37 189.087 1208.26 189.141 1208.12 189.141C1208 189.141 1207.9 189.096 1207.83 189.004C1207.76 188.913 1207.72 188.795 1207.72 188.652C1207.72 188.532 1207.74 188.42 1207.78 188.317C1207.83 188.214 1207.88 188.126 1207.94 188.051C1207.88 188.012 1207.8 187.991 1207.69 187.991C1207.52 187.991 1207.38 188.047 1207.27 188.154C1207.18 188.263 1207.13 188.416 1207.13 188.609C1207.13 188.742 1207.15 188.862 1207.2 188.969C1207.25 189.079 1207.34 189.231 1207.46 189.424L1207.56 189.57C1207.72 189.828 1207.83 190.04 1207.89 190.205C1207.96 190.373 1207.99 190.538 1207.99 190.703C1207.99 190.916 1207.94 191.107 1207.82 191.278C1207.71 191.446 1207.55 191.576 1207.34 191.673C1207.14 191.77 1206.9 191.819 1206.62 191.819C1206.28 191.819 1205.99 191.752 1205.76 191.622C1205.54 191.484 1205.42 191.267 1205.42 190.969C1205.42 190.828 1205.46 190.703 1205.53 190.6C1205.6 190.497 1205.7 190.446 1205.82 190.446C1205.95 190.446 1206.05 190.501 1206.12 190.609C1206.2 190.718 1206.24 190.853 1206.24 191.012C1206.24 191.122 1206.23 191.218 1206.2 191.304C1206.18 191.39 1206.14 191.493 1206.1 191.613Z" fill="#D9D9D9"/>
<path d="M1210.81 186.729C1210.82 186.53 1210.89 186.373 1211.03 186.257C1211.17 186.143 1211.35 186.085 1211.56 186.085C1211.73 186.085 1211.86 186.126 1211.95 186.205C1212.05 186.287 1212.1 186.394 1212.1 186.532C1212.1 186.727 1212.02 186.888 1211.88 187.012C1211.73 187.139 1211.55 187.201 1211.34 187.201C1211.16 187.201 1211.03 187.163 1210.94 187.081C1210.85 186.995 1210.81 186.879 1210.81 186.729ZM1210.54 188.566C1210.57 188.459 1210.59 188.386 1210.59 188.351C1210.59 188.255 1210.55 188.205 1210.46 188.205C1210.37 188.205 1210.28 188.253 1210.21 188.343C1210.14 188.429 1210.07 188.574 1209.99 188.78L1209.84 189.15H1209.71L1209.91 188.6C1210.09 188.098 1210.43 187.845 1210.92 187.845C1211.15 187.845 1211.31 187.901 1211.41 188.008C1211.52 188.117 1211.57 188.261 1211.57 188.437C1211.57 188.581 1211.54 188.725 1211.48 188.866L1210.72 191.098C1210.69 191.184 1210.67 191.252 1210.67 191.304C1210.67 191.407 1210.72 191.458 1210.82 191.458C1210.89 191.458 1210.97 191.42 1211.04 191.338C1211.12 191.252 1211.2 191.102 1211.28 190.883L1211.41 190.531H1211.55L1211.36 191.064C1211.19 191.568 1210.86 191.819 1210.37 191.819C1209.93 191.819 1209.71 191.617 1209.71 191.21C1209.71 191.051 1209.75 190.866 1209.83 190.66L1210.54 188.566Z" fill="#D9D9D9"/>
<path d="M1213.32 191.613C1213.4 191.647 1213.49 191.664 1213.61 191.664C1213.79 191.664 1213.93 191.611 1214.04 191.501C1214.16 191.388 1214.22 191.233 1214.22 191.038C1214.22 190.883 1214.18 190.725 1214.11 190.557C1214.04 190.392 1213.94 190.205 1213.81 189.999C1213.79 189.971 1213.73 189.886 1213.63 189.742C1213.54 189.594 1213.47 189.454 1213.43 189.321C1213.38 189.184 1213.36 189.051 1213.36 188.918C1213.36 188.604 1213.47 188.347 1213.71 188.145C1213.94 187.946 1214.27 187.845 1214.69 187.845C1215 187.845 1215.26 187.903 1215.48 188.017C1215.69 188.132 1215.79 188.326 1215.79 188.6C1215.79 188.738 1215.75 188.864 1215.67 188.978C1215.59 189.087 1215.49 189.141 1215.35 189.141C1215.23 189.141 1215.13 189.096 1215.06 189.004C1214.98 188.913 1214.94 188.795 1214.94 188.652C1214.94 188.532 1214.96 188.42 1215 188.317C1215.05 188.214 1215.1 188.126 1215.17 188.051C1215.1 188.012 1215.02 187.991 1214.92 187.991C1214.74 187.991 1214.6 188.047 1214.5 188.154C1214.4 188.263 1214.35 188.416 1214.35 188.609C1214.35 188.742 1214.37 188.862 1214.42 188.969C1214.47 189.079 1214.56 189.231 1214.69 189.424L1214.78 189.57C1214.94 189.828 1215.05 190.04 1215.12 190.205C1215.19 190.373 1215.22 190.538 1215.22 190.703C1215.22 190.916 1215.16 191.107 1215.05 191.278C1214.94 191.446 1214.78 191.576 1214.57 191.673C1214.36 191.77 1214.12 191.819 1213.85 191.819C1213.5 191.819 1213.22 191.752 1212.99 191.622C1212.76 191.484 1212.64 191.267 1212.64 190.969C1212.64 190.828 1212.68 190.703 1212.76 190.6C1212.82 190.497 1212.92 190.446 1213.05 190.446C1213.17 190.446 1213.27 190.501 1213.35 190.609C1213.43 190.718 1213.47 190.853 1213.47 191.012C1213.47 191.122 1213.45 191.218 1213.43 191.304C1213.4 191.39 1213.37 191.493 1213.32 191.613Z" fill="#D9D9D9"/>
<path d="M1217.94 191.098C1217.93 191.145 1217.93 191.192 1217.93 191.244C1217.93 191.319 1217.94 191.373 1217.98 191.407C1218.02 191.441 1218.07 191.459 1218.14 191.459C1218.25 191.459 1218.35 191.407 1218.45 191.304C1218.55 191.201 1218.64 191.044 1218.72 190.832L1218.83 190.532H1218.97L1218.82 190.961C1218.63 191.534 1218.27 191.819 1217.73 191.819C1217.48 191.819 1217.29 191.755 1217.16 191.63C1217.04 191.499 1216.98 191.321 1216.98 191.098C1216.98 190.956 1217 190.81 1217.05 190.66L1217.79 188.094H1217.13L1217.16 187.948H1217.83L1218.14 186.866C1218.55 186.862 1218.91 186.828 1219.2 186.763L1218.85 187.948H1219.68L1219.66 188.094H1218.81L1217.94 191.098Z" fill="#D9D9D9"/>
<path d="M1223.84 190.531H1223.97L1223.79 191.064C1223.69 191.338 1223.56 191.534 1223.39 191.647C1223.22 191.761 1223.03 191.819 1222.83 191.819C1222.58 191.819 1222.4 191.744 1222.29 191.596C1222.22 191.506 1222.19 191.381 1222.19 191.227C1222.19 191.102 1222.21 190.958 1222.26 190.798C1222.09 191.158 1221.91 191.42 1221.71 191.579C1221.51 191.737 1221.28 191.819 1221.04 191.819C1220.77 191.819 1220.57 191.742 1220.43 191.587C1220.29 191.428 1220.22 191.205 1220.22 190.918C1220.22 190.489 1220.34 190.034 1220.57 189.553C1220.8 189.068 1221.09 188.66 1221.45 188.334C1221.8 188.008 1222.15 187.845 1222.49 187.845C1222.62 187.845 1222.72 187.886 1222.81 187.965C1222.89 188.04 1222.93 188.158 1222.95 188.317L1223.06 187.956C1223.44 187.952 1223.79 187.914 1224.11 187.845L1223.15 191.098C1223.13 191.179 1223.12 191.248 1223.12 191.304C1223.12 191.407 1223.16 191.458 1223.25 191.458C1223.42 191.458 1223.57 191.267 1223.71 190.883L1223.84 190.531ZM1222.87 188.6C1222.87 188.572 1222.87 188.536 1222.87 188.489C1222.87 188.368 1222.85 188.278 1222.81 188.214C1222.77 188.152 1222.71 188.12 1222.63 188.12C1222.46 188.12 1222.27 188.27 1222.06 188.566C1221.85 188.858 1221.68 189.227 1221.53 189.673C1221.38 190.119 1221.3 190.553 1221.3 190.969C1221.3 191.13 1221.32 191.248 1221.35 191.321C1221.38 191.39 1221.44 191.424 1221.51 191.424C1221.61 191.424 1221.73 191.351 1221.85 191.201C1221.98 191.053 1222.11 190.84 1222.24 190.566C1222.37 190.287 1222.48 189.954 1222.58 189.57L1222.55 189.742L1222.87 188.6Z" fill="#D9D9D9"/>
<path d="M1229.28 190.531L1229.09 191.064C1228.92 191.568 1228.6 191.819 1228.12 191.819C1227.85 191.819 1227.65 191.737 1227.54 191.579C1227.47 191.488 1227.44 191.373 1227.44 191.235C1227.44 191.081 1227.48 190.89 1227.56 190.66L1228.22 188.695C1228.26 188.564 1228.28 188.459 1228.28 188.377C1228.28 188.27 1228.23 188.214 1228.14 188.214C1228 188.214 1227.82 188.364 1227.62 188.66C1227.41 188.952 1227.2 189.343 1226.99 189.828C1226.78 190.308 1226.59 190.819 1226.44 191.355L1226.35 191.716H1225.32L1226.2 188.566C1226.23 188.48 1226.24 188.403 1226.24 188.334C1226.24 188.248 1226.2 188.205 1226.12 188.205C1226.03 188.205 1225.95 188.248 1225.87 188.334C1225.8 188.416 1225.73 188.564 1225.66 188.78L1225.52 189.15H1225.38L1225.57 188.6C1225.66 188.332 1225.79 188.141 1225.94 188.025C1226.1 187.905 1226.29 187.845 1226.52 187.845C1226.93 187.845 1227.14 188.047 1227.14 188.446C1227.14 188.583 1227.12 188.725 1227.08 188.866L1226.86 189.75C1227.06 189.253 1227.25 188.866 1227.43 188.592C1227.61 188.317 1227.8 188.126 1227.99 188.017C1228.17 187.903 1228.38 187.845 1228.6 187.845C1229.04 187.845 1229.26 188.04 1229.26 188.429C1229.26 188.579 1229.23 188.75 1229.17 188.944L1228.46 191.098C1228.43 191.184 1228.41 191.252 1228.41 191.304C1228.41 191.407 1228.46 191.458 1228.55 191.458C1228.62 191.458 1228.7 191.42 1228.77 191.338C1228.85 191.252 1228.93 191.102 1229.01 190.883L1229.14 190.531H1229.28Z" fill="#D9D9D9"/>
<path d="M1231.7 191.098C1231.68 191.145 1231.68 191.192 1231.68 191.244C1231.68 191.319 1231.7 191.373 1231.73 191.407C1231.77 191.441 1231.83 191.459 1231.9 191.459C1232 191.459 1232.11 191.407 1232.2 191.304C1232.31 191.201 1232.4 191.044 1232.47 190.832L1232.58 190.532H1232.72L1232.57 190.961C1232.38 191.534 1232.02 191.819 1231.48 191.819C1231.23 191.819 1231.04 191.755 1230.92 191.63C1230.8 191.499 1230.74 191.321 1230.74 191.098C1230.74 190.956 1230.76 190.81 1230.8 190.66L1231.54 188.094H1230.88L1230.92 187.948H1231.59L1231.9 186.866C1232.31 186.862 1232.66 186.828 1232.95 186.763L1232.61 187.948H1233.43L1233.41 188.094H1232.56L1231.7 191.098Z" fill="#D9D9D9"/>
<mask id="mask0_226_1437" style="mask-type:luminance" maskUnits="userSpaceOnUse" x="1183" y="103" width="63" height="56">
<path d="M1183.55 103.785H1245.35V158.581H1183.55V103.785Z" fill="white"/>
</mask>
<g mask="url(#mask0_226_1437)">
<path fill-rule="evenodd" clip-rule="evenodd" d="M1208.88 126.994L1211.67 128.9C1211.81 128.638 1212.09 128.462 1212.41 128.462H1216.65C1217.11 128.462 1217.49 128.84 1217.49 129.303V133.556C1217.49 134.018 1217.11 134.395 1216.65 134.395H1214.59L1212.8 137.925H1213.16C1213.76 137.925 1214.24 138.412 1214.24 139.009V141.372L1220.24 141.47V141.322C1220.24 140.97 1220.53 140.681 1220.88 140.681H1224.12C1224.47 140.681 1224.76 140.97 1224.76 141.322V144.562C1224.76 144.916 1224.47 145.204 1224.12 145.204H1220.88C1220.53 145.204 1220.24 144.916 1220.24 144.562V143.067L1214.24 142.97V144.477C1214.24 145.073 1213.76 145.56 1213.16 145.56H1207.7C1207.11 145.56 1206.62 145.073 1206.62 144.477V139.009C1206.62 138.415 1207.11 137.927 1207.7 137.927H1211.02L1212.8 134.398H1212.41C1211.94 134.398 1211.56 134.02 1211.56 133.556V130.767L1208.72 128.821C1208.49 129.239 1208.05 129.524 1207.54 129.524H1200.77C1200.03 129.524 1199.43 128.919 1199.43 128.181V121.398C1199.43 120.66 1200.03 120.057 1200.77 120.057H1207.54C1208.28 120.057 1208.88 120.66 1208.88 121.398V126.994ZM1194.03 118.641L1190.32 123.317V127.924C1190.32 128.149 1190.25 128.355 1190.12 128.52L1192.78 131.711H1197.45C1198.19 131.711 1198.79 132.314 1198.79 133.054V139.835C1198.79 140.575 1198.19 141.178 1197.45 141.178H1190.68C1189.94 141.178 1189.34 140.575 1189.34 139.835V133.054C1189.34 132.314 1189.94 131.711 1190.68 131.711H1190.7L1188.34 128.885H1184.51C1183.98 128.885 1183.55 128.454 1183.55 127.926V123.065C1183.55 122.535 1183.98 122.104 1184.51 122.104H1189.25L1192.03 118.596C1191.45 118.443 1191.03 117.92 1191.03 117.3V110.517C1191.03 109.778 1191.63 109.173 1192.37 109.173H1199.14C1199.88 109.173 1200.48 109.778 1200.48 110.517V117.297C1200.48 118.038 1199.88 118.641 1199.14 118.641H1194.03ZM1227.31 152.06L1231.46 147.461L1231.46 147.408V139.614C1231.46 139.198 1231.63 138.82 1231.9 138.541L1229.71 136.003C1229.64 136.016 1229.56 136.02 1229.48 136.02H1222.71C1221.97 136.02 1221.37 135.417 1221.37 134.677V127.896C1221.37 127.155 1221.97 126.555 1222.71 126.555H1229.48C1230.22 126.555 1230.83 127.158 1230.83 127.896V134.677C1230.83 134.732 1230.82 134.786 1230.81 134.84L1233.6 138.071H1240.78C1241.63 138.071 1242.32 138.767 1242.32 139.614V147.406C1242.32 148.253 1241.63 148.948 1240.78 148.948H1233C1232.78 148.948 1232.57 148.901 1232.39 148.818L1228.57 153.047V157.639C1228.57 158.146 1228.15 158.56 1227.65 158.56H1223C1222.49 158.56 1222.07 158.146 1222.07 157.639V152.981C1222.07 152.474 1222.49 152.06 1223 152.06H1227.31ZM1240.15 125.636L1237.63 120.757H1234.27C1233.74 120.757 1233.3 120.317 1233.3 119.776V114.819C1233.3 114.278 1233.74 113.838 1234.27 113.838H1239.23C1239.76 113.838 1240.2 114.278 1240.2 114.819V119.776C1240.2 120.252 1239.86 120.651 1239.41 120.739L1241.95 125.636H1244.38C1244.92 125.636 1245.36 126.076 1245.36 126.617V131.574C1245.36 132.114 1244.92 132.554 1244.38 132.554H1239.43C1238.89 132.554 1238.45 132.114 1238.45 131.574V126.617C1238.45 126.076 1238.89 125.636 1239.43 125.636H1240.15ZM1208.74 103.804H1215.51C1216.25 103.804 1216.85 104.407 1216.85 105.146V111.929C1216.85 112.669 1216.25 113.272 1215.51 113.272H1214.25L1215.66 116.735H1219.19C1219.25 116.735 1219.31 116.742 1219.37 116.752L1221.51 114.95C1221.25 114.705 1221.09 114.36 1221.09 113.978V107.195C1221.09 106.457 1221.69 105.852 1222.43 105.852H1229.2C1229.94 105.852 1230.54 106.457 1230.54 107.195V113.978C1230.54 114.716 1229.94 115.319 1229.2 115.319H1223.54L1220.17 118.173V122.675C1220.17 123.214 1219.73 123.656 1219.19 123.656H1214.24C1213.7 123.656 1213.26 123.214 1213.26 122.675V117.716C1213.26 117.276 1213.55 116.9 1213.95 116.778L1212.52 113.272H1208.74C1208 113.272 1207.4 112.667 1207.4 111.929V105.146C1207.4 104.407 1208 103.804 1208.74 103.804Z" fill="#248FEF"/>
</g>
</svg>
