<svg width="1363" height="163" viewBox="0 0 1363 163" fill="none" xmlns="http://www.w3.org/2000/svg">
<path d="M0 15C0 6.71573 6.71573 0 15 0H37V163H15C6.71573 163 0 156.284 0 148V15Z" fill="#424242"/>
<rect width="1097" height="163" transform="translate(37)" fill="#F0F0F0"/>
<path d="M101.906 53.9219L94.3945 51.2383V48.0859L104.602 52.375V54.6367L101.906 53.9219ZM94.3945 56.1719L101.918 53.4297L104.602 52.7852V55.0352L94.3945 59.3242V56.1719ZM114.504 43.9375H117.48L121.863 56.4648L126.246 43.9375H129.223L123.059 61H120.668L114.504 43.9375ZM112.898 43.9375H115.863L116.402 56.1484V61H112.898V43.9375ZM127.863 43.9375H130.84V61H127.324V56.1484L127.863 43.9375ZM139.547 61.2344C138.562 61.2344 137.68 61.0781 136.898 60.7656C136.117 60.4453 135.453 60.0039 134.906 59.4414C134.367 58.8789 133.953 58.2266 133.664 57.4844C133.375 56.7344 133.23 55.9375 133.23 55.0938V54.625C133.23 53.6641 133.367 52.7852 133.641 51.9883C133.914 51.1914 134.305 50.5 134.812 49.9141C135.328 49.3281 135.953 48.8789 136.688 48.5664C137.422 48.2461 138.25 48.0859 139.172 48.0859C140.07 48.0859 140.867 48.2344 141.562 48.5312C142.258 48.8281 142.84 49.25 143.309 49.7969C143.785 50.3438 144.145 51 144.387 51.7656C144.629 52.5234 144.75 53.3672 144.75 54.2969V55.7031H134.672V53.4531H141.434V53.1953C141.434 52.7266 141.348 52.3086 141.176 51.9414C141.012 51.5664 140.762 51.2695 140.426 51.0508C140.09 50.832 139.66 50.7227 139.137 50.7227C138.691 50.7227 138.309 50.8203 137.988 51.0156C137.668 51.2109 137.406 51.4844 137.203 51.8359C137.008 52.1875 136.859 52.6016 136.758 53.0781C136.664 53.5469 136.617 54.0625 136.617 54.625V55.0938C136.617 55.6016 136.688 56.0703 136.828 56.5C136.977 56.9297 137.184 57.3008 137.449 57.6133C137.723 57.9258 138.051 58.168 138.434 58.3398C138.824 58.5117 139.266 58.5977 139.758 58.5977C140.367 58.5977 140.934 58.4805 141.457 58.2461C141.988 58.0039 142.445 57.6406 142.828 57.1562L144.469 58.9375C144.203 59.3203 143.84 59.6875 143.379 60.0391C142.926 60.3906 142.379 60.6797 141.738 60.9062C141.098 61.125 140.367 61.2344 139.547 61.2344ZM154.16 58.2344V43H157.559V61H154.5L154.16 58.2344ZM146.145 54.8125V54.5664C146.145 53.5977 146.254 52.7188 146.473 51.9297C146.691 51.1328 147.012 50.4492 147.434 49.8789C147.855 49.3086 148.375 48.8672 148.992 48.5547C149.609 48.2422 150.312 48.0859 151.102 48.0859C151.844 48.0859 152.492 48.2422 153.047 48.5547C153.609 48.8672 154.086 49.3125 154.477 49.8906C154.875 50.4609 155.195 51.1367 155.438 51.918C155.68 52.6914 155.855 53.5391 155.965 54.4609V55C155.855 55.8828 155.68 56.7031 155.438 57.4609C155.195 58.2188 154.875 58.8828 154.477 59.4531C154.086 60.0156 153.609 60.4531 153.047 60.7656C152.484 61.0781 151.828 61.2344 151.078 61.2344C150.289 61.2344 149.586 61.0742 148.969 60.7539C148.359 60.4336 147.844 59.9844 147.422 59.4062C147.008 58.8281 146.691 58.1484 146.473 57.3672C146.254 56.5859 146.145 55.7344 146.145 54.8125ZM149.52 54.5664V54.8125C149.52 55.3359 149.559 55.8242 149.637 56.2773C149.723 56.7305 149.859 57.1328 150.047 57.4844C150.242 57.8281 150.492 58.0977 150.797 58.293C151.109 58.4805 151.488 58.5742 151.934 58.5742C152.512 58.5742 152.988 58.4453 153.363 58.1875C153.738 57.9219 154.023 57.5586 154.219 57.0977C154.422 56.6367 154.539 56.1055 154.57 55.5039V53.9688C154.547 53.4766 154.477 53.0352 154.359 52.6445C154.25 52.2461 154.086 51.9062 153.867 51.625C153.656 51.3438 153.391 51.125 153.07 50.9688C152.758 50.8125 152.387 50.7344 151.957 50.7344C151.52 50.7344 151.145 50.8359 150.832 51.0391C150.52 51.2344 150.266 51.5039 150.07 51.8477C149.883 52.1914 149.742 52.5977 149.648 53.0664C149.562 53.5273 149.52 54.0273 149.52 54.5664ZM163.758 48.3203V61H160.371V48.3203H163.758ZM160.16 45.0156C160.16 44.5234 160.332 44.1172 160.676 43.7969C161.02 43.4766 161.48 43.3164 162.059 43.3164C162.629 43.3164 163.086 43.4766 163.43 43.7969C163.781 44.1172 163.957 44.5234 163.957 45.0156C163.957 45.5078 163.781 45.9141 163.43 46.2344C163.086 46.5547 162.629 46.7148 162.059 46.7148C161.48 46.7148 161.02 46.5547 160.676 46.2344C160.332 45.9141 160.16 45.5078 160.16 45.0156ZM182.625 55.3398H186.129C186.059 56.4883 185.742 57.5078 185.18 58.3984C184.625 59.2891 183.848 59.9844 182.848 60.4844C181.855 60.9844 180.66 61.2344 179.262 61.2344C178.168 61.2344 177.188 61.0469 176.32 60.6719C175.453 60.2891 174.711 59.7422 174.094 59.0312C173.484 58.3203 173.02 57.4609 172.699 56.4531C172.379 55.4453 172.219 54.3164 172.219 53.0664V51.8828C172.219 50.6328 172.383 49.5039 172.711 48.4961C173.047 47.4805 173.523 46.6172 174.141 45.9062C174.766 45.1953 175.512 44.6484 176.379 44.2656C177.246 43.8828 178.215 43.6914 179.285 43.6914C180.707 43.6914 181.906 43.9492 182.883 44.4648C183.867 44.9805 184.629 45.6914 185.168 46.5977C185.715 47.5039 186.043 48.5352 186.152 49.6914H182.637C182.598 49.0039 182.461 48.4219 182.227 47.9453C181.992 47.4609 181.637 47.0977 181.16 46.8555C180.691 46.6055 180.066 46.4805 179.285 46.4805C178.699 46.4805 178.188 46.5898 177.75 46.8086C177.312 47.0273 176.945 47.3594 176.648 47.8047C176.352 48.25 176.129 48.8125 175.98 49.4922C175.84 50.1641 175.77 50.9531 175.77 51.8594V53.0664C175.77 53.9492 175.836 54.7266 175.969 55.3984C176.102 56.0625 176.305 56.625 176.578 57.0859C176.859 57.5391 177.219 57.8828 177.656 58.1172C178.102 58.3438 178.637 58.457 179.262 58.457C179.996 58.457 180.602 58.3398 181.078 58.1055C181.555 57.8711 181.918 57.5234 182.168 57.0625C182.426 56.6016 182.578 56.0273 182.625 55.3398ZM187.688 54.7891V54.543C187.688 53.6133 187.82 52.7578 188.086 51.9766C188.352 51.1875 188.738 50.5039 189.246 49.9258C189.754 49.3477 190.379 48.8984 191.121 48.5781C191.863 48.25 192.715 48.0859 193.676 48.0859C194.637 48.0859 195.492 48.25 196.242 48.5781C196.992 48.8984 197.621 49.3477 198.129 49.9258C198.645 50.5039 199.035 51.1875 199.301 51.9766C199.566 52.7578 199.699 53.6133 199.699 54.543V54.7891C199.699 55.7109 199.566 56.5664 199.301 57.3555C199.035 58.1367 198.645 58.8203 198.129 59.4062C197.621 59.9844 196.996 60.4336 196.254 60.7539C195.512 61.0742 194.66 61.2344 193.699 61.2344C192.738 61.2344 191.883 61.0742 191.133 60.7539C190.391 60.4336 189.762 59.9844 189.246 59.4062C188.738 58.8203 188.352 58.1367 188.086 57.3555C187.82 56.5664 187.688 55.7109 187.688 54.7891ZM191.062 54.543V54.7891C191.062 55.3203 191.109 55.8164 191.203 56.2773C191.297 56.7383 191.445 57.1445 191.648 57.4961C191.859 57.8398 192.133 58.1094 192.469 58.3047C192.805 58.5 193.215 58.5977 193.699 58.5977C194.168 58.5977 194.57 58.5 194.906 58.3047C195.242 58.1094 195.512 57.8398 195.715 57.4961C195.918 57.1445 196.066 56.7383 196.16 56.2773C196.262 55.8164 196.312 55.3203 196.312 54.7891V54.543C196.312 54.0273 196.262 53.543 196.16 53.0898C196.066 52.6289 195.914 52.2227 195.703 51.8711C195.5 51.5117 195.23 51.2305 194.895 51.0273C194.559 50.8242 194.152 50.7227 193.676 50.7227C193.199 50.7227 192.793 50.8242 192.457 51.0273C192.129 51.2305 191.859 51.5117 191.648 51.8711C191.445 52.2227 191.297 52.6289 191.203 53.0898C191.109 53.543 191.062 54.0273 191.062 54.543ZM205.078 51.0273V61H201.703V48.3203H204.867L205.078 51.0273ZM204.586 54.2148H203.672C203.672 53.2773 203.793 52.4336 204.035 51.6836C204.277 50.9258 204.617 50.2812 205.055 49.75C205.492 49.2109 206.012 48.8008 206.613 48.5195C207.223 48.2305 207.902 48.0859 208.652 48.0859C209.246 48.0859 209.789 48.1719 210.281 48.3438C210.773 48.5156 211.195 48.7891 211.547 49.1641C211.906 49.5391 212.18 50.0352 212.367 50.6523C212.562 51.2695 212.66 52.0234 212.66 52.9141V61H209.262V52.9023C209.262 52.3398 209.184 51.9023 209.027 51.5898C208.871 51.2773 208.641 51.0586 208.336 50.9336C208.039 50.8008 207.672 50.7344 207.234 50.7344C206.781 50.7344 206.387 50.8242 206.051 51.0039C205.723 51.1836 205.449 51.4336 205.23 51.7539C205.02 52.0664 204.859 52.4336 204.75 52.8555C204.641 53.2773 204.586 53.7305 204.586 54.2148ZM218.531 51.0273V61H215.156V48.3203H218.32L218.531 51.0273ZM218.039 54.2148H217.125C217.125 53.2773 217.246 52.4336 217.488 51.6836C217.73 50.9258 218.07 50.2812 218.508 49.75C218.945 49.2109 219.465 48.8008 220.066 48.5195C220.676 48.2305 221.355 48.0859 222.105 48.0859C222.699 48.0859 223.242 48.1719 223.734 48.3438C224.227 48.5156 224.648 48.7891 225 49.1641C225.359 49.5391 225.633 50.0352 225.82 50.6523C226.016 51.2695 226.113 52.0234 226.113 52.9141V61H222.715V52.9023C222.715 52.3398 222.637 51.9023 222.48 51.5898C222.324 51.2773 222.094 51.0586 221.789 50.9336C221.492 50.8008 221.125 50.7344 220.688 50.7344C220.234 50.7344 219.84 50.8242 219.504 51.0039C219.176 51.1836 218.902 51.4336 218.684 51.7539C218.473 52.0664 218.312 52.4336 218.203 52.8555C218.094 53.2773 218.039 53.7305 218.039 54.2148ZM234.516 61.2344C233.531 61.2344 232.648 61.0781 231.867 60.7656C231.086 60.4453 230.422 60.0039 229.875 59.4414C229.336 58.8789 228.922 58.2266 228.633 57.4844C228.344 56.7344 228.199 55.9375 228.199 55.0938V54.625C228.199 53.6641 228.336 52.7852 228.609 51.9883C228.883 51.1914 229.273 50.5 229.781 49.9141C230.297 49.3281 230.922 48.8789 231.656 48.5664C232.391 48.2461 233.219 48.0859 234.141 48.0859C235.039 48.0859 235.836 48.2344 236.531 48.5312C237.227 48.8281 237.809 49.25 238.277 49.7969C238.754 50.3438 239.113 51 239.355 51.7656C239.598 52.5234 239.719 53.3672 239.719 54.2969V55.7031H229.641V53.4531H236.402V53.1953C236.402 52.7266 236.316 52.3086 236.145 51.9414C235.98 51.5664 235.73 51.2695 235.395 51.0508C235.059 50.832 234.629 50.7227 234.105 50.7227C233.66 50.7227 233.277 50.8203 232.957 51.0156C232.637 51.2109 232.375 51.4844 232.172 51.8359C231.977 52.1875 231.828 52.6016 231.727 53.0781C231.633 53.5469 231.586 54.0625 231.586 54.625V55.0938C231.586 55.6016 231.656 56.0703 231.797 56.5C231.945 56.9297 232.152 57.3008 232.418 57.6133C232.691 57.9258 233.02 58.168 233.402 58.3398C233.793 58.5117 234.234 58.5977 234.727 58.5977C235.336 58.5977 235.902 58.4805 236.426 58.2461C236.957 58.0039 237.414 57.6406 237.797 57.1562L239.438 58.9375C239.172 59.3203 238.809 59.6875 238.348 60.0391C237.895 60.3906 237.348 60.6797 236.707 60.9062C236.066 61.125 235.336 61.2344 234.516 61.2344ZM246.879 58.5977C247.293 58.5977 247.66 58.5195 247.98 58.3633C248.301 58.1992 248.551 57.9727 248.73 57.6836C248.918 57.3867 249.016 57.0391 249.023 56.6406H252.199C252.191 57.5312 251.953 58.3242 251.484 59.0195C251.016 59.707 250.387 60.25 249.598 60.6484C248.809 61.0391 247.926 61.2344 246.949 61.2344C245.965 61.2344 245.105 61.0703 244.371 60.7422C243.645 60.4141 243.039 59.9609 242.555 59.3828C242.07 58.7969 241.707 58.1172 241.465 57.3438C241.223 56.5625 241.102 55.7266 241.102 54.8359V54.4961C241.102 53.5977 241.223 52.7617 241.465 51.9883C241.707 51.207 242.07 50.5273 242.555 49.9492C243.039 49.3633 243.645 48.9062 244.371 48.5781C245.098 48.25 245.949 48.0859 246.926 48.0859C247.965 48.0859 248.875 48.2852 249.656 48.6836C250.445 49.082 251.062 49.6523 251.508 50.3945C251.961 51.1289 252.191 52 252.199 53.0078H249.023C249.016 52.5859 248.926 52.2031 248.754 51.8594C248.59 51.5156 248.348 51.2422 248.027 51.0391C247.715 50.8281 247.328 50.7227 246.867 50.7227C246.375 50.7227 245.973 50.8281 245.66 51.0391C245.348 51.2422 245.105 51.5234 244.934 51.8828C244.762 52.2344 244.641 52.6367 244.57 53.0898C244.508 53.5352 244.477 54.0039 244.477 54.4961V54.8359C244.477 55.3281 244.508 55.8008 244.57 56.2539C244.633 56.707 244.75 57.1094 244.922 57.4609C245.102 57.8125 245.348 58.0898 245.66 58.293C245.973 58.4961 246.379 58.5977 246.879 58.5977ZM260.367 48.3203V50.7109H252.984V48.3203H260.367ZM254.812 45.1914H258.188V57.1797C258.188 57.5469 258.234 57.8281 258.328 58.0234C258.43 58.2188 258.578 58.3555 258.773 58.4336C258.969 58.5039 259.215 58.5391 259.512 58.5391C259.723 58.5391 259.91 58.5312 260.074 58.5156C260.246 58.4922 260.391 58.4688 260.508 58.4453L260.52 60.9297C260.23 61.0234 259.918 61.0977 259.582 61.1523C259.246 61.207 258.875 61.2344 258.469 61.2344C257.727 61.2344 257.078 61.1133 256.523 60.8711C255.977 60.6211 255.555 60.2227 255.258 59.6758C254.961 59.1289 254.812 58.4102 254.812 57.5195V45.1914Z" fill="#888888"/>
<path d="M106.688 119H99.1172L99.1641 112.672H106.688C108.25 112.672 109.57 112.297 110.648 111.547C111.742 110.797 112.57 109.68 113.133 108.195C113.711 106.695 114 104.852 114 102.664V101.188C114 99.5469 113.836 98.1094 113.508 96.875C113.195 95.625 112.727 94.5859 112.102 93.7578C111.477 92.9141 110.695 92.2812 109.758 91.8594C108.836 91.4375 107.773 91.2266 106.57 91.2266H98.9766V84.875H106.57C108.883 84.875 111 85.2734 112.922 86.0703C114.859 86.8516 116.531 87.9766 117.938 89.4453C119.359 90.8984 120.453 92.625 121.219 94.625C122 96.6094 122.391 98.8125 122.391 101.234V102.664C122.391 105.07 122 107.273 121.219 109.273C120.453 111.273 119.367 113 117.961 114.453C116.555 115.906 114.891 117.031 112.969 117.828C111.062 118.609 108.969 119 106.688 119ZM103.828 84.875V119H95.6016V84.875H103.828ZM138.586 119.469C136.523 119.469 134.68 119.148 133.055 118.508C131.43 117.852 130.055 116.953 128.93 115.812C127.82 114.672 126.969 113.359 126.375 111.875C125.797 110.391 125.508 108.82 125.508 107.164V106.273C125.508 104.414 125.766 102.695 126.281 101.117C126.797 99.5234 127.562 98.1328 128.578 96.9453C129.594 95.7578 130.867 94.8359 132.398 94.1797C133.93 93.5078 135.711 93.1719 137.742 93.1719C139.539 93.1719 141.148 93.4609 142.57 94.0391C143.992 94.6172 145.195 95.4453 146.18 96.5234C147.18 97.6016 147.938 98.9062 148.453 100.438C148.984 101.969 149.25 103.688 149.25 105.594V108.805H128.531V103.859H141.539V103.25C141.555 102.406 141.406 101.688 141.094 101.094C140.797 100.5 140.359 100.047 139.781 99.7344C139.203 99.4219 138.5 99.2656 137.672 99.2656C136.812 99.2656 136.102 99.4531 135.539 99.8281C134.992 100.203 134.562 100.719 134.25 101.375C133.953 102.016 133.742 102.758 133.617 103.602C133.492 104.445 133.43 105.336 133.43 106.273V107.164C133.43 108.102 133.555 108.953 133.805 109.719C134.07 110.484 134.445 111.141 134.93 111.688C135.43 112.219 136.023 112.633 136.711 112.93C137.414 113.227 138.211 113.375 139.102 113.375C140.18 113.375 141.242 113.172 142.289 112.766C143.336 112.359 144.234 111.688 144.984 110.75L148.57 115.016C148.055 115.75 147.32 116.461 146.367 117.148C145.43 117.836 144.305 118.398 142.992 118.836C141.68 119.258 140.211 119.469 138.586 119.469ZM160.43 99.0078V119H152.531V93.6406H159.938L160.43 99.0078ZM159.469 105.453L157.664 105.5C157.664 103.719 157.875 102.078 158.297 100.578C158.719 99.0781 159.344 97.7734 160.172 96.6641C161 95.5547 162.016 94.6953 163.219 94.0859C164.438 93.4766 165.844 93.1719 167.438 93.1719C168.547 93.1719 169.555 93.3438 170.461 93.6875C171.367 94.0156 172.148 94.5391 172.805 95.2578C173.461 95.9609 173.961 96.8828 174.305 98.0234C174.664 99.1484 174.844 100.5 174.844 102.078V119H166.945V103.086C166.945 102.008 166.82 101.195 166.57 100.648C166.336 100.102 165.992 99.7344 165.539 99.5469C165.086 99.3594 164.531 99.2656 163.875 99.2656C163.188 99.2656 162.57 99.4219 162.023 99.7344C161.477 100.047 161.008 100.484 160.617 101.047C160.242 101.594 159.953 102.242 159.75 102.992C159.562 103.742 159.469 104.562 159.469 105.453ZM173.953 105.453L171.75 105.5C171.75 103.719 171.945 102.078 172.336 100.578C172.742 99.0781 173.344 97.7734 174.141 96.6641C174.953 95.5547 175.961 94.6953 177.164 94.0859C178.367 93.4766 179.766 93.1719 181.359 93.1719C182.516 93.1719 183.578 93.3438 184.547 93.6875C185.516 94.0312 186.352 94.5859 187.055 95.3516C187.758 96.1172 188.305 97.1328 188.695 98.3984C189.086 99.6484 189.281 101.195 189.281 103.039V119H181.359V103.039C181.359 101.992 181.234 101.203 180.984 100.672C180.75 100.125 180.406 99.7578 179.953 99.5703C179.5 99.3672 178.961 99.2656 178.336 99.2656C177.586 99.2656 176.938 99.4219 176.391 99.7344C175.844 100.047 175.383 100.484 175.008 101.047C174.648 101.594 174.383 102.242 174.211 102.992C174.039 103.742 173.953 104.562 173.953 105.453ZM192.82 106.578V106.086C192.82 104.227 193.086 102.516 193.617 100.953C194.148 99.375 194.93 98.0078 195.961 96.8516C196.992 95.6953 198.266 94.7969 199.781 94.1562C201.297 93.5 203.047 93.1719 205.031 93.1719C207.031 93.1719 208.789 93.5 210.305 94.1562C211.836 94.7969 213.117 95.6953 214.148 96.8516C215.18 98.0078 215.961 99.375 216.492 100.953C217.023 102.516 217.289 104.227 217.289 106.086V106.578C217.289 108.422 217.023 110.133 216.492 111.711C215.961 113.273 215.18 114.641 214.148 115.812C213.117 116.969 211.844 117.867 210.328 118.508C208.812 119.148 207.062 119.469 205.078 119.469C203.094 119.469 201.336 119.148 199.805 118.508C198.273 117.867 196.992 116.969 195.961 115.812C194.93 114.641 194.148 113.273 193.617 111.711C193.086 110.133 192.82 108.422 192.82 106.578ZM200.719 106.086V106.578C200.719 107.531 200.789 108.422 200.93 109.25C201.07 110.078 201.305 110.805 201.633 111.43C201.961 112.039 202.406 112.516 202.969 112.859C203.531 113.203 204.234 113.375 205.078 113.375C205.906 113.375 206.594 113.203 207.141 112.859C207.703 112.516 208.148 112.039 208.477 111.43C208.805 110.805 209.039 110.078 209.18 109.25C209.32 108.422 209.391 107.531 209.391 106.578V106.086C209.391 105.164 209.32 104.297 209.18 103.484C209.039 102.656 208.805 101.93 208.477 101.305C208.148 100.664 207.703 100.164 207.141 99.8047C206.578 99.4453 205.875 99.2656 205.031 99.2656C204.203 99.2656 203.508 99.4453 202.945 99.8047C202.398 100.164 201.961 100.664 201.633 101.305C201.305 101.93 201.07 102.656 200.93 103.484C200.789 104.297 200.719 105.164 200.719 106.086Z" fill="black"/>
<path d="M1134 0H1348C1356.28 0 1363 6.71573 1363 15V148C1363 156.284 1356.28 163 1348 163H1134V0Z" fill="#248FEF"/>
<path d="M1280.07 47.5H1216.93L1214.5 49.9286V113.071L1216.93 115.5H1280.07L1282.5 113.071V49.9286L1280.07 47.5ZM1277.64 110.643H1233.93V100.929H1245.1C1246.56 103.843 1249.96 105.786 1253.36 105.786C1258.7 105.786 1263.07 101.414 1263.07 96.0714C1263.07 90.7286 1258.7 86.3571 1253.36 86.3571C1248.01 86.3571 1243.64 90.7286 1243.64 96.0714H1229.07V110.643H1219.36V52.3571H1229.07V63.5286C1226.16 64.9857 1224.21 68.3857 1224.21 71.7857C1224.21 77.1286 1228.59 81.5 1233.93 81.5C1239.27 81.5 1243.64 77.1286 1243.64 71.7857H1253.36C1253.36 77.1286 1257.73 81.5 1263.07 81.5C1268.41 81.5 1272.79 77.1286 1272.79 71.7857C1272.79 66.4429 1268.41 62.0714 1263.07 62.0714C1259.67 62.0714 1256.27 64.0143 1254.81 66.9286H1242.19C1240.73 64.0143 1237.33 62.0714 1233.93 62.0714V52.3571H1277.64V110.643ZM1248.5 96.0714C1248.5 93.1571 1250.44 91.2143 1253.36 91.2143C1256.27 91.2143 1258.21 93.1571 1258.21 96.0714C1258.21 98.9857 1256.27 100.929 1253.36 100.929C1250.44 100.929 1248.5 98.9857 1248.5 96.0714ZM1233.93 66.9286C1236.84 66.9286 1238.79 68.8714 1238.79 71.7857C1238.79 74.7 1236.84 76.6429 1233.93 76.6429C1231.01 76.6429 1229.07 74.7 1229.07 71.7857C1229.07 68.8714 1231.01 66.9286 1233.93 66.9286ZM1263.07 66.9286C1265.99 66.9286 1267.93 68.8714 1267.93 71.7857C1267.93 74.7 1265.99 76.6429 1263.07 76.6429C1260.16 76.6429 1258.21 74.7 1258.21 71.7857C1258.21 68.8714 1260.16 66.9286 1263.07 66.9286Z" fill="white"/>
</svg>
