<svg xmlns="http://www.w3.org/2000/svg" viewBox="0 0 24 24" width="24" height="24">
  <path fill="#4285F4" d="M12 10.5v3h7.5c-.3 1.5-1.2 2.7-2.5 3.6L21 21c2.7-2.5 4.3-6.1 4.3-10.5 0-1-.1-2-.3-3H12z" transform="translate(-6 -6)"/>
  <path fill="#34A853" d="M12 24c3.2 0 5.9-1 7.8-2.9l-3.8-3c-1.1.7-2.4 1.2-4 1.2-3.1 0-5.7-2.1-6.7-4.9H1v3.1C2.9 21.2 7.1 24 12 24z" transform="translate(-6 -6)"/>
  <path fill="#FBBC05" d="M5.3 14.5c-.2-.7-.4-1.5-.4-2.2 0-.8.1-1.5.4-2.2V7H1.1c-.7 1.4-1.1 3-1.1 4.6s.4 3.2 1.1 4.6l4.2-1.7z" transform="translate(-6 -6)"/>
  <path fill="#EA4335" d="M12 5.4c1.7 0 3.3.6 4.6 1.7L20 3.7C17.9 1.4 15.1 0 12 0 7.1 0 2.9 2.8 1 6.5l4.2 3.3c.9-2.9 3.6-4.9 6.8-4.9z" transform="translate(-6 -6)"/>
</svg> 